<svg width="1361" height="150" viewBox="0 0 1361 150" fill="none" xmlns="http://www.w3.org/2000/svg">
<mask id="mask0_1246_91813" style="mask-type:luminance" maskUnits="userSpaceOnUse" x="0" y="0" width="1361" height="150">
<path d="M0.691406 0H1360.64V149.339H0.691406V0Z" fill="white"/>
</mask>
<g mask="url(#mask0_1246_91813)">
<path d="M0.691406 0H1360.64V149.339H0.691406V0Z" fill="white"/>
<path d="M0.691406 0H1360.64V149.339H0.691406V0Z" fill="#F2EBFB"/>
</g>
<mask id="mask1_1246_91813" style="mask-type:luminance" maskUnits="userSpaceOnUse" x="97" y="92" width="124" height="52">
<path d="M97.7539 92.1611H220.78V143.125H97.7539V92.1611Z" fill="white"/>
</mask>
<g mask="url(#mask1_1246_91813)">
<path d="M97.7539 92.1611H220.78V143.125H97.7539V92.1611Z" fill="#272C3F"/>
</g>
<path d="M108.441 92.2139H670.634V143.287H108.441V92.2139Z" fill="#FF416C"/>
<path d="M120.535 105.861H126.035V125.195H137.993V129.695H120.535V105.861Z" fill="white"/>
<path d="M159.199 120.611C159.199 120.684 159.163 121.153 159.095 122.028H145.241C145.491 123.169 146.079 124.07 147.012 124.736C147.939 125.393 149.095 125.715 150.47 125.715C151.428 125.715 152.272 125.58 153.012 125.299C153.746 125.007 154.434 124.559 155.074 123.945L157.908 127.007C156.168 128.981 153.647 129.965 150.345 129.965C148.272 129.965 146.439 129.564 144.845 128.757C143.262 127.955 142.038 126.835 141.178 125.403C140.314 123.976 139.887 122.351 139.887 120.528C139.887 118.736 140.309 117.127 141.158 115.695C142.017 114.252 143.189 113.127 144.678 112.32C146.163 111.518 147.824 111.111 149.658 111.111C151.449 111.111 153.064 111.502 154.512 112.278C155.97 113.044 157.116 114.148 157.949 115.59C158.783 117.023 159.199 118.695 159.199 120.611ZM149.699 115.132C148.491 115.132 147.475 115.476 146.658 116.153C145.85 116.835 145.355 117.768 145.178 118.945H154.199C154.001 117.778 153.496 116.856 152.678 116.174C151.871 115.481 150.876 115.132 149.699 115.132Z" fill="white"/>
<path d="M175.094 128.82C174.563 129.195 173.917 129.482 173.156 129.674C172.406 129.867 171.604 129.966 170.76 129.966C168.578 129.966 166.891 129.414 165.698 128.299C164.516 127.19 163.927 125.56 163.927 123.404V115.883H161.094V111.799H163.927V107.32H169.24V111.799H173.802V115.883H169.24V123.32C169.24 124.102 169.432 124.695 169.823 125.112C170.224 125.529 170.786 125.737 171.51 125.737C172.354 125.737 173.073 125.518 173.656 125.07L175.094 128.82Z" fill="white"/>
<path d="M177.84 105.861H182.361L181.986 115.528H178.173L177.84 105.861Z" fill="white"/>
<path d="M193.151 129.965C191.635 129.965 190.151 129.778 188.693 129.403C187.245 129.028 186.094 128.559 185.234 127.986L187.005 124.174C187.807 124.705 188.786 125.132 189.943 125.465C191.109 125.788 192.245 125.945 193.359 125.945C195.609 125.945 196.734 125.393 196.734 124.278C196.734 123.768 196.427 123.398 195.818 123.174C195.203 122.939 194.26 122.736 192.984 122.57C191.484 122.351 190.245 122.09 189.276 121.799C188.302 121.507 187.453 120.986 186.734 120.236C186.026 119.486 185.672 118.419 185.672 117.028C185.672 115.877 186.005 114.856 186.672 113.965C187.339 113.064 188.307 112.361 189.589 111.861C190.88 111.361 192.401 111.111 194.151 111.111C195.443 111.111 196.724 111.257 198.005 111.549C199.297 111.83 200.359 112.215 201.193 112.715L199.422 116.486C197.807 115.585 196.052 115.132 194.151 115.132C193.01 115.132 192.156 115.294 191.589 115.611C191.016 115.919 190.734 116.32 190.734 116.82C190.734 117.393 191.036 117.794 191.651 118.028C192.276 118.252 193.255 118.465 194.589 118.674C196.089 118.924 197.307 119.189 198.255 119.465C199.214 119.747 200.036 120.257 200.734 121.007C201.443 121.757 201.797 122.809 201.797 124.153C201.797 125.278 201.453 126.288 200.776 127.174C200.094 128.064 199.099 128.752 197.797 129.236C196.49 129.721 194.943 129.965 193.151 129.965Z" fill="white"/>
<path d="M233.738 120.611C233.738 120.684 233.702 121.153 233.634 122.028H219.78C220.03 123.169 220.618 124.07 221.551 124.736C222.478 125.393 223.634 125.715 225.009 125.715C225.967 125.715 226.811 125.58 227.551 125.299C228.285 125.007 228.973 124.559 229.613 123.945L232.447 127.007C230.707 128.981 228.186 129.965 224.884 129.965C222.811 129.965 220.978 129.564 219.384 128.757C217.801 127.955 216.577 126.835 215.717 125.403C214.853 123.976 214.426 122.351 214.426 120.528C214.426 118.736 214.848 117.127 215.697 115.695C216.556 114.252 217.728 113.127 219.217 112.32C220.702 111.518 222.363 111.111 224.197 111.111C225.988 111.111 227.603 111.502 229.051 112.278C230.509 113.044 231.655 114.148 232.488 115.59C233.322 117.023 233.738 118.695 233.738 120.611ZM224.238 115.132C223.03 115.132 222.014 115.476 221.197 116.153C220.389 116.835 219.895 117.768 219.717 118.945H228.738C228.54 117.778 228.035 116.856 227.217 116.174C226.41 115.481 225.415 115.132 224.238 115.132Z" fill="white"/>
<path d="M249.449 129.695L245.449 124.07L241.283 129.695H235.512L242.553 120.466L235.741 111.383H241.699L245.574 116.716L249.553 111.383H255.22L248.408 120.341L255.491 129.695H249.449Z" fill="white"/>
<path d="M269.43 111.111C271.138 111.111 272.685 111.507 274.076 112.299C275.477 113.08 276.576 114.174 277.367 115.59C278.159 117.007 278.555 118.653 278.555 120.528C278.555 122.419 278.159 124.07 277.367 125.486C276.576 126.903 275.477 128.007 274.076 128.799C272.685 129.58 271.138 129.965 269.43 129.965C267.096 129.965 265.263 129.231 263.93 127.757V136.299H258.617V111.382H263.68V113.486C264.997 111.903 266.914 111.111 269.43 111.111ZM268.513 125.611C269.872 125.611 270.992 125.153 271.867 124.236C272.742 123.32 273.18 122.085 273.18 120.528C273.18 118.986 272.742 117.757 271.867 116.84C270.992 115.924 269.872 115.465 268.513 115.465C267.148 115.465 266.034 115.924 265.159 116.84C264.284 117.757 263.846 118.986 263.846 120.528C263.846 122.085 264.284 123.32 265.159 124.236C266.034 125.153 267.148 125.611 268.513 125.611Z" fill="white"/>
<path d="M282.648 104.445H287.961V129.695H282.648V104.445Z" fill="white"/>
<path d="M302.146 129.965C300.214 129.965 298.479 129.564 296.938 128.757C295.406 127.955 294.214 126.835 293.354 125.403C292.49 123.976 292.062 122.351 292.062 120.528C292.062 118.726 292.49 117.106 293.354 115.674C294.214 114.247 295.406 113.127 296.938 112.32C298.479 111.518 300.214 111.111 302.146 111.111C304.073 111.111 305.797 111.518 307.313 112.32C308.839 113.127 310.031 114.247 310.896 115.674C311.755 117.106 312.188 118.726 312.188 120.528C312.188 122.351 311.755 123.976 310.896 125.403C310.031 126.835 308.839 127.955 307.313 128.757C305.797 129.564 304.073 129.965 302.146 129.965ZM302.146 125.611C303.505 125.611 304.625 125.153 305.5 124.236C306.375 123.32 306.813 122.085 306.813 120.528C306.813 118.986 306.375 117.757 305.5 116.84C304.625 115.924 303.505 115.465 302.146 115.465C300.781 115.465 299.656 115.924 298.771 116.84C297.88 117.757 297.438 118.986 297.438 120.528C297.438 122.085 297.88 123.32 298.771 124.236C299.656 125.153 300.781 125.611 302.146 125.611Z" fill="white"/>
<path d="M321.34 113.799C321.975 112.913 322.829 112.247 323.902 111.799C324.986 111.34 326.225 111.111 327.632 111.111V116.007C327.048 115.965 326.652 115.945 326.444 115.945C324.928 115.945 323.741 116.372 322.882 117.215C322.017 118.064 321.59 119.34 321.59 121.049V129.695H316.277V111.382H321.34V113.799Z" fill="white"/>
<path d="M349.43 120.611C349.43 120.684 349.393 121.153 349.326 122.028H335.471C335.721 123.169 336.31 124.07 337.242 124.736C338.169 125.393 339.326 125.715 340.701 125.715C341.659 125.715 342.503 125.58 343.242 125.299C343.977 125.007 344.664 124.559 345.305 123.945L348.138 127.007C346.398 128.981 343.878 129.965 340.576 129.965C338.503 129.965 336.669 129.564 335.076 128.757C333.492 127.955 332.268 126.835 331.409 125.403C330.544 123.976 330.117 122.351 330.117 120.528C330.117 118.736 330.539 117.127 331.388 115.695C332.247 114.252 333.419 113.127 334.909 112.32C336.393 111.518 338.055 111.111 339.888 111.111C341.68 111.111 343.294 111.502 344.742 112.278C346.201 113.044 347.346 114.148 348.18 115.59C349.013 117.023 349.43 118.695 349.43 120.611ZM339.93 115.132C338.721 115.132 337.706 115.476 336.888 116.153C336.081 116.835 335.586 117.768 335.409 118.945H344.43C344.232 117.778 343.727 116.856 342.909 116.174C342.102 115.481 341.107 115.132 339.93 115.132Z" fill="white"/>
<path d="M375.5 128.82C374.969 129.195 374.323 129.482 373.563 129.674C372.813 129.867 372.01 129.966 371.167 129.966C368.984 129.966 367.297 129.414 366.104 128.299C364.922 127.19 364.333 125.56 364.333 123.404V115.883H361.5V111.799H364.333V107.32H369.646V111.799H374.208V115.883H369.646V123.32C369.646 124.102 369.839 124.695 370.229 125.112C370.63 125.529 371.193 125.737 371.917 125.737C372.76 125.737 373.479 125.518 374.063 125.07L375.5 128.82Z" fill="white"/>
<path d="M390.164 111.112C392.424 111.112 394.253 111.794 395.643 113.154C397.044 114.518 397.747 116.539 397.747 119.216V129.695H392.435V120.029C392.435 118.57 392.112 117.487 391.477 116.779C390.852 116.06 389.935 115.695 388.727 115.695C387.393 115.695 386.331 116.112 385.539 116.945C384.747 117.779 384.352 119.008 384.352 120.633V129.695H379.039V104.445H384.352V113.279C385.044 112.586 385.893 112.049 386.893 111.674C387.893 111.299 388.982 111.112 390.164 111.112Z" fill="white"/>
<path d="M421.039 120.611C421.039 120.684 421.003 121.153 420.935 122.028H407.081C407.331 123.169 407.919 124.07 408.852 124.736C409.779 125.393 410.935 125.715 412.31 125.715C413.268 125.715 414.112 125.58 414.852 125.299C415.586 125.007 416.273 124.559 416.914 123.945L419.747 127.007C418.008 128.981 415.487 129.965 412.185 129.965C410.112 129.965 408.279 129.564 406.685 128.757C405.102 127.955 403.878 126.835 403.018 125.403C402.154 123.976 401.727 122.351 401.727 120.528C401.727 118.736 402.148 117.127 402.997 115.695C403.857 114.252 405.029 113.127 406.518 112.32C408.003 111.518 409.664 111.111 411.497 111.111C413.289 111.111 414.904 111.502 416.352 112.278C417.81 113.044 418.956 114.148 419.789 115.59C420.622 117.023 421.039 118.695 421.039 120.611ZM411.539 115.132C410.331 115.132 409.315 115.476 408.497 116.153C407.69 116.835 407.195 117.768 407.018 118.945H416.039C415.841 117.778 415.336 116.856 414.518 116.174C413.711 115.481 412.716 115.132 411.539 115.132Z" fill="white"/>
<path d="M443.155 122.508L440.613 125.029V129.695H435.301V104.445H440.613V118.737L448.363 111.383H454.697L447.072 119.133L455.384 129.695H448.947L443.155 122.508Z" fill="white"/>
<path d="M476.246 120.611C476.246 120.684 476.21 121.153 476.142 122.028H462.288C462.538 123.169 463.126 124.07 464.059 124.736C464.986 125.393 466.142 125.715 467.517 125.715C468.475 125.715 469.319 125.58 470.059 125.299C470.793 125.007 471.48 124.559 472.121 123.945L474.954 127.007C473.215 128.981 470.694 129.965 467.392 129.965C465.319 129.965 463.486 129.564 461.892 128.757C460.309 127.955 459.085 126.835 458.225 125.403C457.361 123.976 456.934 122.351 456.934 120.528C456.934 118.736 457.355 117.127 458.204 115.695C459.064 114.252 460.236 113.127 461.725 112.32C463.21 111.518 464.871 111.111 466.704 111.111C468.496 111.111 470.111 111.502 471.559 112.278C473.017 113.044 474.163 114.148 474.996 115.59C475.829 117.023 476.246 118.695 476.246 120.611ZM466.746 115.132C465.538 115.132 464.522 115.476 463.704 116.153C462.897 116.835 462.402 117.768 462.225 118.945H471.246C471.048 117.778 470.543 116.856 469.725 116.174C468.918 115.481 467.923 115.132 466.746 115.132Z" fill="white"/>
<path d="M498.497 111.383L490.227 130.82C489.393 132.93 488.357 134.414 487.122 135.279C485.883 136.138 484.393 136.57 482.643 136.57C481.685 136.57 480.737 136.424 479.81 136.133C478.878 135.841 478.122 135.43 477.539 134.904L479.477 131.133C479.878 131.492 480.341 131.768 480.872 131.966C481.414 132.174 481.945 132.279 482.477 132.279C483.195 132.279 483.779 132.102 484.227 131.758C484.685 131.409 485.091 130.826 485.456 130.008L485.539 129.841L477.602 111.383H483.081L488.227 123.799L493.393 111.383H498.497Z" fill="white"/>
<path d="M517.219 111.799H521.927V115.882H517.365V129.695H512.052V115.882H509.219V111.799H512.052V110.966C512.052 108.882 512.667 107.231 513.906 106.007C515.141 104.773 516.885 104.153 519.135 104.153C519.927 104.153 520.677 104.247 521.385 104.424C522.104 104.591 522.703 104.836 523.177 105.153L521.781 109.007C521.167 108.565 520.453 108.341 519.635 108.341C518.021 108.341 517.219 109.231 517.219 111.007V111.799Z" fill="white"/>
<path d="M543.063 120.611C543.063 120.684 543.026 121.153 542.958 122.028H529.104C529.354 123.169 529.943 124.07 530.875 124.736C531.802 125.393 532.958 125.715 534.333 125.715C535.292 125.715 536.135 125.58 536.875 125.299C537.609 125.007 538.297 124.559 538.938 123.945L541.771 127.007C540.031 128.981 537.51 129.965 534.208 129.965C532.135 129.965 530.302 129.564 528.708 128.757C527.125 127.955 525.901 126.835 525.042 125.403C524.177 123.976 523.75 122.351 523.75 120.528C523.75 118.736 524.172 117.127 525.021 115.695C525.88 114.252 527.052 113.127 528.542 112.32C530.026 111.518 531.688 111.111 533.521 111.111C535.313 111.111 536.927 111.502 538.375 112.278C539.833 113.044 540.979 114.148 541.813 115.59C542.646 117.023 543.063 118.695 543.063 120.611ZM533.563 115.132C532.354 115.132 531.339 115.476 530.521 116.153C529.714 116.835 529.219 117.768 529.042 118.945H538.063C537.865 117.778 537.359 116.856 536.542 116.174C535.734 115.481 534.74 115.132 533.563 115.132Z" fill="white"/>
<path d="M554.521 111.111C557.354 111.111 559.526 111.788 561.042 113.132C562.568 114.481 563.333 116.518 563.333 119.236V129.695H558.375V127.424C557.375 129.122 555.51 129.965 552.792 129.965C551.385 129.965 550.167 129.726 549.125 129.257C548.094 128.773 547.302 128.111 546.75 127.278C546.208 126.445 545.938 125.497 545.938 124.424C545.938 122.715 546.573 121.377 547.854 120.403C549.146 119.434 551.13 118.945 553.813 118.945H558.042C558.042 117.778 557.688 116.882 556.979 116.257C556.271 115.632 555.214 115.32 553.813 115.32C552.839 115.32 551.88 115.481 550.938 115.799C549.99 116.106 549.193 116.518 548.542 117.028L546.625 113.32C547.625 112.611 548.818 112.07 550.208 111.695C551.609 111.309 553.047 111.111 554.521 111.111ZM554.125 126.403C555.026 126.403 555.823 126.195 556.521 125.778C557.229 125.351 557.734 124.726 558.042 123.903V122.028H554.396C552.214 122.028 551.125 122.747 551.125 124.174C551.125 124.856 551.385 125.398 551.917 125.799C552.458 126.205 553.193 126.403 554.125 126.403Z" fill="white"/>
<path d="M580.504 128.82C579.973 129.195 579.327 129.482 578.566 129.674C577.816 129.867 577.014 129.966 576.171 129.966C573.988 129.966 572.301 129.414 571.108 128.299C569.926 127.19 569.337 125.56 569.337 123.404V115.883H566.504V111.799H569.337V107.32H574.65V111.799H579.212V115.883H574.65V123.32C574.65 124.102 574.842 124.695 575.233 125.112C575.634 125.529 576.197 125.737 576.921 125.737C577.764 125.737 578.483 125.518 579.066 125.07L580.504 128.82Z" fill="white"/>
<path d="M602.479 111.383V129.695H597.438V127.508C596.74 128.315 595.901 128.924 594.917 129.341C593.943 129.758 592.896 129.966 591.771 129.966C589.354 129.966 587.443 129.279 586.042 127.904C584.635 126.518 583.938 124.461 583.938 121.737V111.383H589.25V120.945C589.25 123.893 590.484 125.362 592.958 125.362C594.219 125.362 595.234 124.956 596 124.133C596.776 123.299 597.167 122.07 597.167 120.445V111.383H602.479Z" fill="white"/>
<path d="M613.031 113.799C613.667 112.913 614.521 112.247 615.594 111.799C616.677 111.34 617.917 111.111 619.323 111.111V116.007C618.74 115.965 618.344 115.945 618.135 115.945C616.62 115.945 615.432 116.372 614.573 117.215C613.708 118.064 613.281 119.34 613.281 121.049V129.695H607.969V111.382H613.031V113.799Z" fill="white"/>
<path d="M641.121 120.611C641.121 120.684 641.085 121.153 641.017 122.028H627.163C627.413 123.169 628.001 124.07 628.934 124.736C629.861 125.393 631.017 125.715 632.392 125.715C633.35 125.715 634.194 125.58 634.934 125.299C635.668 125.007 636.355 124.559 636.996 123.945L639.829 127.007C638.09 128.981 635.569 129.965 632.267 129.965C630.194 129.965 628.361 129.564 626.767 128.757C625.184 127.955 623.96 126.835 623.1 125.403C622.236 123.976 621.809 122.351 621.809 120.528C621.809 118.736 622.23 117.127 623.079 115.695C623.939 114.252 625.111 113.127 626.6 112.32C628.085 111.518 629.746 111.111 631.579 111.111C633.371 111.111 634.986 111.502 636.434 112.278C637.892 113.044 639.038 114.148 639.871 115.59C640.704 117.023 641.121 118.695 641.121 120.611ZM631.621 115.132C630.413 115.132 629.397 115.476 628.579 116.153C627.772 116.835 627.277 117.768 627.1 118.945H636.121C635.923 117.778 635.418 116.856 634.6 116.174C633.793 115.481 632.798 115.132 631.621 115.132Z" fill="white"/>
<path d="M651.35 129.965C649.835 129.965 648.35 129.778 646.892 129.403C645.444 129.028 644.293 128.559 643.434 127.986L645.204 124.174C646.007 124.705 646.986 125.132 648.142 125.465C649.309 125.788 650.444 125.945 651.559 125.945C653.809 125.945 654.934 125.393 654.934 124.278C654.934 123.768 654.626 123.398 654.017 123.174C653.402 122.939 652.46 122.736 651.184 122.57C649.684 122.351 648.444 122.09 647.475 121.799C646.501 121.507 645.652 120.986 644.934 120.236C644.225 119.486 643.871 118.419 643.871 117.028C643.871 115.877 644.204 114.856 644.871 113.965C645.538 113.064 646.507 112.361 647.788 111.861C649.079 111.361 650.6 111.111 652.35 111.111C653.642 111.111 654.923 111.257 656.204 111.549C657.496 111.83 658.559 112.215 659.392 112.715L657.621 116.486C656.007 115.585 654.251 115.132 652.35 115.132C651.21 115.132 650.355 115.294 649.788 115.611C649.215 115.919 648.934 116.32 648.934 116.82C648.934 117.393 649.236 117.794 649.85 118.028C650.475 118.252 651.454 118.465 652.788 118.674C654.288 118.924 655.507 119.189 656.454 119.465C657.413 119.747 658.236 120.257 658.934 121.007C659.642 121.757 659.996 122.809 659.996 124.153C659.996 125.278 659.652 126.288 658.975 127.174C658.293 128.064 657.298 128.752 655.996 129.236C654.689 129.721 653.142 129.965 651.35 129.965Z" fill="white"/>
</svg>
