<svg xmlns="http://www.w3.org/2000/svg" xmlns:xlink="http://www.w3.org/1999/xlink" width="1366" zoomAndPan="magnify" viewBox="0 0 1024.5 129.000003" height="768" preserveAspectRatio="xMidYMid meet" version="1.0"><defs><g/><clipPath id="373a1b15cb"><path d="M 3.691406 0 L 1020.3125 0 L 1020.3125 128.007812 L 3.691406 128.007812 Z M 3.691406 0 " clip-rule="nonzero"/></clipPath><clipPath id="fa060e9164"><path d="M 981.96875 52 L 1009 52 L 1009 78.515625 L 981.96875 78.515625 Z M 981.96875 52 " clip-rule="nonzero"/></clipPath><clipPath id="3812998ea0"><path d="M 985 48.746094 L 1011.738281 48.746094 L 1011.738281 75 L 985 75 Z M 985 48.746094 " clip-rule="nonzero"/></clipPath><clipPath id="0188be8737"><path d="M 18.625 23.0625 L 38.355469 23.0625 L 38.355469 42.792969 L 18.625 42.792969 Z M 18.625 23.0625 " clip-rule="nonzero"/></clipPath><clipPath id="4cf217159c"><path d="M 28.492188 23.0625 C 23.042969 23.0625 18.625 27.480469 18.625 32.929688 C 18.625 38.375 23.042969 42.792969 28.492188 42.792969 C 33.941406 42.792969 38.355469 38.375 38.355469 32.929688 C 38.355469 27.480469 33.941406 23.0625 28.492188 23.0625 Z M 28.492188 23.0625 " clip-rule="nonzero"/></clipPath><clipPath id="552f4a4b32"><path d="M 75.648438 32.929688 L 167.613281 32.929688 L 167.613281 108.675781 L 75.648438 108.675781 Z M 75.648438 32.929688 " clip-rule="nonzero"/></clipPath></defs><g clip-path="url(#373a1b15cb)"><path fill="#ffffff" d="M 3.691406 0 L 1020.3125 0 L 1020.3125 128.007812 L 3.691406 128.007812 Z M 3.691406 0 " fill-opacity="1" fill-rule="nonzero"/><path fill="#fff0ed" d="M 3.691406 0 L 1020.3125 0 L 1020.3125 128.007812 L 3.691406 128.007812 Z M 3.691406 0 " fill-opacity="1" fill-rule="nonzero"/></g><g clip-path="url(#fa060e9164)"><path fill="#272c3f" d="M 1008.464844 78.527344 L 990.542969 78.527344 L 990.542969 77.796875 L 1007.734375 77.796875 L 1007.734375 52.761719 L 982.699219 52.761719 L 982.699219 77.796875 L 988.71875 77.796875 L 988.71875 78.527344 L 981.96875 78.527344 L 981.96875 52.03125 L 1008.464844 52.03125 Z M 1008.464844 78.527344 " fill-opacity="1" fill-rule="nonzero"/></g><g clip-path="url(#3812998ea0)"><path fill="#ff8564" d="M 985.984375 48.746094 L 1011.75 48.746094 L 1011.75 74.511719 L 985.984375 74.511719 Z M 985.984375 48.746094 " fill-opacity="1" fill-rule="nonzero"/></g><g clip-path="url(#0188be8737)"><g clip-path="url(#4cf217159c)"><path fill="#ff416c" d="M 18.625 23.0625 L 38.355469 23.0625 L 38.355469 42.792969 L 18.625 42.792969 Z M 18.625 23.0625 " fill-opacity="1" fill-rule="nonzero"/></g></g><g clip-path="url(#552f4a4b32)"><path fill="#272c3f" d="M 75.648438 32.929688 L 167.613281 32.929688 L 167.613281 108.675781 L 75.648438 108.675781 Z M 75.648438 32.929688 " fill-opacity="1" fill-rule="nonzero"/></g><path fill="#ff416c" d="M 85.929688 108.496094 L 85.929688 33.105469 L 951.113281 33.105469 L 951.113281 71.285156 L 256.792969 71.285156 L 256.792969 108.496094 L 85.929688 108.496094 " fill-opacity="1" fill-rule="nonzero"/><g fill="#ffffff" fill-opacity="1"><g transform="translate(92.849359, 61.126964)"><g><path d="M 2.109375 -17.8125 L 6.234375 -17.8125 L 6.234375 -3.359375 L 15.15625 -3.359375 L 15.15625 0 L 2.109375 0 Z M 2.109375 -17.8125 "/></g></g></g><g fill="#ffffff" fill-opacity="1"><g transform="translate(108.624312, 61.126964)"><g><path d="M 15.234375 -6.796875 C 15.234375 -6.742188 15.207031 -6.382812 15.15625 -5.71875 L 4.8125 -5.71875 C 5 -4.875 5.4375 -4.203125 6.125 -3.703125 C 6.820312 -3.210938 7.6875 -2.96875 8.71875 -2.96875 C 9.4375 -2.96875 10.070312 -3.070312 10.625 -3.28125 C 11.175781 -3.5 11.6875 -3.835938 12.15625 -4.296875 L 14.265625 -2.015625 C 12.984375 -0.535156 11.101562 0.203125 8.625 0.203125 C 7.082031 0.203125 5.71875 -0.0976562 4.53125 -0.703125 C 3.34375 -1.304688 2.425781 -2.140625 1.78125 -3.203125 C 1.132812 -4.273438 0.8125 -5.488281 0.8125 -6.84375 C 0.8125 -8.1875 1.128906 -9.394531 1.765625 -10.46875 C 2.398438 -11.539062 3.269531 -12.378906 4.375 -12.984375 C 5.488281 -13.585938 6.734375 -13.890625 8.109375 -13.890625 C 9.453125 -13.890625 10.664062 -13.597656 11.75 -13.015625 C 12.832031 -12.441406 13.679688 -11.613281 14.296875 -10.53125 C 14.921875 -9.457031 15.234375 -8.210938 15.234375 -6.796875 Z M 8.140625 -10.890625 C 7.242188 -10.890625 6.488281 -10.632812 5.875 -10.125 C 5.257812 -9.613281 4.882812 -8.914062 4.75 -8.03125 L 11.5 -8.03125 C 11.363281 -8.894531 10.988281 -9.585938 10.375 -10.109375 C 9.769531 -10.628906 9.023438 -10.890625 8.140625 -10.890625 Z M 8.140625 -10.890625 "/></g></g></g><g fill="#ffffff" fill-opacity="1"><g transform="translate(125.086239, 61.126964)"><g><path d="M 10.65625 -0.65625 C 10.269531 -0.375 9.789062 -0.160156 9.21875 -0.015625 C 8.65625 0.128906 8.054688 0.203125 7.421875 0.203125 C 5.796875 0.203125 4.535156 -0.210938 3.640625 -1.046875 C 2.753906 -1.878906 2.3125 -3.097656 2.3125 -4.703125 L 2.3125 -10.328125 L 0.203125 -10.328125 L 0.203125 -13.375 L 2.3125 -13.375 L 2.3125 -16.71875 L 6.28125 -16.71875 L 6.28125 -13.375 L 9.6875 -13.375 L 9.6875 -10.328125 L 6.28125 -10.328125 L 6.28125 -4.75 C 6.28125 -4.175781 6.425781 -3.734375 6.71875 -3.421875 C 7.019531 -3.109375 7.441406 -2.953125 7.984375 -2.953125 C 8.609375 -2.953125 9.144531 -3.117188 9.59375 -3.453125 Z M 10.65625 -0.65625 "/></g></g></g><g fill="#ffffff" fill-opacity="1"><g transform="translate(136.561254, 61.126964)"><g/></g></g><g fill="#ffffff" fill-opacity="1"><g transform="translate(144.168871, 61.126964)"><g><path d="M 19.359375 -13.890625 C 21.066406 -13.890625 22.425781 -13.382812 23.4375 -12.375 C 24.445312 -11.363281 24.953125 -9.847656 24.953125 -7.828125 L 24.953125 0 L 20.984375 0 L 20.984375 -7.21875 C 20.984375 -8.3125 20.757812 -9.125 20.3125 -9.65625 C 19.863281 -10.1875 19.222656 -10.453125 18.390625 -10.453125 C 17.460938 -10.453125 16.722656 -10.148438 16.171875 -9.546875 C 15.628906 -8.953125 15.359375 -8.0625 15.359375 -6.875 L 15.359375 0 L 11.390625 0 L 11.390625 -7.21875 C 11.390625 -9.375 10.523438 -10.453125 8.796875 -10.453125 C 7.878906 -10.453125 7.148438 -10.148438 6.609375 -9.546875 C 6.066406 -8.953125 5.796875 -8.0625 5.796875 -6.875 L 5.796875 0 L 1.828125 0 L 1.828125 -13.6875 L 5.625 -13.6875 L 5.625 -12.109375 C 6.132812 -12.679688 6.753906 -13.117188 7.484375 -13.421875 C 8.222656 -13.734375 9.035156 -13.890625 9.921875 -13.890625 C 10.890625 -13.890625 11.757812 -13.695312 12.53125 -13.3125 C 13.3125 -12.9375 13.941406 -12.382812 14.421875 -11.65625 C 14.984375 -12.363281 15.691406 -12.910156 16.546875 -13.296875 C 17.398438 -13.691406 18.335938 -13.890625 19.359375 -13.890625 Z M 19.359375 -13.890625 "/></g></g></g><g fill="#ffffff" fill-opacity="1"><g transform="translate(171.266157, 61.126964)"><g><path d="M 15.234375 -6.796875 C 15.234375 -6.742188 15.207031 -6.382812 15.15625 -5.71875 L 4.8125 -5.71875 C 5 -4.875 5.4375 -4.203125 6.125 -3.703125 C 6.820312 -3.210938 7.6875 -2.96875 8.71875 -2.96875 C 9.4375 -2.96875 10.070312 -3.070312 10.625 -3.28125 C 11.175781 -3.5 11.6875 -3.835938 12.15625 -4.296875 L 14.265625 -2.015625 C 12.984375 -0.535156 11.101562 0.203125 8.625 0.203125 C 7.082031 0.203125 5.71875 -0.0976562 4.53125 -0.703125 C 3.34375 -1.304688 2.425781 -2.140625 1.78125 -3.203125 C 1.132812 -4.273438 0.8125 -5.488281 0.8125 -6.84375 C 0.8125 -8.1875 1.128906 -9.394531 1.765625 -10.46875 C 2.398438 -11.539062 3.269531 -12.378906 4.375 -12.984375 C 5.488281 -13.585938 6.734375 -13.890625 8.109375 -13.890625 C 9.453125 -13.890625 10.664062 -13.597656 11.75 -13.015625 C 12.832031 -12.441406 13.679688 -11.613281 14.296875 -10.53125 C 14.921875 -9.457031 15.234375 -8.210938 15.234375 -6.796875 Z M 8.140625 -10.890625 C 7.242188 -10.890625 6.488281 -10.632812 5.875 -10.125 C 5.257812 -9.613281 4.882812 -8.914062 4.75 -8.03125 L 11.5 -8.03125 C 11.363281 -8.894531 10.988281 -9.585938 10.375 -10.109375 C 9.769531 -10.628906 9.023438 -10.890625 8.140625 -10.890625 Z M 8.140625 -10.890625 "/></g></g></g><g fill="#ffffff" fill-opacity="1"><g transform="translate(187.728084, 61.126964)"><g/></g></g><g fill="#ffffff" fill-opacity="1"><g transform="translate(195.335701, 61.126964)"><g><path d="M 6.4375 0.203125 C 5.300781 0.203125 4.1875 0.0625 3.09375 -0.21875 C 2.007812 -0.5 1.148438 -0.847656 0.515625 -1.265625 L 1.828125 -4.125 C 2.441406 -3.726562 3.179688 -3.40625 4.046875 -3.15625 C 4.910156 -2.914062 5.757812 -2.796875 6.59375 -2.796875 C 8.269531 -2.796875 9.109375 -3.210938 9.109375 -4.046875 C 9.109375 -4.429688 8.878906 -4.707031 8.421875 -4.875 C 7.960938 -5.050781 7.257812 -5.195312 6.3125 -5.3125 C 5.1875 -5.488281 4.257812 -5.6875 3.53125 -5.90625 C 2.800781 -6.125 2.171875 -6.507812 1.640625 -7.0625 C 1.109375 -7.625 0.84375 -8.425781 0.84375 -9.46875 C 0.84375 -10.332031 1.09375 -11.097656 1.59375 -11.765625 C 2.09375 -12.429688 2.820312 -12.953125 3.78125 -13.328125 C 4.738281 -13.703125 5.867188 -13.890625 7.171875 -13.890625 C 8.140625 -13.890625 9.101562 -13.78125 10.0625 -13.5625 C 11.019531 -13.351562 11.8125 -13.0625 12.4375 -12.6875 L 11.109375 -9.875 C 9.910156 -10.550781 8.597656 -10.890625 7.171875 -10.890625 C 6.328125 -10.890625 5.691406 -10.769531 5.265625 -10.53125 C 4.835938 -10.289062 4.625 -9.984375 4.625 -9.609375 C 4.625 -9.191406 4.851562 -8.894531 5.3125 -8.71875 C 5.769531 -8.550781 6.5 -8.390625 7.5 -8.234375 C 8.625 -8.054688 9.539062 -7.859375 10.25 -7.640625 C 10.957031 -7.429688 11.570312 -7.046875 12.09375 -6.484375 C 12.625 -5.921875 12.890625 -5.140625 12.890625 -4.140625 C 12.890625 -3.296875 12.632812 -2.539062 12.125 -1.875 C 11.625 -1.21875 10.882812 -0.707031 9.90625 -0.34375 C 8.925781 0.0195312 7.769531 0.203125 6.4375 0.203125 Z M 6.4375 0.203125 "/></g></g></g><g fill="#ffffff" fill-opacity="1"><g transform="translate(209.253291, 61.126964)"><g><path d="M 10.15625 -13.890625 C 11.84375 -13.890625 13.207031 -13.378906 14.25 -12.359375 C 15.300781 -11.347656 15.828125 -9.835938 15.828125 -7.828125 L 15.828125 0 L 11.859375 0 L 11.859375 -7.21875 C 11.859375 -8.3125 11.617188 -9.125 11.140625 -9.65625 C 10.660156 -10.1875 9.972656 -10.453125 9.078125 -10.453125 C 8.078125 -10.453125 7.28125 -10.140625 6.6875 -9.515625 C 6.09375 -8.898438 5.796875 -7.984375 5.796875 -6.765625 L 5.796875 0 L 1.828125 0 L 1.828125 -18.875 L 5.796875 -18.875 L 5.796875 -12.265625 C 6.328125 -12.785156 6.960938 -13.1875 7.703125 -13.46875 C 8.453125 -13.75 9.269531 -13.890625 10.15625 -13.890625 Z M 10.15625 -13.890625 "/></g></g></g><g fill="#ffffff" fill-opacity="1"><g transform="translate(227.241824, 61.126964)"><g><path d="M 8.34375 0.203125 C 6.90625 0.203125 5.613281 -0.0976562 4.46875 -0.703125 C 3.320312 -1.304688 2.425781 -2.140625 1.78125 -3.203125 C 1.132812 -4.273438 0.8125 -5.488281 0.8125 -6.84375 C 0.8125 -8.195312 1.132812 -9.40625 1.78125 -10.46875 C 2.425781 -11.539062 3.320312 -12.378906 4.46875 -12.984375 C 5.613281 -13.585938 6.90625 -13.890625 8.34375 -13.890625 C 9.78125 -13.890625 11.066406 -13.585938 12.203125 -12.984375 C 13.347656 -12.378906 14.238281 -11.539062 14.875 -10.46875 C 15.519531 -9.40625 15.84375 -8.195312 15.84375 -6.84375 C 15.84375 -5.488281 15.519531 -4.273438 14.875 -3.203125 C 14.238281 -2.140625 13.347656 -1.304688 12.203125 -0.703125 C 11.066406 -0.0976562 9.78125 0.203125 8.34375 0.203125 Z M 8.34375 -3.046875 C 9.363281 -3.046875 10.195312 -3.390625 10.84375 -4.078125 C 11.5 -4.765625 11.828125 -5.6875 11.828125 -6.84375 C 11.828125 -8 11.5 -8.921875 10.84375 -9.609375 C 10.195312 -10.296875 9.363281 -10.640625 8.34375 -10.640625 C 7.320312 -10.640625 6.476562 -10.296875 5.8125 -9.609375 C 5.15625 -8.921875 4.828125 -8 4.828125 -6.84375 C 4.828125 -5.6875 5.15625 -4.765625 5.8125 -4.078125 C 6.476562 -3.390625 7.320312 -3.046875 8.34375 -3.046875 Z M 8.34375 -3.046875 "/></g></g></g><g fill="#ffffff" fill-opacity="1"><g transform="translate(244.3144, 61.126964)"><g><path d="M 23.8125 -13.6875 L 18.84375 0 L 15.03125 0 L 11.953125 -8.5 L 8.78125 0 L 4.953125 0 L 0.03125 -13.6875 L 3.765625 -13.6875 L 7 -4.421875 L 10.359375 -13.6875 L 13.703125 -13.6875 L 16.96875 -4.421875 L 20.296875 -13.6875 Z M 23.8125 -13.6875 "/></g></g></g><g fill="#ffffff" fill-opacity="1"><g transform="translate(268.562019, 61.126964)"><g/></g></g><g fill="#ffffff" fill-opacity="1"><g transform="translate(276.169637, 61.126964)"><g><path d="M 15.421875 -13.6875 L 9.234375 0.84375 C 8.609375 2.414062 7.832031 3.523438 6.90625 4.171875 C 5.976562 4.816406 4.863281 5.140625 3.5625 5.140625 C 2.851562 5.140625 2.148438 5.03125 1.453125 4.8125 C 0.753906 4.59375 0.1875 4.285156 -0.25 3.890625 L 1.203125 1.0625 C 1.503906 1.332031 1.851562 1.546875 2.25 1.703125 C 2.644531 1.859375 3.039062 1.9375 3.4375 1.9375 C 3.976562 1.9375 4.414062 1.800781 4.75 1.53125 C 5.09375 1.269531 5.398438 0.835938 5.671875 0.234375 L 5.71875 0.109375 L -0.203125 -13.6875 L 3.890625 -13.6875 L 7.734375 -4.40625 L 11.59375 -13.6875 Z M 15.421875 -13.6875 "/></g></g></g><g fill="#ffffff" fill-opacity="1"><g transform="translate(291.79193, 61.126964)"><g><path d="M 8.34375 0.203125 C 6.90625 0.203125 5.613281 -0.0976562 4.46875 -0.703125 C 3.320312 -1.304688 2.425781 -2.140625 1.78125 -3.203125 C 1.132812 -4.273438 0.8125 -5.488281 0.8125 -6.84375 C 0.8125 -8.195312 1.132812 -9.40625 1.78125 -10.46875 C 2.425781 -11.539062 3.320312 -12.378906 4.46875 -12.984375 C 5.613281 -13.585938 6.90625 -13.890625 8.34375 -13.890625 C 9.78125 -13.890625 11.066406 -13.585938 12.203125 -12.984375 C 13.347656 -12.378906 14.238281 -11.539062 14.875 -10.46875 C 15.519531 -9.40625 15.84375 -8.195312 15.84375 -6.84375 C 15.84375 -5.488281 15.519531 -4.273438 14.875 -3.203125 C 14.238281 -2.140625 13.347656 -1.304688 12.203125 -0.703125 C 11.066406 -0.0976562 9.78125 0.203125 8.34375 0.203125 Z M 8.34375 -3.046875 C 9.363281 -3.046875 10.195312 -3.390625 10.84375 -4.078125 C 11.5 -4.765625 11.828125 -5.6875 11.828125 -6.84375 C 11.828125 -8 11.5 -8.921875 10.84375 -9.609375 C 10.195312 -10.296875 9.363281 -10.640625 8.34375 -10.640625 C 7.320312 -10.640625 6.476562 -10.296875 5.8125 -9.609375 C 5.15625 -8.921875 4.828125 -8 4.828125 -6.84375 C 4.828125 -5.6875 5.15625 -4.765625 5.8125 -4.078125 C 6.476562 -3.390625 7.320312 -3.046875 8.34375 -3.046875 Z M 8.34375 -3.046875 "/></g></g></g><g fill="#ffffff" fill-opacity="1"><g transform="translate(308.864517, 61.126964)"><g><path d="M 15.625 -13.6875 L 15.625 0 L 11.859375 0 L 11.859375 -1.625 C 11.328125 -1.03125 10.695312 -0.578125 9.96875 -0.265625 C 9.238281 0.046875 8.453125 0.203125 7.609375 0.203125 C 5.804688 0.203125 4.378906 -0.3125 3.328125 -1.34375 C 2.273438 -2.382812 1.75 -3.921875 1.75 -5.953125 L 1.75 -13.6875 L 5.71875 -13.6875 L 5.71875 -6.53125 C 5.71875 -4.332031 6.644531 -3.234375 8.5 -3.234375 C 9.445312 -3.234375 10.207031 -3.539062 10.78125 -4.15625 C 11.363281 -4.78125 11.65625 -5.703125 11.65625 -6.921875 L 11.65625 -13.6875 Z M 15.625 -13.6875 "/></g></g></g><g fill="#ffffff" fill-opacity="1"><g transform="translate(326.751266, 61.126964)"><g/></g></g><g fill="#ffffff" fill-opacity="1"><g transform="translate(334.358873, 61.126964)"><g><path d="M 10.65625 -0.65625 C 10.269531 -0.375 9.789062 -0.160156 9.21875 -0.015625 C 8.65625 0.128906 8.054688 0.203125 7.421875 0.203125 C 5.796875 0.203125 4.535156 -0.210938 3.640625 -1.046875 C 2.753906 -1.878906 2.3125 -3.097656 2.3125 -4.703125 L 2.3125 -10.328125 L 0.203125 -10.328125 L 0.203125 -13.375 L 2.3125 -13.375 L 2.3125 -16.71875 L 6.28125 -16.71875 L 6.28125 -13.375 L 9.6875 -13.375 L 9.6875 -10.328125 L 6.28125 -10.328125 L 6.28125 -4.75 C 6.28125 -4.175781 6.425781 -3.734375 6.71875 -3.421875 C 7.019531 -3.109375 7.441406 -2.953125 7.984375 -2.953125 C 8.609375 -2.953125 9.144531 -3.117188 9.59375 -3.453125 Z M 10.65625 -0.65625 "/></g></g></g><g fill="#ffffff" fill-opacity="1"><g transform="translate(345.833899, 61.126964)"><g><path d="M 10.15625 -13.890625 C 11.84375 -13.890625 13.207031 -13.378906 14.25 -12.359375 C 15.300781 -11.347656 15.828125 -9.835938 15.828125 -7.828125 L 15.828125 0 L 11.859375 0 L 11.859375 -7.21875 C 11.859375 -8.3125 11.617188 -9.125 11.140625 -9.65625 C 10.660156 -10.1875 9.972656 -10.453125 9.078125 -10.453125 C 8.078125 -10.453125 7.28125 -10.140625 6.6875 -9.515625 C 6.09375 -8.898438 5.796875 -7.984375 5.796875 -6.765625 L 5.796875 0 L 1.828125 0 L 1.828125 -18.875 L 5.796875 -18.875 L 5.796875 -12.265625 C 6.328125 -12.785156 6.960938 -13.1875 7.703125 -13.46875 C 8.453125 -13.75 9.269531 -13.890625 10.15625 -13.890625 Z M 10.15625 -13.890625 "/></g></g></g><g fill="#ffffff" fill-opacity="1"><g transform="translate(363.822443, 61.126964)"><g><path d="M 15.234375 -6.796875 C 15.234375 -6.742188 15.207031 -6.382812 15.15625 -5.71875 L 4.8125 -5.71875 C 5 -4.875 5.4375 -4.203125 6.125 -3.703125 C 6.820312 -3.210938 7.6875 -2.96875 8.71875 -2.96875 C 9.4375 -2.96875 10.070312 -3.070312 10.625 -3.28125 C 11.175781 -3.5 11.6875 -3.835938 12.15625 -4.296875 L 14.265625 -2.015625 C 12.984375 -0.535156 11.101562 0.203125 8.625 0.203125 C 7.082031 0.203125 5.71875 -0.0976562 4.53125 -0.703125 C 3.34375 -1.304688 2.425781 -2.140625 1.78125 -3.203125 C 1.132812 -4.273438 0.8125 -5.488281 0.8125 -6.84375 C 0.8125 -8.1875 1.128906 -9.394531 1.765625 -10.46875 C 2.398438 -11.539062 3.269531 -12.378906 4.375 -12.984375 C 5.488281 -13.585938 6.734375 -13.890625 8.109375 -13.890625 C 9.453125 -13.890625 10.664062 -13.597656 11.75 -13.015625 C 12.832031 -12.441406 13.679688 -11.613281 14.296875 -10.53125 C 14.921875 -9.457031 15.234375 -8.210938 15.234375 -6.796875 Z M 8.140625 -10.890625 C 7.242188 -10.890625 6.488281 -10.632812 5.875 -10.125 C 5.257812 -9.613281 4.882812 -8.914062 4.75 -8.03125 L 11.5 -8.03125 C 11.363281 -8.894531 10.988281 -9.585938 10.375 -10.109375 C 9.769531 -10.628906 9.023438 -10.890625 8.140625 -10.890625 Z M 8.140625 -10.890625 "/></g></g></g><g fill="#ffffff" fill-opacity="1"><g transform="translate(380.28437, 61.126964)"><g/></g></g><g fill="#ffffff" fill-opacity="1"><g transform="translate(387.891976, 61.126964)"><g><path d="M 9.921875 -13.890625 C 11.191406 -13.890625 12.347656 -13.597656 13.390625 -13.015625 C 14.429688 -12.429688 15.25 -11.609375 15.84375 -10.546875 C 16.4375 -9.484375 16.734375 -8.25 16.734375 -6.84375 C 16.734375 -5.4375 16.4375 -4.203125 15.84375 -3.140625 C 15.25 -2.078125 14.429688 -1.253906 13.390625 -0.671875 C 12.347656 -0.0859375 11.191406 0.203125 9.921875 0.203125 C 8.035156 0.203125 6.601562 -0.390625 5.625 -1.578125 L 5.625 0 L 1.828125 0 L 1.828125 -18.875 L 5.796875 -18.875 L 5.796875 -12.234375 C 6.796875 -13.335938 8.171875 -13.890625 9.921875 -13.890625 Z M 9.234375 -3.046875 C 10.253906 -3.046875 11.085938 -3.390625 11.734375 -4.078125 C 12.390625 -4.765625 12.71875 -5.6875 12.71875 -6.84375 C 12.71875 -8 12.390625 -8.921875 11.734375 -9.609375 C 11.085938 -10.296875 10.253906 -10.640625 9.234375 -10.640625 C 8.210938 -10.640625 7.375 -10.296875 6.71875 -9.609375 C 6.070312 -8.921875 5.75 -8 5.75 -6.84375 C 5.75 -5.6875 6.070312 -4.765625 6.71875 -4.078125 C 7.375 -3.390625 8.210938 -3.046875 9.234375 -3.046875 Z M 9.234375 -3.046875 "/></g></g></g><g fill="#ffffff" fill-opacity="1"><g transform="translate(405.855083, 61.126964)"><g><path d="M 5.625 -11.875 C 6.09375 -12.539062 6.726562 -13.039062 7.53125 -13.375 C 8.34375 -13.71875 9.273438 -13.890625 10.328125 -13.890625 L 10.328125 -10.21875 C 9.890625 -10.257812 9.59375 -10.28125 9.4375 -10.28125 C 8.300781 -10.28125 7.410156 -9.960938 6.765625 -9.328125 C 6.117188 -8.691406 5.796875 -7.738281 5.796875 -6.46875 L 5.796875 0 L 1.828125 0 L 1.828125 -13.6875 L 5.625 -13.6875 Z M 5.625 -11.875 "/></g></g></g><g fill="#ffffff" fill-opacity="1"><g transform="translate(417.228314, 61.126964)"><g><path d="M 1.828125 -13.6875 L 5.796875 -13.6875 L 5.796875 0 L 1.828125 0 Z M 3.828125 -15.59375 C 3.097656 -15.59375 2.503906 -15.800781 2.046875 -16.21875 C 1.585938 -16.644531 1.359375 -17.175781 1.359375 -17.8125 C 1.359375 -18.4375 1.585938 -18.957031 2.046875 -19.375 C 2.503906 -19.800781 3.097656 -20.015625 3.828125 -20.015625 C 4.554688 -20.015625 5.148438 -19.8125 5.609375 -19.40625 C 6.066406 -19 6.296875 -18.488281 6.296875 -17.875 C 6.296875 -17.21875 6.066406 -16.671875 5.609375 -16.234375 C 5.148438 -15.804688 4.554688 -15.59375 3.828125 -15.59375 Z M 3.828125 -15.59375 "/></g></g></g><g fill="#ffffff" fill-opacity="1"><g transform="translate(425.29391, 61.126964)"><g><path d="M 15.234375 -6.796875 C 15.234375 -6.742188 15.207031 -6.382812 15.15625 -5.71875 L 4.8125 -5.71875 C 5 -4.875 5.4375 -4.203125 6.125 -3.703125 C 6.820312 -3.210938 7.6875 -2.96875 8.71875 -2.96875 C 9.4375 -2.96875 10.070312 -3.070312 10.625 -3.28125 C 11.175781 -3.5 11.6875 -3.835938 12.15625 -4.296875 L 14.265625 -2.015625 C 12.984375 -0.535156 11.101562 0.203125 8.625 0.203125 C 7.082031 0.203125 5.71875 -0.0976562 4.53125 -0.703125 C 3.34375 -1.304688 2.425781 -2.140625 1.78125 -3.203125 C 1.132812 -4.273438 0.8125 -5.488281 0.8125 -6.84375 C 0.8125 -8.1875 1.128906 -9.394531 1.765625 -10.46875 C 2.398438 -11.539062 3.269531 -12.378906 4.375 -12.984375 C 5.488281 -13.585938 6.734375 -13.890625 8.109375 -13.890625 C 9.453125 -13.890625 10.664062 -13.597656 11.75 -13.015625 C 12.832031 -12.441406 13.679688 -11.613281 14.296875 -10.53125 C 14.921875 -9.457031 15.234375 -8.210938 15.234375 -6.796875 Z M 8.140625 -10.890625 C 7.242188 -10.890625 6.488281 -10.632812 5.875 -10.125 C 5.257812 -9.613281 4.882812 -8.914062 4.75 -8.03125 L 11.5 -8.03125 C 11.363281 -8.894531 10.988281 -9.585938 10.375 -10.109375 C 9.769531 -10.628906 9.023438 -10.890625 8.140625 -10.890625 Z M 8.140625 -10.890625 "/></g></g></g><g fill="#ffffff" fill-opacity="1"><g transform="translate(441.755836, 61.126964)"><g><path d="M 6.1875 -13.375 L 9.6875 -13.375 L 9.6875 -10.328125 L 6.28125 -10.328125 L 6.28125 0 L 2.3125 0 L 2.3125 -10.328125 L 0.203125 -10.328125 L 0.203125 -13.375 L 2.3125 -13.375 L 2.3125 -13.984375 C 2.3125 -15.546875 2.773438 -16.785156 3.703125 -17.703125 C 4.628906 -18.617188 5.929688 -19.078125 7.609375 -19.078125 C 8.203125 -19.078125 8.765625 -19.015625 9.296875 -18.890625 C 9.828125 -18.765625 10.273438 -18.582031 10.640625 -18.34375 L 9.59375 -15.46875 C 9.132812 -15.789062 8.597656 -15.953125 7.984375 -15.953125 C 6.785156 -15.953125 6.1875 -15.289062 6.1875 -13.96875 Z M 6.1875 -13.375 "/></g></g></g><g fill="#ffffff" fill-opacity="1"><g transform="translate(452.009564, 61.126964)"><g/></g></g><g fill="#ffffff" fill-opacity="1"><g transform="translate(459.61717, 61.126964)"><g><path d="M 8.34375 0.203125 C 6.90625 0.203125 5.613281 -0.0976562 4.46875 -0.703125 C 3.320312 -1.304688 2.425781 -2.140625 1.78125 -3.203125 C 1.132812 -4.273438 0.8125 -5.488281 0.8125 -6.84375 C 0.8125 -8.195312 1.132812 -9.40625 1.78125 -10.46875 C 2.425781 -11.539062 3.320312 -12.378906 4.46875 -12.984375 C 5.613281 -13.585938 6.90625 -13.890625 8.34375 -13.890625 C 9.78125 -13.890625 11.066406 -13.585938 12.203125 -12.984375 C 13.347656 -12.378906 14.238281 -11.539062 14.875 -10.46875 C 15.519531 -9.40625 15.84375 -8.195312 15.84375 -6.84375 C 15.84375 -5.488281 15.519531 -4.273438 14.875 -3.203125 C 14.238281 -2.140625 13.347656 -1.304688 12.203125 -0.703125 C 11.066406 -0.0976562 9.78125 0.203125 8.34375 0.203125 Z M 8.34375 -3.046875 C 9.363281 -3.046875 10.195312 -3.390625 10.84375 -4.078125 C 11.5 -4.765625 11.828125 -5.6875 11.828125 -6.84375 C 11.828125 -8 11.5 -8.921875 10.84375 -9.609375 C 10.195312 -10.296875 9.363281 -10.640625 8.34375 -10.640625 C 7.320312 -10.640625 6.476562 -10.296875 5.8125 -9.609375 C 5.15625 -8.921875 4.828125 -8 4.828125 -6.84375 C 4.828125 -5.6875 5.15625 -4.765625 5.8125 -4.078125 C 6.476562 -3.390625 7.320312 -3.046875 8.34375 -3.046875 Z M 8.34375 -3.046875 "/></g></g></g><g fill="#ffffff" fill-opacity="1"><g transform="translate(476.689734, 61.126964)"><g><path d="M 15.421875 -13.6875 L 9.640625 0 L 5.546875 0 L -0.203125 -13.6875 L 3.890625 -13.6875 L 7.6875 -4.375 L 11.59375 -13.6875 Z M 15.421875 -13.6875 "/></g></g></g><g fill="#ffffff" fill-opacity="1"><g transform="translate(492.312039, 61.126964)"><g><path d="M 15.234375 -6.796875 C 15.234375 -6.742188 15.207031 -6.382812 15.15625 -5.71875 L 4.8125 -5.71875 C 5 -4.875 5.4375 -4.203125 6.125 -3.703125 C 6.820312 -3.210938 7.6875 -2.96875 8.71875 -2.96875 C 9.4375 -2.96875 10.070312 -3.070312 10.625 -3.28125 C 11.175781 -3.5 11.6875 -3.835938 12.15625 -4.296875 L 14.265625 -2.015625 C 12.984375 -0.535156 11.101562 0.203125 8.625 0.203125 C 7.082031 0.203125 5.71875 -0.0976562 4.53125 -0.703125 C 3.34375 -1.304688 2.425781 -2.140625 1.78125 -3.203125 C 1.132812 -4.273438 0.8125 -5.488281 0.8125 -6.84375 C 0.8125 -8.1875 1.128906 -9.394531 1.765625 -10.46875 C 2.398438 -11.539062 3.269531 -12.378906 4.375 -12.984375 C 5.488281 -13.585938 6.734375 -13.890625 8.109375 -13.890625 C 9.453125 -13.890625 10.664062 -13.597656 11.75 -13.015625 C 12.832031 -12.441406 13.679688 -11.613281 14.296875 -10.53125 C 14.921875 -9.457031 15.234375 -8.210938 15.234375 -6.796875 Z M 8.140625 -10.890625 C 7.242188 -10.890625 6.488281 -10.632812 5.875 -10.125 C 5.257812 -9.613281 4.882812 -8.914062 4.75 -8.03125 L 11.5 -8.03125 C 11.363281 -8.894531 10.988281 -9.585938 10.375 -10.109375 C 9.769531 -10.628906 9.023438 -10.890625 8.140625 -10.890625 Z M 8.140625 -10.890625 "/></g></g></g><g fill="#ffffff" fill-opacity="1"><g transform="translate(508.773966, 61.126964)"><g><path d="M 5.625 -11.875 C 6.09375 -12.539062 6.726562 -13.039062 7.53125 -13.375 C 8.34375 -13.71875 9.273438 -13.890625 10.328125 -13.890625 L 10.328125 -10.21875 C 9.890625 -10.257812 9.59375 -10.28125 9.4375 -10.28125 C 8.300781 -10.28125 7.410156 -9.960938 6.765625 -9.328125 C 6.117188 -8.691406 5.796875 -7.738281 5.796875 -6.46875 L 5.796875 0 L 1.828125 0 L 1.828125 -13.6875 L 5.625 -13.6875 Z M 5.625 -11.875 "/></g></g></g><g fill="#ffffff" fill-opacity="1"><g transform="translate(520.147196, 61.126964)"><g><path d="M 15.421875 -13.6875 L 9.640625 0 L 5.546875 0 L -0.203125 -13.6875 L 3.890625 -13.6875 L 7.6875 -4.375 L 11.59375 -13.6875 Z M 15.421875 -13.6875 "/></g></g></g><g fill="#ffffff" fill-opacity="1"><g transform="translate(535.769501, 61.126964)"><g><path d="M 1.828125 -13.6875 L 5.796875 -13.6875 L 5.796875 0 L 1.828125 0 Z M 3.828125 -15.59375 C 3.097656 -15.59375 2.503906 -15.800781 2.046875 -16.21875 C 1.585938 -16.644531 1.359375 -17.175781 1.359375 -17.8125 C 1.359375 -18.4375 1.585938 -18.957031 2.046875 -19.375 C 2.503906 -19.800781 3.097656 -20.015625 3.828125 -20.015625 C 4.554688 -20.015625 5.148438 -19.8125 5.609375 -19.40625 C 6.066406 -19 6.296875 -18.488281 6.296875 -17.875 C 6.296875 -17.21875 6.066406 -16.671875 5.609375 -16.234375 C 5.148438 -15.804688 4.554688 -15.59375 3.828125 -15.59375 Z M 3.828125 -15.59375 "/></g></g></g><g fill="#ffffff" fill-opacity="1"><g transform="translate(543.83512, 61.126964)"><g><path d="M 15.234375 -6.796875 C 15.234375 -6.742188 15.207031 -6.382812 15.15625 -5.71875 L 4.8125 -5.71875 C 5 -4.875 5.4375 -4.203125 6.125 -3.703125 C 6.820312 -3.210938 7.6875 -2.96875 8.71875 -2.96875 C 9.4375 -2.96875 10.070312 -3.070312 10.625 -3.28125 C 11.175781 -3.5 11.6875 -3.835938 12.15625 -4.296875 L 14.265625 -2.015625 C 12.984375 -0.535156 11.101562 0.203125 8.625 0.203125 C 7.082031 0.203125 5.71875 -0.0976562 4.53125 -0.703125 C 3.34375 -1.304688 2.425781 -2.140625 1.78125 -3.203125 C 1.132812 -4.273438 0.8125 -5.488281 0.8125 -6.84375 C 0.8125 -8.1875 1.128906 -9.394531 1.765625 -10.46875 C 2.398438 -11.539062 3.269531 -12.378906 4.375 -12.984375 C 5.488281 -13.585938 6.734375 -13.890625 8.109375 -13.890625 C 9.453125 -13.890625 10.664062 -13.597656 11.75 -13.015625 C 12.832031 -12.441406 13.679688 -11.613281 14.296875 -10.53125 C 14.921875 -9.457031 15.234375 -8.210938 15.234375 -6.796875 Z M 8.140625 -10.890625 C 7.242188 -10.890625 6.488281 -10.632812 5.875 -10.125 C 5.257812 -9.613281 4.882812 -8.914062 4.75 -8.03125 L 11.5 -8.03125 C 11.363281 -8.894531 10.988281 -9.585938 10.375 -10.109375 C 9.769531 -10.628906 9.023438 -10.890625 8.140625 -10.890625 Z M 8.140625 -10.890625 "/></g></g></g><g fill="#ffffff" fill-opacity="1"><g transform="translate(560.297047, 61.126964)"><g><path d="M 23.8125 -13.6875 L 18.84375 0 L 15.03125 0 L 11.953125 -8.5 L 8.78125 0 L 4.953125 0 L 0.03125 -13.6875 L 3.765625 -13.6875 L 7 -4.421875 L 10.359375 -13.6875 L 13.703125 -13.6875 L 16.96875 -4.421875 L 20.296875 -13.6875 Z M 23.8125 -13.6875 "/></g></g></g><g fill="#ffffff" fill-opacity="1"><g transform="translate(584.544688, 61.126964)"><g/></g></g><g fill="#ffffff" fill-opacity="1"><g transform="translate(592.152295, 61.126964)"><g><path d="M 8.34375 0.203125 C 6.90625 0.203125 5.613281 -0.0976562 4.46875 -0.703125 C 3.320312 -1.304688 2.425781 -2.140625 1.78125 -3.203125 C 1.132812 -4.273438 0.8125 -5.488281 0.8125 -6.84375 C 0.8125 -8.195312 1.132812 -9.40625 1.78125 -10.46875 C 2.425781 -11.539062 3.320312 -12.378906 4.46875 -12.984375 C 5.613281 -13.585938 6.90625 -13.890625 8.34375 -13.890625 C 9.78125 -13.890625 11.066406 -13.585938 12.203125 -12.984375 C 13.347656 -12.378906 14.238281 -11.539062 14.875 -10.46875 C 15.519531 -9.40625 15.84375 -8.195312 15.84375 -6.84375 C 15.84375 -5.488281 15.519531 -4.273438 14.875 -3.203125 C 14.238281 -2.140625 13.347656 -1.304688 12.203125 -0.703125 C 11.066406 -0.0976562 9.78125 0.203125 8.34375 0.203125 Z M 8.34375 -3.046875 C 9.363281 -3.046875 10.195312 -3.390625 10.84375 -4.078125 C 11.5 -4.765625 11.828125 -5.6875 11.828125 -6.84375 C 11.828125 -8 11.5 -8.921875 10.84375 -9.609375 C 10.195312 -10.296875 9.363281 -10.640625 8.34375 -10.640625 C 7.320312 -10.640625 6.476562 -10.296875 5.8125 -9.609375 C 5.15625 -8.921875 4.828125 -8 4.828125 -6.84375 C 4.828125 -5.6875 5.15625 -4.765625 5.8125 -4.078125 C 6.476562 -3.390625 7.320312 -3.046875 8.34375 -3.046875 Z M 8.34375 -3.046875 "/></g></g></g><g fill="#ffffff" fill-opacity="1"><g transform="translate(609.224859, 61.126964)"><g><path d="M 6.1875 -13.375 L 9.6875 -13.375 L 9.6875 -10.328125 L 6.28125 -10.328125 L 6.28125 0 L 2.3125 0 L 2.3125 -10.328125 L 0.203125 -10.328125 L 0.203125 -13.375 L 2.3125 -13.375 L 2.3125 -13.984375 C 2.3125 -15.546875 2.773438 -16.785156 3.703125 -17.703125 C 4.628906 -18.617188 5.929688 -19.078125 7.609375 -19.078125 C 8.203125 -19.078125 8.765625 -19.015625 9.296875 -18.890625 C 9.828125 -18.765625 10.273438 -18.582031 10.640625 -18.34375 L 9.59375 -15.46875 C 9.132812 -15.789062 8.597656 -15.953125 7.984375 -15.953125 C 6.785156 -15.953125 6.1875 -15.289062 6.1875 -13.96875 Z M 6.1875 -13.375 "/></g></g></g><g fill="#ffffff" fill-opacity="1"><g transform="translate(619.478609, 61.126964)"><g/></g></g><g fill="#ffffff" fill-opacity="1"><g transform="translate(627.086215, 61.126964)"><g><path d="M 10.65625 -0.65625 C 10.269531 -0.375 9.789062 -0.160156 9.21875 -0.015625 C 8.65625 0.128906 8.054688 0.203125 7.421875 0.203125 C 5.796875 0.203125 4.535156 -0.210938 3.640625 -1.046875 C 2.753906 -1.878906 2.3125 -3.097656 2.3125 -4.703125 L 2.3125 -10.328125 L 0.203125 -10.328125 L 0.203125 -13.375 L 2.3125 -13.375 L 2.3125 -16.71875 L 6.28125 -16.71875 L 6.28125 -13.375 L 9.6875 -13.375 L 9.6875 -10.328125 L 6.28125 -10.328125 L 6.28125 -4.75 C 6.28125 -4.175781 6.425781 -3.734375 6.71875 -3.421875 C 7.019531 -3.109375 7.441406 -2.953125 7.984375 -2.953125 C 8.609375 -2.953125 9.144531 -3.117188 9.59375 -3.453125 Z M 10.65625 -0.65625 "/></g></g></g><g fill="#ffffff" fill-opacity="1"><g transform="translate(638.561241, 61.126964)"><g><path d="M 10.15625 -13.890625 C 11.84375 -13.890625 13.207031 -13.378906 14.25 -12.359375 C 15.300781 -11.347656 15.828125 -9.835938 15.828125 -7.828125 L 15.828125 0 L 11.859375 0 L 11.859375 -7.21875 C 11.859375 -8.3125 11.617188 -9.125 11.140625 -9.65625 C 10.660156 -10.1875 9.972656 -10.453125 9.078125 -10.453125 C 8.078125 -10.453125 7.28125 -10.140625 6.6875 -9.515625 C 6.09375 -8.898438 5.796875 -7.984375 5.796875 -6.765625 L 5.796875 0 L 1.828125 0 L 1.828125 -18.875 L 5.796875 -18.875 L 5.796875 -12.265625 C 6.328125 -12.785156 6.960938 -13.1875 7.703125 -13.46875 C 8.453125 -13.75 9.269531 -13.890625 10.15625 -13.890625 Z M 10.15625 -13.890625 "/></g></g></g><g fill="#ffffff" fill-opacity="1"><g transform="translate(656.549785, 61.126964)"><g><path d="M 15.234375 -6.796875 C 15.234375 -6.742188 15.207031 -6.382812 15.15625 -5.71875 L 4.8125 -5.71875 C 5 -4.875 5.4375 -4.203125 6.125 -3.703125 C 6.820312 -3.210938 7.6875 -2.96875 8.71875 -2.96875 C 9.4375 -2.96875 10.070312 -3.070312 10.625 -3.28125 C 11.175781 -3.5 11.6875 -3.835938 12.15625 -4.296875 L 14.265625 -2.015625 C 12.984375 -0.535156 11.101562 0.203125 8.625 0.203125 C 7.082031 0.203125 5.71875 -0.0976562 4.53125 -0.703125 C 3.34375 -1.304688 2.425781 -2.140625 1.78125 -3.203125 C 1.132812 -4.273438 0.8125 -5.488281 0.8125 -6.84375 C 0.8125 -8.1875 1.128906 -9.394531 1.765625 -10.46875 C 2.398438 -11.539062 3.269531 -12.378906 4.375 -12.984375 C 5.488281 -13.585938 6.734375 -13.890625 8.109375 -13.890625 C 9.453125 -13.890625 10.664062 -13.597656 11.75 -13.015625 C 12.832031 -12.441406 13.679688 -11.613281 14.296875 -10.53125 C 14.921875 -9.457031 15.234375 -8.210938 15.234375 -6.796875 Z M 8.140625 -10.890625 C 7.242188 -10.890625 6.488281 -10.632812 5.875 -10.125 C 5.257812 -9.613281 4.882812 -8.914062 4.75 -8.03125 L 11.5 -8.03125 C 11.363281 -8.894531 10.988281 -9.585938 10.375 -10.109375 C 9.769531 -10.628906 9.023438 -10.890625 8.140625 -10.890625 Z M 8.140625 -10.890625 "/></g></g></g><g fill="#ffffff" fill-opacity="1"><g transform="translate(673.011712, 61.126964)"><g/></g></g><g fill="#ffffff" fill-opacity="1"><g transform="translate(680.619318, 61.126964)"><g><path d="M 6.1875 -13.375 L 9.6875 -13.375 L 9.6875 -10.328125 L 6.28125 -10.328125 L 6.28125 0 L 2.3125 0 L 2.3125 -10.328125 L 0.203125 -10.328125 L 0.203125 -13.375 L 2.3125 -13.375 L 2.3125 -13.984375 C 2.3125 -15.546875 2.773438 -16.785156 3.703125 -17.703125 C 4.628906 -18.617188 5.929688 -19.078125 7.609375 -19.078125 C 8.203125 -19.078125 8.765625 -19.015625 9.296875 -18.890625 C 9.828125 -18.765625 10.273438 -18.582031 10.640625 -18.34375 L 9.59375 -15.46875 C 9.132812 -15.789062 8.597656 -15.953125 7.984375 -15.953125 C 6.785156 -15.953125 6.1875 -15.289062 6.1875 -13.96875 Z M 6.1875 -13.375 "/></g></g></g><g fill="#ffffff" fill-opacity="1"><g transform="translate(690.873068, 61.126964)"><g><path d="M 1.828125 -13.6875 L 5.796875 -13.6875 L 5.796875 0 L 1.828125 0 Z M 3.828125 -15.59375 C 3.097656 -15.59375 2.503906 -15.800781 2.046875 -16.21875 C 1.585938 -16.644531 1.359375 -17.175781 1.359375 -17.8125 C 1.359375 -18.4375 1.585938 -18.957031 2.046875 -19.375 C 2.503906 -19.800781 3.097656 -20.015625 3.828125 -20.015625 C 4.554688 -20.015625 5.148438 -19.8125 5.609375 -19.40625 C 6.066406 -19 6.296875 -18.488281 6.296875 -17.875 C 6.296875 -17.21875 6.066406 -16.671875 5.609375 -16.234375 C 5.148438 -15.804688 4.554688 -15.59375 3.828125 -15.59375 Z M 3.828125 -15.59375 "/></g></g></g><g fill="#ffffff" fill-opacity="1"><g transform="translate(698.938642, 61.126964)"><g><path d="M 10.15625 -13.890625 C 11.84375 -13.890625 13.207031 -13.378906 14.25 -12.359375 C 15.300781 -11.347656 15.828125 -9.835938 15.828125 -7.828125 L 15.828125 0 L 11.859375 0 L 11.859375 -7.21875 C 11.859375 -8.3125 11.617188 -9.125 11.140625 -9.65625 C 10.660156 -10.1875 9.972656 -10.453125 9.078125 -10.453125 C 8.078125 -10.453125 7.28125 -10.140625 6.6875 -9.515625 C 6.09375 -8.898438 5.796875 -7.984375 5.796875 -6.765625 L 5.796875 0 L 1.828125 0 L 1.828125 -13.6875 L 5.625 -13.6875 L 5.625 -12.078125 C 6.144531 -12.660156 6.796875 -13.109375 7.578125 -13.421875 C 8.359375 -13.734375 9.21875 -13.890625 10.15625 -13.890625 Z M 10.15625 -13.890625 "/></g></g></g><g fill="#ffffff" fill-opacity="1"><g transform="translate(716.927186, 61.126964)"><g><path d="M 7.34375 -13.890625 C 9.46875 -13.890625 11.097656 -13.382812 12.234375 -12.375 C 13.367188 -11.363281 13.9375 -9.84375 13.9375 -7.8125 L 13.9375 0 L 10.21875 0 L 10.21875 -1.703125 C 9.476562 -0.429688 8.085938 0.203125 6.046875 0.203125 C 5.003906 0.203125 4.09375 0.0234375 3.3125 -0.328125 C 2.539062 -0.679688 1.953125 -1.171875 1.546875 -1.796875 C 1.140625 -2.429688 0.9375 -3.144531 0.9375 -3.9375 C 0.9375 -5.207031 1.414062 -6.207031 2.375 -6.9375 C 3.332031 -7.664062 4.8125 -8.03125 6.8125 -8.03125 L 9.96875 -8.03125 C 9.96875 -8.894531 9.703125 -9.5625 9.171875 -10.03125 C 8.648438 -10.5 7.863281 -10.734375 6.8125 -10.734375 C 6.082031 -10.734375 5.363281 -10.617188 4.65625 -10.390625 C 3.957031 -10.160156 3.363281 -9.851562 2.875 -9.46875 L 1.453125 -12.234375 C 2.191406 -12.765625 3.082031 -13.171875 4.125 -13.453125 C 5.175781 -13.742188 6.25 -13.890625 7.34375 -13.890625 Z M 7.046875 -2.46875 C 7.722656 -2.46875 8.320312 -2.625 8.84375 -2.9375 C 9.375 -3.25 9.75 -3.710938 9.96875 -4.328125 L 9.96875 -5.71875 L 7.25 -5.71875 C 5.625 -5.71875 4.8125 -5.1875 4.8125 -4.125 C 4.8125 -3.613281 5.007812 -3.207031 5.40625 -2.90625 C 5.800781 -2.613281 6.347656 -2.46875 7.046875 -2.46875 Z M 7.046875 -2.46875 "/></g></g></g><g fill="#ffffff" fill-opacity="1"><g transform="translate(733.032896, 61.126964)"><g><path d="M 1.828125 -18.875 L 5.796875 -18.875 L 5.796875 0 L 1.828125 0 Z M 1.828125 -18.875 "/></g></g></g><g fill="#ffffff" fill-opacity="1"><g transform="translate(741.098515, 61.126964)"><g/></g></g><g fill="#ffffff" fill-opacity="1"><g transform="translate(748.706121, 61.126964)"><g><path d="M 6.4375 0.203125 C 5.300781 0.203125 4.1875 0.0625 3.09375 -0.21875 C 2.007812 -0.5 1.148438 -0.847656 0.515625 -1.265625 L 1.828125 -4.125 C 2.441406 -3.726562 3.179688 -3.40625 4.046875 -3.15625 C 4.910156 -2.914062 5.757812 -2.796875 6.59375 -2.796875 C 8.269531 -2.796875 9.109375 -3.210938 9.109375 -4.046875 C 9.109375 -4.429688 8.878906 -4.707031 8.421875 -4.875 C 7.960938 -5.050781 7.257812 -5.195312 6.3125 -5.3125 C 5.1875 -5.488281 4.257812 -5.6875 3.53125 -5.90625 C 2.800781 -6.125 2.171875 -6.507812 1.640625 -7.0625 C 1.109375 -7.625 0.84375 -8.425781 0.84375 -9.46875 C 0.84375 -10.332031 1.09375 -11.097656 1.59375 -11.765625 C 2.09375 -12.429688 2.820312 -12.953125 3.78125 -13.328125 C 4.738281 -13.703125 5.867188 -13.890625 7.171875 -13.890625 C 8.140625 -13.890625 9.101562 -13.78125 10.0625 -13.5625 C 11.019531 -13.351562 11.8125 -13.0625 12.4375 -12.6875 L 11.109375 -9.875 C 9.910156 -10.550781 8.597656 -10.890625 7.171875 -10.890625 C 6.328125 -10.890625 5.691406 -10.769531 5.265625 -10.53125 C 4.835938 -10.289062 4.625 -9.984375 4.625 -9.609375 C 4.625 -9.191406 4.851562 -8.894531 5.3125 -8.71875 C 5.769531 -8.550781 6.5 -8.390625 7.5 -8.234375 C 8.625 -8.054688 9.539062 -7.859375 10.25 -7.640625 C 10.957031 -7.429688 11.570312 -7.046875 12.09375 -6.484375 C 12.625 -5.921875 12.890625 -5.140625 12.890625 -4.140625 C 12.890625 -3.296875 12.632812 -2.539062 12.125 -1.875 C 11.625 -1.21875 10.882812 -0.707031 9.90625 -0.34375 C 8.925781 0.0195312 7.769531 0.203125 6.4375 0.203125 Z M 6.4375 0.203125 "/></g></g></g><g fill="#ffffff" fill-opacity="1"><g transform="translate(762.6237, 61.126964)"><g><path d="M 8.4375 0.203125 C 6.976562 0.203125 5.664062 -0.0976562 4.5 -0.703125 C 3.34375 -1.304688 2.4375 -2.140625 1.78125 -3.203125 C 1.132812 -4.273438 0.8125 -5.488281 0.8125 -6.84375 C 0.8125 -8.195312 1.132812 -9.40625 1.78125 -10.46875 C 2.4375 -11.539062 3.34375 -12.378906 4.5 -12.984375 C 5.664062 -13.585938 6.976562 -13.890625 8.4375 -13.890625 C 9.882812 -13.890625 11.144531 -13.585938 12.21875 -12.984375 C 13.300781 -12.378906 14.085938 -11.519531 14.578125 -10.40625 L 11.5 -8.75 C 10.78125 -10.007812 9.753906 -10.640625 8.421875 -10.640625 C 7.390625 -10.640625 6.53125 -10.296875 5.84375 -9.609375 C 5.164062 -8.929688 4.828125 -8.007812 4.828125 -6.84375 C 4.828125 -5.675781 5.164062 -4.75 5.84375 -4.0625 C 6.53125 -3.382812 7.390625 -3.046875 8.421875 -3.046875 C 9.773438 -3.046875 10.800781 -3.675781 11.5 -4.9375 L 14.578125 -3.25 C 14.085938 -2.164062 13.300781 -1.316406 12.21875 -0.703125 C 11.144531 -0.0976562 9.882812 0.203125 8.4375 0.203125 Z M 8.4375 0.203125 "/></g></g></g><g fill="#ffffff" fill-opacity="1"><g transform="translate(778.067896, 61.126964)"><g><path d="M 5.625 -11.875 C 6.09375 -12.539062 6.726562 -13.039062 7.53125 -13.375 C 8.34375 -13.71875 9.273438 -13.890625 10.328125 -13.890625 L 10.328125 -10.21875 C 9.890625 -10.257812 9.59375 -10.28125 9.4375 -10.28125 C 8.300781 -10.28125 7.410156 -9.960938 6.765625 -9.328125 C 6.117188 -8.691406 5.796875 -7.738281 5.796875 -6.46875 L 5.796875 0 L 1.828125 0 L 1.828125 -13.6875 L 5.625 -13.6875 Z M 5.625 -11.875 "/></g></g></g><g fill="#ffffff" fill-opacity="1"><g transform="translate(789.441127, 61.126964)"><g><path d="M 15.234375 -6.796875 C 15.234375 -6.742188 15.207031 -6.382812 15.15625 -5.71875 L 4.8125 -5.71875 C 5 -4.875 5.4375 -4.203125 6.125 -3.703125 C 6.820312 -3.210938 7.6875 -2.96875 8.71875 -2.96875 C 9.4375 -2.96875 10.070312 -3.070312 10.625 -3.28125 C 11.175781 -3.5 11.6875 -3.835938 12.15625 -4.296875 L 14.265625 -2.015625 C 12.984375 -0.535156 11.101562 0.203125 8.625 0.203125 C 7.082031 0.203125 5.71875 -0.0976562 4.53125 -0.703125 C 3.34375 -1.304688 2.425781 -2.140625 1.78125 -3.203125 C 1.132812 -4.273438 0.8125 -5.488281 0.8125 -6.84375 C 0.8125 -8.1875 1.128906 -9.394531 1.765625 -10.46875 C 2.398438 -11.539062 3.269531 -12.378906 4.375 -12.984375 C 5.488281 -13.585938 6.734375 -13.890625 8.109375 -13.890625 C 9.453125 -13.890625 10.664062 -13.597656 11.75 -13.015625 C 12.832031 -12.441406 13.679688 -11.613281 14.296875 -10.53125 C 14.921875 -9.457031 15.234375 -8.210938 15.234375 -6.796875 Z M 8.140625 -10.890625 C 7.242188 -10.890625 6.488281 -10.632812 5.875 -10.125 C 5.257812 -9.613281 4.882812 -8.914062 4.75 -8.03125 L 11.5 -8.03125 C 11.363281 -8.894531 10.988281 -9.585938 10.375 -10.109375 C 9.769531 -10.628906 9.023438 -10.890625 8.140625 -10.890625 Z M 8.140625 -10.890625 "/></g></g></g><g fill="#ffffff" fill-opacity="1"><g transform="translate(805.903053, 61.126964)"><g><path d="M 15.234375 -6.796875 C 15.234375 -6.742188 15.207031 -6.382812 15.15625 -5.71875 L 4.8125 -5.71875 C 5 -4.875 5.4375 -4.203125 6.125 -3.703125 C 6.820312 -3.210938 7.6875 -2.96875 8.71875 -2.96875 C 9.4375 -2.96875 10.070312 -3.070312 10.625 -3.28125 C 11.175781 -3.5 11.6875 -3.835938 12.15625 -4.296875 L 14.265625 -2.015625 C 12.984375 -0.535156 11.101562 0.203125 8.625 0.203125 C 7.082031 0.203125 5.71875 -0.0976562 4.53125 -0.703125 C 3.34375 -1.304688 2.425781 -2.140625 1.78125 -3.203125 C 1.132812 -4.273438 0.8125 -5.488281 0.8125 -6.84375 C 0.8125 -8.1875 1.128906 -9.394531 1.765625 -10.46875 C 2.398438 -11.539062 3.269531 -12.378906 4.375 -12.984375 C 5.488281 -13.585938 6.734375 -13.890625 8.109375 -13.890625 C 9.453125 -13.890625 10.664062 -13.597656 11.75 -13.015625 C 12.832031 -12.441406 13.679688 -11.613281 14.296875 -10.53125 C 14.921875 -9.457031 15.234375 -8.210938 15.234375 -6.796875 Z M 8.140625 -10.890625 C 7.242188 -10.890625 6.488281 -10.632812 5.875 -10.125 C 5.257812 -9.613281 4.882812 -8.914062 4.75 -8.03125 L 11.5 -8.03125 C 11.363281 -8.894531 10.988281 -9.585938 10.375 -10.109375 C 9.769531 -10.628906 9.023438 -10.890625 8.140625 -10.890625 Z M 8.140625 -10.890625 "/></g></g></g><g fill="#ffffff" fill-opacity="1"><g transform="translate(822.36498, 61.126964)"><g><path d="M 10.15625 -13.890625 C 11.84375 -13.890625 13.207031 -13.378906 14.25 -12.359375 C 15.300781 -11.347656 15.828125 -9.835938 15.828125 -7.828125 L 15.828125 0 L 11.859375 0 L 11.859375 -7.21875 C 11.859375 -8.3125 11.617188 -9.125 11.140625 -9.65625 C 10.660156 -10.1875 9.972656 -10.453125 9.078125 -10.453125 C 8.078125 -10.453125 7.28125 -10.140625 6.6875 -9.515625 C 6.09375 -8.898438 5.796875 -7.984375 5.796875 -6.765625 L 5.796875 0 L 1.828125 0 L 1.828125 -13.6875 L 5.625 -13.6875 L 5.625 -12.078125 C 6.144531 -12.660156 6.796875 -13.109375 7.578125 -13.421875 C 8.359375 -13.734375 9.21875 -13.890625 10.15625 -13.890625 Z M 10.15625 -13.890625 "/></g></g></g><g fill="#ffffff" fill-opacity="1"><g transform="translate(840.353524, 61.126964)"><g><path d="M 6.4375 0.203125 C 5.300781 0.203125 4.1875 0.0625 3.09375 -0.21875 C 2.007812 -0.5 1.148438 -0.847656 0.515625 -1.265625 L 1.828125 -4.125 C 2.441406 -3.726562 3.179688 -3.40625 4.046875 -3.15625 C 4.910156 -2.914062 5.757812 -2.796875 6.59375 -2.796875 C 8.269531 -2.796875 9.109375 -3.210938 9.109375 -4.046875 C 9.109375 -4.429688 8.878906 -4.707031 8.421875 -4.875 C 7.960938 -5.050781 7.257812 -5.195312 6.3125 -5.3125 C 5.1875 -5.488281 4.257812 -5.6875 3.53125 -5.90625 C 2.800781 -6.125 2.171875 -6.507812 1.640625 -7.0625 C 1.109375 -7.625 0.84375 -8.425781 0.84375 -9.46875 C 0.84375 -10.332031 1.09375 -11.097656 1.59375 -11.765625 C 2.09375 -12.429688 2.820312 -12.953125 3.78125 -13.328125 C 4.738281 -13.703125 5.867188 -13.890625 7.171875 -13.890625 C 8.140625 -13.890625 9.101562 -13.78125 10.0625 -13.5625 C 11.019531 -13.351562 11.8125 -13.0625 12.4375 -12.6875 L 11.109375 -9.875 C 9.910156 -10.550781 8.597656 -10.890625 7.171875 -10.890625 C 6.328125 -10.890625 5.691406 -10.769531 5.265625 -10.53125 C 4.835938 -10.289062 4.625 -9.984375 4.625 -9.609375 C 4.625 -9.191406 4.851562 -8.894531 5.3125 -8.71875 C 5.769531 -8.550781 6.5 -8.390625 7.5 -8.234375 C 8.625 -8.054688 9.539062 -7.859375 10.25 -7.640625 C 10.957031 -7.429688 11.570312 -7.046875 12.09375 -6.484375 C 12.625 -5.921875 12.890625 -5.140625 12.890625 -4.140625 C 12.890625 -3.296875 12.632812 -2.539062 12.125 -1.875 C 11.625 -1.21875 10.882812 -0.707031 9.90625 -0.34375 C 8.925781 0.0195312 7.769531 0.203125 6.4375 0.203125 Z M 6.4375 0.203125 "/></g></g></g><g fill="#ffffff" fill-opacity="1"><g transform="translate(854.271103, 61.126964)"><g/></g></g><g fill="#ffffff" fill-opacity="1"><g transform="translate(861.878754, 61.126964)"><g><path d="M 10.65625 -0.65625 C 10.269531 -0.375 9.789062 -0.160156 9.21875 -0.015625 C 8.65625 0.128906 8.054688 0.203125 7.421875 0.203125 C 5.796875 0.203125 4.535156 -0.210938 3.640625 -1.046875 C 2.753906 -1.878906 2.3125 -3.097656 2.3125 -4.703125 L 2.3125 -10.328125 L 0.203125 -10.328125 L 0.203125 -13.375 L 2.3125 -13.375 L 2.3125 -16.71875 L 6.28125 -16.71875 L 6.28125 -13.375 L 9.6875 -13.375 L 9.6875 -10.328125 L 6.28125 -10.328125 L 6.28125 -4.75 C 6.28125 -4.175781 6.425781 -3.734375 6.71875 -3.421875 C 7.019531 -3.109375 7.441406 -2.953125 7.984375 -2.953125 C 8.609375 -2.953125 9.144531 -3.117188 9.59375 -3.453125 Z M 10.65625 -0.65625 "/></g></g></g><g fill="#ffffff" fill-opacity="1"><g transform="translate(873.353735, 61.126964)"><g><path d="M 8.34375 0.203125 C 6.90625 0.203125 5.613281 -0.0976562 4.46875 -0.703125 C 3.320312 -1.304688 2.425781 -2.140625 1.78125 -3.203125 C 1.132812 -4.273438 0.8125 -5.488281 0.8125 -6.84375 C 0.8125 -8.195312 1.132812 -9.40625 1.78125 -10.46875 C 2.425781 -11.539062 3.320312 -12.378906 4.46875 -12.984375 C 5.613281 -13.585938 6.90625 -13.890625 8.34375 -13.890625 C 9.78125 -13.890625 11.066406 -13.585938 12.203125 -12.984375 C 13.347656 -12.378906 14.238281 -11.539062 14.875 -10.46875 C 15.519531 -9.40625 15.84375 -8.195312 15.84375 -6.84375 C 15.84375 -5.488281 15.519531 -4.273438 14.875 -3.203125 C 14.238281 -2.140625 13.347656 -1.304688 12.203125 -0.703125 C 11.066406 -0.0976562 9.78125 0.203125 8.34375 0.203125 Z M 8.34375 -3.046875 C 9.363281 -3.046875 10.195312 -3.390625 10.84375 -4.078125 C 11.5 -4.765625 11.828125 -5.6875 11.828125 -6.84375 C 11.828125 -8 11.5 -8.921875 10.84375 -9.609375 C 10.195312 -10.296875 9.363281 -10.640625 8.34375 -10.640625 C 7.320312 -10.640625 6.476562 -10.296875 5.8125 -9.609375 C 5.15625 -8.921875 4.828125 -8 4.828125 -6.84375 C 4.828125 -5.6875 5.15625 -4.765625 5.8125 -4.078125 C 6.476562 -3.390625 7.320312 -3.046875 8.34375 -3.046875 Z M 8.34375 -3.046875 "/></g></g></g><g fill="#ffffff" fill-opacity="1"><g transform="translate(890.426345, 61.126964)"><g/></g></g><g fill="#ffffff" fill-opacity="1"><g transform="translate(898.033997, 61.126964)"><g><path d="M 15.953125 -13.6875 L 15.953125 -2.296875 C 15.953125 0.210938 15.296875 2.078125 13.984375 3.296875 C 12.679688 4.523438 10.773438 5.140625 8.265625 5.140625 C 6.941406 5.140625 5.6875 4.976562 4.5 4.65625 C 3.3125 4.332031 2.328125 3.863281 1.546875 3.25 L 3.125 0.40625 C 3.707031 0.882812 4.4375 1.257812 5.3125 1.53125 C 6.195312 1.8125 7.082031 1.953125 7.96875 1.953125 C 9.332031 1.953125 10.34375 1.644531 11 1.03125 C 11.65625 0.414062 11.984375 -0.519531 11.984375 -1.78125 L 11.984375 -2.359375 C 10.941406 -1.222656 9.5 -0.65625 7.65625 -0.65625 C 6.40625 -0.65625 5.253906 -0.929688 4.203125 -1.484375 C 3.160156 -2.035156 2.332031 -2.8125 1.71875 -3.8125 C 1.113281 -4.8125 0.8125 -5.96875 0.8125 -7.28125 C 0.8125 -8.582031 1.113281 -9.734375 1.71875 -10.734375 C 2.332031 -11.734375 3.160156 -12.507812 4.203125 -13.0625 C 5.253906 -13.613281 6.40625 -13.890625 7.65625 -13.890625 C 9.644531 -13.890625 11.15625 -13.238281 12.1875 -11.9375 L 12.1875 -13.6875 Z M 8.4375 -3.921875 C 9.488281 -3.921875 10.347656 -4.226562 11.015625 -4.84375 C 11.691406 -5.46875 12.03125 -6.28125 12.03125 -7.28125 C 12.03125 -8.28125 11.691406 -9.085938 11.015625 -9.703125 C 10.347656 -10.328125 9.488281 -10.640625 8.4375 -10.640625 C 7.394531 -10.640625 6.53125 -10.328125 5.84375 -9.703125 C 5.164062 -9.085938 4.828125 -8.28125 4.828125 -7.28125 C 4.828125 -6.28125 5.164062 -5.46875 5.84375 -4.84375 C 6.53125 -4.226562 7.394531 -3.921875 8.4375 -3.921875 Z M 8.4375 -3.921875 "/></g></g></g><g fill="#ffffff" fill-opacity="1"><g transform="translate(916.251479, 61.126964)"><g><path d="M 15.234375 -6.796875 C 15.234375 -6.742188 15.207031 -6.382812 15.15625 -5.71875 L 4.8125 -5.71875 C 5 -4.875 5.4375 -4.203125 6.125 -3.703125 C 6.820312 -3.210938 7.6875 -2.96875 8.71875 -2.96875 C 9.4375 -2.96875 10.070312 -3.070312 10.625 -3.28125 C 11.175781 -3.5 11.6875 -3.835938 12.15625 -4.296875 L 14.265625 -2.015625 C 12.984375 -0.535156 11.101562 0.203125 8.625 0.203125 C 7.082031 0.203125 5.71875 -0.0976562 4.53125 -0.703125 C 3.34375 -1.304688 2.425781 -2.140625 1.78125 -3.203125 C 1.132812 -4.273438 0.8125 -5.488281 0.8125 -6.84375 C 0.8125 -8.1875 1.128906 -9.394531 1.765625 -10.46875 C 2.398438 -11.539062 3.269531 -12.378906 4.375 -12.984375 C 5.488281 -13.585938 6.734375 -13.890625 8.109375 -13.890625 C 9.453125 -13.890625 10.664062 -13.597656 11.75 -13.015625 C 12.832031 -12.441406 13.679688 -11.613281 14.296875 -10.53125 C 14.921875 -9.457031 15.234375 -8.210938 15.234375 -6.796875 Z M 8.140625 -10.890625 C 7.242188 -10.890625 6.488281 -10.632812 5.875 -10.125 C 5.257812 -9.613281 4.882812 -8.914062 4.75 -8.03125 L 11.5 -8.03125 C 11.363281 -8.894531 10.988281 -9.585938 10.375 -10.109375 C 9.769531 -10.628906 9.023438 -10.890625 8.140625 -10.890625 Z M 8.140625 -10.890625 "/></g></g></g><g fill="#ffffff" fill-opacity="1"><g transform="translate(932.713405, 61.126964)"><g><path d="M 10.65625 -0.65625 C 10.269531 -0.375 9.789062 -0.160156 9.21875 -0.015625 C 8.65625 0.128906 8.054688 0.203125 7.421875 0.203125 C 5.796875 0.203125 4.535156 -0.210938 3.640625 -1.046875 C 2.753906 -1.878906 2.3125 -3.097656 2.3125 -4.703125 L 2.3125 -10.328125 L 0.203125 -10.328125 L 0.203125 -13.375 L 2.3125 -13.375 L 2.3125 -16.71875 L 6.28125 -16.71875 L 6.28125 -13.375 L 9.6875 -13.375 L 9.6875 -10.328125 L 6.28125 -10.328125 L 6.28125 -4.75 C 6.28125 -4.175781 6.425781 -3.734375 6.71875 -3.421875 C 7.019531 -3.109375 7.441406 -2.953125 7.984375 -2.953125 C 8.609375 -2.953125 9.144531 -3.117188 9.59375 -3.453125 Z M 10.65625 -0.65625 "/></g></g></g><g fill="#ffffff" fill-opacity="1"><g transform="translate(92.849359, 98.338502)"><g><path d="M 15.421875 -13.6875 L 9.234375 0.84375 C 8.609375 2.414062 7.832031 3.523438 6.90625 4.171875 C 5.976562 4.816406 4.863281 5.140625 3.5625 5.140625 C 2.851562 5.140625 2.148438 5.03125 1.453125 4.8125 C 0.753906 4.59375 0.1875 4.285156 -0.25 3.890625 L 1.203125 1.0625 C 1.503906 1.332031 1.851562 1.546875 2.25 1.703125 C 2.644531 1.859375 3.039062 1.9375 3.4375 1.9375 C 3.976562 1.9375 4.414062 1.800781 4.75 1.53125 C 5.09375 1.269531 5.398438 0.835938 5.671875 0.234375 L 5.71875 0.109375 L -0.203125 -13.6875 L 3.890625 -13.6875 L 7.734375 -4.40625 L 11.59375 -13.6875 Z M 15.421875 -13.6875 "/></g></g></g><g fill="#ffffff" fill-opacity="1"><g transform="translate(108.471653, 98.338502)"><g><path d="M 8.34375 0.203125 C 6.90625 0.203125 5.613281 -0.0976562 4.46875 -0.703125 C 3.320312 -1.304688 2.425781 -2.140625 1.78125 -3.203125 C 1.132812 -4.273438 0.8125 -5.488281 0.8125 -6.84375 C 0.8125 -8.195312 1.132812 -9.40625 1.78125 -10.46875 C 2.425781 -11.539062 3.320312 -12.378906 4.46875 -12.984375 C 5.613281 -13.585938 6.90625 -13.890625 8.34375 -13.890625 C 9.78125 -13.890625 11.066406 -13.585938 12.203125 -12.984375 C 13.347656 -12.378906 14.238281 -11.539062 14.875 -10.46875 C 15.519531 -9.40625 15.84375 -8.195312 15.84375 -6.84375 C 15.84375 -5.488281 15.519531 -4.273438 14.875 -3.203125 C 14.238281 -2.140625 13.347656 -1.304688 12.203125 -0.703125 C 11.066406 -0.0976562 9.78125 0.203125 8.34375 0.203125 Z M 8.34375 -3.046875 C 9.363281 -3.046875 10.195312 -3.390625 10.84375 -4.078125 C 11.5 -4.765625 11.828125 -5.6875 11.828125 -6.84375 C 11.828125 -8 11.5 -8.921875 10.84375 -9.609375 C 10.195312 -10.296875 9.363281 -10.640625 8.34375 -10.640625 C 7.320312 -10.640625 6.476562 -10.296875 5.8125 -9.609375 C 5.15625 -8.921875 4.828125 -8 4.828125 -6.84375 C 4.828125 -5.6875 5.15625 -4.765625 5.8125 -4.078125 C 6.476562 -3.390625 7.320312 -3.046875 8.34375 -3.046875 Z M 8.34375 -3.046875 "/></g></g></g><g fill="#ffffff" fill-opacity="1"><g transform="translate(125.544229, 98.338502)"><g><path d="M 15.625 -13.6875 L 15.625 0 L 11.859375 0 L 11.859375 -1.625 C 11.328125 -1.03125 10.695312 -0.578125 9.96875 -0.265625 C 9.238281 0.046875 8.453125 0.203125 7.609375 0.203125 C 5.804688 0.203125 4.378906 -0.3125 3.328125 -1.34375 C 2.273438 -2.382812 1.75 -3.921875 1.75 -5.953125 L 1.75 -13.6875 L 5.71875 -13.6875 L 5.71875 -6.53125 C 5.71875 -4.332031 6.644531 -3.234375 8.5 -3.234375 C 9.445312 -3.234375 10.207031 -3.539062 10.78125 -4.15625 C 11.363281 -4.78125 11.65625 -5.703125 11.65625 -6.921875 L 11.65625 -13.6875 Z M 15.625 -13.6875 "/></g></g></g><g fill="#ffffff" fill-opacity="1"><g transform="translate(143.430989, 98.338502)"><g/></g></g><g fill="#ffffff" fill-opacity="1"><g transform="translate(151.038607, 98.338502)"><g><path d="M 6.4375 0.203125 C 5.300781 0.203125 4.1875 0.0625 3.09375 -0.21875 C 2.007812 -0.5 1.148438 -0.847656 0.515625 -1.265625 L 1.828125 -4.125 C 2.441406 -3.726562 3.179688 -3.40625 4.046875 -3.15625 C 4.910156 -2.914062 5.757812 -2.796875 6.59375 -2.796875 C 8.269531 -2.796875 9.109375 -3.210938 9.109375 -4.046875 C 9.109375 -4.429688 8.878906 -4.707031 8.421875 -4.875 C 7.960938 -5.050781 7.257812 -5.195312 6.3125 -5.3125 C 5.1875 -5.488281 4.257812 -5.6875 3.53125 -5.90625 C 2.800781 -6.125 2.171875 -6.507812 1.640625 -7.0625 C 1.109375 -7.625 0.84375 -8.425781 0.84375 -9.46875 C 0.84375 -10.332031 1.09375 -11.097656 1.59375 -11.765625 C 2.09375 -12.429688 2.820312 -12.953125 3.78125 -13.328125 C 4.738281 -13.703125 5.867188 -13.890625 7.171875 -13.890625 C 8.140625 -13.890625 9.101562 -13.78125 10.0625 -13.5625 C 11.019531 -13.351562 11.8125 -13.0625 12.4375 -12.6875 L 11.109375 -9.875 C 9.910156 -10.550781 8.597656 -10.890625 7.171875 -10.890625 C 6.328125 -10.890625 5.691406 -10.769531 5.265625 -10.53125 C 4.835938 -10.289062 4.625 -9.984375 4.625 -9.609375 C 4.625 -9.191406 4.851562 -8.894531 5.3125 -8.71875 C 5.769531 -8.550781 6.5 -8.390625 7.5 -8.234375 C 8.625 -8.054688 9.539062 -7.859375 10.25 -7.640625 C 10.957031 -7.429688 11.570312 -7.046875 12.09375 -6.484375 C 12.625 -5.921875 12.890625 -5.140625 12.890625 -4.140625 C 12.890625 -3.296875 12.632812 -2.539062 12.125 -1.875 C 11.625 -1.21875 10.882812 -0.707031 9.90625 -0.34375 C 8.925781 0.0195312 7.769531 0.203125 6.4375 0.203125 Z M 6.4375 0.203125 "/></g></g></g><g fill="#ffffff" fill-opacity="1"><g transform="translate(164.956197, 98.338502)"><g><path d="M 10.65625 -0.65625 C 10.269531 -0.375 9.789062 -0.160156 9.21875 -0.015625 C 8.65625 0.128906 8.054688 0.203125 7.421875 0.203125 C 5.796875 0.203125 4.535156 -0.210938 3.640625 -1.046875 C 2.753906 -1.878906 2.3125 -3.097656 2.3125 -4.703125 L 2.3125 -10.328125 L 0.203125 -10.328125 L 0.203125 -13.375 L 2.3125 -13.375 L 2.3125 -16.71875 L 6.28125 -16.71875 L 6.28125 -13.375 L 9.6875 -13.375 L 9.6875 -10.328125 L 6.28125 -10.328125 L 6.28125 -4.75 C 6.28125 -4.175781 6.425781 -3.734375 6.71875 -3.421875 C 7.019531 -3.109375 7.441406 -2.953125 7.984375 -2.953125 C 8.609375 -2.953125 9.144531 -3.117188 9.59375 -3.453125 Z M 10.65625 -0.65625 "/></g></g></g><g fill="#ffffff" fill-opacity="1"><g transform="translate(176.431211, 98.338502)"><g><path d="M 7.34375 -13.890625 C 9.46875 -13.890625 11.097656 -13.382812 12.234375 -12.375 C 13.367188 -11.363281 13.9375 -9.84375 13.9375 -7.8125 L 13.9375 0 L 10.21875 0 L 10.21875 -1.703125 C 9.476562 -0.429688 8.085938 0.203125 6.046875 0.203125 C 5.003906 0.203125 4.09375 0.0234375 3.3125 -0.328125 C 2.539062 -0.679688 1.953125 -1.171875 1.546875 -1.796875 C 1.140625 -2.429688 0.9375 -3.144531 0.9375 -3.9375 C 0.9375 -5.207031 1.414062 -6.207031 2.375 -6.9375 C 3.332031 -7.664062 4.8125 -8.03125 6.8125 -8.03125 L 9.96875 -8.03125 C 9.96875 -8.894531 9.703125 -9.5625 9.171875 -10.03125 C 8.648438 -10.5 7.863281 -10.734375 6.8125 -10.734375 C 6.082031 -10.734375 5.363281 -10.617188 4.65625 -10.390625 C 3.957031 -10.160156 3.363281 -9.851562 2.875 -9.46875 L 1.453125 -12.234375 C 2.191406 -12.765625 3.082031 -13.171875 4.125 -13.453125 C 5.175781 -13.742188 6.25 -13.890625 7.34375 -13.890625 Z M 7.046875 -2.46875 C 7.722656 -2.46875 8.320312 -2.625 8.84375 -2.9375 C 9.375 -3.25 9.75 -3.710938 9.96875 -4.328125 L 9.96875 -5.71875 L 7.25 -5.71875 C 5.625 -5.71875 4.8125 -5.1875 4.8125 -4.125 C 4.8125 -3.613281 5.007812 -3.207031 5.40625 -2.90625 C 5.800781 -2.613281 6.347656 -2.46875 7.046875 -2.46875 Z M 7.046875 -2.46875 "/></g></g></g><g fill="#ffffff" fill-opacity="1"><g transform="translate(192.536932, 98.338502)"><g><path d="M 5.625 -11.875 C 6.09375 -12.539062 6.726562 -13.039062 7.53125 -13.375 C 8.34375 -13.71875 9.273438 -13.890625 10.328125 -13.890625 L 10.328125 -10.21875 C 9.890625 -10.257812 9.59375 -10.28125 9.4375 -10.28125 C 8.300781 -10.28125 7.410156 -9.960938 6.765625 -9.328125 C 6.117188 -8.691406 5.796875 -7.738281 5.796875 -6.46875 L 5.796875 0 L 1.828125 0 L 1.828125 -13.6875 L 5.625 -13.6875 Z M 5.625 -11.875 "/></g></g></g><g fill="#ffffff" fill-opacity="1"><g transform="translate(203.910174, 98.338502)"><g><path d="M 10.65625 -0.65625 C 10.269531 -0.375 9.789062 -0.160156 9.21875 -0.015625 C 8.65625 0.128906 8.054688 0.203125 7.421875 0.203125 C 5.796875 0.203125 4.535156 -0.210938 3.640625 -1.046875 C 2.753906 -1.878906 2.3125 -3.097656 2.3125 -4.703125 L 2.3125 -10.328125 L 0.203125 -10.328125 L 0.203125 -13.375 L 2.3125 -13.375 L 2.3125 -16.71875 L 6.28125 -16.71875 L 6.28125 -13.375 L 9.6875 -13.375 L 9.6875 -10.328125 L 6.28125 -10.328125 L 6.28125 -4.75 C 6.28125 -4.175781 6.425781 -3.734375 6.71875 -3.421875 C 7.019531 -3.109375 7.441406 -2.953125 7.984375 -2.953125 C 8.609375 -2.953125 9.144531 -3.117188 9.59375 -3.453125 Z M 10.65625 -0.65625 "/></g></g></g><g fill="#ffffff" fill-opacity="1"><g transform="translate(215.385189, 98.338502)"><g><path d="M 15.234375 -6.796875 C 15.234375 -6.742188 15.207031 -6.382812 15.15625 -5.71875 L 4.8125 -5.71875 C 5 -4.875 5.4375 -4.203125 6.125 -3.703125 C 6.820312 -3.210938 7.6875 -2.96875 8.71875 -2.96875 C 9.4375 -2.96875 10.070312 -3.070312 10.625 -3.28125 C 11.175781 -3.5 11.6875 -3.835938 12.15625 -4.296875 L 14.265625 -2.015625 C 12.984375 -0.535156 11.101562 0.203125 8.625 0.203125 C 7.082031 0.203125 5.71875 -0.0976562 4.53125 -0.703125 C 3.34375 -1.304688 2.425781 -2.140625 1.78125 -3.203125 C 1.132812 -4.273438 0.8125 -5.488281 0.8125 -6.84375 C 0.8125 -8.1875 1.128906 -9.394531 1.765625 -10.46875 C 2.398438 -11.539062 3.269531 -12.378906 4.375 -12.984375 C 5.488281 -13.585938 6.734375 -13.890625 8.109375 -13.890625 C 9.453125 -13.890625 10.664062 -13.597656 11.75 -13.015625 C 12.832031 -12.441406 13.679688 -11.613281 14.296875 -10.53125 C 14.921875 -9.457031 15.234375 -8.210938 15.234375 -6.796875 Z M 8.140625 -10.890625 C 7.242188 -10.890625 6.488281 -10.632812 5.875 -10.125 C 5.257812 -9.613281 4.882812 -8.914062 4.75 -8.03125 L 11.5 -8.03125 C 11.363281 -8.894531 10.988281 -9.585938 10.375 -10.109375 C 9.769531 -10.628906 9.023438 -10.890625 8.140625 -10.890625 Z M 8.140625 -10.890625 "/></g></g></g><g fill="#ffffff" fill-opacity="1"><g transform="translate(231.847115, 98.338502)"><g><path d="M 15.765625 -18.875 L 15.765625 0 L 11.984375 0 L 11.984375 -1.578125 C 10.992188 -0.390625 9.566406 0.203125 7.703125 0.203125 C 6.421875 0.203125 5.253906 -0.0820312 4.203125 -0.65625 C 3.160156 -1.238281 2.34375 -2.0625 1.75 -3.125 C 1.15625 -4.195312 0.859375 -5.4375 0.859375 -6.84375 C 0.859375 -8.25 1.15625 -9.484375 1.75 -10.546875 C 2.34375 -11.617188 3.160156 -12.441406 4.203125 -13.015625 C 5.253906 -13.597656 6.421875 -13.890625 7.703125 -13.890625 C 9.453125 -13.890625 10.816406 -13.335938 11.796875 -12.234375 L 11.796875 -18.875 Z M 8.390625 -3.046875 C 9.390625 -3.046875 10.21875 -3.390625 10.875 -4.078125 C 11.539062 -4.765625 11.875 -5.6875 11.875 -6.84375 C 11.875 -8 11.539062 -8.921875 10.875 -9.609375 C 10.21875 -10.296875 9.390625 -10.640625 8.390625 -10.640625 C 7.378906 -10.640625 6.539062 -10.296875 5.875 -9.609375 C 5.21875 -8.921875 4.890625 -8 4.890625 -6.84375 C 4.890625 -5.6875 5.21875 -4.765625 5.875 -4.078125 C 6.539062 -3.390625 7.378906 -3.046875 8.390625 -3.046875 Z M 8.390625 -3.046875 "/></g></g></g></svg>