<svg width="1356" height="171" viewBox="0 0 1356 171" fill="none" xmlns="http://www.w3.org/2000/svg">
<mask id="mask0_1249_91995" style="mask-type:luminance" maskUnits="userSpaceOnUse" x="0" y="0" width="1356" height="171">
<path d="M0 0H1355.49V170.677H0V0Z" fill="white"/>
</mask>
<g mask="url(#mask0_1249_91995)">
<path d="M0 0H1355.49V170.677H0V0Z" fill="white"/>
<path d="M0 0H1355.49V170.677H0V0Z" fill="#FFF0ED"/>
</g>
<mask id="mask1_1249_91995" style="mask-type:luminance" maskUnits="userSpaceOnUse" x="1304" y="69" width="37" height="36">
<path d="M1304.37 69.333H1340.41V104.687H1304.37V69.333Z" fill="white"/>
</mask>
<g mask="url(#mask1_1249_91995)">
<path d="M1339.7 104.703H1315.8V103.729H1338.73V70.349H1305.35V103.729H1313.37V104.703H1304.37V69.375H1339.7V104.703Z" fill="#272C3F"/>
</g>
<mask id="mask2_1249_91995" style="mask-type:luminance" maskUnits="userSpaceOnUse" x="1308" y="64" width="37" height="36">
<path d="M1308.41 64.9951H1344.06V100H1308.41V64.9951Z" fill="white"/>
</mask>
<g mask="url(#mask2_1249_91995)">
<path d="M1309.72 64.9951H1344.08V99.3493H1309.72V64.9951Z" fill="#FF8564"/>
</g>
<mask id="mask3_1249_91995" style="mask-type:luminance" maskUnits="userSpaceOnUse" x="19" y="30" width="28" height="28">
<path d="M19.9102 30.75H46.2174V57.0573H19.9102V30.75Z" fill="white"/>
</mask>
<g mask="url(#mask3_1249_91995)">
<mask id="mask4_1249_91995" style="mask-type:luminance" maskUnits="userSpaceOnUse" x="19" y="30" width="28" height="28">
<path d="M33.0664 30.75C25.8008 30.75 19.9102 36.6406 19.9102 43.9063C19.9102 51.1667 25.8008 57.0573 33.0664 57.0573C40.332 57.0573 46.2174 51.1667 46.2174 43.9063C46.2174 36.6406 40.332 30.75 33.0664 30.75Z" fill="white"/>
</mask>
<g mask="url(#mask4_1249_91995)">
<path d="M19.9102 30.75H46.2174V57.0573H19.9102V30.75Z" fill="#FF416C"/>
</g>
</g>
<mask id="mask5_1249_91995" style="mask-type:luminance" maskUnits="userSpaceOnUse" x="95" y="43" width="124" height="102">
<path d="M95.9414 43.9062H218.561V144.901H95.9414V43.9062Z" fill="white"/>
</mask>
<g mask="url(#mask5_1249_91995)">
<path d="M95.9414 43.9062H218.561V144.901H95.9414V43.9062Z" fill="#272C3F"/>
</g>
<path d="M109.652 144.661V44.1406H1263.23V95.0469H337.47V144.661H109.652Z" fill="#FF416C"/>
<path d="M121.691 57.7529H127.191V77.0238H139.087V81.5029H121.691V57.7529Z" fill="white"/>
<path d="M160.221 72.4398C160.221 72.5127 160.185 72.9919 160.117 73.8773H146.326C146.576 75.0023 147.159 75.8981 148.076 76.5648C149.003 77.221 150.159 77.5439 151.534 77.5439C152.492 77.5439 153.336 77.4085 154.076 77.1273C154.81 76.8356 155.492 76.3877 156.117 75.7731L158.93 78.8148C157.221 80.7887 154.711 81.7731 151.409 81.7731C149.352 81.7731 147.534 81.3721 145.951 80.5648C144.367 79.7627 143.143 78.6481 142.284 77.2314C141.419 75.8044 140.992 74.1846 140.992 72.3773C140.992 70.5856 141.414 68.9762 142.263 67.5439C143.107 66.1169 144.268 64.9971 145.742 64.1898C147.227 63.3877 148.888 62.9814 150.721 62.9814C152.513 62.9814 154.128 63.3721 155.576 64.1481C157.018 64.9137 158.148 66.0179 158.971 67.4606C159.805 68.8929 160.221 70.5544 160.221 72.4398ZM150.763 66.9814C149.565 66.9814 148.56 67.3252 147.742 68.0023C146.919 68.6846 146.419 69.6169 146.242 70.7939H155.242C155.06 69.6429 154.56 68.721 153.742 68.0231C152.935 67.3304 151.94 66.9814 150.763 66.9814Z" fill="white"/>
<path d="M176.066 80.6276C175.551 81.0026 174.91 81.2891 174.15 81.4818C173.4 81.6745 172.598 81.7734 171.754 81.7734C169.587 81.7734 167.905 81.2214 166.712 80.1068C165.53 78.9974 164.941 77.3724 164.941 75.2318V67.7318H162.129V63.6693H164.941V59.2109H170.233V63.6693H174.775V67.7318H170.233V75.1693C170.233 75.9349 170.426 76.5234 170.816 76.9401C171.217 77.3568 171.78 77.5651 172.504 77.5651C173.337 77.5651 174.051 77.3464 174.65 76.8984L176.066 80.6276Z" fill="white"/>
<path d="M213.117 62.9814C215.393 62.9814 217.206 63.6585 218.555 65.0023C219.898 66.3512 220.576 68.3721 220.576 71.0648V81.5023H215.284V71.8773C215.284 70.4189 214.982 69.3356 214.388 68.6273C213.789 67.9189 212.935 67.5648 211.826 67.5648C210.586 67.5648 209.602 67.971 208.867 68.7731C208.143 69.5648 207.784 70.7523 207.784 72.3356V81.5023H202.492V71.8773C202.492 69.0023 201.336 67.5648 199.034 67.5648C197.81 67.5648 196.836 67.971 196.117 68.7731C195.393 69.5648 195.034 70.7523 195.034 72.3356V81.5023H189.742V63.2523H194.805V65.3564C195.482 64.596 196.31 64.0127 197.284 63.6064C198.268 63.1898 199.352 62.9814 200.534 62.9814C201.826 62.9814 202.982 63.2419 204.013 63.7523C205.055 64.2523 205.893 64.9919 206.534 65.9606C207.284 65.0179 208.227 64.2887 209.367 63.7731C210.503 63.2471 211.753 62.9814 213.117 62.9814Z" fill="white"/>
<path d="M243.745 72.4398C243.745 72.5127 243.708 72.9919 243.641 73.8773H229.849C230.099 75.0023 230.682 75.8981 231.599 76.5648C232.526 77.221 233.682 77.5439 235.057 77.5439C236.016 77.5439 236.859 77.4085 237.599 77.1273C238.333 76.8356 239.016 76.3877 239.641 75.7731L242.453 78.8148C240.745 80.7887 238.234 81.7731 234.932 81.7731C232.875 81.7731 231.057 81.3721 229.474 80.5648C227.891 79.7627 226.667 78.6481 225.807 77.2314C224.943 75.8044 224.516 74.1846 224.516 72.3773C224.516 70.5856 224.937 68.9762 225.786 67.5439C226.63 66.1169 227.792 64.9971 229.266 64.1898C230.75 63.3877 232.411 62.9814 234.245 62.9814C236.036 62.9814 237.651 63.3721 239.099 64.1481C240.542 64.9137 241.672 66.0179 242.495 67.4606C243.328 68.8929 243.745 70.5544 243.745 72.4398ZM234.286 66.9814C233.089 66.9814 232.083 67.3252 231.266 68.0023C230.443 68.6846 229.943 69.6169 229.766 70.7939H238.766C238.583 69.6429 238.083 68.721 237.266 68.0231C236.458 67.3304 235.464 66.9814 234.286 66.9814Z" fill="white"/>
<path d="M264.111 81.7731C262.595 81.7731 261.111 81.5856 259.652 81.2106C258.204 80.8356 257.059 80.3721 256.215 79.8148L257.965 76.0023C258.783 76.5335 259.767 76.9606 260.923 77.2939C262.074 77.6169 263.204 77.7731 264.319 77.7731C266.553 77.7731 267.673 77.221 267.673 76.1064C267.673 75.596 267.366 75.2262 266.757 75.0023C266.142 74.7679 265.204 74.5752 263.944 74.4189C262.444 74.1846 261.204 73.9189 260.236 73.6273C259.262 73.3356 258.423 72.8252 257.715 72.0856C257.007 71.3356 256.652 70.2679 256.652 68.8773C256.652 67.7262 256.986 66.7054 257.652 65.8148C258.319 64.9294 259.288 64.2314 260.569 63.7314C261.845 63.2314 263.35 62.9814 265.09 62.9814C266.382 62.9814 267.663 63.1273 268.944 63.4189C270.22 63.7002 271.277 64.0856 272.111 64.5856L270.34 68.3356C268.741 67.4346 266.991 66.9814 265.09 66.9814C263.965 66.9814 263.116 67.1429 262.548 67.4606C261.975 67.7835 261.694 68.1898 261.694 68.6898C261.694 69.2471 261.996 69.6429 262.611 69.8773C263.22 70.1012 264.194 70.3148 265.527 70.5231C267.027 70.7627 268.246 71.0231 269.194 71.3148C270.137 71.596 270.954 72.1064 271.652 72.8564C272.361 73.6064 272.715 74.6481 272.715 75.9814C272.715 77.1064 272.371 78.1169 271.694 79.0023C271.027 79.8773 270.038 80.5596 268.736 81.0439C267.428 81.5283 265.887 81.7731 264.111 81.7731Z" fill="white"/>
<path d="M287.624 62.9818C289.874 62.9818 291.691 63.6641 293.082 65.0234C294.483 66.3724 295.186 68.388 295.186 71.0651V81.5026H289.895V71.8776C289.895 70.4193 289.572 69.3359 288.936 68.6276C288.296 67.9193 287.379 67.5651 286.186 67.5651C284.853 67.5651 283.79 67.9818 282.999 68.8151C282.207 69.638 281.811 70.8568 281.811 72.4818V81.5026H276.52V56.3359H281.811V65.1484C282.52 64.4557 283.363 63.9193 284.353 63.5443C285.353 63.1693 286.441 62.9818 287.624 62.9818Z" fill="white"/>
<path d="M309.194 81.7731C307.277 81.7731 305.553 81.3721 304.027 80.5648C302.496 79.7627 301.303 78.6481 300.444 77.2314C299.579 75.8044 299.152 74.1846 299.152 72.3773C299.152 70.5752 299.579 68.9606 300.444 67.5439C301.303 66.1169 302.496 64.9971 304.027 64.1898C305.553 63.3877 307.277 62.9814 309.194 62.9814C311.111 62.9814 312.824 63.3877 314.34 64.1898C315.866 64.9971 317.053 66.1169 317.902 67.5439C318.762 68.9606 319.194 70.5752 319.194 72.3773C319.194 74.1846 318.762 75.8044 317.902 77.2314C317.053 78.6481 315.866 79.7627 314.34 80.5648C312.824 81.3721 311.111 81.7731 309.194 81.7731ZM309.194 77.4398C310.553 77.4398 311.663 76.9814 312.527 76.0648C313.402 75.1481 313.84 73.9189 313.84 72.3773C313.84 70.8356 313.402 69.6064 312.527 68.6898C311.663 67.7731 310.553 67.3148 309.194 67.3148C307.829 67.3148 306.704 67.7731 305.819 68.6898C304.944 69.6064 304.507 70.8356 304.507 72.3773C304.507 73.9189 304.944 75.1481 305.819 76.0648C306.704 76.9814 307.829 77.4398 309.194 77.4398Z" fill="white"/>
<path d="M352.579 63.2529L345.954 81.5029H340.871L336.767 70.1696L332.538 81.5029H327.434L320.871 63.2529H325.85L330.163 75.6071L334.642 63.2529H339.1L343.454 75.6071L347.892 63.2529H352.579Z" fill="white"/>
<path d="M383.868 63.2529L375.618 82.6279C374.785 84.7217 373.749 86.2008 372.514 87.0654C371.275 87.9248 369.79 88.3571 368.056 88.3571C367.108 88.3571 366.171 88.2113 365.243 87.9196C364.311 87.6279 363.556 87.2165 362.973 86.6904L364.91 82.9196C365.311 83.279 365.775 83.5654 366.306 83.7738C366.832 83.9821 367.358 84.0863 367.889 84.0863C368.608 84.0863 369.191 83.904 369.639 83.5446C370.098 83.1956 370.504 82.6175 370.868 81.8154L370.931 81.6488L363.035 63.2529H368.493L373.618 75.6279L378.764 63.2529H383.868Z" fill="white"/>
<path d="M395.26 81.7731C393.344 81.7731 391.62 81.3721 390.094 80.5648C388.562 79.7627 387.37 78.6481 386.51 77.2314C385.646 75.8044 385.219 74.1846 385.219 72.3773C385.219 70.5752 385.646 68.9606 386.51 67.5439C387.37 66.1169 388.562 64.9971 390.094 64.1898C391.62 63.3877 393.344 62.9814 395.26 62.9814C397.177 62.9814 398.891 63.3877 400.406 64.1898C401.932 64.9971 403.12 66.1169 403.969 67.5439C404.828 68.9606 405.26 70.5752 405.26 72.3773C405.26 74.1846 404.828 75.8044 403.969 77.2314C403.12 78.6481 401.932 79.7627 400.406 80.5648C398.891 81.3721 397.177 81.7731 395.26 81.7731ZM395.26 77.4398C396.62 77.4398 397.729 76.9814 398.594 76.0648C399.469 75.1481 399.906 73.9189 399.906 72.3773C399.906 70.8356 399.469 69.6064 398.594 68.6898C397.729 67.7731 396.62 67.3148 395.26 67.3148C393.896 67.3148 392.771 67.7731 391.885 68.6898C391.01 69.6064 390.573 70.8356 390.573 72.3773C390.573 73.9189 391.01 75.1481 391.885 76.0648C392.771 76.9814 393.896 77.4398 395.26 77.4398Z" fill="white"/>
<path d="M427.73 63.2529V81.5029H422.71V79.3363C422.001 80.1279 421.158 80.7321 420.189 81.1488C419.215 81.5654 418.168 81.7738 417.043 81.7738C414.637 81.7738 412.736 81.0863 411.335 79.7113C409.928 78.3258 409.23 76.2738 409.23 73.5654V63.2529H414.522V72.7946C414.522 75.7269 415.757 77.1904 418.23 77.1904C419.491 77.1904 420.507 76.7842 421.272 75.9613C422.048 75.1279 422.439 73.8988 422.439 72.2738V63.2529H427.73Z" fill="white"/>
<path d="M455.098 80.6276C454.582 81.0026 453.941 81.2891 453.181 81.4818C452.431 81.6745 451.629 81.7734 450.785 81.7734C448.618 81.7734 446.936 81.2214 445.743 80.1068C444.561 78.9974 443.973 77.3724 443.973 75.2318V67.7318H441.16V63.6693H443.973V59.2109H449.264V63.6693H453.806V67.7318H449.264V75.1693C449.264 75.9349 449.457 76.5234 449.848 76.9401C450.249 77.3568 450.811 77.5651 451.535 77.5651C452.368 77.5651 453.082 77.3464 453.681 76.8984L455.098 80.6276Z" fill="white"/>
<path d="M469.733 62.9818C471.983 62.9818 473.801 63.6641 475.191 65.0234C476.592 66.3724 477.296 68.388 477.296 71.0651V81.5026H472.004V71.8776C472.004 70.4193 471.681 69.3359 471.046 68.6276C470.405 67.9193 469.488 67.5651 468.296 67.5651C466.962 67.5651 465.9 67.9818 465.108 68.8151C464.316 69.638 463.921 70.8568 463.921 72.4818V81.5026H458.629V56.3359H463.921V65.1484C464.629 64.4557 465.473 63.9193 466.462 63.5443C467.462 63.1693 468.551 62.9818 469.733 62.9818Z" fill="white"/>
<path d="M500.487 72.4398C500.487 72.5127 500.451 72.9919 500.383 73.8773H486.591C486.841 75.0023 487.424 75.8981 488.341 76.5648C489.268 77.221 490.424 77.5439 491.799 77.5439C492.758 77.5439 493.602 77.4085 494.341 77.1273C495.076 76.8356 495.758 76.3877 496.383 75.7731L499.195 78.8148C497.487 80.7887 494.977 81.7731 491.674 81.7731C489.617 81.7731 487.799 81.3721 486.216 80.5648C484.633 79.7627 483.409 78.6481 482.549 77.2314C481.685 75.8044 481.258 74.1846 481.258 72.3773C481.258 70.5856 481.68 68.9762 482.529 67.5439C483.372 66.1169 484.534 64.9971 486.008 64.1898C487.492 63.3877 489.154 62.9814 490.987 62.9814C492.779 62.9814 494.393 63.3721 495.841 64.1481C497.284 64.9137 498.414 66.0179 499.237 67.4606C500.07 68.8929 500.487 70.5544 500.487 72.4398ZM491.029 66.9814C489.831 66.9814 488.826 67.3252 488.008 68.0023C487.185 68.6846 486.685 69.6169 486.508 70.7939H495.508C495.326 69.6429 494.826 68.721 494.008 68.0231C493.201 67.3304 492.206 66.9814 491.029 66.9814Z" fill="white"/>
<path d="M525.495 62.9818C527.188 62.9818 528.729 63.3724 530.12 64.1484C531.505 64.9297 532.599 66.0234 533.391 67.4401C534.182 68.8568 534.578 70.5026 534.578 72.3776C534.578 74.2526 534.182 75.8984 533.391 77.3151C532.599 78.7318 531.505 79.8307 530.12 80.6068C528.729 81.388 527.188 81.7734 525.495 81.7734C522.979 81.7734 521.068 80.9818 519.766 79.3984V81.5026H514.703V56.3359H519.995V65.1901C521.328 63.7214 523.161 62.9818 525.495 62.9818ZM524.578 77.4401C525.938 77.4401 527.047 76.9818 527.911 76.0651C528.786 75.1484 529.224 73.9193 529.224 72.3776C529.224 70.8359 528.786 69.6068 527.911 68.6901C527.047 67.7734 525.938 67.3151 524.578 67.3151C523.214 67.3151 522.099 67.7734 521.224 68.6901C520.359 69.6068 519.932 70.8359 519.932 72.3776C519.932 73.9193 520.359 75.1484 521.224 76.0651C522.099 76.9818 523.214 77.4401 524.578 77.4401Z" fill="white"/>
<path d="M543.719 65.6689C544.344 64.7835 545.187 64.1169 546.26 63.6689C547.344 63.2106 548.583 62.9814 549.99 62.9814V67.8773C549.406 67.8252 549.01 67.7939 548.802 67.7939C547.286 67.7939 546.099 68.221 545.24 69.0648C544.375 69.9137 543.948 71.1846 543.948 72.8773V81.5023H538.656V63.2523H543.719V65.6689Z" fill="white"/>
<path d="M553.82 63.2529H559.112V81.5029H553.82V63.2529ZM556.487 60.7113C555.513 60.7113 554.721 60.4352 554.112 59.8779C553.497 59.3102 553.195 58.6019 553.195 57.7529C553.195 56.9196 553.497 56.2269 554.112 55.6696C554.721 55.1019 555.513 54.8154 556.487 54.8154C557.456 54.8154 558.247 55.0863 558.862 55.6279C559.471 56.1696 559.779 56.8519 559.779 57.6696C559.779 58.5446 559.471 59.2738 558.862 59.8571C558.247 60.43 557.456 60.7113 556.487 60.7113Z" fill="white"/>
<path d="M582.448 72.4398C582.448 72.5127 582.411 72.9919 582.344 73.8773H568.552C568.802 75.0023 569.385 75.8981 570.302 76.5648C571.229 77.221 572.385 77.5439 573.76 77.5439C574.719 77.5439 575.562 77.4085 576.302 77.1273C577.036 76.8356 577.719 76.3877 578.344 75.7731L581.156 78.8148C579.448 80.7887 576.937 81.7731 573.635 81.7731C571.578 81.7731 569.76 81.3721 568.177 80.5648C566.594 79.7627 565.37 78.6481 564.51 77.2314C563.646 75.8044 563.219 74.1846 563.219 72.3773C563.219 70.5856 563.641 68.9762 564.49 67.5439C565.333 66.1169 566.495 64.9971 567.969 64.1898C569.453 63.3877 571.115 62.9814 572.948 62.9814C574.74 62.9814 576.354 63.3721 577.802 64.1481C579.245 64.9137 580.375 66.0179 581.198 67.4606C582.031 68.8929 582.448 70.5544 582.448 72.4398ZM572.99 66.9814C571.792 66.9814 570.786 67.3252 569.969 68.0023C569.146 68.6846 568.646 69.6169 568.469 70.7939H577.469C577.286 69.6429 576.786 68.721 575.969 68.0231C575.161 67.3304 574.167 66.9814 572.99 66.9814Z" fill="white"/>
<path d="M592.335 63.6696H597.001V67.7321H592.46V81.5029H587.168V67.7321H584.355V63.6696H587.168V62.8571C587.168 60.7738 587.783 59.1227 589.022 57.8988C590.257 56.68 591.991 56.0654 594.23 56.0654C595.022 56.0654 595.772 56.1488 596.48 56.3154C597.189 56.4821 597.783 56.7269 598.272 57.0446L596.876 60.8779C596.262 60.4508 595.548 60.2321 594.73 60.2321C593.132 60.2321 592.335 61.1175 592.335 62.8779V63.6696Z" fill="white"/>
<path d="M619.026 81.7731C617.109 81.7731 615.385 81.3721 613.859 80.5648C612.328 79.7627 611.135 78.6481 610.276 77.2314C609.411 75.8044 608.984 74.1846 608.984 72.3773C608.984 70.5752 609.411 68.9606 610.276 67.5439C611.135 66.1169 612.328 64.9971 613.859 64.1898C615.385 63.3877 617.109 62.9814 619.026 62.9814C620.943 62.9814 622.656 63.3877 624.172 64.1898C625.698 64.9971 626.885 66.1169 627.734 67.5439C628.594 68.9606 629.026 70.5752 629.026 72.3773C629.026 74.1846 628.594 75.8044 627.734 77.2314C626.885 78.6481 625.698 79.7627 624.172 80.5648C622.656 81.3721 620.943 81.7731 619.026 81.7731ZM619.026 77.4398C620.385 77.4398 621.495 76.9814 622.359 76.0648C623.234 75.1481 623.672 73.9189 623.672 72.3773C623.672 70.8356 623.234 69.6064 622.359 68.6898C621.495 67.7731 620.385 67.3148 619.026 67.3148C617.661 67.3148 616.536 67.7731 615.651 68.6898C614.776 69.6064 614.339 70.8356 614.339 72.3773C614.339 73.9189 614.776 75.1481 615.651 76.0648C616.536 76.9814 617.661 77.4398 619.026 77.4398Z" fill="white"/>
<path d="M651.228 63.2529L643.52 81.5029H638.061L630.395 63.2529H635.853L640.915 75.6696L646.124 63.2529H651.228Z" fill="white"/>
<path d="M671.807 72.4398C671.807 72.5127 671.771 72.9919 671.703 73.8773H657.911C658.161 75.0023 658.745 75.8981 659.661 76.5648C660.589 77.221 661.745 77.5439 663.12 77.5439C664.078 77.5439 664.922 77.4085 665.661 77.1273C666.396 76.8356 667.078 76.3877 667.703 75.7731L670.516 78.8148C668.807 80.7887 666.297 81.7731 662.995 81.7731C660.937 81.7731 659.12 81.3721 657.536 80.5648C655.953 79.7627 654.729 78.6481 653.87 77.2314C653.005 75.8044 652.578 74.1846 652.578 72.3773C652.578 70.5856 653 68.9762 653.849 67.5439C654.693 66.1169 655.854 64.9971 657.328 64.1898C658.812 63.3877 660.474 62.9814 662.307 62.9814C664.099 62.9814 665.714 63.3721 667.161 64.1481C668.604 64.9137 669.734 66.0179 670.557 67.4606C671.391 68.8929 671.807 70.5544 671.807 72.4398ZM662.349 66.9814C661.151 66.9814 660.146 67.3252 659.328 68.0023C658.505 68.6846 658.005 69.6169 657.828 70.7939H666.828C666.646 69.6429 666.146 68.721 665.328 68.0231C664.521 67.3304 663.526 66.9814 662.349 66.9814Z" fill="white"/>
<path d="M680.945 65.6689C681.57 64.7835 682.414 64.1169 683.487 63.6689C684.57 63.2106 685.81 62.9814 687.216 62.9814V67.8773C686.633 67.8252 686.237 67.7939 686.029 67.7939C684.513 67.7939 683.326 68.221 682.466 69.0648C681.602 69.9137 681.174 71.1846 681.174 72.8773V81.5023H675.883V63.2523H680.945V65.6689Z" fill="white"/>
<path d="M709.169 63.2529L701.461 81.5029H696.003L688.336 63.2529H693.794L698.857 75.6696L704.065 63.2529H709.169Z" fill="white"/>
<path d="M711.875 63.2529H717.167V81.5029H711.875V63.2529ZM714.542 60.7113C713.568 60.7113 712.776 60.4352 712.167 59.8779C711.552 59.3102 711.25 58.6019 711.25 57.7529C711.25 56.9196 711.552 56.2269 712.167 55.6696C712.776 55.1019 713.568 54.8154 714.542 54.8154C715.51 54.8154 716.302 55.0863 716.917 55.6279C717.526 56.1696 717.833 56.8519 717.833 57.6696C717.833 58.5446 717.526 59.2738 716.917 59.8571C716.302 60.43 715.51 60.7113 714.542 60.7113Z" fill="white"/>
<path d="M740.503 72.4398C740.503 72.5127 740.466 72.9919 740.398 73.8773H726.607C726.857 75.0023 727.44 75.8981 728.357 76.5648C729.284 77.221 730.44 77.5439 731.815 77.5439C732.773 77.5439 733.617 77.4085 734.357 77.1273C735.091 76.8356 735.773 76.3877 736.398 75.7731L739.211 78.8148C737.503 80.7887 734.992 81.7731 731.69 81.7731C729.633 81.7731 727.815 81.3721 726.232 80.5648C724.648 79.7627 723.424 78.6481 722.565 77.2314C721.701 75.8044 721.273 74.1846 721.273 72.3773C721.273 70.5856 721.695 68.9762 722.544 67.5439C723.388 66.1169 724.549 64.9971 726.023 64.1898C727.508 63.3877 729.169 62.9814 731.003 62.9814C732.794 62.9814 734.409 63.3721 735.857 64.1481C737.299 64.9137 738.43 66.0179 739.253 67.4606C740.086 68.8929 740.503 70.5544 740.503 72.4398ZM731.044 66.9814C729.846 66.9814 728.841 67.3252 728.023 68.0023C727.201 68.6846 726.701 69.6169 726.523 70.7939H735.523C735.341 69.6429 734.841 68.721 734.023 68.0231C733.216 67.3304 732.221 66.9814 731.044 66.9814Z" fill="white"/>
<path d="M773.892 63.2529L767.267 81.5029H762.184L758.079 70.1696L753.85 81.5029H748.746L742.184 63.2529H747.163L751.475 75.6071L755.954 63.2529H760.413L764.767 75.6071L769.204 63.2529H773.892Z" fill="white"/>
<path d="M795.741 81.7731C793.824 81.7731 792.1 81.3721 790.574 80.5648C789.043 79.7627 787.85 78.6481 786.991 77.2314C786.126 75.8044 785.699 74.1846 785.699 72.3773C785.699 70.5752 786.126 68.9606 786.991 67.5439C787.85 66.1169 789.043 64.9971 790.574 64.1898C792.1 63.3877 793.824 62.9814 795.741 62.9814C797.658 62.9814 799.371 63.3877 800.887 64.1898C802.413 64.9971 803.6 66.1169 804.449 67.5439C805.309 68.9606 805.741 70.5752 805.741 72.3773C805.741 74.1846 805.309 75.8044 804.449 77.2314C803.6 78.6481 802.413 79.7627 800.887 80.5648C799.371 81.3721 797.658 81.7731 795.741 81.7731ZM795.741 77.4398C797.1 77.4398 798.21 76.9814 799.074 76.0648C799.949 75.1481 800.387 73.9189 800.387 72.3773C800.387 70.8356 799.949 69.6064 799.074 68.6898C798.21 67.7731 797.1 67.3148 795.741 67.3148C794.376 67.3148 793.251 67.7731 792.366 68.6898C791.491 69.6064 791.053 70.8356 791.053 72.3773C791.053 73.9189 791.491 75.1481 792.366 76.0648C793.251 76.9814 794.376 77.4398 795.741 77.4398Z" fill="white"/>
<path d="M815.628 63.6696H820.294V67.7321H815.753V81.5029H810.461V67.7321H807.648V63.6696H810.461V62.8571C810.461 60.7738 811.076 59.1227 812.315 57.8988C813.549 56.68 815.284 56.0654 817.523 56.0654C818.315 56.0654 819.065 56.1488 819.773 56.3154C820.482 56.4821 821.076 56.7269 821.565 57.0446L820.169 60.8779C819.555 60.4508 818.841 60.2321 818.023 60.2321C816.424 60.2321 815.628 61.1175 815.628 62.8779V63.6696Z" fill="white"/>
<path d="M845.402 80.6276C844.887 81.0026 844.246 81.2891 843.486 81.4818C842.736 81.6745 841.934 81.7734 841.09 81.7734C838.923 81.7734 837.241 81.2214 836.048 80.1068C834.866 78.9974 834.277 77.3724 834.277 75.2318V67.7318H831.465V63.6693H834.277V59.2109H839.569V63.6693H844.111V67.7318H839.569V75.1693C839.569 75.9349 839.762 76.5234 840.152 76.9401C840.553 77.3568 841.116 77.5651 841.84 77.5651C842.673 77.5651 843.387 77.3464 843.986 76.8984L845.402 80.6276Z" fill="white"/>
<path d="M860.034 62.9818C862.284 62.9818 864.102 63.6641 865.492 65.0234C866.893 66.3724 867.596 68.388 867.596 71.0651V81.5026H862.305V71.8776C862.305 70.4193 861.982 69.3359 861.346 68.6276C860.706 67.9193 859.789 67.5651 858.596 67.5651C857.263 67.5651 856.201 67.9818 855.409 68.8151C854.617 69.638 854.221 70.8568 854.221 72.4818V81.5026H848.93V56.3359H854.221V65.1484C854.93 64.4557 855.773 63.9193 856.763 63.5443C857.763 63.1693 858.852 62.9818 860.034 62.9818Z" fill="white"/>
<path d="M890.792 72.4398C890.792 72.5127 890.755 72.9919 890.688 73.8773H876.896C877.146 75.0023 877.729 75.8981 878.646 76.5648C879.573 77.221 880.729 77.5439 882.104 77.5439C883.063 77.5439 883.906 77.4085 884.646 77.1273C885.38 76.8356 886.063 76.3877 886.688 75.7731L889.5 78.8148C887.792 80.7887 885.281 81.7731 881.979 81.7731C879.922 81.7731 878.104 81.3721 876.521 80.5648C874.938 79.7627 873.714 78.6481 872.854 77.2314C871.99 75.8044 871.562 74.1846 871.562 72.3773C871.562 70.5856 871.984 68.9762 872.833 67.5439C873.677 66.1169 874.839 64.9971 876.313 64.1898C877.797 63.3877 879.458 62.9814 881.292 62.9814C883.083 62.9814 884.698 63.3721 886.146 64.1481C887.589 64.9137 888.719 66.0179 889.542 67.4606C890.375 68.8929 890.792 70.5544 890.792 72.4398ZM881.333 66.9814C880.135 66.9814 879.13 67.3252 878.313 68.0023C877.49 68.6846 876.99 69.6169 876.813 70.7939H885.813C885.63 69.6429 885.13 68.721 884.313 68.0231C883.505 67.3304 882.51 66.9814 881.333 66.9814Z" fill="white"/>
<path d="M910.819 63.6696H915.486V67.7321H910.944V81.5029H905.652V67.7321H902.84V63.6696H905.652V62.8571C905.652 60.7738 906.267 59.1227 907.507 57.8988C908.741 56.68 910.475 56.0654 912.715 56.0654C913.507 56.0654 914.257 56.1488 914.965 56.3154C915.673 56.4821 916.267 56.7269 916.757 57.0446L915.361 60.8779C914.746 60.4508 914.033 60.2321 913.215 60.2321C911.616 60.2321 910.819 61.1175 910.819 62.8779V63.6696Z" fill="white"/>
<path d="M918.68 63.2529H923.971V81.5029H918.68V63.2529ZM921.346 60.7113C920.372 60.7113 919.581 60.4352 918.971 59.8779C918.357 59.3102 918.055 58.6019 918.055 57.7529C918.055 56.9196 918.357 56.2269 918.971 55.6696C919.581 55.1019 920.372 54.8154 921.346 54.8154C922.315 54.8154 923.107 55.0863 923.721 55.6279C924.331 56.1696 924.638 56.8519 924.638 57.6696C924.638 58.5446 924.331 59.2738 923.721 59.8571C923.107 60.43 922.315 60.7113 921.346 60.7113Z" fill="white"/>
<path d="M940.538 62.9814C942.788 62.9814 944.605 63.6637 945.996 65.0231C947.397 66.3721 948.1 68.3877 948.1 71.0648V81.5023H942.809V71.8773C942.809 70.4189 942.486 69.3356 941.85 68.6273C941.21 67.9189 940.293 67.5648 939.1 67.5648C937.767 67.5648 936.704 67.9814 935.913 68.8148C935.121 69.6377 934.725 70.8564 934.725 72.4814V81.5023H929.434V63.2523H934.496V65.3981C935.189 64.6221 936.059 64.0231 937.1 63.6064C938.142 63.1898 939.288 62.9814 940.538 62.9814Z" fill="white"/>
<path d="M960.772 62.9814C963.605 62.9814 965.777 63.6585 967.293 65.0023C968.803 66.3512 969.564 68.3773 969.564 71.0856V81.5023H964.605V79.2314C963.616 80.9294 961.762 81.7731 959.043 81.7731C957.652 81.7731 956.439 81.5335 955.397 81.0648C954.366 80.596 953.585 79.9398 953.043 79.1064C952.501 78.2627 952.23 77.3096 952.23 76.2523C952.23 74.5596 952.866 73.2262 954.147 72.2523C955.423 71.2835 957.397 70.7939 960.064 70.7939H964.272C964.272 69.6429 963.918 68.7523 963.21 68.1273C962.512 67.5023 961.465 67.1898 960.064 67.1898C959.09 67.1898 958.132 67.346 957.189 67.6481C956.257 67.9554 955.465 68.3669 954.814 68.8773L952.918 65.1898C953.902 64.4814 955.09 63.9398 956.48 63.5648C957.882 63.1794 959.314 62.9814 960.772 62.9814ZM960.376 78.2106C961.277 78.2106 962.074 78.0023 962.772 77.5856C963.48 77.1689 963.98 76.5544 964.272 75.7314V73.8773H960.647C958.48 73.8773 957.397 74.5856 957.397 76.0023C957.397 76.6846 957.658 77.2262 958.189 77.6273C958.715 78.0179 959.444 78.2106 960.376 78.2106Z" fill="white"/>
<path d="M974.895 56.3359H980.186V81.5026H974.895V56.3359Z" fill="white"/>
<path d="M1001.93 81.7731C1000.42 81.7731 998.935 81.5856 997.477 81.2106C996.029 80.8356 994.883 80.3721 994.039 79.8148L995.789 76.0023C996.607 76.5335 997.591 76.9606 998.747 77.2939C999.898 77.6169 1001.03 77.7731 1002.14 77.7731C1004.38 77.7731 1005.5 77.221 1005.5 76.1064C1005.5 75.596 1005.19 75.2262 1004.58 75.0023C1003.97 74.7679 1003.03 74.5752 1001.77 74.4189C1000.27 74.1846 999.029 73.9189 998.06 73.6273C997.086 73.3356 996.247 72.8252 995.539 72.0856C994.831 71.3356 994.477 70.2679 994.477 68.8773C994.477 67.7262 994.81 66.7054 995.477 65.8148C996.143 64.9294 997.112 64.2314 998.393 63.7314C999.669 63.2314 1001.17 62.9814 1002.91 62.9814C1004.21 62.9814 1005.49 63.1273 1006.77 63.4189C1008.04 63.7002 1009.1 64.0856 1009.93 64.5856L1008.16 68.3356C1006.57 67.4346 1004.82 66.9814 1002.91 66.9814C1001.79 66.9814 1000.94 67.1429 1000.37 67.4606C999.799 67.7835 999.518 68.1898 999.518 68.6898C999.518 69.2471 999.82 69.6429 1000.43 69.8773C1001.04 70.1012 1002.02 70.3148 1003.35 70.5231C1004.85 70.7627 1006.07 71.0231 1007.02 71.3148C1007.96 71.596 1008.78 72.1064 1009.48 72.8564C1010.18 73.6064 1010.54 74.6481 1010.54 75.9814C1010.54 77.1064 1010.2 78.1169 1009.52 79.0023C1008.85 79.8773 1007.86 80.5596 1006.56 81.0439C1005.25 81.5283 1003.71 81.7731 1001.93 81.7731Z" fill="white"/>
<path d="M1023.16 81.7731C1021.21 81.7731 1019.46 81.3721 1017.91 80.5648C1016.37 79.7627 1015.16 78.6481 1014.28 77.2314C1013.42 75.8044 1012.99 74.1846 1012.99 72.3773C1012.99 70.5752 1013.42 68.9606 1014.28 67.5439C1015.16 66.1169 1016.37 64.9971 1017.91 64.1898C1019.46 63.3877 1021.21 62.9814 1023.16 62.9814C1025.09 62.9814 1026.77 63.3877 1028.2 64.1898C1029.64 64.9971 1030.69 66.1429 1031.35 67.6273L1027.24 69.8356C1026.28 68.1585 1024.91 67.3148 1023.14 67.3148C1021.76 67.3148 1020.62 67.7731 1019.7 68.6898C1018.79 69.596 1018.35 70.8252 1018.35 72.3773C1018.35 73.9346 1018.79 75.1689 1019.7 76.0856C1020.62 76.9919 1021.76 77.4398 1023.14 77.4398C1024.94 77.4398 1026.31 76.6012 1027.24 74.9189L1031.35 77.1689C1030.69 78.6169 1029.64 79.7471 1028.2 80.5648C1026.77 81.3721 1025.09 81.7731 1023.16 81.7731Z" fill="white"/>
<path d="M1040 65.6689C1040.63 64.7835 1041.47 64.1169 1042.54 63.6689C1043.63 63.2106 1044.86 62.9814 1046.27 62.9814V67.8773C1045.69 67.8252 1045.29 67.7939 1045.08 67.7939C1043.57 67.7939 1042.38 68.221 1041.52 69.0648C1040.66 69.9137 1040.23 71.1846 1040.23 72.8773V81.5023H1034.94V63.2523H1040V65.6689Z" fill="white"/>
<path d="M1067.98 72.4398C1067.98 72.5127 1067.94 72.9919 1067.88 73.8773H1054.08C1054.33 75.0023 1054.92 75.8981 1055.83 76.5648C1056.76 77.221 1057.92 77.5439 1059.29 77.5439C1060.25 77.5439 1061.09 77.4085 1061.83 77.1273C1062.57 76.8356 1063.25 76.3877 1063.88 75.7731L1066.69 78.8148C1064.98 80.7887 1062.47 81.7731 1059.17 81.7731C1057.11 81.7731 1055.29 81.3721 1053.71 80.5648C1052.13 79.7627 1050.9 78.6481 1050.04 77.2314C1049.18 75.8044 1048.75 74.1846 1048.75 72.3773C1048.75 70.5856 1049.17 68.9762 1050.02 67.5439C1050.86 66.1169 1052.03 64.9971 1053.5 64.1898C1054.98 63.3877 1056.65 62.9814 1058.48 62.9814C1060.27 62.9814 1061.89 63.3721 1063.33 64.1481C1064.78 64.9137 1065.91 66.0179 1066.73 67.4606C1067.56 68.8929 1067.98 70.5544 1067.98 72.4398ZM1058.52 66.9814C1057.32 66.9814 1056.32 67.3252 1055.5 68.0023C1054.68 68.6846 1054.18 69.6169 1054 70.7939H1063C1062.82 69.6429 1062.32 68.721 1061.5 68.0231C1060.69 67.3304 1059.7 66.9814 1058.52 66.9814Z" fill="white"/>
<path d="M1089.93 72.4398C1089.93 72.5127 1089.89 72.9919 1089.82 73.8773H1076.03C1076.28 75.0023 1076.87 75.8981 1077.78 76.5648C1078.71 77.221 1079.87 77.5439 1081.24 77.5439C1082.2 77.5439 1083.04 77.4085 1083.78 77.1273C1084.52 76.8356 1085.2 76.3877 1085.82 75.7731L1088.64 78.8148C1086.93 80.7887 1084.42 81.7731 1081.12 81.7731C1079.06 81.7731 1077.24 81.3721 1075.66 80.5648C1074.07 79.7627 1072.85 78.6481 1071.99 77.2314C1071.13 75.8044 1070.7 74.1846 1070.7 72.3773C1070.7 70.5856 1071.12 68.9762 1071.97 67.5439C1072.81 66.1169 1073.98 64.9971 1075.45 64.1898C1076.93 63.3877 1078.6 62.9814 1080.43 62.9814C1082.22 62.9814 1083.83 63.3721 1085.28 64.1481C1086.73 64.9137 1087.86 66.0179 1088.68 67.4606C1089.51 68.8929 1089.93 70.5544 1089.93 72.4398ZM1080.47 66.9814C1079.27 66.9814 1078.27 67.3252 1077.45 68.0023C1076.63 68.6846 1076.13 69.6169 1075.95 70.7939H1084.95C1084.77 69.6429 1084.27 68.721 1083.45 68.0231C1082.64 67.3304 1081.65 66.9814 1080.47 66.9814Z" fill="white"/>
<path d="M1105.11 62.9814C1107.36 62.9814 1109.18 63.6637 1110.57 65.0231C1111.97 66.3721 1112.67 68.3877 1112.67 71.0648V81.5023H1107.38V71.8773C1107.38 70.4189 1107.06 69.3356 1106.42 68.6273C1105.78 67.9189 1104.86 67.5648 1103.67 67.5648C1102.34 67.5648 1101.27 67.9814 1100.48 68.8148C1099.69 69.6377 1099.3 70.8564 1099.3 72.4814V81.5023H1094V63.2523H1099.07V65.3981C1099.76 64.6221 1100.63 64.0231 1101.67 63.6064C1102.71 63.1898 1103.86 62.9814 1105.11 62.9814Z" fill="white"/>
<path d="M1124.13 81.7731C1122.62 81.7731 1121.13 81.5856 1119.68 81.2106C1118.23 80.8356 1117.08 80.3721 1116.24 79.8148L1117.99 76.0023C1118.81 76.5335 1119.79 76.9606 1120.95 77.2939C1122.1 77.6169 1123.23 77.7731 1124.34 77.7731C1126.58 77.7731 1127.7 77.221 1127.7 76.1064C1127.7 75.596 1127.39 75.2262 1126.78 75.0023C1126.17 74.7679 1125.23 74.5752 1123.97 74.4189C1122.47 74.1846 1121.23 73.9189 1120.26 73.6273C1119.29 73.3356 1118.45 72.8252 1117.74 72.0856C1117.03 71.3356 1116.68 70.2679 1116.68 68.8773C1116.68 67.7262 1117.01 66.7054 1117.68 65.8148C1118.34 64.9294 1119.31 64.2314 1120.59 63.7314C1121.87 63.2314 1123.37 62.9814 1125.11 62.9814C1126.4 62.9814 1127.69 63.1273 1128.97 63.4189C1130.24 63.7002 1131.3 64.0856 1132.13 64.5856L1130.36 68.3356C1128.76 67.4346 1127.01 66.9814 1125.11 66.9814C1123.99 66.9814 1123.14 67.1429 1122.57 67.4606C1122 67.7835 1121.72 68.1898 1121.72 68.6898C1121.72 69.2471 1122.02 69.6429 1122.63 69.8773C1123.24 70.1012 1124.22 70.3148 1125.55 70.5231C1127.05 70.7627 1128.27 71.0231 1129.22 71.3148C1130.16 71.596 1130.98 72.1064 1131.68 72.8564C1132.38 73.6064 1132.74 74.6481 1132.74 75.9814C1132.74 77.1064 1132.39 78.1169 1131.72 79.0023C1131.05 79.8773 1130.06 80.5596 1128.76 81.0439C1127.45 81.5283 1125.91 81.7731 1124.13 81.7731Z" fill="white"/>
<path d="M1158.46 80.6276C1157.94 81.0026 1157.3 81.2891 1156.54 81.4818C1155.79 81.6745 1154.99 81.7734 1154.14 81.7734C1151.98 81.7734 1150.3 81.2214 1149.1 80.1068C1147.92 78.9974 1147.33 77.3724 1147.33 75.2318V67.7318H1144.52V63.6693H1147.33V59.2109H1152.62V63.6693H1157.17V67.7318H1152.62V75.1693C1152.62 75.9349 1152.82 76.5234 1153.21 76.9401C1153.61 77.3568 1154.17 77.5651 1154.89 77.5651C1155.73 77.5651 1156.44 77.3464 1157.04 76.8984L1158.46 80.6276Z" fill="white"/>
<path d="M1170.67 81.7731C1168.76 81.7731 1167.03 81.3721 1165.51 80.5648C1163.98 79.7627 1162.78 78.6481 1161.92 77.2314C1161.06 75.8044 1160.63 74.1846 1160.63 72.3773C1160.63 70.5752 1161.06 68.9606 1161.92 67.5439C1162.78 66.1169 1163.98 64.9971 1165.51 64.1898C1167.03 63.3877 1168.76 62.9814 1170.67 62.9814C1172.59 62.9814 1174.3 63.3877 1175.82 64.1898C1177.35 64.9971 1178.53 66.1169 1179.38 67.5439C1180.24 68.9606 1180.67 70.5752 1180.67 72.3773C1180.67 74.1846 1180.24 75.8044 1179.38 77.2314C1178.53 78.6481 1177.35 79.7627 1175.82 80.5648C1174.3 81.3721 1172.59 81.7731 1170.67 81.7731ZM1170.67 77.4398C1172.03 77.4398 1173.14 76.9814 1174.01 76.0648C1174.88 75.1481 1175.32 73.9189 1175.32 72.3773C1175.32 70.8356 1174.88 69.6064 1174.01 68.6898C1173.14 67.7731 1172.03 67.3148 1170.67 67.3148C1169.31 67.3148 1168.18 67.7731 1167.3 68.6898C1166.42 69.6064 1165.99 70.8356 1165.99 72.3773C1165.99 73.9189 1166.42 75.1481 1167.3 76.0648C1168.18 76.9814 1169.31 77.4398 1170.67 77.4398Z" fill="white"/>
<path d="M1213.73 63.2523V78.4398C1213.73 81.7835 1212.85 84.2731 1211.1 85.8981C1209.36 87.5335 1206.82 88.3564 1203.48 88.3564C1201.71 88.3564 1200.04 88.1377 1198.46 87.7106C1196.87 87.2783 1195.56 86.6533 1194.52 85.8356L1196.62 82.0439C1197.4 82.6794 1198.37 83.1794 1199.54 83.5439C1200.72 83.9189 1201.9 84.1064 1203.08 84.1064C1204.9 84.1064 1206.25 83.695 1207.12 82.8773C1208 82.0544 1208.43 80.8096 1208.43 79.1273V78.3564C1207.04 79.8721 1205.12 80.6273 1202.66 80.6273C1201 80.6273 1199.46 80.2627 1198.06 79.5231C1196.67 78.7887 1195.57 77.7523 1194.75 76.4189C1193.94 75.0856 1193.54 73.5439 1193.54 71.7939C1193.54 70.0596 1193.94 68.5231 1194.75 67.1898C1195.57 65.8564 1196.67 64.8252 1198.06 64.0856C1199.46 63.3512 1201 62.9814 1202.66 62.9814C1205.32 62.9814 1207.33 63.8512 1208.71 65.5856V63.2523H1213.73ZM1203.71 76.2731C1205.11 76.2731 1206.25 75.8669 1207.14 75.0439C1208.04 74.2106 1208.5 73.1273 1208.5 71.7939C1208.5 70.4606 1208.04 69.3877 1207.14 68.5648C1206.25 67.7314 1205.11 67.3148 1203.71 67.3148C1202.32 67.3148 1201.16 67.7314 1200.25 68.5648C1199.34 69.3877 1198.89 70.4606 1198.89 71.7939C1198.89 73.1273 1199.34 74.2106 1200.25 75.0439C1201.16 75.8669 1202.32 76.2731 1203.71 76.2731Z" fill="white"/>
<path d="M1237.06 72.4398C1237.06 72.5127 1237.02 72.9919 1236.95 73.8773H1223.16C1223.41 75.0023 1223.99 75.8981 1224.91 76.5648C1225.84 77.221 1226.99 77.5439 1228.37 77.5439C1229.33 77.5439 1230.17 77.4085 1230.91 77.1273C1231.65 76.8356 1232.33 76.3877 1232.95 75.7731L1235.77 78.8148C1234.06 80.7887 1231.55 81.7731 1228.24 81.7731C1226.19 81.7731 1224.37 81.3721 1222.79 80.5648C1221.2 79.7627 1219.98 78.6481 1219.12 77.2314C1218.26 75.8044 1217.83 74.1846 1217.83 72.3773C1217.83 70.5856 1218.25 68.9762 1219.1 67.5439C1219.94 66.1169 1221.1 64.9971 1222.58 64.1898C1224.06 63.3877 1225.72 62.9814 1227.56 62.9814C1229.35 62.9814 1230.96 63.3721 1232.41 64.1481C1233.85 64.9137 1234.98 66.0179 1235.81 67.4606C1236.64 68.8929 1237.06 70.5544 1237.06 72.4398ZM1227.6 66.9814C1226.4 66.9814 1225.4 67.3252 1224.58 68.0023C1223.76 68.6846 1223.26 69.6169 1223.08 70.7939H1232.08C1231.9 69.6429 1231.4 68.721 1230.58 68.0231C1229.77 67.3304 1228.78 66.9814 1227.6 66.9814Z" fill="white"/>
<path d="M1252.91 80.6276C1252.39 81.0026 1251.75 81.2891 1250.99 81.4818C1250.24 81.6745 1249.44 81.7734 1248.59 81.7734C1246.43 81.7734 1244.74 81.2214 1243.55 80.1068C1242.37 78.9974 1241.78 77.3724 1241.78 75.2318V67.7318H1238.97V63.6693H1241.78V59.2109H1247.07V63.6693H1251.61V67.7318H1247.07V75.1693C1247.07 75.9349 1247.27 76.5234 1247.66 76.9401C1248.06 77.3568 1248.62 77.5651 1249.34 77.5651C1250.18 77.5651 1250.89 77.3464 1251.49 76.8984L1252.91 80.6276Z" fill="white"/>
<path d="M139.439 112.868L131.189 132.243C130.355 134.337 129.319 135.816 128.085 136.681C126.845 137.54 125.361 137.972 123.626 137.972C122.678 137.972 121.741 137.826 120.814 137.535C119.882 137.243 119.126 136.832 118.543 136.306L120.48 132.535C120.882 132.894 121.345 133.181 121.876 133.389C122.402 133.597 122.928 133.701 123.46 133.701C124.178 133.701 124.762 133.519 125.21 133.16C125.668 132.811 126.074 132.233 126.439 131.431L126.501 131.264L118.605 112.868H124.064L129.189 125.243L134.335 112.868H139.439Z" fill="white"/>
<path d="M150.831 131.389C148.914 131.389 147.19 130.988 145.664 130.181C144.133 129.379 142.94 128.264 142.081 126.848C141.216 125.421 140.789 123.801 140.789 121.993C140.789 120.191 141.216 118.577 142.081 117.16C142.94 115.733 144.133 114.613 145.664 113.806C147.19 113.004 148.914 112.598 150.831 112.598C152.747 112.598 154.461 113.004 155.977 113.806C157.503 114.613 158.69 115.733 159.539 117.16C160.398 118.577 160.831 120.191 160.831 121.993C160.831 123.801 160.398 125.421 159.539 126.848C158.69 128.264 157.503 129.379 155.977 130.181C154.461 130.988 152.747 131.389 150.831 131.389ZM150.831 127.056C152.19 127.056 153.299 126.598 154.164 125.681C155.039 124.764 155.477 123.535 155.477 121.993C155.477 120.452 155.039 119.223 154.164 118.306C153.299 117.389 152.19 116.931 150.831 116.931C149.466 116.931 148.341 117.389 147.456 118.306C146.581 119.223 146.143 120.452 146.143 121.993C146.143 123.535 146.581 124.764 147.456 125.681C148.341 126.598 149.466 127.056 150.831 127.056Z" fill="white"/>
<path d="M183.305 112.868V131.118H178.284V128.951C177.576 129.743 176.732 130.347 175.763 130.764C174.789 131.181 173.742 131.389 172.617 131.389C170.211 131.389 168.31 130.701 166.909 129.326C165.503 127.941 164.805 125.889 164.805 123.181V112.868H170.096V122.41C170.096 125.342 171.331 126.806 173.805 126.806C175.065 126.806 176.081 126.399 176.846 125.576C177.622 124.743 178.013 123.514 178.013 121.889V112.868H183.305Z" fill="white"/>
<path d="M205.048 131.389C203.533 131.389 202.048 131.202 200.59 130.827C199.142 130.452 197.996 129.988 197.152 129.431L198.902 125.618C199.72 126.15 200.704 126.577 201.861 126.91C203.012 127.233 204.142 127.389 205.257 127.389C207.491 127.389 208.611 126.837 208.611 125.723C208.611 125.212 208.303 124.842 207.694 124.618C207.079 124.384 206.142 124.191 204.882 124.035C203.382 123.801 202.142 123.535 201.173 123.243C200.199 122.952 199.361 122.441 198.652 121.702C197.944 120.952 197.59 119.884 197.59 118.493C197.59 117.342 197.923 116.322 198.59 115.431C199.257 114.546 200.225 113.848 201.507 113.348C202.783 112.848 204.288 112.598 206.027 112.598C207.319 112.598 208.6 112.743 209.882 113.035C211.158 113.316 212.215 113.702 213.048 114.202L211.277 117.952C209.678 117.051 207.928 116.598 206.027 116.598C204.902 116.598 204.053 116.759 203.486 117.077C202.913 117.4 202.632 117.806 202.632 118.306C202.632 118.863 202.934 119.259 203.548 119.493C204.158 119.717 205.132 119.931 206.465 120.139C207.965 120.379 209.184 120.639 210.132 120.931C211.074 121.212 211.892 121.723 212.59 122.473C213.298 123.223 213.652 124.264 213.652 125.598C213.652 126.723 213.309 127.733 212.632 128.618C211.965 129.493 210.975 130.176 209.673 130.66C208.366 131.145 206.824 131.389 205.048 131.389Z" fill="white"/>
<path d="M229.227 130.243C228.711 130.618 228.07 130.904 227.31 131.097C226.56 131.29 225.758 131.389 224.914 131.389C222.747 131.389 221.065 130.837 219.872 129.722C218.69 128.613 218.102 126.988 218.102 124.847V117.347H215.289V113.285H218.102V108.826H223.393V113.285H227.935V117.347H223.393V124.785C223.393 125.55 223.586 126.139 223.977 126.555C224.378 126.972 224.94 127.18 225.664 127.18C226.497 127.18 227.211 126.962 227.81 126.514L229.227 130.243Z" fill="white"/>
<path d="M240.112 112.598C242.945 112.598 245.117 113.275 246.633 114.618C248.143 115.967 248.904 117.993 248.904 120.702V131.118H243.945V128.848C242.956 130.546 241.102 131.389 238.383 131.389C236.992 131.389 235.779 131.15 234.737 130.681C233.706 130.212 232.924 129.556 232.383 128.723C231.841 127.879 231.57 126.926 231.57 125.868C231.57 124.176 232.206 122.842 233.487 121.868C234.763 120.9 236.737 120.41 239.404 120.41H243.612C243.612 119.259 243.258 118.368 242.549 117.743C241.852 117.118 240.805 116.806 239.404 116.806C238.43 116.806 237.471 116.962 236.529 117.264C235.596 117.572 234.805 117.983 234.154 118.493L232.258 114.806C233.242 114.098 234.43 113.556 235.82 113.181C237.221 112.796 238.654 112.598 240.112 112.598ZM239.716 127.827C240.617 127.827 241.414 127.618 242.112 127.202C242.82 126.785 243.32 126.171 243.612 125.348V123.493H239.987C237.82 123.493 236.737 124.202 236.737 125.618C236.737 126.301 236.997 126.842 237.529 127.243C238.055 127.634 238.784 127.827 239.716 127.827Z" fill="white"/>
<path d="M259.293 115.285C259.918 114.4 260.762 113.733 261.835 113.285C262.918 112.827 264.158 112.598 265.564 112.598V117.493C264.98 117.441 264.585 117.41 264.376 117.41C262.861 117.41 261.673 117.837 260.814 118.681C259.949 119.53 259.522 120.801 259.522 122.493V131.118H254.23V112.868H259.293V115.285Z" fill="white"/>
<path d="M281.168 130.243C280.652 130.618 280.012 130.904 279.251 131.097C278.501 131.29 277.699 131.389 276.855 131.389C274.689 131.389 273.007 130.837 271.814 129.722C270.632 128.613 270.043 126.988 270.043 124.847V117.347H267.23V113.285H270.043V108.826H275.335V113.285H279.876V117.347H275.335V124.785C275.335 125.55 275.527 126.139 275.918 126.555C276.319 126.972 276.882 127.18 277.605 127.18C278.439 127.18 279.152 126.962 279.751 126.514L281.168 130.243Z" fill="white"/>
<path d="M302.569 122.056C302.569 122.129 302.533 122.608 302.465 123.493H288.673C288.923 124.618 289.507 125.514 290.423 126.181C291.35 126.837 292.507 127.16 293.882 127.16C294.84 127.16 295.684 127.025 296.423 126.743C297.158 126.452 297.84 126.004 298.465 125.389L301.277 128.431C299.569 130.405 297.059 131.389 293.757 131.389C291.699 131.389 289.882 130.988 288.298 130.181C286.715 129.379 285.491 128.264 284.632 126.848C283.767 125.421 283.34 123.801 283.34 121.993C283.34 120.202 283.762 118.592 284.611 117.16C285.454 115.733 286.616 114.613 288.09 113.806C289.574 113.004 291.236 112.598 293.069 112.598C294.861 112.598 296.475 112.988 297.923 113.764C299.366 114.53 300.496 115.634 301.319 117.077C302.152 118.509 302.569 120.171 302.569 122.056ZM293.111 116.598C291.913 116.598 290.908 116.941 290.09 117.618C289.267 118.301 288.767 119.233 288.59 120.41H297.59C297.408 119.259 296.908 118.337 296.09 117.639C295.283 116.947 294.288 116.598 293.111 116.598Z" fill="white"/>
<path d="M325.227 105.951V131.118H320.185V129.014C318.862 130.597 316.961 131.389 314.477 131.389C312.768 131.389 311.211 131.008 309.81 130.243C308.419 129.467 307.331 128.368 306.539 126.951C305.747 125.524 305.352 123.868 305.352 121.993C305.352 120.118 305.747 118.472 306.539 117.055C307.331 115.628 308.419 114.529 309.81 113.764C311.211 112.988 312.768 112.597 314.477 112.597C316.81 112.597 318.628 113.337 319.935 114.805V105.951H325.227ZM315.393 127.055C316.727 127.055 317.831 126.597 318.706 125.68C319.591 124.764 320.039 123.535 320.039 121.993C320.039 120.451 319.591 119.222 318.706 118.305C317.831 117.389 316.727 116.93 315.393 116.93C314.044 116.93 312.924 117.389 312.039 118.305C311.164 119.222 310.727 120.451 310.727 121.993C310.727 123.535 311.164 124.764 312.039 125.68C312.924 126.597 314.044 127.055 315.393 127.055Z" fill="white"/>
</svg>
