<svg xmlns="http://www.w3.org/2000/svg" version="1.1" xmlns:xlink="http://www.w3.org/1999/xlink" xmlns:svgjs="http://svgjs.com/svgjs" width="512" height="512" x="0" y="0" viewBox="0 0 512 512" style="enable-background:new 0 0 512 512" xml:space="preserve" class=""><g><linearGradient id="SVGID_1_" gradientUnits="userSpaceOnUse" x1="256" x2="256" y1="0" y2="512.001"><stop stop-opacity="1" stop-color="#d8ff00" offset="0"></stop><stop stop-opacity="1" stop-color="#ffff1f" offset="1"></stop></linearGradient><path d="m417.779 320.99c-10.801-8.656-23.442-14.016-36.219-17.943v-179.122c0-38.136-13.687-70.284-39.58-92.97-22.785-19.961-53.32-30.955-85.98-30.955s-63.195 10.994-85.98 30.955c-25.894 22.686-39.58 54.834-39.58 92.97v179.122c-12.776 3.928-25.418 9.287-36.219 17.943-20.92 16.765-31.09 42.426-31.09 78.448v100.562c0 6.627 5.373 12 12 12h361.738c6.627 0 12-5.373 12-12v-100.562c0-36.022-10.17-61.683-31.09-78.448zm-263.34-197.065c0-68.655 52.647-99.925 101.561-99.925 26.84 0 51.758 8.881 70.166 25.008 20.538 17.994 31.395 43.899 31.395 74.917v172.917c-.303-.07-.61-.143-.912-.212-34.32-7.946-52.525-13.436-54.904-40.608 6.406-5.93 12.298-13.122 17.541-21.496 17.818-28.463 27.236-69.612 27.236-119.001 0-6.268-4.823-11.479-11.072-11.964-20.757-1.609-40.572-10.491-55.797-25.009-2.779-2.65-6.66-3.81-10.436-3.12-3.778.689-6.998 3.145-8.661 6.606-15.189 31.603-47.515 52.023-82.354 52.024l-.64-.002c-3.185-.043-6.271 1.231-8.539 3.484-2.27 2.252-3.545 5.317-3.545 8.515 0 37.763 8.955 70.321 25.898 94.155 5.463 7.686 11.684 14.256 18.433 19.591-3.714 23.934-21.789 29.26-54.46 36.824-.301.069-.607.142-.91.212zm144.503 97.864c-12.163 19.43-28.228 30.129-45.241 30.128-.001 0-.005 0-.006 0-29.363-.005-60.467-33.009-63.903-94.452 34.477-3.556 65.896-22.793 84.933-51.824 14.148 10.325 30.481 17.33 47.645 20.408-1.472 50.232-13.354 79.652-23.428 95.74zm-67.304 50.251c7.147 2.544 14.562 3.876 22.054 3.877h.01c9.098 0 17.904-1.869 26.229-5.466 3.747 14.324 11.821 25.307 24.487 33.321 7.826 4.952 16.842 8.348 26.238 11.073-10.07 36.726-43.877 53.283-74.657 53.283s-64.587-16.558-74.657-53.283c9.396-2.726 18.412-6.121 26.239-11.073 12.194-7.716 20.138-18.18 24.057-31.732zm193.231 215.96h-43.309v-64.466c0-6.627-5.373-12-12-12s-12 5.373-12 12v64.466h-203.121v-64.466c0-6.627-5.373-12-12-12s-12 5.373-12 12v64.466h-43.308v-88.562c0-60.941 32.57-69.886 70.914-78.796 5.604 20.987 17.436 38.593 34.621 51.313 17.575 13.009 40.068 20.174 63.333 20.174s45.758-7.165 63.333-20.174c17.186-12.721 29.018-30.325 34.621-51.313 38.345 8.91 70.916 17.854 70.916 78.796z" fill="url(#SVGID_1_)" data-original="url(#SVGID_1_)"></path></g></svg>