<svg xmlns="http://www.w3.org/2000/svg" width="498" height="138.9" viewBox="0 0 498 138.9">
  <path id="Path_631" data-name="Path 631" d="M48.85,72.1a21.033,21.033,0,0,0,4.4-1.55,10.773,10.773,0,0,1,4.7-1.05,2.317,2.317,0,0,1,.45.05,2.317,2.317,0,0,0,.45.05,10.378,10.378,0,0,1,6.9,2.8,15.262,15.262,0,0,1,3.7,6.2,33.388,33.388,0,0,1,1.5,8q.3,4.3.3,8.4a4.26,4.26,0,0,0,1.55-.75q.95-.65,1.95-1.4t1.9-1.5q.9-.75,1.4-1.15l4.8-4q1.9-1.6,4.45-4.2t4.35-4.5a12.6,12.6,0,0,0,1.85-2.35q.45-.85,2.45-.85h.6a8.271,8.271,0,0,1,.3,1.65,3,3,0,0,1-.8,1.45,14,14,0,0,1-.9,1.3,5.471,5.471,0,0,1-1.1,1q-.5.8-.8,1.25A4.8,4.8,0,0,1,92.15,82a8.562,8.562,0,0,1-1.9,1.9l-8.4,7.8a23.1,23.1,0,0,1-2.2,1.95q-1.1.85-2.3,1.75-2.7,2-4.05,2.85a9.733,9.733,0,0,0-1.9,1.45,2.858,2.858,0,0,0-.7,1.5q-.15.9-.65,3.1a79.846,79.846,0,0,1-6.7,20.25,64.059,64.059,0,0,1-12.4,17.35,37.957,37.957,0,0,1-10.9,7.95,24.2,24.2,0,0,1-9.9,2.45,13.559,13.559,0,0,1-6.5-1.5,10.3,10.3,0,0,1-4.25-4.1,11.73,11.73,0,0,1-1.35-6.15,18.039,18.039,0,0,1,2.2-7.65,34.242,34.242,0,0,1,5-7.1,52.1,52.1,0,0,1,6.3-5.9q3.8-2.9,7.45-5.35t7.3-4.6q3.65-2.15,7.45-4.3t7.8-4.45q2.3-1.3,3.5-1.9a3.056,3.056,0,0,0,1.6-2V97a41.575,41.575,0,0,0,.5-6.95,33.86,33.86,0,0,0-.85-7.7,16.086,16.086,0,0,0-2.85-6.25,6.557,6.557,0,0,0-5.5-2.6,10.767,10.767,0,0,0-3.4.6,32.244,32.244,0,0,0-5,2,21.96,21.96,0,0,0-3.25,2.05q-1.35,1.05-2.5,2.1a21.816,21.816,0,0,1-2.85,2.15,3.042,3.042,0,0,0-.45.35.968.968,0,0,1-.65.15,1.108,1.108,0,0,1-.35-.05,1.108,1.108,0,0,0-.35-.05q-1.2-.2-1.4-.95a2.842,2.842,0,0,1,.1-1.65,6.72,6.72,0,0,1,.95-1.8q.65-.9,1.05-1.4.5-.8.95-1.4t.95-1.3q4-5.8,8-11.25a129.955,129.955,0,0,0,7.6-11.65q1.2-2.1,2.85-5.7a77.7,77.7,0,0,0,3.05-7.8,59.264,59.264,0,0,0,2.15-8.45,20.377,20.377,0,0,0,.05-7.65q-.7-3.6-2.9-3.6a7.093,7.093,0,0,0-4.3,2,41.084,41.084,0,0,0-4.7,4.65q-2.3,2.65-4.25,5.35t-2.85,4.1A131.006,131.006,0,0,0,39.6,46.9q-3.25,6.8-5.95,13.95T28.7,75.25Q26.45,82.5,24.75,89.1q-1,3.9-2,7.55t-1.8,7.75l-1.9,12.7a5.166,5.166,0,0,1-.6,1.7,3.833,3.833,0,0,1-1.4.9q-1.9-.4-2-1.45a16.935,16.935,0,0,1,.1-3.05l1.9-18.8q1.1-12.8,2.85-25.05T22.95,46.5q.5-3.1.85-6.3a57.919,57.919,0,0,0,.35-6.3q0-1.6.1-3.65a18.568,18.568,0,0,0-.1-3.45q-.3-1.7-.55-2.95t-.65-2.65a3.871,3.871,0,0,0-2.8,1.8q-1.1,1.6-1.9,3a72.244,72.244,0,0,0-7.2,14.05A70.265,70.265,0,0,0,6.95,55.5a53.083,53.083,0,0,0-.5,6.2,17.258,17.258,0,0,0,.7,5.9,2.93,2.93,0,0,0,1.4,1.8,7.089,7.089,0,0,0,1.55.4,1.869,1.869,0,0,1,1.1.45q.35.35.05,1.85a11.113,11.113,0,0,1-2.5.3,4,4,0,0,1-2.55-.75A7.038,7.038,0,0,1,4.45,69.4a15.223,15.223,0,0,1-1.3-6.3,53.182,53.182,0,0,1,.4-6.6A51.539,51.539,0,0,1,5.5,46.6q1.45-4.8,3.15-9.5l3.1-6.8q.5-1.1,1.7-3.35A42.261,42.261,0,0,1,16.2,22.5a25.262,25.262,0,0,1,3.3-3.85A5.207,5.207,0,0,1,23.05,17a3.74,3.74,0,0,1,3,1.7,9.705,9.705,0,0,1,1.85,3.65,25.166,25.166,0,0,1,.75,4.3,41.232,41.232,0,0,1,.15,4.55q-.05,2.3-.05,4.3a37.487,37.487,0,0,1-.25,4.6q-.25,2-.45,4.4-.2,4.5-.8,8.85t-1.3,8.85l-1.5,12.9q-.2,1.3-.4,2.25a10.485,10.485,0,0,0-.2,2.15,5.57,5.57,0,0,0,1-2.2q.3-1.3.6-2.3l1.4-4.5q.7-2.3,1.5-4.45t1.6-4.45q1.9-5.5,4.55-11.7a121.969,121.969,0,0,1,6.05-12.2A102.5,102.5,0,0,1,48,26.35a54.265,54.265,0,0,1,8.65-9.15,9.775,9.775,0,0,1,6.4-2.8,5.552,5.552,0,0,1,4.2,1.95,11.6,11.6,0,0,1,2.5,5.95,26.171,26.171,0,0,1-.15,8.95A54.623,54.623,0,0,1,67,40.7a86.587,86.587,0,0,1-4.05,9.2q-2.3,4.5-4.5,8.1-.8,1.2-2.25,3.25t-2.95,4.2q-1.5,2.15-2.75,4A27.925,27.925,0,0,0,48.85,72.1Zm-18.9,76.8a14.468,14.468,0,0,0,4.5-.75,24.027,24.027,0,0,0,3.8-1.55,35.383,35.383,0,0,0,7.65-5.15,45.34,45.34,0,0,0,6.2-6.7,66.221,66.221,0,0,0,5-7.7q2.25-4.05,4.15-8.25.5-1.1,1.25-3.25t1.5-4.5q.75-2.35,1.25-4.5a15.875,15.875,0,0,0,.5-3.35l-22.9,13.1-8.8,6.4q-1.7,1.4-4,3.6a37.942,37.942,0,0,0-3.7,4,22.918,22.918,0,0,0-4,7.3,11.083,11.083,0,0,0-.35,5.9,6.7,6.7,0,0,0,2.75,3.95A8.935,8.935,0,0,0,29.95,148.9Zm62.7-76.5q.4-5.2,1-10.25T95.35,52q.3-1.4.6-2.35t.6-2.15a22.265,22.265,0,0,1,1.05-2.65,1.206,1.206,0,0,1,1.15-.65,5.735,5.735,0,0,1,.7.05q.4.05.9.15a12.794,12.794,0,0,1-.2,5.45q-.7,3.15-1.1,5.75-1.1,6.9-1.8,15.2t-.7,15.8l.3,11.2.8-1.9q1-3,1.75-5.2t1.6-4.25q.85-2.05,1.9-4.25t2.65-5.1a34.541,34.541,0,0,1,2.1-3.4,3.775,3.775,0,0,1,3.3-1.4q.8,0,1.25,1a8.887,8.887,0,0,1,.65,2.3,22.864,22.864,0,0,1,.25,2.6q.05,1.3.05,2,0,2.9.15,4.8a9.78,9.78,0,0,0,1.15,3.8,5.8,5.8,0,0,0,2.1-1.1,10.525,10.525,0,0,0,1.8-1.85q.8-1.05,1.55-2.2t1.35-2.05q.7-1.1,1.3-2.2t1.2-2.3a12.974,12.974,0,0,1,1.45-2.2,1.574,1.574,0,0,1,1.15-.6,5.514,5.514,0,0,1,1.1.2,3.514,3.514,0,0,1-.2,2.9q-.7,1.1-1.5,2.6-.7,1.3-1.9,3.35a38.264,38.264,0,0,1-2.7,4,18.875,18.875,0,0,1-3.2,3.3,5.579,5.579,0,0,1-3.5,1.35q-3.3,0-4.3-5.9a34.285,34.285,0,0,1-.4-4.55q-.1-2.85-.1-4.95a7.381,7.381,0,0,0-1.7,2.35q-1,1.85-2,4t-1.85,4.3q-.85,2.15-1.35,3.25a55.707,55.707,0,0,0-1.95,6.25q-.75,3.05-1.65,5.85A3.922,3.922,0,0,1,98,104.65a3.663,3.663,0,0,1-2.05.45q-1.3,0-2.1-2.9a41.858,41.858,0,0,1-1.2-6.65q-.4-3.75-.5-7.25t-.1-4.6Zm30.5,9.5a17.274,17.274,0,0,1,1.05-5.25,31.389,31.389,0,0,1,2.8-6.1,20.323,20.323,0,0,1,4.1-5,7.444,7.444,0,0,1,4.95-2.05,5.31,5.31,0,0,1,3.1.9,7.454,7.454,0,0,1,2,1.95,3.238,3.238,0,0,1,.65,1.95q-.05.9-1.05.9a2.821,2.821,0,0,1-2.1-1.15,3.076,3.076,0,0,0-2.4-1.15,4.5,4.5,0,0,0-2.65,1.3,20.307,20.307,0,0,0-3.75,5.1A19.617,19.617,0,0,0,128,77.45a15.9,15.9,0,0,0-.85,5.05q.2-.2.15-.1t.35-.4l.8-1.2q.8-1.2,1.85-3.15t2.1-3.8q1.05-1.85,2-3.25t1.45-1.4a1.873,1.873,0,0,1,1.75.75,4.5,4.5,0,0,1,.55,1.95q.1,1.2.1,2.7a13.8,13.8,0,0,0,.3,2.9,7.946,7.946,0,0,0,1.85,3.95,3.925,3.925,0,0,0,2.85,1.25q2.8,0,6.2-3.4a12.6,12.6,0,0,0,1.95-2.15,12.517,12.517,0,0,1,1.65-1.95,2.116,2.116,0,0,1,1.8-1,1.01,1.01,0,0,1,.9.45,1.864,1.864,0,0,1,.1,1.4,7.113,7.113,0,0,1-1.15,2.35,20.519,20.519,0,0,1-2.85,3.2l-3,2.4a9.913,9.913,0,0,1-5.6,2,6.479,6.479,0,0,1-3.4-.9,9.183,9.183,0,0,1-2.55-2.25,10.761,10.761,0,0,1-1.65-3.05,9.889,9.889,0,0,1-.6-3.3,6.578,6.578,0,0,0-1.6,2.25q-.9,1.75-1.95,3.6a34.268,34.268,0,0,1-2.15,3.35,2.951,2.951,0,0,1-2.2,1.5q-2.8,0-3.4-1.3A10.055,10.055,0,0,1,123.15,81.9Zm30.4,9.7a1.043,1.043,0,0,1-1-.8,5.83,5.83,0,0,1-.35-1.75,11.335,11.335,0,0,1,.05-1.85q.1-.9.1-1.2-.1-1.8-.05-3.65t-.05-3.75q0-.7.05-2.7t.3-4.1a21.918,21.918,0,0,1,.75-3.75q.5-1.65,1.3-1.65,2,0,2.05,1.3a26.641,26.641,0,0,1-.15,3.4,12.888,12.888,0,0,0-.1,1.6v1.6a5.119,5.119,0,0,1-.1,1.35,4.525,4.525,0,0,0-.1,1.25,11.662,11.662,0,0,0,2-1.85,4.054,4.054,0,0,1,3.2-1.05q.7,0,1.85-.05t2.45-.05a31.5,31.5,0,0,1,4.1.25q1.9.25,1.9,1.25a1.252,1.252,0,0,1-1.05,1.35,11.175,11.175,0,0,1-2.55.25q-1,0-2.05-.05t-1.85-.05q-1.4,0-2.3.05a4.59,4.59,0,0,0-1.5.3,2.9,2.9,0,0,0-1.05.75,10.065,10.065,0,0,0-1.05,1.5,18.29,18.29,0,0,0-1.4,2.8,15.911,15.911,0,0,0-.9,3.3,10.428,10.428,0,0,0-.2,2.05,17.714,17.714,0,0,1-.1,1.95,2.71,2.71,0,0,1-.55,1.45A2.045,2.045,0,0,1,153.55,91.6Zm14.9-9.7a17.275,17.275,0,0,1,1.05-5.25,31.389,31.389,0,0,1,2.8-6.1,20.323,20.323,0,0,1,4.1-5,7.444,7.444,0,0,1,4.95-2.05,5.31,5.31,0,0,1,3.1.9,7.454,7.454,0,0,1,2,1.95,3.238,3.238,0,0,1,.65,1.95q-.05.9-1.05.9a2.821,2.821,0,0,1-2.1-1.15,3.076,3.076,0,0,0-2.4-1.15,4.5,4.5,0,0,0-2.65,1.3,20.307,20.307,0,0,0-3.75,5.1,19.618,19.618,0,0,0-1.85,4.15,15.9,15.9,0,0,0-.85,5.05q.2-.2.15-.1t.35-.4l.8-1.2q.8-1.2,1.85-3.15t2.1-3.8q1.05-1.85,2-3.25t1.45-1.4a1.873,1.873,0,0,1,1.75.75,4.5,4.5,0,0,1,.55,1.95q.1,1.2.1,2.7a13.8,13.8,0,0,0,.3,2.9,7.946,7.946,0,0,0,1.85,3.95,3.925,3.925,0,0,0,2.85,1.25q2.8,0,6.2-3.4a12.6,12.6,0,0,0,1.95-2.15,12.517,12.517,0,0,1,1.65-1.95,2.116,2.116,0,0,1,1.8-1,1.01,1.01,0,0,1,.9.45,1.864,1.864,0,0,1,.1,1.4A7.113,7.113,0,0,1,200,78.4a20.52,20.52,0,0,1-2.85,3.2l-3,2.4a9.913,9.913,0,0,1-5.6,2,6.479,6.479,0,0,1-3.4-.9,9.183,9.183,0,0,1-2.55-2.25,10.761,10.761,0,0,1-1.65-3.05,9.889,9.889,0,0,1-.6-3.3,6.578,6.578,0,0,0-1.6,2.25q-.9,1.75-1.95,3.6a34.268,34.268,0,0,1-2.15,3.35,2.951,2.951,0,0,1-2.2,1.5q-2.8,0-3.4-1.3A10.055,10.055,0,0,1,168.45,81.9Zm.9-34.5q0-1.1,1.75-2.3a28.206,28.206,0,0,1,4.45-2.4q2.7-1.2,6-2.3t6.5-2.05q3.2-.95,5.9-1.65t4.1-1.1q1.6-.4,2.4-.55a3.574,3.574,0,0,0,1.2-.4,1.3,1.3,0,0,0,.55-.8q.15-.55.45-1.85a16.612,16.612,0,0,1,1.85-5.65q1.05-1.55,2.05-1.55a1.592,1.592,0,0,1,1.35.85,3.692,3.692,0,0,1,.55,2.05q0,.9-.1.75t0,.65a3.142,3.142,0,0,0,.05.5,5.08,5.08,0,0,1,.05.8q0,1-.3,1.15a2.154,2.154,0,0,1-.7.2,1.175,1.175,0,0,0-.7.35,2.373,2.373,0,0,0-.3,1.5,13.169,13.169,0,0,0,2.65-.3q1.45-.3,2.55-.5,4.4-.8,8.8-1.45a61.509,61.509,0,0,1,9-.65,5.751,5.751,0,0,1,2.85.6,2.91,2.91,0,0,1,1.35,1.35,1.341,1.341,0,0,1-.2,1.4,2.287,2.287,0,0,1-1.9.65q-.2-.8-.25-.75a3.222,3.222,0,0,1-.95-.15,8.081,8.081,0,0,0-1.6-.1,46.192,46.192,0,0,0-5.6.45q-3.5.45-7.1,1.05t-6.55,1.15q-2.95.55-3.85.75l-2,20.5a7.362,7.362,0,0,0-.05,1.5q.05.8.05,1.6a3.517,3.517,0,0,1-.15,1.3,3.939,3.939,0,0,0-.15,1.4q0,2.2.1,5.05a29.653,29.653,0,0,1-.1,4.45q-.1,1.1-.2,4.9t-.1,8.25V94.6q0,4.1.1,5.7a20.272,20.272,0,0,0,.2,2.45q.2,1.55.25,3.05a8.828,8.828,0,0,1-.25,2.6,1.282,1.282,0,0,1-1.3,1.1,2,2,0,0,1-1.55-.6,3.606,3.606,0,0,1-.8-1.5,8.847,8.847,0,0,1-.3-1.95q-.05-1.05-.05-1.95-.2-2.7-.3-6.15t-.1-7.05q0-3.6.05-7.05t.05-6.15l.3-4.7V68.05q0-2.95.1-6.1t.2-5.9a31.281,31.281,0,0,1,.3-3.85,15.2,15.2,0,0,0,.25-2.4q.05-1.4.15-2.4l.9-9.3a11.315,11.315,0,0,1-1.8.45q-1.3.25-2.1.45-5,1.2-9.4,2.55t-9.1,3.15a15.226,15.226,0,0,0-1.65.85,15.226,15.226,0,0,1-1.65.85q-.9.4-1.3.55a.875.875,0,0,0-.5.35,3.3,3.3,0,0,0-.2.55,9.824,9.824,0,0,1-.4,1.05,8.9,8.9,0,0,1-1.7.2,3.419,3.419,0,0,1-1.45-.3Q169.35,48.5,169.35,47.4Zm39.7,25q.4-5.2,1-10.25T211.75,52q.3-1.4.6-2.35t.6-2.15A22.267,22.267,0,0,1,214,44.85a1.206,1.206,0,0,1,1.15-.65,5.735,5.735,0,0,1,.7.05q.4.05.9.15a12.8,12.8,0,0,1-.2,5.45q-.7,3.15-1.1,5.75-1.1,6.9-1.8,15.2t-.7,15.8l.3,11.2.8-1.9q1-3,1.75-5.2t1.6-4.25q.85-2.05,1.9-4.25t2.65-5.1a34.541,34.541,0,0,1,2.1-3.4,3.775,3.775,0,0,1,3.3-1.4q.8,0,1.25,1a8.887,8.887,0,0,1,.65,2.3,22.867,22.867,0,0,1,.25,2.6q.05,1.3.05,2,0,2.9.15,4.8a9.78,9.78,0,0,0,1.15,3.8,5.8,5.8,0,0,0,2.1-1.1,10.525,10.525,0,0,0,1.8-1.85q.8-1.05,1.55-2.2t1.35-2.05q.7-1.1,1.3-2.2t1.2-2.3a12.973,12.973,0,0,1,1.45-2.2,1.574,1.574,0,0,1,1.15-.6,5.514,5.514,0,0,1,1.1.2,3.514,3.514,0,0,1-.2,2.9q-.7,1.1-1.5,2.6-.7,1.3-1.9,3.35a38.265,38.265,0,0,1-2.7,4,18.875,18.875,0,0,1-3.2,3.3,5.579,5.579,0,0,1-3.5,1.35q-3.3,0-4.3-5.9a34.286,34.286,0,0,1-.4-4.55q-.1-2.85-.1-4.95a7.381,7.381,0,0,0-1.7,2.35q-1,1.85-2,4t-1.85,4.3q-.85,2.15-1.35,3.25a55.706,55.706,0,0,0-1.95,6.25q-.75,3.05-1.65,5.85a3.921,3.921,0,0,1-1.15,2.05,3.663,3.663,0,0,1-2.05.45q-1.3,0-2.1-2.9a41.856,41.856,0,0,1-1.2-6.65q-.4-3.75-.5-7.25t-.1-4.6Zm101.3,69.3a5.583,5.583,0,0,0,4.05-2.1,26.734,26.734,0,0,0,3.75-5.4,54.726,54.726,0,0,0,3.3-7.4q1.5-4.1,2.6-8t1.8-7.25a37.375,37.375,0,0,0,.8-5.15,7.281,7.281,0,0,0-1.8,1.85,10.343,10.343,0,0,1-1.7,1.95q-1.9,2-4.1,4.65t-4.2,5.55q-2,2.9-3.6,5.8a32.314,32.314,0,0,0-2.4,5.3q-.3,1-.75,2.75a13.63,13.63,0,0,0-.45,3.4,6.793,6.793,0,0,0,.55,2.85A2.131,2.131,0,0,0,310.35,141.7Zm-44.9-58.3a83.512,83.512,0,0,1,1.05-12.7,112.581,112.581,0,0,1,3-13.65,90.945,90.945,0,0,1,4.85-13.15,57.454,57.454,0,0,1,6.6-11.1,31.575,31.575,0,0,1,8.55-8.35,17.031,17.031,0,0,1,9.15-2.95,12.787,12.787,0,0,1,7.3,2.3,19.185,19.185,0,0,1,6,7.4,36.651,36.651,0,0,1,3,9.7,61.7,61.7,0,0,1,.85,10.9,82.115,82.115,0,0,1-.85,11.1,104.616,104.616,0,0,1-2,10.3,38.491,38.491,0,0,1-1.1,3.95,1.369,1.369,0,0,1-1.3,1.05,3.579,3.579,0,0,1-.75-.1,10.79,10.79,0,0,1-1.05-.3,8.181,8.181,0,0,1-.25-3.35q.25-1.25.55-3.55.7-3.1,1.1-5.6t.6-4.9q.2-2.4.25-4.95t.05-5.75a41.328,41.328,0,0,0-.7-7.15,33.826,33.826,0,0,0-2.2-7.45,19.551,19.551,0,0,0-3.8-5.9,7.464,7.464,0,0,0-5.6-2.4,11.028,11.028,0,0,0-5.8,1.7,23.506,23.506,0,0,0-5.3,4.5,41.421,41.421,0,0,0-4.6,6.3q-2.1,3.5-3.8,7.05T276.3,53.2q-1.25,3.3-1.95,5.6-1.2,4-2.3,9.55a96.767,96.767,0,0,0-1.55,11.4,65.535,65.535,0,0,0,.1,11.45,28.824,28.824,0,0,0,2.65,9.9q.7,1.4,1.6,2.95a8.063,8.063,0,0,0,2.3,2.55,10.543,10.543,0,0,0,3.65,2.15,12.417,12.417,0,0,0,3.95.65,16.982,16.982,0,0,0,5.65-1,32.245,32.245,0,0,0,5.45-2.5,41.954,41.954,0,0,0,4.9-3.3,44.093,44.093,0,0,0,4-3.5l5.4-5.9q1.8-2.3,3.25-4.45t2.75-4.25q1.3-2.1,2.55-4.35t2.75-4.85q.8-1.4,2-3.7T326,67.1a23.351,23.351,0,0,1,2.8-3.75,3.946,3.946,0,0,1,2.65-1.55,2.244,2.244,0,0,1,2.1,1.5,11.74,11.74,0,0,1,.95,3.55,34.253,34.253,0,0,1,.25,4.15v3.4a79.423,79.423,0,0,1-.9,12.45,75.485,75.485,0,0,0-1,8.65,1.644,1.644,0,0,0,.65-.6,2.153,2.153,0,0,1,.85-.7,3.548,3.548,0,0,1,.8-.65,4.97,4.97,0,0,0,.8-.55l13.9-13.6q.5-.6,1.15-1.45a16.571,16.571,0,0,1,1.45-1.65,10.115,10.115,0,0,1,1.65-1.35,2.92,2.92,0,0,1,1.55-.55q1.5,0,1.1,1.1A10.091,10.091,0,0,1,355.3,78a21.921,21.921,0,0,1-2.35,2.65,19.258,19.258,0,0,0-1.6,1.65,22.47,22.47,0,0,0-1.75,1.95,16.444,16.444,0,0,1-1.85,1.95l-15,14.2a3.873,3.873,0,0,0-1.2,2.5,17.088,17.088,0,0,1-.6,2.9q-.7,3.9-1.95,9.15t-3.05,10.5a67.443,67.443,0,0,1-4.25,9.85,24.406,24.406,0,0,1-5.65,7.3q-.8.6-2.2,1.45a4.958,4.958,0,0,1-2.5.85,7.76,7.76,0,0,1-4-.85,4.874,4.874,0,0,1-2-2.2,8.026,8.026,0,0,1-.65-3.05q-.05-1.7-.05-3.4a17.085,17.085,0,0,1,1.55-6.85,47.92,47.92,0,0,1,3.8-7q2.25-3.45,4.7-6.55t4.25-5.4a18.37,18.37,0,0,1,1.35-1.4,5.953,5.953,0,0,0,1.15-1.5,16.867,16.867,0,0,1,3.05-3.2q1.15-.8,1.9-1.4a4.113,4.113,0,0,0,1.2-1.7,22.206,22.206,0,0,0,.95-4.1q.3-2.4.85-6.6t.95-8.65q.4-4.45.55-8.5a24.471,24.471,0,0,0-.35-6.15l-4.3,7.1q-2.1,3.3-3.5,5.7T320,83.85q-1.35,2.25-2.95,4.7t-4.1,5.75a54.369,54.369,0,0,1-5.3,6.15,57.216,57.216,0,0,1-6.95,6,42.072,42.072,0,0,1-7.8,4.55,19.074,19.074,0,0,1-7.75,1.8,31.04,31.04,0,0,1-5.75-.5,10.3,10.3,0,0,1-5.25-3.1,27.09,27.09,0,0,1-6.8-11.5A50.833,50.833,0,0,1,265.45,83.4Zm91.6,6.3a4.786,4.786,0,0,0,2.7-2.7,17.669,17.669,0,0,0,1.7-5.1,19.224,19.224,0,0,0,.25-5.3,4.441,4.441,0,0,0-1.55-3.4q-.3,1.1-1.1,3.15T357.5,80.8a24.614,24.614,0,0,0-1,4.8A7.656,7.656,0,0,0,357.05,89.7Zm-5-3.4a24.546,24.546,0,0,1,.85-5.2,47.689,47.689,0,0,1,2.3-7,34.268,34.268,0,0,1,3.25-6.15q1.8-2.65,3.6-2.65a1.416,1.416,0,0,1,1.4.9,2.1,2.1,0,0,1,.2,1.5,2.806,2.806,0,0,1-.75,1,5.927,5.927,0,0,0-.95,1.1,3.67,3.67,0,0,0,1,1.5,8.856,8.856,0,0,1,1.55,2.3,12.094,12.094,0,0,1,1.05,3.85,19.988,19.988,0,0,1-.5,6.25q-1.1,5.2-3.5,7.8t-4.7,2.6a4.1,4.1,0,0,1-3.4-1.95A10.03,10.03,0,0,1,352.05,86.3Zm19,5.3a1.043,1.043,0,0,1-1-.8,5.831,5.831,0,0,1-.35-1.75,11.335,11.335,0,0,1,.05-1.85q.1-.9.1-1.2-.1-1.8-.05-3.65t-.05-3.75q0-.7.05-2.7t.3-4.1a21.915,21.915,0,0,1,.75-3.75q.5-1.65,1.3-1.65,2,0,2.05,1.3a26.64,26.64,0,0,1-.15,3.4,12.885,12.885,0,0,0-.1,1.6v1.6a5.121,5.121,0,0,1-.1,1.35,4.524,4.524,0,0,0-.1,1.25,11.662,11.662,0,0,0,2-1.85,4.054,4.054,0,0,1,3.2-1.05q.7,0,1.85-.05t2.45-.05a31.5,31.5,0,0,1,4.1.25q1.9.25,1.9,1.25a1.252,1.252,0,0,1-1.05,1.35,11.174,11.174,0,0,1-2.55.25q-1,0-2.05-.05t-1.85-.05q-1.4,0-2.3.05a4.59,4.59,0,0,0-1.5.3,2.9,2.9,0,0,0-1.05.75,10.063,10.063,0,0,0-1.05,1.5,18.289,18.289,0,0,0-1.4,2.8,15.913,15.913,0,0,0-.9,3.3,10.428,10.428,0,0,0-.2,2.05,17.71,17.71,0,0,1-.1,1.95,2.71,2.71,0,0,1-.55,1.45A2.045,2.045,0,0,1,371.05,91.6Zm19.5-17.7q.9-.5,2.05-1.2a16.8,16.8,0,0,0,2.15-1.55,9.15,9.15,0,0,0,1.7-1.9,4.708,4.708,0,0,0,.8-2.25,5.806,5.806,0,0,0-2.1.95,11.081,11.081,0,0,0-2,1.75,14.394,14.394,0,0,0-1.6,2.15A10.359,10.359,0,0,0,390.55,73.9Zm-4.5,2.4a9.635,9.635,0,0,1,1-4.05,19.155,19.155,0,0,1,2.5-4,14.936,14.936,0,0,1,3.4-3.1,6.737,6.737,0,0,1,3.7-1.25q3.3,0,3.45,2.5a8.113,8.113,0,0,1-2.15,5.4,18.857,18.857,0,0,1-3.6,3.05,9.846,9.846,0,0,1-4.7,1.85q0,1.6.1,2.85a4.2,4.2,0,0,0,1.4,2.55,4.471,4.471,0,0,0,3.3,1.3,8.013,8.013,0,0,0,2.7-.5,24.326,24.326,0,0,0,2.7-1.15,24.706,24.706,0,0,0,2.45-1.4A18.043,18.043,0,0,0,404.15,79q.6-.5.95-.8t.85-.7a21.271,21.271,0,0,0,2.15-1.9q.65-.7,1-1.1a1.484,1.484,0,0,1,.8-.5,8.171,8.171,0,0,1,1.55-.1,6,6,0,0,1,.15,1.5,2.827,2.827,0,0,1-.75,1.2q-1.4,1.4-3.3,3.1a36.939,36.939,0,0,1-4.15,3.2,28.192,28.192,0,0,1-4.6,2.5,11.808,11.808,0,0,1-4.65,1,7.9,7.9,0,0,1-5.8-2.4,6.509,6.509,0,0,1-2.05-3.7A30.673,30.673,0,0,1,386.05,76.3Zm24.4,10.5a2.217,2.217,0,0,1-2.2-1.7,12.183,12.183,0,0,1-.55-4.25,29.037,29.037,0,0,1,.7-5.55,40.412,40.412,0,0,1,1.6-5.55,22.013,22.013,0,0,1,2.05-4.25q1.1-1.7,2-1.7,1.7,0,1.55,1.6a20.345,20.345,0,0,1-.95,4.1q-.8,2.5-1.75,5.55a19.953,19.953,0,0,0-.95,5.95l4.8-7.3q.2-.4.85-1.45a20.466,20.466,0,0,1,1.5-2.1,13.565,13.565,0,0,1,1.8-1.85,2.911,2.911,0,0,1,1.85-.8q1.2,0,1.9,1.6l.6,5.6q0,.9.1,2.8a29.517,29.517,0,0,0,.45,3.8,11.026,11.026,0,0,0,1.15,3.35,2.439,2.439,0,0,0,2.2,1.45,4.5,4.5,0,0,0,3.15-1.85,41.641,41.641,0,0,0,3.2-4.1q1.55-2.25,2.8-4.1t1.95-1.85q1.5,0,1.35,1.15a8.012,8.012,0,0,1-.95,2.65,20.078,20.078,0,0,1-1.8,2.8q-1,1.3-1.2,1.6-.5.7-1.35,1.7t-1.8,1.95q-.95.95-1.9,1.75a4.424,4.424,0,0,1-1.85,1,6.616,6.616,0,0,1-1.9.3,4.415,4.415,0,0,1-3.65-1.7,12.62,12.62,0,0,1-2.05-3.7,26.726,26.726,0,0,1-.95-4.15,25.228,25.228,0,0,1-.25-3.35V73.6a4.609,4.609,0,0,0-.3-1.8,9.325,9.325,0,0,0-2.55,3.25q-1.35,2.45-2.8,5.05a51.531,51.531,0,0,1-2.9,4.65Q411.95,86.8,410.45,86.8Zm-.9-39.4q0-1.1,1.75-2.3a28.2,28.2,0,0,1,4.45-2.4q2.7-1.2,6-2.3t6.5-2.05q3.2-.95,5.9-1.65t4.1-1.1q1.6-.4,2.4-.55a3.575,3.575,0,0,0,1.2-.4,1.3,1.3,0,0,0,.55-.8q.15-.55.45-1.85a16.612,16.612,0,0,1,1.85-5.65q1.05-1.55,2.05-1.55a1.592,1.592,0,0,1,1.35.85,3.692,3.692,0,0,1,.55,2.05q0,.9-.1.75t0,.65a3.14,3.14,0,0,0,.05.5,5.082,5.082,0,0,1,.05.8q0,1-.3,1.15a2.154,2.154,0,0,1-.7.2,1.175,1.175,0,0,0-.7.35,2.374,2.374,0,0,0-.3,1.5,13.169,13.169,0,0,0,2.65-.3q1.45-.3,2.55-.5,4.4-.8,8.8-1.45a61.509,61.509,0,0,1,9-.65,5.751,5.751,0,0,1,2.85.6,2.91,2.91,0,0,1,1.35,1.35,1.341,1.341,0,0,1-.2,1.4,2.287,2.287,0,0,1-1.9.65q-.2-.8-.25-.75a3.222,3.222,0,0,1-.95-.15,8.081,8.081,0,0,0-1.6-.1,46.192,46.192,0,0,0-5.6.45q-3.5.45-7.1,1.05t-6.55,1.15q-2.95.55-3.85.75l-2,20.5a7.361,7.361,0,0,0-.05,1.5q.05.8.05,1.6a3.517,3.517,0,0,1-.15,1.3,3.939,3.939,0,0,0-.15,1.4q0,2.2.1,5.05a29.653,29.653,0,0,1-.1,4.45q-.1,1.1-.2,4.9t-.1,8.25V94.6q0,4.1.1,5.7a20.272,20.272,0,0,0,.2,2.45q.2,1.55.25,3.05a8.827,8.827,0,0,1-.25,2.6,1.282,1.282,0,0,1-1.3,1.1,2,2,0,0,1-1.55-.6,3.606,3.606,0,0,1-.8-1.5,8.847,8.847,0,0,1-.3-1.95q-.05-1.05-.05-1.95-.2-2.7-.3-6.15t-.1-7.05q0-3.6.05-7.05t.05-6.15l.3-4.7V68.05q0-2.95.1-6.1t.2-5.9a31.279,31.279,0,0,1,.3-3.85,15.2,15.2,0,0,0,.25-2.4q.05-1.4.15-2.4l.9-9.3a11.315,11.315,0,0,1-1.8.45q-1.3.25-2.1.45-5,1.2-9.4,2.55t-9.1,3.15a15.224,15.224,0,0,0-1.65.85,15.224,15.224,0,0,1-1.65.85q-.9.4-1.3.55a.875.875,0,0,0-.5.35,3.3,3.3,0,0,0-.2.55,9.829,9.829,0,0,1-.4,1.05,8.9,8.9,0,0,1-1.7.2,3.42,3.42,0,0,1-1.45-.3Q409.55,48.5,409.55,47.4Zm39.7,34.5a17.275,17.275,0,0,1,1.05-5.25,31.391,31.391,0,0,1,2.8-6.1,20.322,20.322,0,0,1,4.1-5,7.444,7.444,0,0,1,4.95-2.05,5.31,5.31,0,0,1,3.1.9,7.454,7.454,0,0,1,2,1.95,3.238,3.238,0,0,1,.65,1.95q-.05.9-1.05.9a2.821,2.821,0,0,1-2.1-1.15,3.076,3.076,0,0,0-2.4-1.15,4.5,4.5,0,0,0-2.65,1.3,20.306,20.306,0,0,0-3.75,5.1,19.619,19.619,0,0,0-1.85,4.15,15.9,15.9,0,0,0-.85,5.05q.2-.2.15-.1t.35-.4l.8-1.2q.8-1.2,1.85-3.15t2.1-3.8q1.05-1.85,2-3.25t1.45-1.4a1.873,1.873,0,0,1,1.75.75,4.5,4.5,0,0,1,.55,1.95q.1,1.2.1,2.7a13.805,13.805,0,0,0,.3,2.9,7.946,7.946,0,0,0,1.85,3.95,3.925,3.925,0,0,0,2.85,1.25q2.8,0,6.2-3.4a12.6,12.6,0,0,0,1.95-2.15,12.516,12.516,0,0,1,1.65-1.95,2.116,2.116,0,0,1,1.8-1,1.01,1.01,0,0,1,.9.45,1.864,1.864,0,0,1,.1,1.4,7.113,7.113,0,0,1-1.15,2.35,20.519,20.519,0,0,1-2.85,3.2l-3,2.4a9.913,9.913,0,0,1-5.6,2,6.479,6.479,0,0,1-3.4-.9,9.183,9.183,0,0,1-2.55-2.25,10.761,10.761,0,0,1-1.65-3.05,9.889,9.889,0,0,1-.6-3.3,6.579,6.579,0,0,0-1.6,2.25q-.9,1.75-1.95,3.6a34.276,34.276,0,0,1-2.15,3.35,2.951,2.951,0,0,1-2.2,1.5q-2.8,0-3.4-1.3A10.055,10.055,0,0,1,449.25,81.9Zm29.2,2.4q0-3.7.35-7.95t.95-8.6q.6-4.35,1.4-8.5t1.7-7.55q.3-1.1.7-2.45a25.363,25.363,0,0,1,.9-2.55,9.162,9.162,0,0,1,1.15-2.05,1.994,1.994,0,0,1,1.65-.85,1.386,1.386,0,0,1,1.5.9,4.013,4.013,0,0,1,.05,2.1,16.669,16.669,0,0,1-.65,2.3q-.4,1.1-.5,1.5-.7,2.5-1.55,6.6t-1.7,8.9q-.85,4.8-1.45,9.95t-.8,9.85a64.652,64.652,0,0,0,.15,8.55,16.3,16.3,0,0,0,1.45,5.95,7.236,7.236,0,0,0,2.8-2.7,36.722,36.722,0,0,0,1.9-3.5q2.3-4.4,4.5-9.3t4.6-9.2q.8-1.6,1.7-1.6a.766.766,0,0,1,.65.35,1.267,1.267,0,0,1,.25.75,5.324,5.324,0,0,1-.5,1.25q-.5,1.05-1.1,2.3t-1.2,2.35q-.6,1.1-.8,1.5-.8,1.6-1.7,3.65l-1.8,4.1q-.9,2.05-1.8,3.95t-1.7,3.3q-.4.6-.95,1.55a16.389,16.389,0,0,1-1.25,1.85,7.308,7.308,0,0,1-1.55,1.5,3,3,0,0,1-1.75.6,3.509,3.509,0,0,1-3.15-2,15.674,15.674,0,0,1-1.7-4.95,40.626,40.626,0,0,1-.65-6.2Q478.45,86.7,478.45,84.3Z" transform="translate(-2.65 -13.9)" fill="#fff" stroke="rgba(0,0,0,0)" stroke-width="1"/>
</svg>
