<svg xmlns="http://www.w3.org/2000/svg" width="354.688" height="138.9" viewBox="0 0 354.688 138.9">
  <path id="Path_630" data-name="Path 630" d="M-128.75-19.9a21.033,21.033,0,0,0,4.4-1.55,10.773,10.773,0,0,1,4.7-1.05,2.317,2.317,0,0,1,.45.05,2.317,2.317,0,0,0,.45.05,10.378,10.378,0,0,1,6.9,2.8,15.262,15.262,0,0,1,3.7,6.2,33.388,33.388,0,0,1,1.5,8q.3,4.3.3,8.4a4.26,4.26,0,0,0,1.55-.75q.95-.65,1.95-1.4t1.9-1.5q.9-.75,1.4-1.15l4.8-4q1.9-1.6,4.45-4.2t4.35-4.5a12.6,12.6,0,0,0,1.85-2.35q.45-.85,2.45-.85h.6a8.271,8.271,0,0,1,.3,1.65,3,3,0,0,1-.8,1.45,14,14,0,0,1-.9,1.3,5.471,5.471,0,0,1-1.1,1q-.5.8-.8,1.25A4.8,4.8,0,0,1-85.45-10a8.562,8.562,0,0,1-1.9,1.9l-8.4,7.8a23.1,23.1,0,0,1-2.2,1.95q-1.1.85-2.3,1.75-2.7,2-4.05,2.85a9.733,9.733,0,0,0-1.9,1.45,2.858,2.858,0,0,0-.7,1.5q-.15.9-.65,3.1a79.846,79.846,0,0,1-6.7,20.25,64.06,64.06,0,0,1-12.4,17.35,37.956,37.956,0,0,1-10.9,7.95,24.2,24.2,0,0,1-9.9,2.45,13.559,13.559,0,0,1-6.5-1.5,10.3,10.3,0,0,1-4.25-4.1,11.73,11.73,0,0,1-1.35-6.15,18.039,18.039,0,0,1,2.2-7.65,34.242,34.242,0,0,1,5-7.1,52.1,52.1,0,0,1,6.3-5.9q3.8-2.9,7.45-5.35t7.3-4.6q3.65-2.15,7.45-4.3t7.8-4.45q2.3-1.3,3.5-1.9a3.056,3.056,0,0,0,1.6-2V5a41.575,41.575,0,0,0,.5-6.95,33.86,33.86,0,0,0-.85-7.7,16.086,16.086,0,0,0-2.85-6.25,6.557,6.557,0,0,0-5.5-2.6,10.767,10.767,0,0,0-3.4.6,32.244,32.244,0,0,0-5,2,21.962,21.962,0,0,0-3.25,2.05q-1.35,1.05-2.5,2.1a21.818,21.818,0,0,1-2.85,2.15,3.043,3.043,0,0,0-.45.35.968.968,0,0,1-.65.15,1.108,1.108,0,0,1-.35-.05,1.108,1.108,0,0,0-.35-.05q-1.2-.2-1.4-.95a2.842,2.842,0,0,1,.1-1.65,6.719,6.719,0,0,1,.95-1.8q.65-.9,1.05-1.4.5-.8.95-1.4t.95-1.3q4-5.8,8-11.25a129.955,129.955,0,0,0,7.6-11.65q1.2-2.1,2.85-5.7a77.7,77.7,0,0,0,3.05-7.8,59.264,59.264,0,0,0,2.15-8.45,20.377,20.377,0,0,0,.05-7.65q-.7-3.6-2.9-3.6a7.093,7.093,0,0,0-4.3,2,41.084,41.084,0,0,0-4.7,4.65q-2.3,2.65-4.25,5.35t-2.85,4.1A131,131,0,0,0-138-45.1q-3.25,6.8-5.95,13.95t-4.95,14.4q-2.25,7.25-3.95,13.85-1,3.9-2,7.55t-1.8,7.75l-1.9,12.7a5.166,5.166,0,0,1-.6,1.7,3.833,3.833,0,0,1-1.4.9q-1.9-.4-2-1.45a16.936,16.936,0,0,1,.1-3.05l1.9-18.8q1.1-12.8,2.85-25.05t3.05-24.85q.5-3.1.85-6.3a57.918,57.918,0,0,0,.35-6.3q0-1.6.1-3.65a18.568,18.568,0,0,0-.1-3.45q-.3-1.7-.55-2.95t-.65-2.65a3.871,3.871,0,0,0-2.8,1.8q-1.1,1.6-1.9,3a72.244,72.244,0,0,0-7.2,14.05,70.264,70.264,0,0,0-4.1,15.45,53.08,53.08,0,0,0-.5,6.2,17.258,17.258,0,0,0,.7,5.9,2.93,2.93,0,0,0,1.4,1.8,7.089,7.089,0,0,0,1.55.4,1.869,1.869,0,0,1,1.1.45q.35.35.05,1.85a11.114,11.114,0,0,1-2.5.3,4,4,0,0,1-2.55-.75,7.038,7.038,0,0,1-1.75-2.25,15.223,15.223,0,0,1-1.3-6.3,53.183,53.183,0,0,1,.4-6.6,51.538,51.538,0,0,1,1.95-9.9q1.45-4.8,3.15-9.5l3.1-6.8q.5-1.1,1.7-3.35a42.26,42.26,0,0,1,2.75-4.45,25.262,25.262,0,0,1,3.3-3.85A5.207,5.207,0,0,1-154.55-75a3.74,3.74,0,0,1,3,1.7,9.705,9.705,0,0,1,1.85,3.65,25.166,25.166,0,0,1,.75,4.3,41.234,41.234,0,0,1,.15,4.55q-.05,2.3-.05,4.3a37.486,37.486,0,0,1-.25,4.6q-.25,2-.45,4.4-.2,4.5-.8,8.85t-1.3,8.85l-1.5,12.9q-.2,1.3-.4,2.25a10.484,10.484,0,0,0-.2,2.15,5.57,5.57,0,0,0,1-2.2q.3-1.3.6-2.3l1.4-4.5q.7-2.3,1.5-4.45t1.6-4.45q1.9-5.5,4.55-11.7a121.969,121.969,0,0,1,6.05-12.2,102.5,102.5,0,0,1,7.45-11.35,54.265,54.265,0,0,1,8.65-9.15,9.775,9.775,0,0,1,6.4-2.8,5.552,5.552,0,0,1,4.2,1.95,11.6,11.6,0,0,1,2.5,5.95,26.171,26.171,0,0,1-.15,8.95,54.623,54.623,0,0,1-2.6,9.45,86.586,86.586,0,0,1-4.05,9.2q-2.3,4.5-4.5,8.1-.8,1.2-2.25,3.25t-2.95,4.2q-1.5,2.15-2.75,4A27.922,27.922,0,0,0-128.75-19.9Zm-18.9,76.8a14.468,14.468,0,0,0,4.5-.75,24.026,24.026,0,0,0,3.8-1.55,35.383,35.383,0,0,0,7.65-5.15,45.34,45.34,0,0,0,6.2-6.7,66.221,66.221,0,0,0,5-7.7q2.25-4.05,4.15-8.25.5-1.1,1.25-3.25t1.5-4.5q.75-2.35,1.25-4.5a15.875,15.875,0,0,0,.5-3.35l-22.9,13.1-8.8,6.4q-1.7,1.4-4,3.6a37.942,37.942,0,0,0-3.7,4,22.918,22.918,0,0,0-4,7.3,11.083,11.083,0,0,0-.35,5.9,6.694,6.694,0,0,0,2.75,3.95A8.934,8.934,0,0,0-147.65,56.9Zm62.7-76.5q.4-5.2,1-10.25T-82.25-40q.3-1.4.6-2.35t.6-2.15A22.265,22.265,0,0,1-80-47.15a1.206,1.206,0,0,1,1.15-.65,5.735,5.735,0,0,1,.7.05q.4.05.9.15a12.794,12.794,0,0,1-.2,5.45q-.7,3.15-1.1,5.75-1.1,6.9-1.8,15.2t-.7,15.8l.3,11.2.8-1.9q1-3,1.75-5.2t1.6-4.25q.85-2.05,1.9-4.25t2.65-5.1a34.541,34.541,0,0,1,2.1-3.4,3.775,3.775,0,0,1,3.3-1.4q.8,0,1.25,1a8.887,8.887,0,0,1,.65,2.3,22.864,22.864,0,0,1,.25,2.6q.05,1.3.05,2,0,2.9.15,4.8a9.78,9.78,0,0,0,1.15,3.8,5.8,5.8,0,0,0,2.1-1.1,10.525,10.525,0,0,0,1.8-1.85q.8-1.05,1.55-2.2t1.35-2.05q.7-1.1,1.3-2.2t1.2-2.3a12.974,12.974,0,0,1,1.45-2.2,1.574,1.574,0,0,1,1.15-.6,5.514,5.514,0,0,1,1.1.2,3.514,3.514,0,0,1-.2,2.9q-.7,1.1-1.5,2.6-.7,1.3-1.9,3.35a38.265,38.265,0,0,1-2.7,4,18.875,18.875,0,0,1-3.2,3.3A5.579,5.579,0,0,1-63.15,0q-3.3,0-4.3-5.9a34.285,34.285,0,0,1-.4-4.55q-.1-2.85-.1-4.95a7.381,7.381,0,0,0-1.7,2.35q-1,1.85-2,4t-1.85,4.3q-.85,2.15-1.35,3.25A55.707,55.707,0,0,0-76.8,4.75q-.75,3.05-1.65,5.85a3.921,3.921,0,0,1-1.15,2.05,3.663,3.663,0,0,1-2.05.45q-1.3,0-2.1-2.9a41.858,41.858,0,0,1-1.2-6.65q-.4-3.75-.5-7.25t-.1-4.6Zm30.5,9.5a17.274,17.274,0,0,1,1.05-5.25,31.389,31.389,0,0,1,2.8-6.1,20.323,20.323,0,0,1,4.1-5,7.444,7.444,0,0,1,4.95-2.05,5.31,5.31,0,0,1,3.1.9,7.454,7.454,0,0,1,2,1.95,3.238,3.238,0,0,1,.65,1.95q-.05.9-1.05.9a2.821,2.821,0,0,1-2.1-1.15,3.076,3.076,0,0,0-2.4-1.15A4.5,4.5,0,0,0-44-23.8a20.307,20.307,0,0,0-3.75,5.1,19.618,19.618,0,0,0-1.85,4.15,15.9,15.9,0,0,0-.85,5.05q.2-.2.15-.1t.35-.4l.8-1.2q.8-1.2,1.85-3.15t2.1-3.8q1.05-1.85,2-3.25t1.45-1.4a1.873,1.873,0,0,1,1.75.75,4.5,4.5,0,0,1,.55,1.95q.1,1.2.1,2.7a13.8,13.8,0,0,0,.3,2.9,7.946,7.946,0,0,0,1.85,3.95A3.925,3.925,0,0,0-34.35-9.3q2.8,0,6.2-3.4a12.6,12.6,0,0,0,1.95-2.15,12.516,12.516,0,0,1,1.65-1.95,2.116,2.116,0,0,1,1.8-1,1.01,1.01,0,0,1,.9.45,1.864,1.864,0,0,1,.1,1.4A7.113,7.113,0,0,1-22.9-13.6a20.52,20.52,0,0,1-2.85,3.2l-3,2.4a9.913,9.913,0,0,1-5.6,2,6.479,6.479,0,0,1-3.4-.9A9.183,9.183,0,0,1-40.3-9.15a10.76,10.76,0,0,1-1.65-3.05,9.889,9.889,0,0,1-.6-3.3,6.578,6.578,0,0,0-1.6,2.25q-.9,1.75-1.95,3.6A34.269,34.269,0,0,1-48.25-6.3a2.951,2.951,0,0,1-2.2,1.5q-2.8,0-3.4-1.3A10.055,10.055,0,0,1-54.45-10.1Zm30.4,9.7a1.043,1.043,0,0,1-1-.8,5.83,5.83,0,0,1-.35-1.75,11.336,11.336,0,0,1,.05-1.85q.1-.9.1-1.2-.1-1.8-.05-3.65t-.05-3.75q0-.7.05-2.7t.3-4.1a21.917,21.917,0,0,1,.75-3.75q.5-1.65,1.3-1.65,2,0,2.05,1.3a26.644,26.644,0,0,1-.15,3.4,12.887,12.887,0,0,0-.1,1.6v1.6a5.119,5.119,0,0,1-.1,1.35,4.525,4.525,0,0,0-.1,1.25,11.662,11.662,0,0,0,2-1.85A4.054,4.054,0,0,1-16.15-18q.7,0,1.85-.05t2.45-.05a31.5,31.5,0,0,1,4.1.25q1.9.25,1.9,1.25A1.252,1.252,0,0,1-6.9-15.25,11.175,11.175,0,0,1-9.45-15q-1,0-2.05-.05t-1.85-.05q-1.4,0-2.3.05a4.59,4.59,0,0,0-1.5.3A2.9,2.9,0,0,0-18.2-14a10.064,10.064,0,0,0-1.05,1.5,18.291,18.291,0,0,0-1.4,2.8,15.912,15.912,0,0,0-.9,3.3,10.428,10.428,0,0,0-.2,2.05,17.713,17.713,0,0,1-.1,1.95A2.71,2.71,0,0,1-22.4-.95,2.045,2.045,0,0,1-24.05-.4Zm14.9-9.7A17.274,17.274,0,0,1-8.1-15.35a31.389,31.389,0,0,1,2.8-6.1,20.323,20.323,0,0,1,4.1-5A7.444,7.444,0,0,1,3.75-28.5a5.31,5.31,0,0,1,3.1.9,7.454,7.454,0,0,1,2,1.95A3.238,3.238,0,0,1,9.5-23.7q-.05.9-1.05.9a2.821,2.821,0,0,1-2.1-1.15,3.076,3.076,0,0,0-2.4-1.15A4.5,4.5,0,0,0,1.3-23.8a20.307,20.307,0,0,0-3.75,5.1A19.618,19.618,0,0,0-4.3-14.55,15.9,15.9,0,0,0-5.15-9.5q.2-.2.15-.1t.35-.4l.8-1.2q.8-1.2,1.85-3.15t2.1-3.8Q1.15-20,2.1-21.4t1.45-1.4a1.873,1.873,0,0,1,1.75.75,4.5,4.5,0,0,1,.55,1.95q.1,1.2.1,2.7a13.8,13.8,0,0,0,.3,2.9A7.946,7.946,0,0,0,8.1-10.55,3.925,3.925,0,0,0,10.95-9.3q2.8,0,6.2-3.4a12.6,12.6,0,0,0,1.95-2.15,12.516,12.516,0,0,1,1.65-1.95,2.116,2.116,0,0,1,1.8-1,1.01,1.01,0,0,1,.9.45,1.864,1.864,0,0,1,.1,1.4A7.113,7.113,0,0,1,22.4-13.6a20.52,20.52,0,0,1-2.85,3.2l-3,2.4a9.913,9.913,0,0,1-5.6,2,6.479,6.479,0,0,1-3.4-.9A9.183,9.183,0,0,1,5-9.15,10.76,10.76,0,0,1,3.35-12.2a9.889,9.889,0,0,1-.6-3.3,6.578,6.578,0,0,0-1.6,2.25Q.25-11.5-.8-9.65A34.269,34.269,0,0,1-2.95-6.3a2.951,2.951,0,0,1-2.2,1.5q-2.8,0-3.4-1.3A10.055,10.055,0,0,1-9.15-10.1Zm.9-34.5q0-1.1,1.75-2.3a28.206,28.206,0,0,1,4.45-2.4q2.7-1.2,6-2.3t6.5-2.05q3.2-.95,5.9-1.65t4.1-1.1q1.6-.4,2.4-.55a3.574,3.574,0,0,0,1.2-.4,1.3,1.3,0,0,0,.55-.8q.15-.55.45-1.85a16.612,16.612,0,0,1,1.85-5.65q1.05-1.55,2.05-1.55a1.592,1.592,0,0,1,1.35.85,3.692,3.692,0,0,1,.55,2.05q0,.9-.1.75t0,.65a3.143,3.143,0,0,0,.05.5,5.081,5.081,0,0,1,.05.8q0,1-.3,1.15a2.154,2.154,0,0,1-.7.2,1.175,1.175,0,0,0-.7.35,2.373,2.373,0,0,0-.3,1.5,13.17,13.17,0,0,0,2.65-.3q1.45-.3,2.55-.5,4.4-.8,8.8-1.45a61.51,61.51,0,0,1,9-.65,5.751,5.751,0,0,1,2.85.6,2.91,2.91,0,0,1,1.35,1.35,1.341,1.341,0,0,1-.2,1.4,2.287,2.287,0,0,1-1.9.65q-.2-.8-.25-.75a3.222,3.222,0,0,1-.95-.15,8.081,8.081,0,0,0-1.6-.1,46.192,46.192,0,0,0-5.6.45q-3.5.45-7.1,1.05T31.9-55.65q-2.95.55-3.85.75l-2,20.5A7.361,7.361,0,0,0,26-32.9q.05.8.05,1.6A3.517,3.517,0,0,1,25.9-30a3.939,3.939,0,0,0-.15,1.4q0,2.2.1,5.05a29.655,29.655,0,0,1-.1,4.45q-.1,1.1-.2,4.9t-.1,8.25V2.6q0,4.1.1,5.7a20.272,20.272,0,0,0,.2,2.45q.2,1.55.25,3.05a8.828,8.828,0,0,1-.25,2.6,1.282,1.282,0,0,1-1.3,1.1,2,2,0,0,1-1.55-.6,3.606,3.606,0,0,1-.8-1.5,8.847,8.847,0,0,1-.3-1.95q-.05-1.05-.05-1.95-.2-2.7-.3-6.15t-.1-7.05q0-3.6.05-7.05t.05-6.15l.3-4.7v-4.35q0-2.95.1-6.1t.2-5.9a31.281,31.281,0,0,1,.3-3.85,15.2,15.2,0,0,0,.25-2.4q.05-1.4.15-2.4l.9-9.3a11.315,11.315,0,0,1-1.8.45q-1.3.25-2.1.45-5,1.2-9.4,2.55T1.25-47.3a15.225,15.225,0,0,0-1.65.85,15.225,15.225,0,0,1-1.65.85q-.9.4-1.3.55a.875.875,0,0,0-.5.35,3.3,3.3,0,0,0-.2.55,9.823,9.823,0,0,1-.4,1.05,8.9,8.9,0,0,1-1.7.2,3.419,3.419,0,0,1-1.45-.3Q-8.25-43.5-8.25-44.6Zm39.7,25q.4-5.2,1-10.25T34.15-40q.3-1.4.6-2.35t.6-2.15a22.263,22.263,0,0,1,1.05-2.65,1.206,1.206,0,0,1,1.15-.65,5.735,5.735,0,0,1,.7.05q.4.05.9.15a12.8,12.8,0,0,1-.2,5.45q-.7,3.15-1.1,5.75-1.1,6.9-1.8,15.2t-.7,15.8l.3,11.2.8-1.9q1-3,1.75-5.2t1.6-4.25q.85-2.05,1.9-4.25t2.65-5.1a34.541,34.541,0,0,1,2.1-3.4,3.775,3.775,0,0,1,3.3-1.4q.8,0,1.25,1a8.887,8.887,0,0,1,.65,2.3,22.865,22.865,0,0,1,.25,2.6q.05,1.3.05,2,0,2.9.15,4.8a9.78,9.78,0,0,0,1.15,3.8,5.8,5.8,0,0,0,2.1-1.1,10.525,10.525,0,0,0,1.8-1.85q.8-1.05,1.55-2.2t1.35-2.05q.7-1.1,1.3-2.2t1.2-2.3A12.974,12.974,0,0,1,64-17.1a1.574,1.574,0,0,1,1.15-.6,5.514,5.514,0,0,1,1.1.2,3.514,3.514,0,0,1-.2,2.9q-.7,1.1-1.5,2.6-.7,1.3-1.9,3.35a38.265,38.265,0,0,1-2.7,4,18.875,18.875,0,0,1-3.2,3.3A5.579,5.579,0,0,1,53.25,0q-3.3,0-4.3-5.9a34.286,34.286,0,0,1-.4-4.55q-.1-2.85-.1-4.95a7.381,7.381,0,0,0-1.7,2.35q-1,1.85-2,4T42.9-4.75Q42.05-2.6,41.55-1.5A55.706,55.706,0,0,0,39.6,4.75q-.75,3.05-1.65,5.85a3.921,3.921,0,0,1-1.15,2.05,3.663,3.663,0,0,1-2.05.45q-1.3,0-2.1-2.9a41.858,41.858,0,0,1-1.2-6.65q-.4-3.75-.5-7.25t-.1-4.6Zm101.3,69.3a5.583,5.583,0,0,0,4.05-2.1,26.733,26.733,0,0,0,3.75-5.4,54.723,54.723,0,0,0,3.3-7.4q1.5-4.1,2.6-8t1.8-7.25a37.38,37.38,0,0,0,.8-5.15,7.281,7.281,0,0,0-1.8,1.85,10.343,10.343,0,0,1-1.7,1.95q-1.9,2-4.1,4.65t-4.2,5.55q-2,2.9-3.6,5.8a32.311,32.311,0,0,0-2.4,5.3q-.3,1-.75,2.75a13.63,13.63,0,0,0-.45,3.4,6.793,6.793,0,0,0,.55,2.85A2.131,2.131,0,0,0,132.75,49.7ZM87.85-8.6A83.509,83.509,0,0,1,88.9-21.3a112.575,112.575,0,0,1,3-13.65A90.94,90.94,0,0,1,96.75-48.1a57.455,57.455,0,0,1,6.6-11.1,31.575,31.575,0,0,1,8.55-8.35,17.031,17.031,0,0,1,9.15-2.95,12.787,12.787,0,0,1,7.3,2.3,19.185,19.185,0,0,1,6,7.4,36.651,36.651,0,0,1,3,9.7,61.7,61.7,0,0,1,.85,10.9,82.118,82.118,0,0,1-.85,11.1,104.608,104.608,0,0,1-2,10.3,38.482,38.482,0,0,1-1.1,3.95,1.369,1.369,0,0,1-1.3,1.05,3.579,3.579,0,0,1-.75-.1,10.792,10.792,0,0,1-1.05-.3,8.181,8.181,0,0,1-.25-3.35q.25-1.25.55-3.55.7-3.1,1.1-5.6t.6-4.9q.2-2.4.25-4.95t.05-5.75a41.329,41.329,0,0,0-.7-7.15,33.829,33.829,0,0,0-2.2-7.45,19.552,19.552,0,0,0-3.8-5.9,7.464,7.464,0,0,0-5.6-2.4,11.028,11.028,0,0,0-5.8,1.7,23.506,23.506,0,0,0-5.3,4.5,41.421,41.421,0,0,0-4.6,6.3q-2.1,3.5-3.8,7.05T98.7-38.8q-1.25,3.3-1.95,5.6-1.2,4-2.3,9.55a96.764,96.764,0,0,0-1.55,11.4A65.533,65.533,0,0,0,93-.8a28.824,28.824,0,0,0,2.65,9.9q.7,1.4,1.6,2.95a8.063,8.063,0,0,0,2.3,2.55,10.543,10.543,0,0,0,3.65,2.15,12.417,12.417,0,0,0,3.95.65,16.982,16.982,0,0,0,5.65-1,32.245,32.245,0,0,0,5.45-2.5,41.956,41.956,0,0,0,4.9-3.3,44.1,44.1,0,0,0,4-3.5l5.4-5.9q1.8-2.3,3.25-4.45t2.75-4.25q1.3-2.1,2.55-4.35t2.75-4.85q.8-1.4,2-3.7t2.55-4.5a23.353,23.353,0,0,1,2.8-3.75,3.946,3.946,0,0,1,2.65-1.55,2.244,2.244,0,0,1,2.1,1.5,11.74,11.74,0,0,1,.95,3.55,34.25,34.25,0,0,1,.25,4.15v3.4a79.425,79.425,0,0,1-.9,12.45,75.481,75.481,0,0,0-1,8.65,1.644,1.644,0,0,0,.65-.6,2.153,2.153,0,0,1,.85-.7,3.549,3.549,0,0,1,.8-.65,4.969,4.969,0,0,0,.8-.55l13.9-13.6q.5-.6,1.15-1.45a16.574,16.574,0,0,1,1.45-1.65,10.114,10.114,0,0,1,1.65-1.35,2.92,2.92,0,0,1,1.55-.55q1.5,0,1.1,1.1A10.091,10.091,0,0,1,177.7-14a21.922,21.922,0,0,1-2.35,2.65,19.259,19.259,0,0,0-1.6,1.65A22.466,22.466,0,0,0,172-7.75a16.442,16.442,0,0,1-1.85,1.95l-15,14.2a3.873,3.873,0,0,0-1.2,2.5,17.085,17.085,0,0,1-.6,2.9q-.7,3.9-1.95,9.15t-3.05,10.5a67.444,67.444,0,0,1-4.25,9.85,24.406,24.406,0,0,1-5.65,7.3q-.8.6-2.2,1.45a4.958,4.958,0,0,1-2.5.85,7.76,7.76,0,0,1-4-.85,4.874,4.874,0,0,1-2-2.2,8.026,8.026,0,0,1-.65-3.05q-.05-1.7-.05-3.4a17.085,17.085,0,0,1,1.55-6.85,47.922,47.922,0,0,1,3.8-7q2.25-3.45,4.7-6.55t4.25-5.4a18.363,18.363,0,0,1,1.35-1.4,5.952,5.952,0,0,0,1.15-1.5,16.868,16.868,0,0,1,3.05-3.2q1.15-.8,1.9-1.4A4.113,4.113,0,0,0,150,8.4a22.209,22.209,0,0,0,.95-4.1q.3-2.4.85-6.6t.95-8.65q.4-4.45.55-8.5a24.472,24.472,0,0,0-.35-6.15l-4.3,7.1q-2.1,3.3-3.5,5.7T142.4-8.15q-1.35,2.25-2.95,4.7t-4.1,5.75a54.367,54.367,0,0,1-5.3,6.15,57.215,57.215,0,0,1-6.95,6A42.072,42.072,0,0,1,115.3,19a19.074,19.074,0,0,1-7.75,1.8,31.04,31.04,0,0,1-5.75-.5,10.3,10.3,0,0,1-5.25-3.1,27.09,27.09,0,0,1-6.8-11.5A50.832,50.832,0,0,1,87.85-8.6Z" transform="translate(174.95 78.1)" fill="#fff" stroke="rgba(0,0,0,0)" stroke-width="1"/>
</svg>
