<svg width="134" height="115" viewBox="0 0 134 115" fill="none" xmlns="http://www.w3.org/2000/svg">
<path d="M62.2266 47.7695H70.2161L96.9661 97.3945L89.9974 106.113H44.0234L35.6641 95.7227L62.2266 47.7695Z" fill="#ED4F5B"/>
<path d="M81.1771 32.3737V30.5195C83.5938 30.5195 85.5417 28.5716 85.5417 26.1602C85.5417 23.7435 83.5938 21.7956 81.1771 21.7956C78.7656 21.7956 76.8125 23.7435 76.8125 26.1602H74.9531C74.9531 22.7279 77.7396 19.9414 81.1771 19.9414C84.6146 19.9414 87.401 22.7279 87.401 26.1602C87.401 29.5872 84.6146 32.3737 81.1771 32.3737Z" fill="black"/>
<path d="M51.1771 32.3737C47.7396 32.3737 44.9531 29.5872 44.9531 26.1602C44.9531 22.7279 47.7396 19.9414 51.1771 19.9414C54.6146 19.9414 57.401 22.7279 57.401 26.1602H55.5417C55.5417 23.7435 53.5938 21.7956 51.1771 21.7956C48.7604 21.7956 46.8125 23.7435 46.8125 26.1602C46.8125 28.5716 48.7604 30.5195 51.1771 30.5195V32.3737Z" fill="black"/>
<path d="M66.0365 32.9316C65.9479 32.9316 65.7604 32.9316 65.6667 32.9316C63.1615 32.7441 61.6719 30.7025 61.5781 30.6087L62.3229 30.0566C62.3229 30.0566 63.7188 31.8171 65.7604 31.9993C67.151 32.0931 68.6406 31.4473 70.0313 29.9629L70.6823 30.6087C69.1979 32.1868 67.6198 32.9316 66.0365 32.9316Z" fill="black"/>
<path d="M63.9922 45.5456H62.1328V40.6289L55.5391 37.8424V30.332H57.3984V36.5456L63.9922 39.4206V45.5456Z" fill="black"/>
<path d="M66.0365 28.4785L63.4375 27.1764L65.4792 23.8379L66.224 24.3014L64.7396 26.8066L66.4115 27.64L66.0365 28.4785Z" fill="black"/>
<path d="M62.2292 47.7695L43.2812 61.4049L66.224 76.9883L62.2292 47.7695Z" fill="#ED4F5B"/>
<path d="M70.2174 47.7695L89.0716 61.4049L66.2227 76.9883L70.2174 47.7695Z" fill="#ED4F5B"/>
<path d="M51.3125 66.9102L56.026 58.1758L56.8438 58.6185L52.1302 67.3529L51.3125 66.9102Z" fill="black"/>
<path d="M82.9401 66.1354L82.3828 65.3958L88.2318 61.4063L83.1276 57.6979L83.6849 56.9531L89.9036 61.4063L82.9401 66.1354Z" fill="black"/>
<path d="M28.8854 114.369L17.1823 104.536L18.2969 103.145L29.349 112.327L33.7188 111.124L36.0365 111.77L39.474 109.822L42.9115 109.916L44.5833 108.156L32.4167 93.2233L22.3854 94.3327L0.927083 106.947L0 105.281L21.8281 92.5723L33.1615 91.2754L47.0885 108.249L43.6563 111.864L39.9375 111.682L36.3177 113.718L33.7188 113.072L28.8854 114.369Z" fill="black"/>
<path d="M24.3125 89.8021L46.1458 65.25L47.5365 66.4844L25.6979 91.0313L24.3125 89.8021Z" fill="black"/>
<path d="M27.7812 106.307L28.4583 105.672L34.0365 111.635L33.3594 112.271L27.7812 106.307Z" fill="black"/>
<path d="M33.3008 104.01L34.0039 103.406L40.056 110.443L39.3477 111.047L33.3008 104.01Z" fill="black"/>
<path d="M105.047 114.369L100.313 113.072L97.7083 113.718L93.9948 111.682L90.2813 111.864L86.8438 108.249L100.776 91.2754L112.198 92.5723L133.932 105.281L133.005 106.947L111.552 94.3327L101.521 93.2233L89.349 108.156L91.0208 109.916L94.4583 109.822L97.8958 111.77L100.313 111.124L104.583 112.327L115.635 103.145L116.844 104.536L105.047 114.369Z" fill="black"/>
<path d="M99.9531 111.755L105.531 105.791L106.214 106.421L100.63 112.385L99.9531 111.755Z" fill="black"/>
<path d="M93.9766 110.411L100.023 103.375L100.732 103.979L94.6797 111.016L93.9766 110.411Z" fill="black"/>
<path d="M88.3047 67.7695L89.7786 66.6445L106.576 88.4935L105.102 89.6237L88.3047 67.7695Z" fill="black"/>
<path d="M67.3372 19.0143C53.0352 19.0143 47.832 8.07161 47.7383 7.88411L49.4102 7.14453C49.6914 7.69661 56.3789 21.5195 76.2539 15.7695L76.8112 17.5299C73.3737 18.6445 70.2174 19.0143 67.3372 19.0143Z" fill="black"/>
<path d="M70.2161 13.6341C55.3568 13.6341 52.3828 1.57682 52.2891 1.38932L54.0547 0.925781C54.1484 1.48307 57.4922 14.2852 75.3255 11.2227L75.6016 13.0768C73.6536 13.4518 71.7943 13.6341 70.2161 13.6341Z" fill="black"/>
<path d="M73.6563 9.18229C62.4167 8.44271 60 0.838542 59.9062 0.557292L61.6719 0C61.7656 0.281249 63.901 6.68229 73.75 7.32813L73.6563 9.18229Z" fill="black"/>
<path d="M73.4688 5.56771C73.375 5.56771 70.125 4.64062 68.7344 0.927083L70.4948 0.28125C71.5208 3.0625 73.9323 3.71354 73.9323 3.71354L73.4688 5.56771Z" fill="black"/>
</svg>
