<svg width="103" height="84" viewBox="0 0 103 84" fill="none" xmlns="http://www.w3.org/2000/svg">
<path d="M32.2552 47.2767H19.25V45.4225H31.4167L45.0729 31.6934L46.4635 33.084L32.2552 47.2767Z" fill="black"/>
<path d="M102.936 47.5527C102.936 48.7402 102.874 49.9225 102.759 51.0996C102.645 52.2767 102.467 53.4486 102.238 54.61C102.009 55.7715 101.717 56.9225 101.374 58.0527C101.03 59.1882 100.629 60.3027 100.176 61.3965C99.7227 62.4902 99.2174 63.5632 98.6549 64.6048C98.0977 65.6517 97.4883 66.6673 96.832 67.6517C96.1706 68.6361 95.4622 69.5892 94.7122 70.5059C93.957 71.4173 93.1654 72.2975 92.3268 73.1361C91.4883 73.9694 90.6081 74.7663 89.6914 75.5163C88.7747 76.2715 87.8216 76.9746 86.8372 77.6309C85.8477 78.2923 84.832 78.9017 83.7852 79.459C82.7383 80.0163 81.6706 80.5215 80.5716 80.9746C79.4779 81.4277 78.3633 81.8288 77.2279 82.1725C76.0924 82.5163 74.9414 82.8027 73.7799 83.0319C72.6133 83.2663 71.4414 83.4382 70.2591 83.5527C69.082 83.6725 67.8997 83.7298 66.7122 83.7298C65.5247 83.7298 64.3424 83.6725 63.1602 83.5527C61.9779 83.4382 60.806 83.2663 59.6445 83.0319C58.4831 82.8027 57.332 82.5163 56.1966 82.1725C55.0612 81.8288 53.9466 81.4277 52.8477 80.9746C51.7539 80.5215 50.681 80.0163 49.6341 79.459C48.5872 78.9017 47.5716 78.2923 46.5872 77.6309C45.5977 76.9746 44.6497 76.2715 43.7331 75.5163C42.8164 74.7663 41.9362 73.9694 41.0977 73.1361C40.2591 72.2975 39.4622 71.4173 38.7122 70.5059C37.957 69.5892 37.2539 68.6361 36.5924 67.6517C35.931 66.6673 35.3268 65.6517 34.7643 64.6048C34.207 63.5632 33.7018 62.4902 33.2435 61.3965C32.7904 60.3027 32.3945 59.1882 32.0456 58.0527C31.7018 56.9225 31.4154 55.7715 31.1862 54.61C30.9518 53.4486 30.7799 52.2767 30.6602 51.0996C30.5456 49.9225 30.4883 48.7402 30.4883 47.5527C30.4883 46.3704 30.5456 45.1882 30.6602 44.0111C30.7799 42.8288 30.9518 41.6569 31.1862 40.4954C31.4154 39.334 31.7018 38.1882 32.0456 37.0527C32.3945 35.9173 32.7904 34.8027 33.2435 33.709C33.7018 32.6152 34.207 31.5475 34.7643 30.5007C35.3268 29.459 35.931 28.4434 36.5924 27.459C37.2539 26.4694 37.957 25.5215 38.7122 24.6048C39.4622 23.6882 40.2591 22.8132 41.0977 21.9746C41.9362 21.1361 42.8164 20.3444 43.7331 19.5892C44.6497 18.8392 45.5977 18.1361 46.5872 17.4746C47.5716 16.8184 48.5872 16.209 49.6341 15.6517C50.681 15.0944 51.7539 14.584 52.8477 14.1309C53.9466 13.6777 55.0612 13.2819 56.1966 12.9382C57.332 12.5944 58.4831 12.3079 59.6445 12.0736C60.806 11.8444 61.9779 11.6673 63.1602 11.5527C64.3424 11.4382 65.5247 11.3809 66.7122 11.3809C67.8997 11.3809 69.082 11.4382 70.2591 11.5527C71.4414 11.6673 72.6133 11.8444 73.7799 12.0736C74.9414 12.3079 76.0924 12.5944 77.2279 12.9382C78.3633 13.2819 79.4779 13.6777 80.5716 14.1309C81.6706 14.584 82.7383 15.0944 83.7852 15.6517C84.832 16.209 85.8477 16.8184 86.8372 17.4746C87.8216 18.1361 88.7747 18.8392 89.6914 19.5892C90.6081 20.3444 91.4883 21.1361 92.3268 21.9746C93.1654 22.8132 93.957 23.6882 94.7122 24.6048C95.4622 25.5215 96.1706 26.4694 96.832 27.459C97.4883 28.4434 98.0977 29.459 98.6549 30.5007C99.2174 31.5475 99.7227 32.6152 100.176 33.709C100.629 34.8027 101.03 35.9173 101.374 37.0527C101.717 38.1882 102.009 39.334 102.238 40.4954C102.467 41.6569 102.645 42.8288 102.759 44.0111C102.874 45.1882 102.936 46.3704 102.936 47.5527Z" fill="#FFA28D"/>
<path d="M22.6875 33.3607H14.2344V1.82422H16.0938V31.5065H22.6875V33.3607Z" fill="black"/>
<path d="M46.7435 33.36H27.332V31.5059H44.8841V2.75065H41.8216V0.896484H46.7435V33.36Z" fill="black"/>
<mask id="mask0_1009_80768" style="mask-type:luminance" maskUnits="userSpaceOnUse" x="0" y="0" width="38" height="48">
<path d="M0 0H37.1979V48H0V0Z" fill="white"/>
</mask>
<g mask="url(#mask0_1009_80768)">
<path d="M14.6029 47.2767H0.300781V15.3652L14.7904 0.896484H37.1758V2.75065H15.6289L2.16016 16.2038V45.4225H14.6029V47.2767Z" fill="black"/>
</g>
<mask id="mask1_1009_80768" style="mask-type:luminance" maskUnits="userSpaceOnUse" x="0" y="30" width="16" height="19">
<path d="M0 30.668H15.8646V48.0013H0V30.668Z" fill="white"/>
</mask>
<g mask="url(#mask1_1009_80768)">
<path d="M0.578125 45.7207L14.5 31.8145L15.8177 33.127L1.89063 47.0332L0.578125 45.7207Z" fill="black"/>
</g>
</svg>
