<svg width="72" height="44" viewBox="0 0 72 44" fill="none" xmlns="http://www.w3.org/2000/svg">
<path d="M14.25 30.7083H12.4688V12.4375H35.1823V14.2188H14.25V30.7083Z" fill="black"/>
<mask id="mask0_1009_80756" style="mask-type:luminance" maskUnits="userSpaceOnUse" x="0" y="0" width="30" height="29">
<path d="M0 0H29.0521V28.7656H0V0Z" fill="white"/>
</mask>
<g mask="url(#mask0_1009_80756)">
<path d="M27.7917 14.041C27.7917 14.9525 27.7031 15.8587 27.526 16.7546C27.3438 17.6504 27.0833 18.515 26.7344 19.3587C26.3854 20.2025 25.9583 21.0046 25.4479 21.765C24.9427 22.5254 24.3646 23.2285 23.7188 23.8691C23.0781 24.515 22.375 25.0931 21.6146 25.5983C20.8542 26.1087 20.0573 26.5358 19.2135 26.8848C18.3698 27.2337 17.5 27.4993 16.6042 27.6764C15.7083 27.8535 14.8073 27.9421 13.8958 27.9421C12.9844 27.9421 12.0781 27.8535 11.1823 27.6764C10.2865 27.4993 9.42188 27.2337 8.57813 26.8848C7.73438 26.5358 6.93229 26.1087 6.17188 25.5983C5.41667 25.0931 4.71354 24.515 4.06771 23.8691C3.42188 23.2285 2.84896 22.5254 2.33854 21.765C1.83333 21.0046 1.40625 20.2025 1.05729 19.3587C0.708334 18.515 0.442709 17.6504 0.265625 16.7546C0.0885423 15.8587 0 14.9525 0 14.041C0 13.1296 0.0885423 12.2233 0.265625 11.3275C0.442709 10.4316 0.708334 9.56185 1.05729 8.7181C1.40625 7.87435 1.83333 7.07227 2.33854 6.31706C2.84896 5.55664 3.42188 4.85352 4.06771 4.20768C4.71354 3.56185 5.41667 2.98893 6.17188 2.47852C6.93229 1.97331 7.73438 1.54622 8.57813 1.19206C9.42188 0.843099 10.2865 0.582682 11.1823 0.405599C12.0781 0.223307 12.9844 0.134766 13.8958 0.134766C14.8073 0.134766 15.7083 0.223307 16.6042 0.405599C17.5 0.582682 18.3698 0.843099 19.2135 1.19206C20.0573 1.54622 20.8542 1.97331 21.6146 2.47852C22.375 2.98893 23.0781 3.56185 23.7188 4.20768C24.3646 4.85352 24.9427 5.55664 25.4479 6.31706C25.9583 7.07227 26.3854 7.87435 26.7344 8.7181C27.0833 9.56185 27.3438 10.4316 27.526 11.3275C27.7031 12.2233 27.7917 13.1296 27.7917 14.041Z" fill="#ED4F5B"/>
</g>
<mask id="mask1_1009_80756" style="mask-type:luminance" maskUnits="userSpaceOnUse" x="21" y="20" width="51" height="24">
<path d="M21.0508 20.7656H71.6185V43.7656H21.0508V20.7656Z" fill="white"/>
</mask>
<g mask="url(#mask1_1009_80756)">
<path d="M48.0104 43.6309H21.375V21.3496H70.7292V23.1309H23.1615V41.8496H48.0104V43.6309Z" fill="black"/>
</g>
<mask id="mask2_1009_80756" style="mask-type:luminance" maskUnits="userSpaceOnUse" x="51" y="35" width="21" height="9">
<path d="M51.7188 35.4316H71.6198V43.765H51.7188V35.4316Z" fill="white"/>
</mask>
<g mask="url(#mask2_1009_80756)">
<path d="M71.6198 43.6296H52.4688V41.8483H69.8385V35.9629H71.6198V43.6296Z" fill="black"/>
</g>
<mask id="mask3_1009_80756" style="mask-type:luminance" maskUnits="userSpaceOnUse" x="34" y="11" width="38" height="22">
<path d="M34.3828 11.4316H71.6172V32.765H34.3828V11.4316Z" fill="white"/>
</mask>
<g mask="url(#mask3_1009_80756)">
<path d="M71.6172 31.5104H69.8359V22.599L61.4609 14.2188H35.1797V12.4375H62.1745L71.6172 21.8854V31.5104Z" fill="black"/>
</g>
<path d="M21.6458 43.3633L12.4688 34.181V30.707H14.25V33.4674L22.8906 42.1133L21.6458 43.3633Z" fill="black"/>
<path d="M22.2643 23.1302C21.9987 23.1302 21.8216 23.0417 21.6445 22.8646L13.0039 14.2188C12.6445 13.8646 12.6445 13.3281 13.0039 12.9688C13.3581 12.6146 13.8945 12.6146 14.2487 12.9688L22.8893 21.6146C23.2487 21.974 23.2487 22.5052 22.8893 22.8646C22.7122 23.0417 22.5352 23.1302 22.2643 23.1302Z" fill="black"/>
</svg>
