<svg xmlns="http://www.w3.org/2000/svg" xmlns:xlink="http://www.w3.org/1999/xlink" width="1344" zoomAndPan="magnify" viewBox="0 0 1008 1295.99994" height="1728" preserveAspectRatio="xMidYMid meet" version="1.0"><defs><clipPath id="3a276bacf2"><path d="M 100.800781 244.800781 L 216 244.800781 L 216 1051.050781 L 100.800781 1051.050781 Z M 100.800781 244.800781 " clip-rule="nonzero"/></clipPath><clipPath id="a4f9a85ecd"><path d="M 239 244.800781 L 355 244.800781 L 355 1051.050781 L 239 1051.050781 Z M 239 244.800781 " clip-rule="nonzero"/></clipPath><clipPath id="d87ac00e20"><path d="M 377 244.800781 L 493 244.800781 L 493 1051.050781 L 377 1051.050781 Z M 377 244.800781 " clip-rule="nonzero"/></clipPath><clipPath id="e134a9307d"><path d="M 515 244.800781 L 631 244.800781 L 631 1051.050781 L 515 1051.050781 Z M 515 244.800781 " clip-rule="nonzero"/></clipPath><clipPath id="2ce4ad5d52"><path d="M 653 244.800781 L 769 244.800781 L 769 1051.050781 L 653 1051.050781 Z M 653 244.800781 " clip-rule="nonzero"/></clipPath><clipPath id="9da2adebb0"><path d="M 791 244.800781 L 907.050781 244.800781 L 907.050781 1051.050781 L 791 1051.050781 Z M 791 244.800781 " clip-rule="nonzero"/></clipPath></defs><g clip-path="url(#3a276bacf2)"><path fill="#c195d1" d="M 215.980469 1051.050781 L 100.800781 1051.050781 L 100.800781 244.800781 L 215.980469 244.800781 L 215.980469 1051.050781 " fill-opacity="1" fill-rule="nonzero"/></g><g clip-path="url(#a4f9a85ecd)"><path fill="#9570bf" d="M 354.195312 1051.050781 L 239.015625 1051.050781 L 239.015625 244.800781 L 354.195312 244.800781 L 354.195312 1051.050781 " fill-opacity="1" fill-rule="nonzero"/></g><g clip-path="url(#d87ac00e20)"><path fill="#6d4caa" d="M 492.40625 1051.050781 L 377.230469 1051.050781 L 377.230469 244.800781 L 492.40625 244.800781 L 492.40625 1051.050781 " fill-opacity="1" fill-rule="nonzero"/></g><g clip-path="url(#e134a9307d)"><path fill="#5a3ea1" d="M 630.621094 1051.050781 L 515.445312 1051.050781 L 515.445312 244.800781 L 630.621094 244.800781 L 630.621094 1051.050781 " fill-opacity="1" fill-rule="nonzero"/></g><g clip-path="url(#2ce4ad5d52)"><path fill="#4b3196" d="M 768.835938 1051.050781 L 653.65625 1051.050781 L 653.65625 244.800781 L 768.835938 244.800781 L 768.835938 1051.050781 " fill-opacity="1" fill-rule="nonzero"/></g><g clip-path="url(#9da2adebb0)"><path fill="#33296b" d="M 907.050781 1051.050781 L 791.871094 1051.050781 L 791.871094 244.800781 L 907.050781 244.800781 L 907.050781 1051.050781 " fill-opacity="1" fill-rule="nonzero"/></g></svg>