<svg width="110" height="224" viewBox="0 0 110 224" fill="none" xmlns="http://www.w3.org/2000/svg">
<path d="M38.8789 67.25L62.2852 92.7552L37.207 106.021L38.8789 67.25Z" fill="#FFA28D"/>
<path d="M23.832 45.7285L35.1602 53.4264L41.3841 76.3379L23.832 81.9056V45.7285Z" fill="#FFA28D"/>
<path d="M69.3438 207.494L37.6719 145.255L39.3438 144.421L70.2708 205.176L84.7604 200.171L71.0156 159.354L72.9635 153.791L62.6563 119.38L64.4219 118.822L74.8229 153.791L73.0573 159.354L87.1771 201.374L69.3438 207.494Z" fill="black"/>
<path d="M56.2031 98.0254L57.9844 97.4941L63.125 114.645L61.3438 115.176L56.2031 98.0254Z" fill="black"/>
<mask id="mask0_1009_80825" style="mask-type:luminance" maskUnits="userSpaceOnUse" x="72" y="200" width="38" height="24">
<path d="M72.6875 200.6H109.214V223.917H72.6875V200.6Z" fill="white"/>
</mask>
<g mask="url(#mask0_1009_80825)">
<path d="M72.7812 205.366L76.6823 216.126V223.918H108.911L106.307 219.559L101.292 219.184L85.4115 212.413L83.276 201.746L72.7812 205.366Z" fill="black"/>
</g>
<path d="M73.8034 201.006L55.9701 153.423H52.7201L54.3919 149.803L39.6211 115.204L40.4596 114.928L55.4128 149.896L54.2044 152.495H56.5273L74.6367 200.725L73.8034 201.006Z" fill="black"/>
<path d="M27.2695 81.2552L26.9883 80.4219L40.8268 76.0625L35.9987 58.7135L36.832 58.4375L41.9414 76.6198L27.2695 81.2552Z" fill="black"/>
<path d="M28.2917 196.089L5.34896 192.193L2.28125 186.161L3.95313 185.422L6.55729 190.521L27.2708 194.047L30.9844 186.625L38.599 138.115L35.2552 129.302L37.5781 77.1719L39.4375 77.2656L37.1146 129.026L40.5521 137.932V138.115L32.8438 187.276L28.2917 196.089Z" fill="black"/>
<path d="M28.707 153.355L28.9674 152.459L39.6758 155.542L39.4206 156.433L28.707 153.355Z" fill="black"/>
<path d="M27.5977 159.672L27.8529 158.781L38.6549 161.891L38.3945 162.781L27.5977 159.672Z" fill="black"/>
<path d="M27.168 166.119L27.4284 165.229L38.2253 168.333L37.9701 169.223L27.168 166.119Z" fill="black"/>
<path d="M45.194 157.963L38.043 195.343L51.7878 205.083L59.9648 186.906L45.194 157.963Z" fill="black"/>
<mask id="mask1_1009_80825" style="mask-type:luminance" maskUnits="userSpaceOnUse" x="30" y="193" width="31" height="31">
<path d="M30.0195 193.932H60.6862V223.916H30.0195V193.932Z" fill="white"/>
</mask>
<g mask="url(#mask1_1009_80825)">
<path d="M41.4792 195.066L36.3698 207.868L30.9844 211.858L39.9948 223.915H59.4063L57.0833 220.02L47.5156 217.978L45.099 210.186L50.1146 199.889L41.4792 195.066Z" fill="black"/>
</g>
<path d="M31.7305 48.6979L29.9648 38.5885L37.3919 36.0833L35.3503 28.4792L38.418 25.2292L33.8659 18.9219L35.3503 17.8125L40.8294 25.4167L37.3919 28.9427L39.6211 37.2865L32.1003 39.8854L33.4909 48.3281L31.7305 48.6979Z" fill="black"/>
<path d="M27.3581 18.3646L26.9883 16.5104C27.4518 16.4167 37.9466 13.9167 42.3164 0L44.0768 0.557292C39.3424 15.5833 27.8268 18.276 27.3581 18.3646Z" fill="black"/>
<path d="M27.5456 13.4479L26.8945 11.6875C27.1758 11.5938 33.4883 9.08854 34.4206 1.29688L36.2747 1.48438C35.1602 10.3906 27.8268 13.3594 27.5456 13.4479Z" fill="black"/>
<path d="M32.6576 34.7858C32.1003 34.7858 31.6367 34.6921 31.2617 34.5046C30.1471 33.9473 29.8711 32.9264 29.7773 32.9264L30.7044 32.6504C30.7044 32.6504 30.9857 33.39 31.7305 33.6712C32.3763 33.9473 33.2148 33.9473 34.1419 33.5775L34.4232 34.4108C33.7721 34.6921 33.2148 34.7858 32.6576 34.7858Z" fill="black"/>
<path d="M26.6198 9.36979L25.7812 7.69792C25.875 7.60937 28.3854 6.30729 28.9427 2.875L30.7969 3.15625C30.0573 7.60937 26.7135 9.27604 26.6198 9.36979Z" fill="black"/>
<path d="M24.7604 187.089L14.6354 183.656L10.4583 186.719H0.5V184.865H9.8073L14.3594 181.62L22.901 184.495V115.109H24.7604V187.089Z" fill="black"/>
<path d="M24.7604 105.839H22.901V32.7448C20.6719 32.2813 19 30.3333 19 28.0156C19 25.3229 21.1406 23.1875 23.8333 23.1875C26.526 23.1875 28.6615 25.3229 28.6615 28.0156H26.8021C26.8021 26.4375 25.5052 25.0469 23.8333 25.0469C22.1615 25.0469 20.8594 26.3438 20.8594 28.0156C20.8594 29.6823 22.1615 30.9792 23.8333 30.9792H24.7604V105.839Z" fill="black"/>
</svg>
