<svg width="750" height="500" viewBox="0 0 750 500" fill="none" xmlns="http://www.w3.org/2000/svg">
<g clip-path="url(#clip0_1076_81646)">
<path d="M750 0H0V500H750V0Z" fill="#FFF3EC"/>
<mask id="mask0_1076_81646" style="mask-type:luminance" maskUnits="userSpaceOnUse" x="0" y="0" width="750" height="500">
<path d="M750 0H0V500H750V0Z" fill="white"/>
</mask>
<g mask="url(#mask0_1076_81646)">
<path opacity="0.15" d="M272.511 906.78L2.4123 595.308C-1.1577 591.192 -0.713702 584.961 3.4023 581.391L314.874 311.292C318.99 307.722 325.221 308.166 328.79 312.282L598.89 623.755C602.46 627.871 602.016 634.102 597.9 637.672L286.428 907.77C282.311 911.34 276.081 910.896 272.511 906.78Z" fill="#79A2FF"/>
</g>
<mask id="mask1_1076_81646" style="mask-type:luminance" maskUnits="userSpaceOnUse" x="157" y="-215" width="895" height="870">
<path d="M723.865 -214.928L157.24 276.397L484.79 654.147L1051.42 162.822L723.865 -214.928Z" fill="white"/>
</mask>
<g mask="url(#mask1_1076_81646)">
<path opacity="0.15" d="M475.914 -362.578L157.906 -86.8311L421.955 217.685L739.962 -58.0614L475.914 -362.578Z" fill="#79A2FF"/>
</g>
<mask id="mask2_1076_81646" style="mask-type:luminance" maskUnits="userSpaceOnUse" x="0" y="0" width="750" height="500">
<path d="M750 0H0V500H750V0Z" fill="white"/>
</mask>
<g mask="url(#mask2_1076_81646)">
<path d="M56.5751 357.584L-14.1159 286.893C-15.0499 285.959 -15.0499 284.444 -14.1159 283.51L56.5751 212.819C57.5091 211.885 59.0241 211.885 59.9581 212.819L130.649 283.51C131.583 284.444 131.583 285.959 130.649 286.893L59.9581 357.584C59.0241 358.518 57.5091 358.518 56.5751 357.584Z" fill="#79A2FF"/>
</g>
<mask id="mask3_1076_81646" style="mask-type:luminance" maskUnits="userSpaceOnUse" x="0" y="0" width="750" height="500">
<path d="M750 0H0V500H750V0Z" fill="white"/>
</mask>
<g mask="url(#mask3_1076_81646)">
<path d="M160.437 69.9987L38.0864 -16.2763C36.4694 -17.4163 36.0834 -19.6513 37.2234 -21.2683L123.498 -143.619C124.638 -145.236 126.873 -145.623 128.49 -144.482L250.84 -58.2083C252.457 -57.0683 252.844 -54.8333 251.703 -53.2163L165.429 69.1347C164.289 70.7517 162.054 71.1387 160.437 69.9987Z" fill="#FF406C"/>
</g>
<mask id="mask4_1076_81646" style="mask-type:luminance" maskUnits="userSpaceOnUse" x="0" y="0" width="750" height="500">
<path d="M750 0H0V500H750V0Z" fill="white"/>
</mask>
<g mask="url(#mask4_1076_81646)">
<path d="M584.858 701.192L478.606 550.084C477.202 548.087 477.682 545.33 479.679 543.926L630.786 437.674C632.783 436.27 635.54 436.75 636.944 438.747L743.196 589.854C744.6 591.851 744.12 594.608 742.123 596.012L591.016 702.265C589.019 703.669 586.262 703.189 584.858 701.192Z" fill="#FF406C"/>
</g>
<mask id="mask5_1076_81646" style="mask-type:luminance" maskUnits="userSpaceOnUse" x="0" y="0" width="750" height="500">
<path d="M750 0H0V500H750V0Z" fill="white"/>
</mask>
<g mask="url(#mask5_1076_81646)">
<path d="M616.907 274.096C616.699 275.223 615.617 275.968 614.49 275.76C613.363 275.552 612.618 274.47 612.826 273.343C613.034 272.216 614.116 271.471 615.243 271.679C616.37 271.887 617.115 272.969 616.907 274.096Z" fill="#79A2FF"/>
<path d="M632.969 274.096C632.761 275.223 631.679 275.968 630.552 275.76C629.425 275.552 628.68 274.47 628.888 273.343C629.096 272.216 630.178 271.471 631.305 271.679C632.431 271.887 633.176 272.969 632.969 274.096Z" fill="#79A2FF"/>
<path d="M649.032 274.096C648.824 275.223 647.742 275.968 646.615 275.76C645.488 275.552 644.743 274.47 644.951 273.343C645.159 272.216 646.241 271.471 647.368 271.679C648.495 271.887 649.24 272.969 649.032 274.096Z" fill="#79A2FF"/>
<path d="M665.094 274.096C664.886 275.223 663.804 275.968 662.677 275.76C661.55 275.552 660.805 274.47 661.013 273.343C661.221 272.216 662.303 271.471 663.43 271.679C664.557 271.887 665.302 272.969 665.094 274.096Z" fill="#79A2FF"/>
<path d="M681.155 274.096C680.947 275.223 679.865 275.968 678.738 275.76C677.611 275.552 676.866 274.47 677.074 273.343C677.282 272.216 678.364 271.471 679.491 271.679C680.618 271.887 681.363 272.969 681.155 274.096Z" fill="#79A2FF"/>
<path d="M616.907 287.627C616.699 288.754 615.617 289.499 614.49 289.291C613.363 289.083 612.618 288.001 612.826 286.874C613.034 285.747 614.116 285.002 615.243 285.21C616.37 285.418 617.115 286.5 616.907 287.627Z" fill="#79A2FF"/>
<path d="M632.969 287.627C632.761 288.754 631.679 289.499 630.552 289.291C629.425 289.083 628.68 288.001 628.888 286.874C629.096 285.747 630.178 285.002 631.305 285.21C632.431 285.418 633.176 286.5 632.969 287.627Z" fill="#79A2FF"/>
<path d="M649.032 287.627C648.824 288.754 647.742 289.499 646.615 289.291C645.488 289.083 644.743 288.001 644.951 286.874C645.159 285.747 646.241 285.002 647.368 285.21C648.495 285.418 649.24 286.5 649.032 287.627Z" fill="#79A2FF"/>
<path d="M665.094 287.627C664.886 288.754 663.804 289.499 662.677 289.291C661.55 289.083 660.805 288.001 661.013 286.874C661.221 285.747 662.303 285.002 663.43 285.21C664.557 285.418 665.302 286.5 665.094 287.627Z" fill="#79A2FF"/>
<path d="M681.155 287.627C680.947 288.754 679.865 289.499 678.738 289.291C677.611 289.083 676.866 288.001 677.074 286.874C677.282 285.747 678.364 285.002 679.491 285.21C680.618 285.418 681.363 286.5 681.155 287.627Z" fill="#79A2FF"/>
<path d="M616.907 301.156C616.699 302.283 615.617 303.028 614.49 302.82C613.363 302.612 612.618 301.53 612.826 300.403C613.034 299.276 614.116 298.531 615.243 298.739C616.37 298.948 617.115 300.03 616.907 301.156Z" fill="#79A2FF"/>
<path d="M632.969 301.156C632.761 302.283 631.679 303.028 630.552 302.82C629.425 302.612 628.68 301.53 628.888 300.403C629.096 299.276 630.178 298.531 631.305 298.739C632.431 298.948 633.176 300.03 632.969 301.156Z" fill="#79A2FF"/>
<path d="M649.032 301.156C648.824 302.283 647.742 303.028 646.615 302.82C645.488 302.612 644.743 301.53 644.951 300.403C645.159 299.276 646.241 298.531 647.368 298.739C648.495 298.948 649.24 300.03 649.032 301.156Z" fill="#79A2FF"/>
<path d="M665.094 301.156C664.886 302.283 663.804 303.028 662.677 302.82C661.55 302.612 660.805 301.53 661.013 300.403C661.221 299.276 662.303 298.531 663.43 298.739C664.557 298.948 665.302 300.03 665.094 301.156Z" fill="#79A2FF"/>
<path d="M681.155 301.156C680.947 302.283 679.865 303.028 678.738 302.82C677.611 302.612 676.866 301.53 677.074 300.403C677.282 299.276 678.364 298.531 679.491 298.739C680.618 298.948 681.363 300.03 681.155 301.156Z" fill="#79A2FF"/>
<path d="M616.907 314.687C616.699 315.814 615.617 316.559 614.49 316.351C613.363 316.143 612.618 315.061 612.826 313.934C613.034 312.807 614.116 312.062 615.243 312.27C616.37 312.478 617.115 313.56 616.907 314.687Z" fill="#79A2FF"/>
<path d="M632.969 314.687C632.761 315.814 631.679 316.559 630.552 316.351C629.425 316.143 628.68 315.061 628.888 313.934C629.096 312.807 630.178 312.062 631.305 312.27C632.431 312.478 633.176 313.56 632.969 314.687Z" fill="#79A2FF"/>
<path d="M649.032 314.687C648.824 315.814 647.742 316.559 646.615 316.351C645.488 316.143 644.743 315.061 644.951 313.934C645.159 312.807 646.241 312.062 647.368 312.27C648.495 312.478 649.24 313.56 649.032 314.687Z" fill="#79A2FF"/>
<path d="M665.094 314.687C664.886 315.814 663.804 316.559 662.677 316.351C661.55 316.143 660.805 315.061 661.013 313.934C661.221 312.807 662.303 312.062 663.43 312.27C664.557 312.478 665.302 313.56 665.094 314.687Z" fill="#79A2FF"/>
<path d="M681.155 314.687C680.947 315.814 679.865 316.559 678.738 316.351C677.611 316.143 676.866 315.061 677.074 313.934C677.282 312.807 678.364 312.062 679.491 312.27C680.618 312.478 681.363 313.56 681.155 314.687Z" fill="#79A2FF"/>
<path d="M616.907 328.217C616.699 329.344 615.617 330.089 614.49 329.881C613.363 329.673 612.618 328.591 612.826 327.464C613.034 326.337 614.116 325.592 615.243 325.8C616.37 326.008 617.115 327.09 616.907 328.217Z" fill="#79A2FF"/>
<path d="M632.969 328.217C632.761 329.344 631.679 330.089 630.552 329.881C629.425 329.673 628.68 328.591 628.888 327.464C629.096 326.337 630.178 325.592 631.305 325.8C632.431 326.008 633.176 327.09 632.969 328.217Z" fill="#79A2FF"/>
<path d="M649.032 328.217C648.824 329.344 647.742 330.089 646.615 329.881C645.488 329.673 644.743 328.591 644.951 327.464C645.159 326.337 646.241 325.592 647.368 325.8C648.495 326.008 649.24 327.09 649.032 328.217Z" fill="#79A2FF"/>
<path d="M665.094 328.217C664.886 329.344 663.804 330.089 662.677 329.881C661.55 329.673 660.805 328.591 661.013 327.464C661.221 326.337 662.303 325.592 663.43 325.8C664.557 326.008 665.302 327.09 665.094 328.217Z" fill="#79A2FF"/>
<path d="M681.155 328.217C680.947 329.344 679.865 330.089 678.738 329.881C677.611 329.673 676.866 328.591 677.074 327.464C677.282 326.337 678.364 325.592 679.491 325.8C680.618 326.008 681.363 327.09 681.155 328.217Z" fill="#79A2FF"/>
<path d="M616.907 341.748C616.699 342.875 615.617 343.62 614.49 343.412C613.363 343.204 612.618 342.122 612.826 340.995C613.034 339.868 614.116 339.123 615.243 339.331C616.37 339.539 617.115 340.621 616.907 341.748Z" fill="#79A2FF"/>
<path d="M632.969 341.748C632.761 342.875 631.679 343.62 630.552 343.412C629.425 343.204 628.68 342.122 628.888 340.995C629.096 339.868 630.178 339.123 631.305 339.331C632.431 339.539 633.176 340.621 632.969 341.748Z" fill="#79A2FF"/>
<path d="M649.032 341.748C648.824 342.875 647.742 343.62 646.615 343.412C645.488 343.204 644.743 342.122 644.951 340.995C645.159 339.868 646.241 339.123 647.368 339.331C648.495 339.539 649.24 340.621 649.032 341.748Z" fill="#79A2FF"/>
<path d="M665.094 341.748C664.886 342.875 663.804 343.62 662.677 343.412C661.55 343.204 660.805 342.122 661.013 340.995C661.221 339.868 662.303 339.123 663.43 339.331C664.557 339.539 665.302 340.621 665.094 341.748Z" fill="#79A2FF"/>
<path d="M681.155 341.748C680.947 342.875 679.865 343.62 678.738 343.412C677.611 343.204 676.866 342.122 677.074 340.995C677.282 339.868 678.364 339.123 679.491 339.331C680.618 339.539 681.363 340.621 681.155 341.748Z" fill="#79A2FF"/>
<path d="M616.907 355.277C616.699 356.404 615.617 357.149 614.49 356.941C613.363 356.733 612.618 355.651 612.826 354.524C613.034 353.397 614.116 352.652 615.243 352.86C616.37 353.068 617.115 354.15 616.907 355.277Z" fill="#79A2FF"/>
<path d="M632.969 355.277C632.761 356.404 631.679 357.149 630.552 356.941C629.425 356.733 628.68 355.651 628.888 354.524C629.096 353.397 630.178 352.652 631.305 352.86C632.431 353.068 633.176 354.15 632.969 355.277Z" fill="#79A2FF"/>
<path d="M649.032 355.277C648.824 356.404 647.742 357.149 646.615 356.941C645.488 356.733 644.743 355.651 644.951 354.524C645.159 353.397 646.241 352.652 647.368 352.86C648.495 353.068 649.24 354.15 649.032 355.277Z" fill="#79A2FF"/>
<path d="M665.094 355.277C664.886 356.404 663.804 357.149 662.677 356.941C661.55 356.733 660.805 355.651 661.013 354.524C661.221 353.397 662.303 352.652 663.43 352.86C664.557 353.068 665.302 354.15 665.094 355.277Z" fill="#79A2FF"/>
<path d="M681.155 355.277C680.947 356.404 679.865 357.149 678.738 356.941C677.611 356.733 676.866 355.651 677.074 354.524C677.282 353.397 678.364 352.652 679.491 352.86C680.618 353.068 681.363 354.15 681.155 355.277Z" fill="#79A2FF"/>
<path d="M616.907 368.807C616.699 369.934 615.617 370.679 614.49 370.471C613.363 370.263 612.618 369.181 612.826 368.054C613.034 366.927 614.116 366.182 615.243 366.39C616.37 366.599 617.115 367.681 616.907 368.807Z" fill="#79A2FF"/>
<path d="M632.969 368.807C632.761 369.934 631.679 370.679 630.552 370.471C629.425 370.263 628.68 369.181 628.888 368.054C629.096 366.927 630.178 366.182 631.305 366.39C632.431 366.599 633.176 367.681 632.969 368.807Z" fill="#79A2FF"/>
<path d="M649.032 368.807C648.824 369.934 647.742 370.679 646.615 370.471C645.488 370.263 644.743 369.181 644.951 368.054C645.159 366.927 646.241 366.182 647.368 366.39C648.495 366.599 649.24 367.681 649.032 368.807Z" fill="#79A2FF"/>
<path d="M665.094 368.807C664.886 369.934 663.804 370.679 662.677 370.471C661.55 370.263 660.805 369.181 661.013 368.054C661.221 366.927 662.303 366.182 663.43 366.39C664.557 366.599 665.302 367.681 665.094 368.807Z" fill="#79A2FF"/>
<path d="M681.155 368.807C680.947 369.934 679.865 370.679 678.738 370.471C677.611 370.263 676.866 369.181 677.074 368.054C677.282 366.927 678.364 366.182 679.491 366.39C680.618 366.599 681.363 367.681 681.155 368.807Z" fill="#79A2FF"/>
<path d="M616.907 382.339C616.699 383.466 615.617 384.211 614.49 384.003C613.363 383.795 612.618 382.713 612.826 381.586C613.034 380.459 614.116 379.714 615.243 379.922C616.37 380.13 617.115 381.212 616.907 382.339Z" fill="#79A2FF"/>
<path d="M632.969 382.339C632.761 383.466 631.679 384.211 630.552 384.003C629.425 383.795 628.68 382.713 628.888 381.586C629.096 380.459 630.178 379.714 631.305 379.922C632.431 380.13 633.176 381.212 632.969 382.339Z" fill="#79A2FF"/>
<path d="M649.032 382.339C648.824 383.466 647.742 384.211 646.615 384.003C645.488 383.795 644.743 382.713 644.951 381.586C645.159 380.459 646.241 379.714 647.368 379.922C648.495 380.13 649.24 381.212 649.032 382.339Z" fill="#79A2FF"/>
<path d="M665.094 382.339C664.886 383.466 663.804 384.211 662.677 384.003C661.55 383.795 660.805 382.713 661.013 381.586C661.221 380.459 662.303 379.714 663.43 379.922C664.557 380.13 665.302 381.212 665.094 382.339Z" fill="#79A2FF"/>
<path d="M681.155 382.339C680.947 383.466 679.865 384.211 678.738 384.003C677.611 383.795 676.866 382.713 677.074 381.586C677.282 380.459 678.364 379.714 679.491 379.922C680.618 380.13 681.363 381.212 681.155 382.339Z" fill="#79A2FF"/>
<path d="M616.907 395.869C616.699 396.996 615.617 397.741 614.49 397.533C613.363 397.325 612.618 396.243 612.826 395.116C613.034 393.989 614.116 393.244 615.243 393.452C616.37 393.66 617.115 394.742 616.907 395.869Z" fill="#79A2FF"/>
<path d="M632.969 395.869C632.761 396.996 631.679 397.741 630.552 397.533C629.425 397.325 628.68 396.243 628.888 395.116C629.096 393.989 630.178 393.244 631.305 393.452C632.431 393.66 633.176 394.742 632.969 395.869Z" fill="#79A2FF"/>
<path d="M649.032 395.869C648.824 396.996 647.742 397.741 646.615 397.533C645.488 397.325 644.743 396.243 644.951 395.116C645.159 393.989 646.241 393.244 647.368 393.452C648.495 393.66 649.24 394.742 649.032 395.869Z" fill="#79A2FF"/>
<path d="M665.094 395.869C664.886 396.996 663.804 397.741 662.677 397.533C661.55 397.325 660.805 396.243 661.013 395.116C661.221 393.989 662.303 393.244 663.43 393.452C664.557 393.66 665.302 394.742 665.094 395.869Z" fill="#79A2FF"/>
<path d="M681.155 395.869C680.947 396.996 679.865 397.741 678.738 397.533C677.611 397.325 676.866 396.243 677.074 395.116C677.282 393.989 678.364 393.244 679.491 393.452C680.618 393.66 681.363 394.742 681.155 395.869Z" fill="#79A2FF"/>
<path d="M616.907 409.398C616.699 410.525 615.617 411.27 614.49 411.062C613.363 410.854 612.618 409.772 612.826 408.645C613.034 407.518 614.116 406.773 615.243 406.981C616.37 407.189 617.115 408.271 616.907 409.398Z" fill="#79A2FF"/>
<path d="M632.969 409.398C632.761 410.525 631.679 411.27 630.552 411.062C629.425 410.854 628.68 409.772 628.888 408.645C629.096 407.518 630.178 406.773 631.305 406.981C632.431 407.189 633.176 408.271 632.969 409.398Z" fill="#79A2FF"/>
<path d="M649.032 409.398C648.824 410.525 647.742 411.27 646.615 411.062C645.488 410.854 644.743 409.772 644.951 408.645C645.159 407.518 646.241 406.773 647.368 406.981C648.495 407.189 649.24 408.271 649.032 409.398Z" fill="#79A2FF"/>
<path d="M665.094 409.398C664.886 410.525 663.804 411.27 662.677 411.062C661.55 410.854 660.805 409.772 661.013 408.645C661.221 407.518 662.303 406.773 663.43 406.981C664.557 407.189 665.302 408.271 665.094 409.398Z" fill="#79A2FF"/>
<path d="M681.155 409.398C680.947 410.525 679.865 411.27 678.738 411.062C677.611 410.854 676.866 409.772 677.074 408.645C677.282 407.518 678.364 406.773 679.491 406.981C680.618 407.189 681.363 408.271 681.155 409.398Z" fill="#79A2FF"/>
</g>
<mask id="mask6_1076_81646" style="mask-type:luminance" maskUnits="userSpaceOnUse" x="0" y="0" width="750" height="500">
<path d="M750 0H0V500H750V0Z" fill="white"/>
</mask>
<g mask="url(#mask6_1076_81646)">
<path d="M50.9088 41.9518C50.7008 43.0788 49.6188 43.8238 48.4918 43.6158C47.3648 43.4078 46.6198 42.3258 46.8278 41.1988C47.0358 40.0718 48.1178 39.3268 49.2448 39.5348C50.3718 39.7428 51.1168 40.8248 50.9088 41.9518Z" fill="#79A2FF"/>
<path d="M66.9713 41.9518C66.7633 43.0788 65.6813 43.8238 64.5543 43.6158C63.4273 43.4078 62.6823 42.3258 62.8903 41.1988C63.0983 40.0718 64.1803 39.3268 65.3073 39.5348C66.4343 39.7428 67.1793 40.8248 66.9713 41.9518Z" fill="#79A2FF"/>
<path d="M83.0318 41.9518C82.8238 43.0788 81.7418 43.8238 80.6148 43.6158C79.4878 43.4078 78.7428 42.3258 78.9508 41.1988C79.1588 40.0718 80.2408 39.3268 81.3678 39.5348C82.4948 39.7428 83.2398 40.8248 83.0318 41.9518Z" fill="#79A2FF"/>
<path d="M99.0943 41.9518C98.8863 43.0788 97.8043 43.8238 96.6773 43.6158C95.5503 43.4078 94.8053 42.3258 95.0133 41.1988C95.2213 40.0718 96.3033 39.3268 97.4303 39.5348C98.5573 39.7428 99.3023 40.8248 99.0943 41.9518Z" fill="#79A2FF"/>
<path d="M115.157 41.9518C114.949 43.0788 113.867 43.8238 112.74 43.6158C111.613 43.4078 110.868 42.3258 111.076 41.1988C111.284 40.0718 112.366 39.3268 113.493 39.5348C114.62 39.7428 115.365 40.8248 115.157 41.9518Z" fill="#79A2FF"/>
<path d="M50.9088 55.4821C50.7008 56.6091 49.6188 57.3541 48.4918 57.1461C47.3648 56.9381 46.6198 55.8561 46.8278 54.7291C47.0358 53.6021 48.1178 52.8571 49.2448 53.0651C50.3718 53.2741 51.1168 54.3551 50.9088 55.4821Z" fill="#79A2FF"/>
<path d="M66.9713 55.4821C66.7633 56.6091 65.6813 57.3541 64.5543 57.1461C63.4273 56.9381 62.6823 55.8561 62.8903 54.7291C63.0983 53.6021 64.1803 52.8571 65.3073 53.0651C66.4343 53.2741 67.1793 54.3551 66.9713 55.4821Z" fill="#79A2FF"/>
<path d="M83.0318 55.4821C82.8238 56.6091 81.7418 57.3541 80.6148 57.1461C79.4878 56.9381 78.7428 55.8561 78.9508 54.7291C79.1588 53.6021 80.2408 52.8571 81.3678 53.0651C82.4948 53.2741 83.2398 54.3551 83.0318 55.4821Z" fill="#79A2FF"/>
<path d="M99.0943 55.4821C98.8863 56.6091 97.8043 57.3541 96.6773 57.1461C95.5503 56.9381 94.8053 55.8561 95.0133 54.7291C95.2213 53.6021 96.3033 52.8571 97.4303 53.0651C98.5573 53.2741 99.3023 54.3551 99.0943 55.4821Z" fill="#79A2FF"/>
<path d="M115.157 55.4821C114.949 56.6091 113.867 57.3541 112.74 57.1461C111.613 56.9381 110.868 55.8561 111.076 54.7291C111.284 53.6021 112.366 52.8571 113.493 53.0651C114.62 53.2741 115.365 54.3551 115.157 55.4821Z" fill="#79A2FF"/>
<path d="M50.9088 69.0124C50.7008 70.1394 49.6188 70.8844 48.4918 70.6764C47.3648 70.4684 46.6198 69.3864 46.8278 68.2594C47.0358 67.1324 48.1178 66.3874 49.2448 66.5954C50.3718 66.8034 51.1168 67.8854 50.9088 69.0124Z" fill="#79A2FF"/>
<path d="M66.9713 69.0124C66.7633 70.1394 65.6813 70.8844 64.5543 70.6764C63.4273 70.4684 62.6823 69.3864 62.8903 68.2594C63.0983 67.1324 64.1803 66.3874 65.3073 66.5954C66.4343 66.8034 67.1793 67.8854 66.9713 69.0124Z" fill="#79A2FF"/>
<path d="M83.0318 69.0124C82.8238 70.1394 81.7418 70.8844 80.6148 70.6764C79.4878 70.4684 78.7428 69.3864 78.9508 68.2594C79.1588 67.1324 80.2408 66.3874 81.3678 66.5954C82.4948 66.8034 83.2398 67.8854 83.0318 69.0124Z" fill="#79A2FF"/>
<path d="M99.0943 69.0124C98.8863 70.1394 97.8043 70.8844 96.6773 70.6764C95.5503 70.4684 94.8053 69.3864 95.0133 68.2594C95.2213 67.1324 96.3033 66.3874 97.4303 66.5954C98.5573 66.8034 99.3023 67.8854 99.0943 69.0124Z" fill="#79A2FF"/>
<path d="M115.157 69.0124C114.949 70.1394 113.867 70.8844 112.74 70.6764C111.613 70.4684 110.868 69.3864 111.076 68.2594C111.284 67.1324 112.366 66.3874 113.493 66.5954C114.62 66.8034 115.365 67.8854 115.157 69.0124Z" fill="#79A2FF"/>
<path d="M50.9088 82.5426C50.7008 83.6696 49.6188 84.4147 48.4918 84.2067C47.3648 83.9987 46.6198 82.9167 46.8278 81.7897C47.0358 80.6627 48.1178 79.9176 49.2448 80.1256C50.3718 80.3336 51.1168 81.4156 50.9088 82.5426Z" fill="#79A2FF"/>
<path d="M66.9713 82.5426C66.7633 83.6696 65.6813 84.4147 64.5543 84.2067C63.4273 83.9987 62.6823 82.9167 62.8903 81.7897C63.0983 80.6627 64.1803 79.9176 65.3073 80.1256C66.4343 80.3336 67.1793 81.4156 66.9713 82.5426Z" fill="#79A2FF"/>
<path d="M83.0318 82.5426C82.8238 83.6696 81.7418 84.4147 80.6148 84.2067C79.4878 83.9987 78.7428 82.9167 78.9508 81.7897C79.1588 80.6627 80.2408 79.9176 81.3678 80.1256C82.4948 80.3336 83.2398 81.4156 83.0318 82.5426Z" fill="#79A2FF"/>
<path d="M99.0943 82.5426C98.8863 83.6696 97.8043 84.4147 96.6773 84.2067C95.5503 83.9987 94.8053 82.9167 95.0133 81.7897C95.2213 80.6627 96.3033 79.9176 97.4303 80.1256C98.5573 80.3336 99.3023 81.4156 99.0943 82.5426Z" fill="#79A2FF"/>
<path d="M115.157 82.5426C114.949 83.6696 113.867 84.4147 112.74 84.2067C111.613 83.9987 110.868 82.9167 111.076 81.7897C111.284 80.6627 112.366 79.9176 113.493 80.1256C114.62 80.3336 115.365 81.4156 115.157 82.5426Z" fill="#79A2FF"/>
<path d="M50.9088 96.0729C50.7008 97.1999 49.6188 97.9449 48.4918 97.7369C47.3648 97.5289 46.6198 96.4469 46.8278 95.3199C47.0358 94.1929 48.1178 93.4479 49.2448 93.6559C50.3718 93.8639 51.1168 94.9459 50.9088 96.0729Z" fill="#79A2FF"/>
<path d="M66.9713 96.0729C66.7633 97.1999 65.6813 97.9449 64.5543 97.7369C63.4273 97.5289 62.6823 96.4469 62.8903 95.3199C63.0983 94.1929 64.1803 93.4479 65.3073 93.6559C66.4343 93.8639 67.1793 94.9459 66.9713 96.0729Z" fill="#79A2FF"/>
<path d="M83.0318 96.0729C82.8238 97.1999 81.7418 97.9449 80.6148 97.7369C79.4878 97.5289 78.7428 96.4469 78.9508 95.3199C79.1588 94.1929 80.2408 93.4479 81.3678 93.6559C82.4948 93.8639 83.2398 94.9459 83.0318 96.0729Z" fill="#79A2FF"/>
<path d="M99.0943 96.0729C98.8863 97.1999 97.8043 97.9449 96.6773 97.7369C95.5503 97.5289 94.8053 96.4469 95.0133 95.3199C95.2213 94.1929 96.3033 93.4479 97.4303 93.6559C98.5573 93.8639 99.3023 94.9459 99.0943 96.0729Z" fill="#79A2FF"/>
<path d="M115.157 96.0729C114.949 97.1999 113.867 97.9449 112.74 97.7369C111.613 97.5289 110.868 96.4469 111.076 95.3199C111.284 94.1929 112.366 93.4479 113.493 93.6559C114.62 93.8639 115.365 94.9459 115.157 96.0729Z" fill="#79A2FF"/>
<path d="M50.9088 109.603C50.7008 110.73 49.6188 111.475 48.4918 111.267C47.3648 111.059 46.6198 109.977 46.8278 108.85C47.0358 107.723 48.1178 106.978 49.2448 107.186C50.3718 107.394 51.1168 108.476 50.9088 109.603Z" fill="#79A2FF"/>
<path d="M66.9713 109.603C66.7633 110.73 65.6813 111.475 64.5543 111.267C63.4273 111.059 62.6823 109.977 62.8903 108.85C63.0983 107.723 64.1803 106.978 65.3073 107.186C66.4343 107.394 67.1793 108.476 66.9713 109.603Z" fill="#79A2FF"/>
<path d="M83.0318 109.603C82.8238 110.73 81.7418 111.475 80.6148 111.267C79.4878 111.059 78.7428 109.977 78.9508 108.85C79.1588 107.723 80.2408 106.978 81.3678 107.186C82.4948 107.394 83.2398 108.476 83.0318 109.603Z" fill="#79A2FF"/>
<path d="M99.0943 109.603C98.8863 110.73 97.8043 111.475 96.6773 111.267C95.5503 111.059 94.8053 109.977 95.0133 108.85C95.2213 107.723 96.3033 106.978 97.4303 107.186C98.5573 107.394 99.3023 108.476 99.0943 109.603Z" fill="#79A2FF"/>
<path d="M115.157 109.603C114.949 110.73 113.867 111.475 112.74 111.267C111.613 111.059 110.868 109.977 111.076 108.85C111.284 107.723 112.366 106.978 113.493 107.186C114.62 107.394 115.365 108.476 115.157 109.603Z" fill="#79A2FF"/>
<path d="M50.9088 123.132C50.7008 124.259 49.6188 125.004 48.4918 124.796C47.3648 124.588 46.6198 123.506 46.8278 122.379C47.0358 121.252 48.1178 120.507 49.2448 120.715C50.3718 120.924 51.1168 122.006 50.9088 123.132Z" fill="#79A2FF"/>
<path d="M66.9713 123.132C66.7633 124.259 65.6813 125.004 64.5543 124.796C63.4273 124.588 62.6823 123.506 62.8903 122.379C63.0983 121.252 64.1803 120.507 65.3073 120.715C66.4343 120.924 67.1793 122.006 66.9713 123.132Z" fill="#79A2FF"/>
<path d="M83.0318 123.132C82.8238 124.259 81.7418 125.004 80.6148 124.796C79.4878 124.588 78.7428 123.506 78.9508 122.379C79.1588 121.252 80.2408 120.507 81.3678 120.715C82.4948 120.924 83.2398 122.006 83.0318 123.132Z" fill="#79A2FF"/>
<path d="M99.0943 123.132C98.8863 124.259 97.8043 125.004 96.6773 124.796C95.5503 124.588 94.8053 123.506 95.0133 122.379C95.2213 121.252 96.3033 120.507 97.4303 120.715C98.5573 120.924 99.3023 122.006 99.0943 123.132Z" fill="#79A2FF"/>
<path d="M115.157 123.132C114.949 124.259 113.867 125.004 112.74 124.796C111.613 124.588 110.868 123.506 111.076 122.379C111.284 121.252 112.366 120.507 113.493 120.715C114.62 120.924 115.365 122.006 115.157 123.132Z" fill="#79A2FF"/>
<path d="M50.9088 136.664C50.7008 137.791 49.6188 138.536 48.4918 138.328C47.3648 138.12 46.6198 137.038 46.8278 135.911C47.0358 134.784 48.1178 134.039 49.2448 134.247C50.3718 134.455 51.1168 135.537 50.9088 136.664Z" fill="#79A2FF"/>
<path d="M66.9713 136.664C66.7633 137.791 65.6813 138.536 64.5543 138.328C63.4273 138.12 62.6823 137.038 62.8903 135.911C63.0983 134.784 64.1803 134.039 65.3073 134.247C66.4343 134.455 67.1793 135.537 66.9713 136.664Z" fill="#79A2FF"/>
<path d="M83.0318 136.664C82.8238 137.791 81.7418 138.536 80.6148 138.328C79.4878 138.12 78.7428 137.038 78.9508 135.911C79.1588 134.784 80.2408 134.039 81.3678 134.247C82.4948 134.455 83.2398 135.537 83.0318 136.664Z" fill="#79A2FF"/>
<path d="M99.0943 136.664C98.8863 137.791 97.8043 138.536 96.6773 138.328C95.5503 138.12 94.8053 137.038 95.0133 135.911C95.2213 134.784 96.3033 134.039 97.4303 134.247C98.5573 134.455 99.3023 135.537 99.0943 136.664Z" fill="#79A2FF"/>
<path d="M115.157 136.664C114.949 137.791 113.867 138.536 112.74 138.328C111.613 138.12 110.868 137.038 111.076 135.911C111.284 134.784 112.366 134.039 113.493 134.247C114.62 134.455 115.365 135.537 115.157 136.664Z" fill="#79A2FF"/>
<path d="M50.9088 150.194C50.7008 151.321 49.6188 152.066 48.4918 151.858C47.3648 151.65 46.6198 150.568 46.8278 149.441C47.0358 148.314 48.1178 147.569 49.2448 147.777C50.3718 147.985 51.1168 149.067 50.9088 150.194Z" fill="#79A2FF"/>
<path d="M66.9713 150.194C66.7633 151.321 65.6813 152.066 64.5543 151.858C63.4273 151.65 62.6823 150.568 62.8903 149.441C63.0983 148.314 64.1803 147.569 65.3073 147.777C66.4343 147.985 67.1793 149.067 66.9713 150.194Z" fill="#79A2FF"/>
<path d="M83.0318 150.194C82.8238 151.321 81.7418 152.066 80.6148 151.858C79.4878 151.65 78.7428 150.568 78.9508 149.441C79.1588 148.314 80.2408 147.569 81.3678 147.777C82.4948 147.985 83.2398 149.067 83.0318 150.194Z" fill="#79A2FF"/>
<path d="M99.0943 150.194C98.8863 151.321 97.8043 152.066 96.6773 151.858C95.5503 151.65 94.8053 150.568 95.0133 149.441C95.2213 148.314 96.3033 147.569 97.4303 147.777C98.5573 147.985 99.3023 149.067 99.0943 150.194Z" fill="#79A2FF"/>
<path d="M115.157 150.194C114.949 151.321 113.867 152.066 112.74 151.858C111.613 151.65 110.868 150.568 111.076 149.441C111.284 148.314 112.366 147.569 113.493 147.777C114.62 147.985 115.365 149.067 115.157 150.194Z" fill="#79A2FF"/>
<path d="M50.9088 163.724C50.7008 164.851 49.6188 165.596 48.4918 165.388C47.3648 165.18 46.6198 164.098 46.8278 162.971C47.0358 161.844 48.1178 161.099 49.2448 161.307C50.3718 161.515 51.1168 162.597 50.9088 163.724Z" fill="#79A2FF"/>
<path d="M66.9713 163.724C66.7633 164.851 65.6813 165.596 64.5543 165.388C63.4273 165.18 62.6823 164.098 62.8903 162.971C63.0983 161.844 64.1803 161.099 65.3073 161.307C66.4343 161.515 67.1793 162.597 66.9713 163.724Z" fill="#79A2FF"/>
<path d="M83.0318 163.724C82.8238 164.851 81.7418 165.596 80.6148 165.388C79.4878 165.18 78.7428 164.098 78.9508 162.971C79.1588 161.844 80.2408 161.099 81.3678 161.307C82.4948 161.515 83.2398 162.597 83.0318 163.724Z" fill="#79A2FF"/>
<path d="M99.0943 163.724C98.8863 164.851 97.8043 165.596 96.6773 165.388C95.5503 165.18 94.8053 164.098 95.0133 162.971C95.2213 161.844 96.3033 161.099 97.4303 161.307C98.5573 161.515 99.3023 162.597 99.0943 163.724Z" fill="#79A2FF"/>
<path d="M115.157 163.724C114.949 164.851 113.867 165.596 112.74 165.388C111.613 165.18 110.868 164.098 111.076 162.971C111.284 161.844 112.366 161.099 113.493 161.307C114.62 161.515 115.365 162.597 115.157 163.724Z" fill="#79A2FF"/>
<path d="M50.9088 177.254C50.7008 178.381 49.6188 179.126 48.4918 178.918C47.3648 178.71 46.6198 177.628 46.8278 176.501C47.0358 175.374 48.1178 174.629 49.2448 174.837C50.3718 175.045 51.1168 176.127 50.9088 177.254Z" fill="#79A2FF"/>
<path d="M66.9713 177.254C66.7633 178.381 65.6813 179.126 64.5543 178.918C63.4273 178.71 62.6823 177.628 62.8903 176.501C63.0983 175.374 64.1803 174.629 65.3073 174.837C66.4343 175.045 67.1793 176.127 66.9713 177.254Z" fill="#79A2FF"/>
<path d="M83.0318 177.254C82.8238 178.381 81.7418 179.126 80.6148 178.918C79.4878 178.71 78.7428 177.628 78.9508 176.501C79.1588 175.374 80.2408 174.629 81.3678 174.837C82.4948 175.045 83.2398 176.127 83.0318 177.254Z" fill="#79A2FF"/>
<path d="M99.0943 177.254C98.8863 178.381 97.8043 179.126 96.6773 178.918C95.5503 178.71 94.8053 177.628 95.0133 176.501C95.2213 175.374 96.3033 174.629 97.4303 174.837C98.5573 175.045 99.3023 176.127 99.0943 177.254Z" fill="#79A2FF"/>
<path d="M115.157 177.254C114.949 178.381 113.867 179.126 112.74 178.918C111.613 178.71 110.868 177.628 111.076 176.501C111.284 175.374 112.366 174.629 113.493 174.837C114.62 175.045 115.365 176.127 115.157 177.254Z" fill="#79A2FF"/>
</g>
<mask id="mask7_1076_81646" style="mask-type:luminance" maskUnits="userSpaceOnUse" x="0" y="0" width="750" height="500">
<path d="M750 0H0V500H750V0Z" fill="white"/>
</mask>
<g mask="url(#mask7_1076_81646)">
<path d="M432.284 0.376634C432.076 1.50363 430.994 2.24863 429.867 2.04063C428.74 1.83263 427.995 0.750634 428.203 -0.376366C428.411 -1.50337 429.493 -2.24837 430.62 -2.04037C431.747 -1.83237 432.492 -0.750366 432.284 0.376634Z" fill="#79A2FF"/>
<path d="M448.346 0.376634C448.138 1.50363 447.056 2.24863 445.929 2.04063C444.802 1.83263 444.057 0.750634 444.265 -0.376366C444.473 -1.50337 445.555 -2.24837 446.682 -2.04037C447.809 -1.83237 448.554 -0.750366 448.346 0.376634Z" fill="#79A2FF"/>
<path d="M464.409 0.376634C464.201 1.50363 463.119 2.24863 461.992 2.04063C460.865 1.83263 460.12 0.750634 460.328 -0.376366C460.536 -1.50337 461.618 -2.24837 462.745 -2.04037C463.872 -1.83137 464.617 -0.750366 464.409 0.376634Z" fill="#79A2FF"/>
<path d="M480.471 0.376634C480.263 1.50363 479.181 2.24863 478.054 2.04063C476.927 1.83263 476.182 0.750634 476.39 -0.376366C476.598 -1.50337 477.68 -2.24837 478.807 -2.04037C479.934 -1.83137 480.679 -0.750366 480.471 0.376634Z" fill="#79A2FF"/>
<path d="M496.534 0.376634C496.326 1.50363 495.244 2.24863 494.117 2.04063C492.99 1.83263 492.245 0.750634 492.453 -0.376366C492.661 -1.50337 493.743 -2.24837 494.87 -2.04037C495.997 -1.83237 496.741 -0.750366 496.534 0.376634Z" fill="#79A2FF"/>
<path d="M432.284 13.9069C432.076 15.0339 430.994 15.7789 429.867 15.5709C428.74 15.3629 427.995 14.2809 428.203 13.1539C428.411 12.0269 429.493 11.2819 430.62 11.4899C431.747 11.6979 432.492 12.7799 432.284 13.9069Z" fill="#79A2FF"/>
<path d="M448.346 13.9069C448.138 15.0339 447.056 15.7789 445.929 15.5709C444.802 15.3629 444.057 14.2809 444.265 13.1539C444.473 12.0269 445.555 11.2819 446.682 11.4899C447.809 11.6979 448.554 12.7799 448.346 13.9069Z" fill="#79A2FF"/>
<path d="M464.409 13.9069C464.201 15.0339 463.119 15.7789 461.992 15.5709C460.865 15.3629 460.12 14.2809 460.328 13.1539C460.536 12.0269 461.618 11.2819 462.745 11.4899C463.872 11.6979 464.617 12.7799 464.409 13.9069Z" fill="#79A2FF"/>
<path d="M480.471 13.9069C480.263 15.0339 479.181 15.7789 478.054 15.5709C476.927 15.3629 476.182 14.2809 476.39 13.1539C476.598 12.0269 477.68 11.2819 478.807 11.4899C479.934 11.6979 480.679 12.7799 480.471 13.9069Z" fill="#79A2FF"/>
<path d="M496.534 13.9069C496.326 15.0339 495.244 15.7789 494.117 15.5709C492.99 15.3629 492.245 14.2809 492.453 13.1539C492.661 12.0269 493.743 11.2819 494.87 11.4899C495.996 11.6979 496.741 12.7799 496.534 13.9069Z" fill="#79A2FF"/>
<path d="M432.284 27.4372C432.076 28.5642 430.994 29.3092 429.867 29.1012C428.74 28.8932 427.995 27.8112 428.203 26.6842C428.411 25.5572 429.493 24.8122 430.62 25.0202C431.747 25.2282 432.492 26.3102 432.284 27.4372Z" fill="#79A2FF"/>
<path d="M448.346 27.4372C448.138 28.5642 447.056 29.3092 445.929 29.1012C444.802 28.8932 444.057 27.8112 444.265 26.6842C444.473 25.5572 445.555 24.8122 446.682 25.0202C447.809 25.2282 448.554 26.3102 448.346 27.4372Z" fill="#79A2FF"/>
<path d="M464.409 27.4372C464.201 28.5642 463.119 29.3092 461.992 29.1012C460.865 28.8932 460.12 27.8112 460.328 26.6842C460.536 25.5572 461.618 24.8122 462.745 25.0202C463.872 25.2282 464.617 26.3102 464.409 27.4372Z" fill="#79A2FF"/>
<path d="M480.471 27.4372C480.263 28.5642 479.181 29.3092 478.054 29.1012C476.927 28.8932 476.182 27.8112 476.39 26.6842C476.598 25.5572 477.68 24.8122 478.807 25.0202C479.934 25.2282 480.679 26.3102 480.471 27.4372Z" fill="#79A2FF"/>
<path d="M496.534 27.4372C496.326 28.5642 495.244 29.3092 494.117 29.1012C492.99 28.8932 492.245 27.8112 492.453 26.6842C492.661 25.5572 493.743 24.8122 494.87 25.0202C495.996 25.2282 496.741 26.3102 496.534 27.4372Z" fill="#79A2FF"/>
<path d="M432.284 40.9675C432.076 42.0945 430.994 42.8395 429.867 42.6315C428.74 42.4235 427.995 41.3415 428.203 40.2145C428.411 39.0875 429.493 38.3425 430.62 38.5505C431.747 38.7585 432.492 39.8405 432.284 40.9675Z" fill="#79A2FF"/>
<path d="M448.346 40.9675C448.138 42.0945 447.056 42.8395 445.929 42.6315C444.802 42.4235 444.057 41.3415 444.265 40.2145C444.473 39.0875 445.555 38.3425 446.682 38.5505C447.809 38.7585 448.554 39.8405 448.346 40.9675Z" fill="#79A2FF"/>
<path d="M464.409 40.9675C464.201 42.0945 463.119 42.8395 461.992 42.6315C460.865 42.4235 460.12 41.3415 460.328 40.2145C460.536 39.0875 461.618 38.3425 462.745 38.5505C463.872 38.7585 464.617 39.8405 464.409 40.9675Z" fill="#79A2FF"/>
<path d="M480.471 40.9675C480.263 42.0945 479.181 42.8395 478.054 42.6315C476.927 42.4235 476.182 41.3415 476.39 40.2145C476.598 39.0875 477.68 38.3425 478.807 38.5505C479.934 38.7585 480.679 39.8405 480.471 40.9675Z" fill="#79A2FF"/>
<path d="M496.534 40.9675C496.326 42.0945 495.244 42.8395 494.117 42.6315C492.99 42.4235 492.245 41.3415 492.453 40.2145C492.661 39.0875 493.743 38.3425 494.87 38.5505C495.996 38.7585 496.741 39.8405 496.534 40.9675Z" fill="#79A2FF"/>
<path d="M432.284 54.4977C432.076 55.6247 430.994 56.3697 429.867 56.1617C428.74 55.9537 427.995 54.8717 428.203 53.7447C428.411 52.6177 429.493 51.8727 430.62 52.0807C431.747 52.2887 432.492 53.3707 432.284 54.4977Z" fill="#79A2FF"/>
<path d="M448.346 54.4977C448.138 55.6247 447.056 56.3697 445.929 56.1617C444.802 55.9537 444.057 54.8717 444.265 53.7447C444.473 52.6177 445.555 51.8727 446.682 52.0807C447.809 52.2887 448.554 53.3707 448.346 54.4977Z" fill="#79A2FF"/>
<path d="M464.409 54.4977C464.201 55.6247 463.119 56.3697 461.992 56.1617C460.865 55.9537 460.12 54.8717 460.328 53.7447C460.536 52.6177 461.618 51.8727 462.745 52.0807C463.872 52.2887 464.617 53.3707 464.409 54.4977Z" fill="#79A2FF"/>
<path d="M480.471 54.4977C480.263 55.6247 479.181 56.3697 478.054 56.1617C476.927 55.9537 476.182 54.8717 476.39 53.7447C476.598 52.6177 477.68 51.8727 478.807 52.0807C479.934 52.2887 480.679 53.3707 480.471 54.4977Z" fill="#79A2FF"/>
<path d="M496.534 54.4977C496.326 55.6247 495.244 56.3697 494.117 56.1617C492.99 55.9537 492.245 54.8717 492.453 53.7447C492.661 52.6177 493.743 51.8727 494.87 52.0807C495.996 52.2887 496.741 53.3707 496.534 54.4977Z" fill="#79A2FF"/>
<path d="M432.284 68.027C432.076 69.154 430.994 69.899 429.867 69.691C428.74 69.483 427.995 68.401 428.203 67.274C428.411 66.147 429.493 65.402 430.62 65.61C431.747 65.819 432.492 66.901 432.284 68.027Z" fill="#79A2FF"/>
<path d="M448.346 68.027C448.138 69.154 447.056 69.899 445.929 69.691C444.802 69.483 444.057 68.401 444.265 67.274C444.473 66.147 445.555 65.402 446.682 65.61C447.809 65.819 448.554 66.901 448.346 68.027Z" fill="#79A2FF"/>
<path d="M464.409 68.027C464.201 69.154 463.119 69.899 461.992 69.691C460.865 69.483 460.12 68.401 460.328 67.274C460.536 66.147 461.618 65.402 462.745 65.61C463.872 65.819 464.617 66.901 464.409 68.027Z" fill="#79A2FF"/>
<path d="M480.471 68.027C480.263 69.154 479.181 69.899 478.054 69.691C476.927 69.483 476.182 68.401 476.39 67.274C476.598 66.147 477.68 65.402 478.807 65.61C479.934 65.819 480.679 66.901 480.471 68.027Z" fill="#79A2FF"/>
<path d="M496.534 68.027C496.326 69.154 495.244 69.899 494.117 69.691C492.99 69.483 492.245 68.401 492.453 67.274C492.661 66.147 493.743 65.402 494.87 65.61C495.996 65.819 496.741 66.901 496.534 68.027Z" fill="#79A2FF"/>
</g>
<mask id="mask8_1076_81646" style="mask-type:luminance" maskUnits="userSpaceOnUse" x="0" y="0" width="750" height="500">
<path d="M750 0H0V500H750V0Z" fill="white"/>
</mask>
<g mask="url(#mask8_1076_81646)">
<path d="M237.93 413.132C237.722 414.259 236.64 415.004 235.513 414.796C234.386 414.588 233.641 413.506 233.849 412.379C234.057 411.252 235.139 410.507 236.266 410.715C237.393 410.923 238.138 412.005 237.93 413.132Z" fill="#79A2FF"/>
<path d="M253.993 413.132C253.785 414.259 252.703 415.004 251.576 414.796C250.449 414.588 249.704 413.506 249.912 412.379C250.12 411.252 251.202 410.507 252.329 410.715C253.456 410.923 254.201 412.005 253.993 413.132Z" fill="#79A2FF"/>
<path d="M270.055 413.132C269.847 414.259 268.765 415.004 267.638 414.796C266.511 414.588 265.766 413.506 265.974 412.379C266.182 411.252 267.264 410.507 268.391 410.715C269.518 410.923 270.263 412.005 270.055 413.132Z" fill="#79A2FF"/>
<path d="M286.118 413.132C285.91 414.259 284.828 415.004 283.701 414.796C282.574 414.588 281.829 413.506 282.037 412.379C282.245 411.252 283.327 410.507 284.454 410.715C285.581 410.923 286.326 412.005 286.118 413.132Z" fill="#79A2FF"/>
<path d="M302.178 413.132C301.97 414.259 300.888 415.004 299.761 414.796C298.634 414.588 297.889 413.506 298.097 412.379C298.305 411.252 299.387 410.507 300.514 410.715C301.641 410.923 302.386 412.005 302.178 413.132Z" fill="#79A2FF"/>
<path d="M237.93 426.662C237.722 427.789 236.64 428.534 235.513 428.326C234.386 428.118 233.641 427.036 233.849 425.909C234.057 424.782 235.139 424.037 236.266 424.245C237.393 424.453 238.138 425.535 237.93 426.662Z" fill="#79A2FF"/>
<path d="M253.993 426.662C253.785 427.789 252.703 428.534 251.576 428.326C250.449 428.118 249.704 427.036 249.912 425.909C250.12 424.782 251.202 424.037 252.329 424.245C253.456 424.453 254.201 425.535 253.993 426.662Z" fill="#79A2FF"/>
<path d="M270.055 426.662C269.847 427.789 268.765 428.534 267.638 428.326C266.511 428.118 265.766 427.036 265.974 425.909C266.182 424.782 267.264 424.037 268.391 424.245C269.518 424.453 270.263 425.535 270.055 426.662Z" fill="#79A2FF"/>
<path d="M286.118 426.662C285.91 427.789 284.828 428.534 283.701 428.326C282.574 428.118 281.829 427.036 282.037 425.909C282.245 424.782 283.327 424.037 284.454 424.245C285.581 424.453 286.326 425.535 286.118 426.662Z" fill="#79A2FF"/>
<path d="M302.178 426.662C301.97 427.789 300.888 428.534 299.761 428.326C298.634 428.118 297.889 427.036 298.097 425.909C298.305 424.782 299.387 424.037 300.514 424.245C301.641 424.453 302.386 425.535 302.178 426.662Z" fill="#79A2FF"/>
<path d="M237.93 440.191C237.722 441.318 236.64 442.063 235.513 441.855C234.386 441.647 233.641 440.565 233.849 439.438C234.057 438.311 235.139 437.566 236.266 437.774C237.393 437.982 238.138 439.064 237.93 440.191Z" fill="#79A2FF"/>
<path d="M253.993 440.191C253.785 441.318 252.703 442.063 251.576 441.855C250.449 441.647 249.704 440.565 249.912 439.438C250.12 438.311 251.202 437.566 252.329 437.774C253.456 437.982 254.201 439.064 253.993 440.191Z" fill="#79A2FF"/>
<path d="M270.055 440.191C269.847 441.318 268.765 442.063 267.638 441.855C266.511 441.647 265.766 440.565 265.974 439.438C266.182 438.311 267.264 437.566 268.391 437.774C269.518 437.982 270.263 439.064 270.055 440.191Z" fill="#79A2FF"/>
<path d="M286.118 440.191C285.91 441.318 284.828 442.063 283.701 441.855C282.574 441.647 281.829 440.565 282.037 439.438C282.245 438.311 283.327 437.566 284.454 437.774C285.581 437.982 286.326 439.064 286.118 440.191Z" fill="#79A2FF"/>
<path d="M302.178 440.191C301.97 441.318 300.888 442.063 299.761 441.855C298.634 441.647 297.889 440.565 298.097 439.438C298.305 438.311 299.387 437.566 300.514 437.774C301.641 437.982 302.386 439.064 302.178 440.191Z" fill="#79A2FF"/>
<path d="M237.93 453.722C237.722 454.849 236.64 455.594 235.513 455.386C234.386 455.178 233.641 454.096 233.849 452.969C234.057 451.842 235.139 451.097 236.266 451.305C237.393 451.513 238.138 452.595 237.93 453.722Z" fill="#79A2FF"/>
<path d="M253.993 453.722C253.785 454.849 252.703 455.594 251.576 455.386C250.449 455.178 249.704 454.096 249.912 452.969C250.12 451.842 251.202 451.097 252.329 451.305C253.456 451.513 254.201 452.595 253.993 453.722Z" fill="#79A2FF"/>
<path d="M270.055 453.722C269.847 454.849 268.765 455.594 267.638 455.386C266.511 455.178 265.766 454.096 265.974 452.969C266.182 451.842 267.264 451.097 268.391 451.305C269.518 451.513 270.263 452.595 270.055 453.722Z" fill="#79A2FF"/>
<path d="M286.118 453.722C285.91 454.849 284.828 455.594 283.701 455.386C282.574 455.178 281.829 454.096 282.037 452.969C282.245 451.842 283.327 451.097 284.454 451.305C285.581 451.513 286.326 452.595 286.118 453.722Z" fill="#79A2FF"/>
<path d="M302.178 453.722C301.97 454.849 300.888 455.594 299.761 455.386C298.634 455.178 297.889 454.096 298.097 452.969C298.305 451.842 299.387 451.097 300.514 451.305C301.641 451.513 302.386 452.595 302.178 453.722Z" fill="#79A2FF"/>
<path d="M237.93 467.253C237.722 468.38 236.64 469.125 235.513 468.917C234.386 468.709 233.641 467.627 233.849 466.5C234.057 465.373 235.139 464.628 236.266 464.836C237.393 465.044 238.138 466.126 237.93 467.253Z" fill="#79A2FF"/>
<path d="M253.993 467.253C253.785 468.38 252.703 469.125 251.576 468.917C250.449 468.709 249.704 467.627 249.912 466.5C250.12 465.373 251.202 464.628 252.329 464.836C253.456 465.044 254.201 466.126 253.993 467.253Z" fill="#79A2FF"/>
<path d="M270.055 467.253C269.847 468.38 268.765 469.125 267.638 468.917C266.511 468.709 265.766 467.627 265.974 466.5C266.182 465.373 267.264 464.628 268.391 464.836C269.518 465.044 270.263 466.126 270.055 467.253Z" fill="#79A2FF"/>
<path d="M286.118 467.253C285.91 468.38 284.828 469.125 283.701 468.917C282.574 468.709 281.829 467.627 282.037 466.5C282.245 465.373 283.327 464.628 284.454 464.836C285.581 465.044 286.326 466.126 286.118 467.253Z" fill="#79A2FF"/>
<path d="M302.178 467.253C301.97 468.38 300.888 469.125 299.761 468.917C298.634 468.709 297.889 467.627 298.097 466.5C298.305 465.373 299.387 464.628 300.514 464.836C301.641 465.044 302.386 466.126 302.178 467.253Z" fill="#79A2FF"/>
<path d="M237.93 480.783C237.722 481.91 236.64 482.655 235.513 482.447C234.386 482.239 233.641 481.157 233.849 480.03C234.057 478.903 235.139 478.158 236.266 478.366C237.393 478.574 238.138 479.656 237.93 480.783Z" fill="#79A2FF"/>
<path d="M253.993 480.783C253.785 481.91 252.703 482.655 251.576 482.447C250.449 482.239 249.704 481.157 249.912 480.03C250.12 478.903 251.202 478.158 252.329 478.366C253.456 478.574 254.201 479.656 253.993 480.783Z" fill="#79A2FF"/>
<path d="M270.055 480.783C269.847 481.91 268.765 482.655 267.638 482.447C266.511 482.239 265.766 481.157 265.974 480.03C266.182 478.903 267.264 478.158 268.391 478.366C269.518 478.574 270.263 479.656 270.055 480.783Z" fill="#79A2FF"/>
<path d="M286.118 480.783C285.91 481.91 284.828 482.655 283.701 482.447C282.574 482.239 281.829 481.157 282.037 480.03C282.245 478.903 283.327 478.158 284.454 478.366C285.581 478.574 286.326 479.656 286.118 480.783Z" fill="#79A2FF"/>
<path d="M302.178 480.783C301.97 481.91 300.888 482.655 299.761 482.447C298.634 482.239 297.889 481.157 298.097 480.03C298.305 478.903 299.387 478.158 300.514 478.366C301.641 478.574 302.386 479.656 302.178 480.783Z" fill="#79A2FF"/>
<path d="M237.93 494.312C237.722 495.439 236.64 496.184 235.513 495.976C234.386 495.768 233.641 494.686 233.849 493.559C234.057 492.432 235.139 491.687 236.266 491.895C237.393 492.103 238.138 493.185 237.93 494.312Z" fill="#79A2FF"/>
<path d="M253.993 494.312C253.785 495.439 252.703 496.184 251.576 495.976C250.449 495.768 249.704 494.686 249.912 493.559C250.12 492.432 251.202 491.687 252.329 491.895C253.456 492.103 254.201 493.185 253.993 494.312Z" fill="#79A2FF"/>
<path d="M270.055 494.312C269.847 495.439 268.765 496.184 267.638 495.976C266.511 495.768 265.766 494.686 265.974 493.559C266.182 492.432 267.264 491.687 268.391 491.895C269.518 492.103 270.263 493.185 270.055 494.312Z" fill="#79A2FF"/>
<path d="M286.118 494.312C285.91 495.439 284.828 496.184 283.701 495.976C282.574 495.768 281.829 494.686 282.037 493.559C282.245 492.432 283.327 491.687 284.454 491.895C285.581 492.103 286.326 493.185 286.118 494.312Z" fill="#79A2FF"/>
<path d="M302.178 494.312C301.97 495.439 300.888 496.184 299.761 495.976C298.634 495.768 297.889 494.686 298.097 493.559C298.305 492.432 299.387 491.687 300.514 491.895C301.641 492.103 302.386 493.185 302.178 494.312Z" fill="#79A2FF"/>
</g>
<mask id="mask9_1076_81646" style="mask-type:luminance" maskUnits="userSpaceOnUse" x="182" y="206" width="660" height="846">
<path d="M355.382 206.185L182.207 935.935L668.707 1051.39L841.882 321.635L355.382 206.185Z" fill="white"/>
</mask>
<g mask="url(#mask9_1076_81646)">
<path d="M694.17 355.334C695.617 349.237 691.847 343.121 685.75 341.674C679.653 340.227 673.537 343.997 672.09 350.094C670.644 356.191 674.413 362.307 680.51 363.754C686.607 365.2 692.723 361.431 694.17 355.334Z" stroke="#272C3F" stroke-width="2" stroke-miterlimit="10"/>
</g>
<mask id="mask10_1076_81646" style="mask-type:luminance" maskUnits="userSpaceOnUse" x="52" y="-174" width="885" height="885">
<path d="M582.825 -173.617L52.5 356.708L406.05 710.258L936.375 179.933L582.825 -173.617Z" fill="white"/>
</mask>
<g mask="url(#mask10_1076_81646)">
<path d="M463.68 121.83C467.462 118.048 467.462 111.915 463.68 108.133C459.897 104.351 453.765 104.351 449.983 108.133C446.201 111.915 446.201 118.048 449.983 121.83C453.765 125.612 459.897 125.612 463.68 121.83Z" stroke="#272C3F" stroke-width="1.7071" stroke-miterlimit="10"/>
</g>
<mask id="mask11_1076_81646" style="mask-type:luminance" maskUnits="userSpaceOnUse" x="0" y="0" width="750" height="500">
<path d="M750 0H0V500H750V0Z" fill="white"/>
</mask>
<g mask="url(#mask11_1076_81646)">
<path d="M556.693 74.6221L564.86 82.7891L556.693 90.9561" stroke="#272C3F" stroke-width="2" stroke-miterlimit="10"/>
<path d="M564.836 74.6221L573.003 82.7891L564.836 90.9561" stroke="#272C3F" stroke-width="2" stroke-miterlimit="10"/>
<path d="M572.977 74.6221L581.144 82.7891L572.977 90.9561" stroke="#272C3F" stroke-width="2" stroke-miterlimit="10"/>
<path d="M581.119 74.6221L589.286 82.7891L581.119 90.9561" stroke="#272C3F" stroke-width="2" stroke-miterlimit="10"/>
<path d="M589.262 74.6221L597.429 82.7891L589.262 90.9561" stroke="#272C3F" stroke-width="2" stroke-miterlimit="10"/>
</g>
<mask id="mask12_1076_81646" style="mask-type:luminance" maskUnits="userSpaceOnUse" x="0" y="0" width="750" height="500">
<path d="M750 0H0V500H750V0Z" fill="white"/>
</mask>
<g mask="url(#mask12_1076_81646)">
<path d="M163.514 366.737L171.681 374.904L163.514 383.071" stroke="#272C3F" stroke-width="2" stroke-miterlimit="10"/>
<path d="M171.656 366.737L179.822 374.904L171.656 383.071" stroke="#272C3F" stroke-width="2" stroke-miterlimit="10"/>
<path d="M179.797 366.737L187.964 374.904L179.797 383.071" stroke="#272C3F" stroke-width="2" stroke-miterlimit="10"/>
<path d="M187.939 366.737L196.106 374.904L187.939 383.071" stroke="#272C3F" stroke-width="2" stroke-miterlimit="10"/>
<path d="M196.08 366.737L204.247 374.904L196.08 383.071" stroke="#272C3F" stroke-width="2" stroke-miterlimit="10"/>
</g>
<mask id="mask13_1076_81646" style="mask-type:luminance" maskUnits="userSpaceOnUse" x="0" y="0" width="750" height="500">
<path d="M750 0H0V500H750V0Z" fill="white"/>
</mask>
<g mask="url(#mask13_1076_81646)">
<path d="M100.146 87.2158L108.313 95.3828L100.146 103.55" stroke="#272C3F" stroke-width="2" stroke-miterlimit="10"/>
<path d="M108.289 87.2158L116.456 95.3828L108.289 103.55" stroke="#272C3F" stroke-width="2" stroke-miterlimit="10"/>
<path d="M116.43 87.2158L124.597 95.3828L116.43 103.55" stroke="#272C3F" stroke-width="2" stroke-miterlimit="10"/>
<path d="M124.572 87.2158L132.739 95.3828L124.572 103.55" stroke="#272C3F" stroke-width="2" stroke-miterlimit="10"/>
<path d="M132.715 87.2158L140.882 95.3828L132.715 103.55" stroke="#272C3F" stroke-width="2" stroke-miterlimit="10"/>
</g>
<mask id="mask14_1076_81646" style="mask-type:luminance" maskUnits="userSpaceOnUse" x="0" y="0" width="750" height="500">
<path d="M750 0H0V500H750V0Z" fill="white"/>
</mask>
<g mask="url(#mask14_1076_81646)">
<path d="M189.209 -15.5469C181.32 -9.99987 174.24 -11.2399 168.552 -12.2369C163.245 -13.1669 159.052 -13.9009 153.877 -10.2629C148.702 -6.62387 147.976 -2.43087 147.055 2.87813C146.069 8.56813 144.841 15.6501 136.952 21.1971C129.063 26.7441 121.984 25.5031 116.296 24.5061C110.989 23.5751 106.797 22.8411 101.624 26.4791C96.4504 30.1171 95.7244 34.3101 94.8034 39.6191C93.8174 45.3091 92.5904 52.3901 84.7024 57.9371C76.8144 63.4841 69.7344 62.2431 64.0464 61.2461C58.7394 60.3151 54.5474 59.5811 49.3744 63.2191L44.7734 56.6751C52.6614 51.1291 59.7404 52.3691 65.4284 53.3671C70.7354 54.2981 74.9274 55.0321 80.1014 51.3941C85.2754 47.7561 86.0014 43.5631 86.9224 38.2541C87.9084 32.5641 89.1354 25.4831 97.0244 19.9361C104.912 14.3901 111.991 15.6311 117.679 16.6281C122.986 17.5591 127.178 18.2931 132.352 14.6551C137.527 11.0161 138.254 6.82313 139.174 1.51313C140.161 -4.17687 141.388 -11.2579 149.277 -16.8049C157.166 -22.3529 164.246 -21.1119 169.934 -20.1149C175.241 -19.1849 179.434 -18.4509 184.608 -22.0889L189.209 -15.5469Z" fill="#272C3F"/>
</g>
<mask id="mask15_1076_81646" style="mask-type:luminance" maskUnits="userSpaceOnUse" x="0" y="0" width="750" height="500">
<path d="M750 0H0V500H750V0Z" fill="white"/>
</mask>
<g mask="url(#mask15_1076_81646)">
<path d="M561.229 313.723C568.975 307.976 576.082 309.037 581.794 309.888C587.123 310.682 591.334 311.31 596.414 307.541C601.495 303.772 602.113 299.561 602.898 294.231C603.739 288.517 604.786 281.407 612.531 275.66C620.276 269.914 627.384 270.974 633.096 271.826C638.425 272.621 642.635 273.249 647.714 269.48C652.794 265.711 653.413 261.501 654.198 256.17C655.039 250.457 656.085 243.346 663.83 237.6C671.575 231.854 678.683 232.914 684.395 233.766C689.723 234.561 693.933 235.189 699.012 231.42L703.779 237.845C696.035 243.59 688.926 242.53 683.215 241.678C677.886 240.883 673.676 240.255 668.596 244.024C663.516 247.793 662.897 252.003 662.112 257.334C661.271 263.047 660.226 270.157 652.481 275.904C644.737 281.649 637.629 280.589 631.917 279.737C626.589 278.942 622.379 278.315 617.299 282.083C612.218 285.852 611.598 290.063 610.814 295.394C609.973 301.107 608.926 308.218 601.181 313.964C593.436 319.711 586.327 318.65 580.615 317.799C575.286 317.005 571.075 316.377 565.995 320.146L561.229 313.723Z" fill="#272C3F"/>
</g>
<mask id="mask16_1076_81646" style="mask-type:luminance" maskUnits="userSpaceOnUse" x="0" y="0" width="750" height="500">
<path d="M750 0H0V500H750V0Z" fill="white"/>
</mask>
<g mask="url(#mask16_1076_81646)">
<path d="M723.639 73.0964C714.817 80.1634 706.418 79.2284 700.286 78.5454C694.782 77.9324 692.202 77.7794 688.707 80.5794C685.212 83.3784 684.799 85.9304 684.196 91.4344C683.524 97.5684 682.605 105.969 673.783 113.036C664.962 120.103 656.563 119.167 650.431 118.483C644.929 117.87 642.349 117.717 638.855 120.516C635.361 123.315 634.947 125.867 634.345 131.37C633.674 137.503 632.755 145.904 623.933 152.97C615.112 160.037 606.713 159.101 600.581 158.417C595.079 157.804 592.499 157.651 589.005 160.45L579 147.964C587.82 140.898 596.219 141.834 602.351 142.517C607.854 143.13 610.434 143.283 613.928 140.484C617.423 137.685 617.836 135.133 618.438 129.63C619.109 123.497 620.029 115.096 628.85 108.029C637.67 100.963 646.069 101.899 652.201 102.582C657.704 103.195 660.284 103.348 663.778 100.549C667.273 97.7494 667.687 95.1974 668.29 89.6934C668.962 83.5594 669.882 75.1594 678.703 68.0924C687.525 61.0254 695.924 61.9604 702.056 62.6434C707.56 63.2564 710.14 63.4094 713.635 60.6094L723.639 73.0964Z" fill="#79A2FF"/>
<path d="M718.373 66.5241C709.551 73.5911 701.152 72.6561 695.02 71.9731C689.516 71.3601 686.936 71.2071 683.441 74.0071C679.946 76.8061 679.533 79.3581 678.93 84.8621C678.258 90.9961 677.339 99.3971 668.517 106.464C659.696 113.531 651.297 112.595 645.165 111.911C639.663 111.298 637.083 111.145 633.589 113.944C630.094 116.743 629.681 119.295 629.079 124.798C628.408 130.931 627.488 139.332 618.667 146.399C609.846 153.466 601.447 152.53 595.315 151.846C589.813 151.233 587.233 151.08 583.739 153.879L573.736 141.392C582.557 134.326 590.955 135.262 597.087 135.945C602.59 136.558 605.17 136.711 608.664 133.912C612.158 131.113 612.572 128.561 613.174 123.058C613.845 116.925 614.765 108.524 623.586 101.457C632.406 94.3911 640.805 95.3271 646.937 96.0101C652.44 96.6231 655.02 96.7761 658.514 93.9771C662.009 91.1771 662.423 88.6251 663.026 83.1211C663.698 76.9871 664.618 68.5871 673.439 61.5201C682.261 54.4531 690.66 55.3881 696.792 56.0711C702.296 56.6841 704.876 56.8371 708.371 54.0371L718.373 66.5241Z" stroke="#272C3F" stroke-width="2" stroke-miterlimit="10"/>
</g>
<mask id="mask17_1076_81646" style="mask-type:luminance" maskUnits="userSpaceOnUse" x="0" y="0" width="750" height="500">
<path d="M750 0H0V500H750V0Z" fill="white"/>
</mask>
<g mask="url(#mask17_1076_81646)">
<path d="M215.111 179.327H186.05C185.237 179.327 184.729 178.447 185.135 177.742L199.665 152.575L214.195 127.408C214.602 126.704 215.618 126.704 216.025 127.408L230.555 152.575L245.085 177.742C245.492 178.446 244.983 179.327 244.17 179.327H215.111Z" fill="#FF406C"/>
<path d="M199.287 187.502H170.226C169.413 187.502 168.905 186.622 169.311 185.917L183.841 160.75L198.371 135.583C198.778 134.879 199.794 134.879 200.201 135.583L214.731 160.75L229.261 185.917C229.668 186.621 229.159 187.502 228.346 187.502H199.287Z" stroke="#272C3F" stroke-width="1.4268" stroke-miterlimit="10"/>
</g>
<mask id="mask18_1076_81646" style="mask-type:luminance" maskUnits="userSpaceOnUse" x="0" y="0" width="750" height="500">
<path d="M750 0H0V500H750V0Z" fill="white"/>
</mask>
<g mask="url(#mask18_1076_81646)">
<path d="M548.314 424.333H519.253C518.44 424.333 517.932 423.453 518.338 422.749L532.868 397.582L547.398 372.415C547.805 371.711 548.821 371.711 549.228 372.415L563.758 397.582L578.288 422.749C578.695 423.453 578.186 424.333 577.373 424.333H548.314Z" fill="#FF406C"/>
<path d="M532.492 432.507H503.431C502.618 432.507 502.11 431.627 502.516 430.923L517.046 405.756L531.576 380.589C531.983 379.885 532.999 379.885 533.406 380.589L547.936 405.756L562.466 430.923C562.873 431.627 562.364 432.507 561.551 432.507H532.492Z" stroke="#272C3F" stroke-width="1.4268" stroke-miterlimit="10"/>
</g>
<mask id="mask19_1076_81646" style="mask-type:luminance" maskUnits="userSpaceOnUse" x="0" y="0" width="750" height="500">
<path d="M750 0H0V500H750V0Z" fill="white"/>
</mask>
<g mask="url(#mask19_1076_81646)">
<path d="M651.359 42.428L645.469 36.538C644.207 35.276 644.207 33.231 645.469 31.969L651.359 26.079C652.621 24.817 652.621 22.772 651.359 21.51C650.097 20.248 648.052 20.248 646.79 21.51L640.9 27.4C639.638 28.662 637.593 28.662 636.331 27.4L630.441 21.51C629.179 20.248 627.134 20.248 625.872 21.51C624.61 22.772 624.61 24.817 625.872 26.079L631.762 31.969C633.024 33.231 633.024 35.276 631.762 36.538L625.872 42.428C624.61 43.69 624.61 45.735 625.872 46.997C627.134 48.259 629.179 48.259 630.441 46.997L636.331 41.107C637.593 39.845 639.638 39.845 640.9 41.107L646.79 46.997C648.052 48.259 650.097 48.259 651.359 46.997C652.621 45.736 652.621 43.69 651.359 42.428Z" fill="#FF406C"/>
</g>
<mask id="mask20_1076_81646" style="mask-type:luminance" maskUnits="userSpaceOnUse" x="0" y="0" width="750" height="500">
<path d="M750 0H0V500H750V0Z" fill="white"/>
</mask>
<g mask="url(#mask20_1076_81646)">
<path d="M260.529 458.686L254.639 452.796C253.377 451.534 253.377 449.489 254.639 448.227L260.529 442.337C261.791 441.075 261.791 439.03 260.529 437.768C259.267 436.506 257.222 436.506 255.96 437.768L250.07 443.658C248.808 444.92 246.763 444.92 245.501 443.658L239.611 437.768C238.349 436.506 236.304 436.506 235.042 437.768C233.78 439.03 233.78 441.075 235.042 442.337L240.932 448.227C242.194 449.489 242.194 451.534 240.932 452.796L235.042 458.686C233.78 459.948 233.78 461.993 235.042 463.255C236.304 464.517 238.349 464.517 239.611 463.255L245.501 457.365C246.763 456.103 248.808 456.103 250.07 457.365L255.96 463.255C257.222 464.517 259.267 464.517 260.529 463.255C261.79 461.994 261.79 459.948 260.529 458.686Z" fill="#FF406C"/>
</g>
<mask id="mask21_1076_81646" style="mask-type:luminance" maskUnits="userSpaceOnUse" x="0" y="0" width="750" height="500">
<path d="M750 0H0V500H750V0Z" fill="white"/>
</mask>
<g mask="url(#mask21_1076_81646)">
<path d="M60.0505 155.542L53.7825 150.056C52.4395 148.881 52.3045 146.84 53.4795 145.497L58.9655 139.229C60.1405 137.886 60.0055 135.845 58.6625 134.67C57.3195 133.495 55.2785 133.63 54.1035 134.973L48.6175 141.241C47.4425 142.584 45.4015 142.719 44.0585 141.544L37.7905 136.058C36.4475 134.883 34.4065 135.018 33.2315 136.361C32.0565 137.704 32.1915 139.745 33.5345 140.92L39.8025 146.406C41.1455 147.581 41.2805 149.622 40.1055 150.965L34.6195 157.233C33.4445 158.576 33.5795 160.617 34.9225 161.792C36.2655 162.967 38.3065 162.832 39.4815 161.489L44.9675 155.221C46.1425 153.878 48.1835 153.743 49.5265 154.918L55.7945 160.404C57.1375 161.579 59.1785 161.444 60.3535 160.101C61.5285 158.759 61.3935 156.718 60.0505 155.542Z" fill="#FF406C"/>
</g>
<mask id="mask22_1076_81646" style="mask-type:luminance" maskUnits="userSpaceOnUse" x="0" y="0" width="750" height="500">
<path d="M750 0H0V500H750V0Z" fill="white"/>
</mask>
<g mask="url(#mask22_1076_81646)">
<path d="M57.2334 271.109L14.0454 227.921C13.4744 227.35 13.4744 226.425 14.0454 225.854L57.2334 182.666C57.8044 182.095 58.7294 182.095 59.3004 182.666L102.488 225.854C103.059 226.425 103.059 227.35 102.488 227.921L59.3004 271.109C58.7294 271.68 57.8044 271.68 57.2334 271.109Z" stroke="#272C3F" stroke-width="2" stroke-miterlimit="10"/>
</g>
<mask id="mask23_1076_81646" style="mask-type:luminance" maskUnits="userSpaceOnUse" x="0" y="0" width="750" height="500">
<path d="M750 0H0V500H750V0Z" fill="white"/>
</mask>
<g mask="url(#mask23_1076_81646)">
<path d="M21.1406 439.244C21.1406 438.624 21.6546 438.121 22.2896 438.121C22.9246 438.121 23.4386 438.624 23.4386 439.244C23.4386 439.864 22.9246 440.367 22.2896 440.367C21.6546 440.367 21.1406 439.864 21.1406 439.244Z" fill="#272C3F"/>
<path d="M11.9492 439.244C11.9492 438.624 12.4632 438.121 13.0982 438.121C13.7332 438.121 14.2472 438.624 14.2472 439.244C14.2472 439.864 13.7332 440.367 13.0982 440.367C12.4632 440.367 11.9492 439.864 11.9492 439.244Z" fill="#272C3F"/>
<path d="M2.75781 439.244C2.75781 438.624 3.27181 438.121 3.90681 438.121C4.54181 438.121 5.05581 438.624 5.05581 439.244C5.05581 439.864 4.54181 440.367 3.90681 440.367C3.27181 440.367 2.75781 439.864 2.75781 439.244Z" fill="#272C3F"/>
<path d="M8.85073 397.475C8.85073 398.095 8.33673 398.598 7.70173 398.598C7.06673 398.598 6.55273 398.095 6.55273 397.475C6.55273 396.855 7.06673 396.353 7.70173 396.353C8.33673 396.353 8.85073 396.855 8.85073 397.475Z" fill="#272C3F"/>
<path d="M18.0421 397.475C18.0421 398.095 17.5281 398.598 16.8931 398.598C16.2581 398.598 15.7441 398.095 15.7441 397.475C15.7441 396.855 16.2581 396.353 16.8931 396.353C17.5281 396.352 18.0421 396.855 18.0421 397.475Z" fill="#272C3F"/>
<path d="M27.2355 397.475C27.2355 398.095 26.7215 398.598 26.0865 398.598C25.4515 398.598 24.9375 398.095 24.9375 397.475C24.9375 396.855 25.4515 396.353 26.0865 396.353C26.7205 396.352 27.2355 396.855 27.2355 397.475Z" fill="#272C3F"/>
<path d="M31.2851 403.024C30.6651 403.024 30.1621 402.51 30.1621 401.875C30.1621 401.241 30.6651 400.726 31.2851 400.726C31.9051 400.726 32.4081 401.24 32.4081 401.875C32.4081 402.51 31.9051 403.024 31.2851 403.024Z" fill="#272C3F"/>
<path d="M31.2851 412.216C30.6651 412.216 30.1621 411.702 30.1621 411.067C30.1621 410.433 30.6651 409.918 31.2851 409.918C31.9051 409.918 32.4081 410.432 32.4081 411.067C32.4081 411.701 31.9051 412.216 31.2851 412.216Z" fill="#272C3F"/>
<path d="M31.2851 421.406C31.9053 421.406 32.4081 420.892 32.4081 420.257C32.4081 419.623 31.9053 419.108 31.2851 419.108C30.6649 419.108 30.1621 419.623 30.1621 420.257C30.1621 420.892 30.6649 421.406 31.2851 421.406Z" fill="#272C3F"/>
<path d="M31.2851 430.598C30.6651 430.598 30.1621 430.084 30.1621 429.449C30.1621 428.814 30.6651 428.3 31.2851 428.3C31.9051 428.3 32.4081 428.814 32.4081 429.449C32.4081 430.083 31.9051 430.598 31.2851 430.598Z" fill="#272C3F"/>
<path d="M30.3311 439.244C30.2911 438.934 30.3491 438.651 30.3081 438.433C30.2801 438.212 30.1631 438.112 30.1621 438.122C30.1621 438.122 30.1931 438.135 30.2501 438.128C30.2781 438.15 30.3131 438.054 30.3541 437.998C30.3941 437.937 30.4401 437.88 30.4911 437.828C30.6941 437.62 30.9751 437.491 31.2851 437.491C31.5951 437.491 31.8761 437.62 32.0791 437.828C32.1301 437.88 32.1761 437.937 32.2161 437.998C32.2561 438.064 32.2911 438.099 32.3201 438.258C32.3781 438.525 32.3601 438.835 32.2341 439.12C31.9871 439.704 31.3991 439.97 30.9981 439.905C30.5801 439.852 30.3681 439.544 30.3311 439.244Z" fill="#272C3F"/>
</g>
<mask id="mask24_1076_81646" style="mask-type:luminance" maskUnits="userSpaceOnUse" x="0" y="0" width="750" height="500">
<path d="M750 0H0V500H750V0Z" fill="white"/>
</mask>
<g mask="url(#mask24_1076_81646)">
<path d="M64.7818 326.904L60.8108 330.043L56.8398 333.182V326.904V320.626L60.8108 323.765L64.7818 326.904Z" fill="#272C3F"/>
<path d="M88.0983 326.904L84.1273 330.043L80.1562 333.182V326.904V320.626L84.1273 323.765L88.0983 326.904Z" fill="#272C3F"/>
<path d="M111.417 326.904L107.446 330.043L103.475 333.182V326.904V320.626L107.446 323.765L111.417 326.904Z" fill="#272C3F"/>
<path d="M134.733 326.904L130.762 330.043L126.791 333.182V326.904V320.626L130.762 323.765L134.733 326.904Z" fill="#272C3F"/>
<path d="M158.049 326.904L154.079 330.043L150.107 333.182V326.904V320.626L154.079 323.765L158.049 326.904Z" fill="#272C3F"/>
</g>
<mask id="mask25_1076_81646" style="mask-type:luminance" maskUnits="userSpaceOnUse" x="0" y="0" width="750" height="500">
<path d="M750 0H0V500H750V0Z" fill="white"/>
</mask>
<g mask="url(#mask25_1076_81646)">
<path d="M275.243 65.9811L271.273 69.1201L267.301 72.2591V65.9811V59.7031L271.273 62.8421L275.243 65.9811Z" fill="#272C3F"/>
<path d="M298.561 65.9811L294.59 69.1201L290.619 72.2591V65.9811V59.7031L294.59 62.8421L298.561 65.9811Z" fill="#272C3F"/>
<path d="M321.878 65.9811L317.907 69.1201L313.936 72.2591V65.9811V59.7031L317.907 62.8421L321.878 65.9811Z" fill="#272C3F"/>
<path d="M345.194 65.9811L341.223 69.1201L337.252 72.2591V65.9811V59.7031L341.223 62.8421L345.194 65.9811Z" fill="#272C3F"/>
<path d="M368.512 65.9811L364.541 69.1201L360.57 72.2591V65.9811V59.7031L364.541 62.8421L368.512 65.9811Z" fill="#272C3F"/>
</g>
<mask id="mask26_1076_81646" style="mask-type:luminance" maskUnits="userSpaceOnUse" x="0" y="0" width="750" height="500">
<path d="M750 0H0V500H750V0Z" fill="white"/>
</mask>
<g mask="url(#mask26_1076_81646)">
<path d="M537.396 200.188L524.886 212.697L512.377 200.188L499.98 212.585L512.49 225.094L499.98 237.603L512.377 250L524.886 237.49L537.396 250L549.792 237.603L537.283 225.094L549.792 212.584L537.396 200.188Z" stroke="#272C3F" stroke-width="1.5882" stroke-miterlimit="10"/>
</g>
<mask id="mask27_1076_81646" style="mask-type:luminance" maskUnits="userSpaceOnUse" x="0" y="0" width="750" height="500">
<path d="M750 0H0V500H750V0Z" fill="white"/>
</mask>
<g mask="url(#mask27_1076_81646)">
<path d="M110.393 411.39L98.2427 421.926L87.7067 409.776L75.6657 420.217L86.2027 432.367L74.0527 442.903L84.4937 454.944L96.6437 444.408L107.18 456.558L119.22 446.116L108.684 433.966L120.834 423.431L110.393 411.39Z" stroke="#272C3F" stroke-width="1.4438" stroke-miterlimit="10"/>
</g>
<mask id="mask28_1076_81646" style="mask-type:luminance" maskUnits="userSpaceOnUse" x="0" y="0" width="750" height="500">
<path d="M750 0H0V500H750V0Z" fill="white"/>
</mask>
<g mask="url(#mask28_1076_81646)">
<path d="M615.826 207.509L648.972 184.781" stroke="#272C3F" stroke-width="3" stroke-miterlimit="10" stroke-linecap="round"/>
<path d="M648.973 202.447L703.376 164.365" stroke="#272C3F" stroke-width="3" stroke-miterlimit="10" stroke-linecap="round"/>
</g>
<mask id="mask29_1076_81646" style="mask-type:luminance" maskUnits="userSpaceOnUse" x="0" y="0" width="750" height="500">
<path d="M750 0H0V500H750V0Z" fill="white"/>
</mask>
<g mask="url(#mask29_1076_81646)">
<path d="M169.92 293.144L203.066 270.416" stroke="#272C3F" stroke-width="3" stroke-miterlimit="10" stroke-linecap="round"/>
<path d="M203.066 288.082L257.468 250" stroke="#272C3F" stroke-width="3" stroke-miterlimit="10" stroke-linecap="round"/>
</g>
<mask id="mask30_1076_81646" style="mask-type:luminance" maskUnits="userSpaceOnUse" x="0" y="0" width="750" height="500">
<path d="M750 0H0V500H750V0Z" fill="white"/>
</mask>
<g mask="url(#mask30_1076_81646)">
<path d="M331.227 414.468L364.372 391.74" stroke="#272C3F" stroke-width="3" stroke-miterlimit="10" stroke-linecap="round"/>
</g>
<mask id="mask31_1076_81646" style="mask-type:luminance" maskUnits="userSpaceOnUse" x="0" y="0" width="750" height="500">
<path d="M750 0H0V500H750V0Z" fill="white"/>
</mask>
<g mask="url(#mask31_1076_81646)">
<path d="M364.371 409.405L418.774 371.324" stroke="#272C3F" stroke-width="3" stroke-miterlimit="10" stroke-linecap="round"/>
</g>
<mask id="mask32_1076_81646" style="mask-type:luminance" maskUnits="userSpaceOnUse" x="0" y="0" width="750" height="500">
<path d="M750 0H0V500H750V0Z" fill="white"/>
</mask>
<g mask="url(#mask32_1076_81646)">
<path d="M632.504 478.077L713.877 427.304" stroke="#272C3F" stroke-width="3" stroke-miterlimit="10" stroke-linecap="round"/>
</g>
<mask id="mask33_1076_81646" style="mask-type:luminance" maskUnits="userSpaceOnUse" x="0" y="0" width="750" height="500">
<path d="M750 0H0V500H750V0Z" fill="white"/>
</mask>
<g mask="url(#mask33_1076_81646)">
<path d="M728.759 106.993C728.593 106.4 728.293 105.885 727.859 105.449C727.174 104.82 726.332 104.424 725.384 104.424H724.461C723.979 104.406 723.529 104.506 723.112 104.725C722.678 104.866 722.303 105.107 721.986 105.449C721.645 105.766 721.403 106.142 721.262 106.575C721.043 106.992 720.942 107.442 720.961 107.924C721.003 108.234 721.044 108.544 721.086 108.854C721.252 109.447 721.552 109.962 721.986 110.398C722.671 111.027 723.513 111.423 724.461 111.423H725.384C725.866 111.441 726.315 111.341 726.733 111.121C727.167 110.98 727.542 110.739 727.86 110.397C728.201 110.08 728.442 109.705 728.584 109.271C728.803 108.854 728.904 108.404 728.885 107.923C728.843 107.613 728.801 107.303 728.759 106.993Z" fill="#272C3F"/>
</g>
<mask id="mask34_1076_81646" style="mask-type:luminance" maskUnits="userSpaceOnUse" x="0" y="0" width="750" height="500">
<path d="M750 0H0V500H750V0Z" fill="white"/>
</mask>
<g mask="url(#mask34_1076_81646)">
<path d="M585.076 355.5C580.572 355.5 580.564 362.5 585.076 362.5C589.58 362.5 589.588 355.5 585.076 355.5Z" fill="#272C3F"/>
</g>
<mask id="mask35_1076_81646" style="mask-type:luminance" maskUnits="userSpaceOnUse" x="0" y="0" width="750" height="500">
<path d="M750 0H0V500H750V0Z" fill="white"/>
</mask>
<g mask="url(#mask35_1076_81646)">
<path d="M723.537 469.961C719.033 469.961 719.025 476.961 723.537 476.961C728.042 476.961 728.049 469.961 723.537 469.961Z" fill="#272C3F"/>
</g>
<mask id="mask36_1076_81646" style="mask-type:luminance" maskUnits="userSpaceOnUse" x="0" y="0" width="750" height="500">
<path d="M750 0H0V500H750V0Z" fill="white"/>
</mask>
<g mask="url(#mask36_1076_81646)">
<path d="M251.656 307.596C247.152 307.596 247.144 314.596 251.656 314.596C256.16 314.596 256.167 307.596 251.656 307.596Z" fill="#272C3F"/>
</g>
<mask id="mask37_1076_81646" style="mask-type:luminance" maskUnits="userSpaceOnUse" x="0" y="0" width="750" height="500">
<path d="M750 0H0V500H750V0Z" fill="white"/>
</mask>
<g mask="url(#mask37_1076_81646)">
<path d="M140.887 243C136.383 243 136.375 250 140.887 250C145.391 250 145.399 243 140.887 243Z" fill="#272C3F"/>
</g>
<mask id="mask38_1076_81646" style="mask-type:luminance" maskUnits="userSpaceOnUse" x="0" y="0" width="750" height="500">
<path d="M750 0H0V500H750V0Z" fill="white"/>
</mask>
<g mask="url(#mask38_1076_81646)">
<path d="M394.426 470.904C389.922 470.904 389.914 477.904 394.426 477.904C398.93 477.904 398.937 470.904 394.426 470.904Z" fill="#272C3F"/>
</g>
<mask id="mask39_1076_81646" style="mask-type:luminance" maskUnits="userSpaceOnUse" x="0" y="0" width="750" height="500">
<path d="M750 0H0V500H750V0Z" fill="white"/>
</mask>
<g mask="url(#mask39_1076_81646)">
<path d="M24.7697 19.5C20.2657 19.5 20.2577 26.5 24.7697 26.5C29.2737 26.5 29.2817 19.5 24.7697 19.5Z" fill="#272C3F"/>
</g>
<mask id="mask40_1076_81646" style="mask-type:luminance" maskUnits="userSpaceOnUse" x="0" y="0" width="750" height="500">
<path d="M750 0H0V500H750V0Z" fill="white"/>
</mask>
<g mask="url(#mask40_1076_81646)">
<path d="M220.585 68.6318C220.444 68.1978 220.203 67.8228 219.861 67.5058C219.544 67.1648 219.168 66.9238 218.735 66.7818C218.318 66.5628 217.868 66.4618 217.386 66.4808C217.076 66.5228 216.766 66.5638 216.456 66.6058C215.863 66.7718 215.348 67.0718 214.912 67.5058C214.283 68.1908 213.887 69.0328 213.887 69.9808V70.9038C213.869 71.3858 213.97 71.8348 214.189 72.2518C214.33 72.6858 214.571 73.0608 214.913 73.3778C215.23 73.7188 215.605 73.9608 216.039 74.1018C216.456 74.3208 216.906 74.4218 217.387 74.4028C217.697 74.3608 218.007 74.3198 218.318 74.2778C218.911 74.1118 219.426 73.8118 219.862 73.3778C220.491 72.6928 220.887 71.8508 220.887 70.9028V69.9798C220.905 69.4988 220.804 69.0488 220.585 68.6318Z" fill="#272C3F"/>
</g>
<mask id="mask41_1076_81646" style="mask-type:luminance" maskUnits="userSpaceOnUse" x="0" y="0" width="750" height="500">
<path d="M750 0H0V500H750V0Z" fill="white"/>
</mask>
<g mask="url(#mask41_1076_81646)">
<path d="M176.154 429.346C171.65 429.346 171.643 436.346 176.154 436.346C180.658 436.346 180.665 429.346 176.154 429.346Z" fill="#272C3F"/>
</g>
<mask id="mask42_1076_81646" style="mask-type:luminance" maskUnits="userSpaceOnUse" x="0" y="0" width="750" height="500">
<path d="M750 0H0V500H750V0Z" fill="white"/>
</mask>
<g mask="url(#mask42_1076_81646)">
<path d="M32.1544 469.961C27.6504 469.961 27.6424 476.961 32.1544 476.961C36.6584 476.961 36.6664 469.961 32.1544 469.961Z" fill="#272C3F"/>
</g>
<mask id="mask43_1076_81646" style="mask-type:luminance" maskUnits="userSpaceOnUse" x="0" y="0" width="750" height="500">
<path d="M750 0H0V500H750V0Z" fill="white"/>
</mask>
<g mask="url(#mask43_1076_81646)">
<path d="M578.615 25.0381C574.111 25.0381 574.103 32.0381 578.615 32.0381C583.119 32.0381 583.127 25.0381 578.615 25.0381Z" fill="#272C3F"/>
</g>
</g>
<defs>
<clipPath id="clip0_1076_81646">
<rect width="750" height="500" fill="white"/>
</clipPath>
</defs>
</svg>
