<svg width="432" height="432" viewBox="0 0 432 432" fill="none" xmlns="http://www.w3.org/2000/svg">
<g opacity="0.2">
<mask id="mask0_1011_81460" style="mask-type:luminance" maskUnits="userSpaceOnUse" x="400" y="0" width="32" height="52">
<path d="M400.715 0H431.861V51.7135H400.715V0Z" fill="white"/>
</mask>
<g mask="url(#mask0_1011_81460)">
<path d="M414.741 22.8802C418.486 33.3594 424.189 42.6354 431.861 50.7083V48.1667C424.986 40.5677 419.819 31.9479 416.366 22.2969C413.47 14.1927 409.355 6.76042 404.022 0H401.809C407.434 6.88542 411.746 14.5104 414.741 22.8802Z" fill="url(#paint0_linear_1011_81460)" fill-opacity="0.8"/>
</g>
<mask id="mask1_1011_81460" style="mask-type:luminance" maskUnits="userSpaceOnUse" x="347" y="0" width="85" height="91">
<path d="M347.381 0H431.86V90.3802H347.381V0Z" fill="white"/>
</mask>
<g mask="url(#mask1_1011_81460)">
<path d="M393.449 45.2135C391.678 40.2448 389.428 35.5 386.704 30.9844C383.98 26.4688 380.829 22.2656 377.262 18.3802C373.689 14.5 369.767 11.0104 365.496 7.91146C361.22 4.81771 356.684 2.18229 351.882 0H347.465C350.017 1 352.507 2.13542 354.939 3.40625C357.366 4.67187 359.72 6.06771 362.001 7.58854C364.283 9.10417 366.48 10.7448 368.585 12.5C370.689 14.25 372.699 16.1146 374.605 18.0833C376.512 20.0521 378.309 22.1146 379.996 24.276C381.684 26.4323 383.251 28.6771 384.699 31.0052C386.147 33.3333 387.465 35.7344 388.658 38.2031C389.85 40.6667 390.902 43.1927 391.824 45.776C393.548 50.6146 395.72 55.2344 398.35 59.6458C400.975 64.0573 404.007 68.1719 407.439 71.9896C410.871 75.8073 414.647 79.2552 418.751 82.3333C422.861 85.4115 427.23 88.0625 431.861 90.2813V88.3646C427.423 86.1719 423.23 83.5781 419.293 80.5781C415.355 77.5781 411.741 74.2292 408.449 70.5313C405.158 66.8333 402.251 62.8542 399.73 58.599C397.204 54.3385 395.111 49.875 393.449 45.2135Z" fill="url(#paint1_linear_1011_81460)" fill-opacity="0.8"/>
</g>
<mask id="mask2_1011_81460" style="mask-type:luminance" maskUnits="userSpaceOnUse" x="288" y="0" width="144" height="126">
<path d="M288.715 0H431.861V125.047H288.715V0Z" fill="white"/>
</mask>
<g mask="url(#mask2_1011_81460)">
<path d="M417.179 114.776C414.497 113.823 411.882 112.724 409.325 111.479C406.768 110.234 404.288 108.854 401.887 107.333C399.481 105.813 397.174 104.167 394.95 102.391C392.731 100.615 390.617 98.7188 388.606 96.7083C386.596 94.6979 384.7 92.5833 382.924 90.3646C381.148 88.1406 379.502 85.8333 377.981 83.4271C376.46 81.026 375.08 78.5469 373.835 75.9896C372.59 73.4323 371.492 70.8177 370.538 68.1354C369.564 65.4115 368.45 62.75 367.184 60.151C365.919 57.5521 364.518 55.0313 362.976 52.5833C361.434 50.1354 359.762 47.7813 357.96 45.5208C356.158 43.2604 354.242 41.1042 352.2 39.0521C350.163 37.0052 348.018 35.0729 345.768 33.2604C343.512 31.4427 341.169 29.7604 338.731 28.2031C336.294 26.6458 333.783 25.2292 331.189 23.9531C328.596 22.6719 325.939 21.5417 323.221 20.5573L321.393 19.8646C315.705 17.8021 310.351 15.0938 305.32 11.7344C300.294 8.375 295.742 4.46354 291.663 0H289.346C293.596 4.85417 298.387 9.10417 303.71 12.75C309.038 16.3906 314.736 19.3125 320.804 21.5156L322.627 22.1771C325.283 23.1406 327.882 24.25 330.419 25.5C332.955 26.75 335.419 28.1302 337.799 29.651C340.184 31.1719 342.476 32.8229 344.679 34.5938C346.882 36.3698 348.981 38.2552 350.976 40.2604C352.971 42.2656 354.851 44.375 356.611 46.5885C358.372 48.7969 360.007 51.099 361.518 53.4948C363.023 55.8854 364.398 58.3542 365.632 60.8958C366.872 63.4375 367.965 66.0417 368.913 68.7083C369.887 71.4479 371.012 74.1198 372.288 76.7344C373.559 79.349 374.976 81.8854 376.528 84.3438C378.085 86.8021 379.768 89.1667 381.585 91.4375C383.403 93.7031 385.335 95.8698 387.393 97.9271C389.45 99.9792 391.611 101.917 393.882 103.734C396.153 105.552 398.518 107.234 400.971 108.792C403.429 110.344 405.965 111.76 408.58 113.031C411.195 114.307 413.867 115.432 416.606 116.411L416.929 116.521C422.169 118.401 427.148 120.823 431.861 123.797V121.781C427.314 118.984 422.528 116.682 417.507 114.875L417.179 114.776Z" fill="url(#paint2_linear_1011_81460)" fill-opacity="0.8"/>
</g>
<mask id="mask3_1011_81460" style="mask-type:luminance" maskUnits="userSpaceOnUse" x="251" y="0" width="181" height="171">
<path d="M251.381 0H431.86V170.38H251.381V0Z" fill="white"/>
</mask>
<g mask="url(#mask3_1011_81460)">
<path d="M394.59 137.807L394.272 137.693C391.595 136.74 388.975 135.635 386.418 134.391C383.866 133.146 381.387 131.766 378.98 130.245C376.579 128.724 374.267 127.078 372.048 125.302C369.829 123.526 367.715 121.63 365.704 119.62C363.694 117.609 361.798 115.495 360.022 113.276C358.246 111.052 356.6 108.745 355.079 106.339C353.559 103.938 352.178 101.458 350.928 98.901C349.684 96.3438 348.585 93.7292 347.632 91.0521C346.658 88.3281 345.538 85.6667 344.277 83.0677C343.012 80.4688 341.605 77.9479 340.064 75.5C338.522 73.0573 336.85 70.7031 335.048 68.4427C333.246 66.1823 331.324 64.026 329.288 61.9792C327.246 59.9271 325.105 57.9948 322.85 56.1823C320.6 54.3698 318.257 52.6875 315.819 51.1302C313.382 49.5781 310.866 48.1615 308.272 46.8802C305.678 45.6042 303.022 44.474 300.309 43.4844L298.486 42.8229C296.001 41.9219 293.574 40.8958 291.204 39.7396C288.829 38.5781 286.522 37.3021 284.288 35.901C282.048 34.5 279.892 32.9844 277.819 31.3542C275.741 29.724 273.757 27.9896 271.866 26.1458C269.97 24.3073 268.184 22.3698 266.496 20.3385C264.809 18.3073 263.236 16.1979 261.772 14C260.309 11.8021 258.965 9.53125 257.746 7.19271C256.522 4.85417 255.428 2.45313 254.46 0H252.605C253.579 2.54687 254.694 5.03125 255.939 7.45833C257.184 9.89062 258.553 12.2448 260.053 14.526C261.548 16.8021 263.163 19 264.897 21.1094C266.632 23.2135 268.47 25.224 270.418 27.1354C272.366 29.0469 274.408 30.849 276.548 32.5417C278.689 34.2292 280.913 35.8021 283.225 37.2552C285.533 38.7135 287.913 40.0365 290.366 41.2344C292.814 42.4323 295.324 43.5 297.887 44.4271L299.72 45.0938C302.376 46.0573 304.975 47.1615 307.512 48.4115C310.048 49.6615 312.507 51.0469 314.892 52.5677C317.272 54.0885 319.569 55.7396 321.772 57.5104C323.97 59.2865 326.069 61.1719 328.064 63.1771C330.059 65.1823 331.939 67.2917 333.699 69.5C335.46 71.7135 337.095 74.0104 338.605 76.4063C340.116 78.7969 341.486 81.2604 342.725 83.8073C343.96 86.349 345.053 88.9479 346.007 91.6146C346.98 94.3542 348.105 97.026 349.376 99.6406C350.652 102.255 352.064 104.792 353.616 107.25C355.173 109.708 356.855 112.073 358.673 114.344C360.486 116.615 362.423 118.776 364.475 120.833C366.533 122.891 368.694 124.828 370.965 126.641C373.236 128.458 375.6 130.146 378.059 131.698C380.512 133.255 383.048 134.667 385.663 135.943C388.277 137.214 390.954 138.339 393.694 139.318L394.012 139.438C397.871 140.813 401.595 142.49 405.184 144.474C408.767 146.458 412.168 148.714 415.387 151.255C418.605 153.792 421.595 156.573 424.361 159.599C427.121 162.625 429.621 165.854 431.861 169.286V166.193C429.579 162.943 427.059 159.88 424.309 157.016C421.553 154.146 418.595 151.51 415.434 149.104C412.272 146.693 408.944 144.542 405.449 142.646C401.954 140.755 398.335 139.141 394.59 137.807Z" fill="url(#paint3_linear_1011_81460)" fill-opacity="0.8"/>
</g>
<mask id="mask4_1011_81460" style="mask-type:luminance" maskUnits="userSpaceOnUse" x="218" y="0" width="214" height="235">
<path d="M218.047 0H431.859V234.38H218.047V0Z" fill="white"/>
</mask>
<g mask="url(#mask4_1011_81460)">
<path d="M371.683 160.719L371.396 160.651C368.719 159.693 366.105 158.594 363.548 157.349C360.99 156.104 358.511 154.724 356.11 153.203C353.709 151.682 351.396 150.036 349.178 148.26C346.954 146.484 344.839 144.589 342.829 142.578C340.818 140.568 338.928 138.453 337.152 136.234C335.376 134.01 333.725 131.703 332.204 129.297C330.688 126.896 329.303 124.417 328.058 121.859C326.813 119.302 325.714 116.688 324.756 114.01C323.787 111.286 322.667 108.625 321.407 106.026C320.141 103.427 318.735 100.901 317.193 98.4583C315.652 96.0104 313.98 93.6563 312.178 91.3958C310.376 89.1354 308.459 86.9792 306.417 84.9323C304.381 82.8802 302.235 80.9531 299.98 79.1354C297.73 77.3229 295.386 75.6406 292.949 74.0885C290.511 72.5313 287.995 71.1146 285.402 69.8385C282.808 68.5625 280.152 67.4271 277.433 66.4427L275.61 65.7813C273.021 64.8385 270.49 63.7604 268.016 62.5417C265.542 61.3229 263.146 59.9688 260.824 58.4844C258.501 57 256.271 55.3906 254.126 53.6615C251.98 51.9271 249.938 50.0833 248.001 48.125C246.058 46.1667 244.235 44.1094 242.521 41.9479C240.808 39.7865 239.225 37.5365 237.761 35.2031C236.298 32.8646 234.964 30.4583 233.771 27.974C232.574 25.4896 231.516 22.9479 230.605 20.349L228.693 14.9583C226.824 9.63542 224.298 4.65104 221.11 0H219.006C222.417 4.78125 225.105 9.9375 227.074 15.474L228.969 20.8594C229.907 23.5156 230.98 26.1198 232.204 28.6615C233.423 31.2031 234.782 33.6667 236.277 36.0573C237.771 38.4531 239.391 40.75 241.141 42.9635C242.891 45.1771 244.756 47.2813 246.74 49.2865C248.725 51.2917 250.808 53.1823 253.001 54.9583C255.193 56.7292 257.475 58.375 259.85 59.8958C262.225 61.4167 264.678 62.8021 267.204 64.0521C269.735 65.3021 272.324 66.4063 274.975 67.3698L276.803 68.0417C279.464 69.0052 282.058 70.1146 284.594 71.3646C287.131 72.6094 289.594 73.9948 291.975 75.5156C294.36 77.0365 296.652 78.6875 298.855 80.4583C301.058 82.2292 303.157 84.1198 305.152 86.125C307.146 88.1302 309.021 90.2396 310.787 92.4479C312.548 94.6615 314.183 96.9635 315.693 99.3542C317.199 101.745 318.574 104.208 319.808 106.755C321.048 109.297 322.141 111.901 323.089 114.563C324.068 117.302 325.188 119.979 326.464 122.594C327.735 125.208 329.146 127.74 330.704 130.198C332.256 132.656 333.938 135.021 335.756 137.292C337.574 139.563 339.506 141.729 341.563 143.781C343.62 145.839 345.782 147.776 348.053 149.594C350.324 151.406 352.683 153.094 355.141 154.651C357.6 156.203 360.136 157.615 362.751 158.891C365.36 160.161 368.037 161.286 370.777 162.266L371.094 162.375C373.735 163.318 376.308 164.401 378.824 165.63C381.339 166.859 383.777 168.224 386.141 169.724C388.506 171.224 390.777 172.849 392.959 174.599C395.141 176.354 397.219 178.224 399.193 180.208C401.167 182.193 403.027 184.281 404.766 186.469C406.506 188.661 408.12 190.943 409.61 193.313C411.094 195.682 412.449 198.13 413.662 200.651C414.876 203.172 415.949 205.755 416.876 208.396C420.225 217.844 425.219 226.318 431.86 233.823V231.182C426.016 224.182 421.579 216.38 418.542 207.781C417.589 205.083 416.495 202.443 415.251 199.859C414.006 197.281 412.62 194.781 411.1 192.354C409.579 189.927 407.923 187.594 406.141 185.354C404.36 183.115 402.459 180.979 400.438 178.948C398.417 176.922 396.292 175.01 394.058 173.219C391.824 171.422 389.495 169.76 387.079 168.229C384.662 166.693 382.162 165.302 379.589 164.047C377.016 162.792 374.381 161.682 371.683 160.719Z" fill="url(#paint4_linear_1011_81460)" fill-opacity="0.8"/>
</g>
<mask id="mask5_1011_81460" style="mask-type:luminance" maskUnits="userSpaceOnUse" x="164" y="0" width="268" height="276">
<path d="M164.715 0H431.861V275.714H164.715V0Z" fill="white"/>
</mask>
<g mask="url(#mask5_1011_81460)">
<path d="M395.626 230.698C394.678 227.995 393.579 225.354 392.335 222.776C391.095 220.198 389.71 217.693 388.189 215.271C386.663 212.844 385.012 210.51 383.23 208.271C381.449 206.026 379.548 203.891 377.527 201.865C375.507 199.833 373.376 197.922 371.142 196.13C368.913 194.339 366.585 192.672 364.168 191.141C361.746 189.609 359.251 188.214 356.678 186.958C354.105 185.703 351.47 184.594 348.772 183.635L348.449 183.521C345.772 182.568 343.158 181.464 340.6 180.219C338.043 178.974 335.564 177.594 333.163 176.073C330.762 174.552 328.449 172.906 326.23 171.13C324.007 169.349 321.892 167.458 319.882 165.448C317.871 163.438 315.98 161.323 314.204 159.104C312.428 156.88 310.777 154.573 309.262 152.167C307.741 149.766 306.355 147.286 305.111 144.729C303.866 142.177 302.767 139.557 301.809 136.88C300.84 134.156 299.72 131.495 298.46 128.896C297.194 126.297 295.793 123.771 294.246 121.323C292.704 118.88 291.033 116.526 289.23 114.266C287.434 112.005 285.512 109.849 283.47 107.797C281.434 105.75 279.288 103.818 277.038 102C274.783 100.188 272.439 98.5052 270.001 96.9479C267.564 95.3958 265.048 93.9792 262.454 92.7031C259.861 91.4219 257.204 90.2917 254.486 89.3073L252.663 88.6406C250.069 87.7031 247.538 86.625 245.064 85.401C242.59 84.1823 240.194 82.8333 237.871 81.3438C235.548 79.8594 233.314 78.25 231.168 76.5156C229.022 74.7865 226.98 72.9375 225.038 70.9792C223.1 69.0208 221.272 66.9583 219.559 64.7969C217.85 62.6354 216.262 60.3854 214.798 58.0469C213.335 55.7083 212.007 53.2969 210.809 50.8125C209.616 48.3281 208.559 45.7865 207.647 43.1823L205.746 37.8021C204.251 33.6302 202.355 29.6458 200.053 25.8542C197.751 22.0677 195.09 18.5469 192.074 15.2969C189.059 12.0469 185.746 9.13542 182.137 6.5625C178.527 3.98437 174.699 1.79687 170.647 0H166.043C170.428 1.60417 174.585 3.67187 178.517 6.19271C182.449 8.71875 186.059 11.6354 189.35 14.9531C192.637 18.2708 195.527 21.9063 198.022 25.8542C200.512 29.8073 202.543 33.9844 204.116 38.3802L206.017 43.7708C206.949 46.4323 208.033 49.0313 209.257 51.5729C210.48 54.1146 211.84 56.5781 213.335 58.9688C214.835 61.3594 216.46 63.6563 218.21 65.8698C219.965 68.0781 221.829 70.1823 223.814 72.1875C225.798 74.1927 227.892 76.0781 230.085 77.849C232.277 79.6198 234.564 81.2656 236.939 82.7865C239.314 84.3073 241.767 85.6875 244.298 86.9375C246.824 88.1823 249.418 89.2865 252.069 90.25L253.892 90.9115C256.548 91.875 259.147 92.9844 261.684 94.2344C264.22 95.4844 266.678 96.8698 269.064 98.3906C271.449 99.9115 273.741 101.557 275.944 103.333C278.147 105.104 280.246 106.995 282.236 109C284.23 111.005 286.111 113.115 287.871 115.323C289.637 117.536 291.272 119.839 292.777 122.229C294.288 124.62 295.658 127.089 296.897 129.63C298.132 132.177 299.225 134.776 300.178 137.443C301.152 140.182 302.277 142.859 303.548 145.469C304.824 148.083 306.236 150.62 307.788 153.078C309.345 155.536 311.027 157.901 312.845 160.172C314.658 162.443 316.595 164.604 318.652 166.661C320.704 168.719 322.871 170.656 325.137 172.469C327.408 174.286 329.772 175.974 332.23 177.526C334.689 179.083 337.22 180.495 339.835 181.771C342.449 183.042 345.126 184.167 347.861 185.146L348.184 185.255C350.819 186.198 353.397 187.281 355.913 188.505C358.434 189.734 360.871 191.099 363.236 192.594C365.6 194.094 367.876 195.719 370.059 197.474C372.246 199.224 374.324 201.094 376.298 203.078C378.277 205.063 380.137 207.146 381.882 209.339C383.621 211.531 385.241 213.813 386.725 216.182C388.215 218.552 389.569 221 390.788 223.521C392.001 226.047 393.074 228.625 394.001 231.266C395.632 235.911 397.689 240.354 400.168 244.604C402.647 248.849 405.512 252.823 408.751 256.521C411.996 260.224 415.559 263.578 419.449 266.594C423.335 269.609 427.47 272.229 431.861 274.453V272.521C427.663 270.328 423.704 267.766 419.986 264.833C416.272 261.896 412.861 258.635 409.762 255.057C406.663 251.479 403.923 247.641 401.543 243.547C399.168 239.448 397.194 235.167 395.626 230.698Z" fill="url(#paint5_linear_1011_81460)" fill-opacity="0.8"/>
</g>
<mask id="mask6_1011_81460" style="mask-type:luminance" maskUnits="userSpaceOnUse" x="106" y="0" width="326" height="310">
<path d="M106.047 0H431.859V309.047H106.047V0Z" fill="white"/>
</mask>
<g mask="url(#mask6_1011_81460)">
<path d="M372.713 253.604C371.76 250.901 370.666 248.26 369.421 245.682C368.176 243.104 366.796 240.599 365.27 238.177C363.749 235.75 362.098 233.417 360.317 231.177C358.531 228.932 356.63 226.802 354.609 224.771C352.588 222.74 350.463 220.833 348.229 219.036C345.994 217.245 343.671 215.583 341.249 214.052C338.833 212.521 336.333 211.125 333.76 209.87C331.187 208.615 328.551 207.51 325.854 206.547L325.536 206.427C322.854 205.474 320.239 204.375 317.682 203.13C315.124 201.885 312.645 200.5 310.244 198.979C307.838 197.464 305.531 195.813 303.307 194.036C301.088 192.26 298.973 190.37 296.963 188.359C294.952 186.349 293.057 184.234 291.281 182.01C289.505 179.792 287.859 177.479 286.338 175.078C284.817 172.672 283.437 170.193 282.192 167.641C280.947 165.083 279.848 162.464 278.895 159.786C277.921 157.063 276.801 154.401 275.541 151.802C274.275 149.203 272.869 146.682 271.327 144.234C269.786 141.792 268.114 139.438 266.312 137.177C264.51 134.917 262.588 132.76 260.551 130.714C258.51 128.661 256.364 126.729 254.114 124.917C251.864 123.104 249.52 121.422 247.083 119.865C244.645 118.313 242.13 116.896 239.536 115.615C236.942 114.339 234.286 113.208 231.572 112.219L229.739 111.557C227.145 110.62 224.614 109.536 222.145 108.318C219.671 107.099 217.275 105.745 214.952 104.26C212.63 102.776 210.395 101.167 208.255 99.4375C206.109 97.7031 204.067 95.8594 202.124 93.901C200.187 91.9427 198.359 89.8854 196.65 87.724C194.937 85.5625 193.348 83.3177 191.885 80.9792C190.421 78.6406 189.093 76.2344 187.895 73.75C186.702 71.2656 185.645 68.724 184.729 66.125L182.833 60.7448C181.999 58.4167 181.041 56.1458 179.952 53.9323C178.864 51.7135 177.65 49.5677 176.322 47.4896C174.989 45.4115 173.546 43.4115 171.989 41.4948C170.432 39.5833 168.77 37.7604 167.005 36.0313C165.239 34.3021 163.385 32.6823 161.437 31.1667C159.489 29.6458 157.463 28.2448 155.354 26.9583C153.249 25.6719 151.077 24.5052 148.838 23.4635C146.598 22.4219 144.312 21.5104 141.968 20.7292C135.749 18.6719 129.874 15.8906 124.343 12.3802C118.807 8.875 113.786 4.74479 109.275 0H106.916C111.624 5.14062 116.9 9.60417 122.755 13.3854C128.609 17.1667 134.843 20.151 141.468 22.3229C143.744 23.0885 145.973 23.9792 148.15 24.9948C150.327 26.0104 152.437 27.1458 154.489 28.401C156.536 29.6563 158.51 31.0208 160.4 32.5C162.296 33.9792 164.098 35.5573 165.817 37.2396C167.531 38.9219 169.145 40.6979 170.661 42.5625C172.176 44.4271 173.577 46.3698 174.874 48.3958C176.166 50.4167 177.343 52.5104 178.4 54.6667C179.458 56.8229 180.39 59.0313 181.197 61.2969L183.109 66.6875C184.041 69.3438 185.124 71.9427 186.348 74.4844C187.572 77.026 188.932 79.4896 190.432 81.875C191.926 84.2656 193.551 86.5677 195.301 88.776C197.051 90.9844 198.921 93.0885 200.906 95.0938C202.89 97.0938 204.979 98.9792 207.171 100.755C209.364 102.526 211.65 104.167 214.025 105.688C216.4 107.203 218.854 108.589 221.385 109.833C223.911 111.083 226.499 112.188 229.15 113.146L230.973 113.813C233.635 114.776 236.229 115.88 238.765 117.135C241.301 118.385 243.765 119.771 246.145 121.292C248.531 122.813 250.822 124.464 253.025 126.234C255.229 128.01 257.327 129.901 259.322 131.906C261.317 133.911 263.192 136.021 264.952 138.234C266.718 140.443 268.348 142.75 269.859 145.141C271.369 147.531 272.739 150 273.973 152.547C275.213 155.089 276.301 157.693 277.255 160.354C278.229 163.094 279.354 165.771 280.63 168.385C281.9 171 283.312 173.536 284.869 175.995C286.421 178.448 288.109 180.813 289.926 183.083C291.739 185.354 293.676 187.521 295.734 189.573C297.786 191.63 299.952 193.568 302.223 195.385C304.489 197.198 306.854 198.885 309.312 200.443C311.77 201.995 314.307 203.411 316.916 204.682C319.531 205.958 322.208 207.083 324.947 208.057L325.265 208.172C327.9 209.115 330.479 210.198 332.994 211.427C335.505 212.651 337.947 214.016 340.307 215.516C342.671 217.016 344.942 218.641 347.124 220.396C349.307 222.146 351.385 224.016 353.359 226C355.333 227.984 357.192 230.073 358.932 232.26C360.671 234.453 362.286 236.734 363.775 239.104C365.265 241.474 366.614 243.922 367.827 246.443C369.046 248.964 370.114 251.542 371.041 254.182C371.994 256.896 373.098 259.552 374.348 262.146C375.598 264.734 376.989 267.25 378.52 269.688C380.057 272.125 381.718 274.469 383.515 276.719C385.307 278.969 387.223 281.109 389.26 283.146C391.291 285.177 393.437 287.094 395.687 288.891C397.937 290.682 400.281 292.349 402.713 293.88C405.15 295.411 407.666 296.802 410.26 298.052C412.848 299.302 415.505 300.406 418.218 301.359C422.979 303.031 427.525 305.161 431.859 307.74V305.755C427.708 303.333 423.364 301.318 418.833 299.708C416.176 298.776 413.583 297.698 411.051 296.479C408.52 295.255 406.062 293.896 403.682 292.396C401.296 290.896 399.01 289.271 396.812 287.516C394.609 285.766 392.515 283.891 390.525 281.901C388.536 279.917 386.666 277.823 384.911 275.625C383.156 273.422 381.525 271.135 380.031 268.755C378.531 266.375 377.171 263.917 375.947 261.385C374.723 258.849 373.645 256.255 372.713 253.604Z" fill="url(#paint6_linear_1011_81460)" fill-opacity="0.8"/>
</g>
<mask id="mask7_1011_81460" style="mask-type:luminance" maskUnits="userSpaceOnUse" x="68" y="0" width="364" height="354">
<path d="M68.7148 0H431.861V353.047H68.7148V0Z" fill="white"/>
</mask>
<g mask="url(#mask7_1011_81460)">
<path d="M395.928 322.641C393.272 321.708 390.678 320.63 388.147 319.411C385.611 318.188 383.152 316.828 380.772 315.328C378.392 313.828 376.1 312.203 373.897 310.448C371.699 308.693 369.605 306.823 367.616 304.833C365.626 302.844 363.751 300.745 362.001 298.547C360.246 296.349 358.616 294.057 357.121 291.677C355.621 289.292 354.262 286.839 353.038 284.302C351.814 281.766 350.741 279.172 349.809 276.516C348.855 273.818 347.762 271.177 346.517 268.594C345.272 266.016 343.887 263.516 342.366 261.089C340.84 258.661 339.189 256.328 337.408 254.089C335.621 251.849 333.72 249.714 331.699 247.682C329.678 245.651 327.553 243.745 325.319 241.948C323.085 240.156 320.757 238.495 318.34 236.964C315.918 235.427 313.423 234.036 310.85 232.781C308.277 231.526 305.637 230.417 302.939 229.453L302.621 229.344C299.944 228.385 297.324 227.286 294.772 226.042C292.215 224.797 289.736 223.417 287.329 221.896C284.928 220.375 282.616 218.729 280.397 216.953C278.178 215.177 276.064 213.281 274.053 211.271C272.043 209.26 270.147 207.146 268.371 204.927C266.595 202.703 264.949 200.391 263.428 197.99C261.908 195.589 260.527 193.109 259.283 190.552C258.038 187.995 256.934 185.38 255.98 182.703C255.007 179.979 253.892 177.318 252.626 174.719C251.361 172.12 249.96 169.594 248.413 167.151C246.871 164.703 245.199 162.354 243.397 160.094C241.595 157.833 239.678 155.677 237.637 153.625C235.6 151.578 233.454 149.646 231.204 147.833C228.949 146.021 226.605 144.333 224.168 142.781C221.73 141.224 219.215 139.807 216.621 138.531C214.033 137.255 211.376 136.12 208.658 135.135L206.835 134.469C204.241 133.531 201.71 132.453 199.236 131.234C196.767 130.016 194.366 128.661 192.043 127.177C189.72 125.693 187.491 124.083 185.345 122.354C183.199 120.62 181.158 118.776 179.215 116.818C177.277 114.859 175.449 112.802 173.736 110.641C172.027 108.479 170.439 106.229 168.975 103.896C167.512 101.557 166.184 99.151 164.986 96.6667C163.788 94.1823 162.73 91.6406 161.819 89.0417L159.918 83.651C159.085 81.3229 158.126 79.0521 157.038 76.8385C155.949 74.6198 154.741 72.4688 153.413 70.3906C152.079 68.3125 150.637 66.3125 149.079 64.3958C147.522 62.4792 145.861 60.6563 144.095 58.9271C142.335 57.1979 140.475 55.5781 138.533 54.0573C136.585 52.5417 134.559 51.1354 132.449 49.849C130.345 48.5573 128.173 47.3906 125.934 46.349C123.694 45.3073 121.408 44.3906 119.064 43.6094C116.418 42.7396 113.829 41.7344 111.288 40.5938C108.751 39.4531 106.277 38.1823 103.876 36.776C101.47 35.375 99.1471 33.849 96.9023 32.2031C94.6576 30.5573 92.5065 28.7969 90.4492 26.9219C88.3867 25.0521 86.4336 23.0729 84.5846 20.9948C82.7357 18.9167 80.9961 16.7448 79.3763 14.4792C77.7565 12.2187 76.2565 9.875 74.8815 7.45833C73.5065 5.03646 72.2669 2.55208 71.1523 0H69.2773C70.4023 2.64062 71.668 5.21875 73.0638 7.72917C74.4648 10.2396 75.9961 12.6719 77.6523 15.0208C79.3086 17.3646 81.0898 19.6198 82.9857 21.776C84.8867 23.9375 86.8919 25.9896 89.0065 27.9323C91.1263 29.875 93.3398 31.7031 95.6523 33.4115C97.9596 35.1198 100.355 36.7031 102.835 38.1563C105.314 39.6094 107.866 40.9271 110.486 42.1094C113.105 43.2917 115.783 44.3333 118.512 45.2292C120.788 45.9948 123.017 46.8854 125.194 47.901C127.371 48.9167 129.48 50.0573 131.533 51.3125C133.579 52.5677 135.553 53.9323 137.444 55.4115C139.34 56.8906 141.142 58.4688 142.861 60.151C144.574 61.8333 146.189 63.6094 147.704 65.474C149.215 67.3385 150.621 69.2865 151.918 71.3073C153.21 73.3333 154.387 75.4219 155.444 77.5833C156.501 79.7396 157.434 81.9479 158.241 84.2083L160.152 89.599C161.085 92.2604 162.168 94.8594 163.392 97.401C164.616 99.9427 165.975 102.406 167.47 104.797C168.97 107.188 170.59 109.484 172.345 111.698C174.095 113.906 175.965 116.016 177.949 118.016C179.934 120.021 182.022 121.906 184.215 123.677C186.408 125.453 188.694 127.099 191.069 128.615C193.444 130.135 195.897 131.516 198.423 132.766C200.954 134.01 203.543 135.115 206.194 136.078L208.027 136.745C210.684 137.708 213.283 138.813 215.819 140.063C218.355 141.313 220.814 142.698 223.199 144.219C225.585 145.74 227.876 147.385 230.079 149.161C232.277 150.932 234.376 152.823 236.371 154.828C238.366 156.833 240.246 158.943 242.007 161.151C243.767 163.365 245.402 165.667 246.913 168.057C248.418 170.453 249.793 172.917 251.027 175.464C252.262 178.005 253.355 180.609 254.303 183.271C255.283 186.01 256.408 188.688 257.678 191.297C258.954 193.911 260.366 196.448 261.918 198.906C263.475 201.365 265.158 203.729 266.975 205.995C268.793 208.266 270.73 210.432 272.783 212.484C274.84 214.542 277.001 216.479 279.272 218.297C281.543 220.109 283.908 221.797 286.366 223.349C288.824 224.906 291.355 226.318 293.97 227.589C296.585 228.865 299.262 229.99 302.001 230.964L302.319 231.089C304.954 232.026 307.533 233.109 310.043 234.339C312.559 235.568 315.001 236.932 317.361 238.432C319.725 239.927 321.996 241.557 324.178 243.307C326.361 245.063 328.439 246.927 330.413 248.911C332.387 250.896 334.246 252.984 335.986 255.177C337.725 257.365 339.34 259.646 340.829 262.016C342.319 264.385 343.668 266.833 344.882 269.354C346.1 271.875 347.168 274.458 348.095 277.099C349.048 279.813 350.152 282.464 351.402 285.057C352.652 287.651 354.048 290.161 355.579 292.599C357.111 295.036 358.777 297.38 360.569 299.625C362.366 301.875 364.283 304.021 366.314 306.052C368.35 308.089 370.491 310.005 372.741 311.797C374.991 313.594 377.335 315.26 379.772 316.792C382.204 318.323 384.72 319.714 387.314 320.964C389.902 322.219 392.559 323.318 395.272 324.271C398.949 325.557 402.501 327.12 405.934 328.958C409.366 330.802 412.632 332.896 415.736 335.245C418.845 337.594 421.746 340.167 424.449 342.969C427.152 345.771 429.621 348.766 431.861 351.953V349C427.309 342.927 421.97 337.646 415.85 333.156C409.73 328.667 403.09 325.161 395.928 322.641Z" fill="url(#paint7_linear_1011_81460)" fill-opacity="0.8"/>
</g>
<mask id="mask8_1011_81460" style="mask-type:luminance" maskUnits="userSpaceOnUse" x="34" y="0" width="398" height="419">
<path d="M34.0469 0H431.859V418.38H34.0469V0Z" fill="white"/>
</mask>
<g mask="url(#mask8_1011_81460)">
<path d="M419.932 392.474C418.984 389.771 417.885 387.135 416.641 384.557C415.396 381.979 414.01 379.479 412.49 377.057C410.964 374.635 409.307 372.302 407.521 370.068C405.74 367.828 403.833 365.698 401.813 363.677C399.786 361.651 397.656 359.75 395.417 357.964C393.182 356.177 390.854 354.521 388.427 353C386.005 351.474 383.505 350.089 380.932 348.844C378.354 347.599 375.714 346.505 373.016 345.557C370.359 344.625 367.766 343.547 365.229 342.323C362.698 341.099 360.24 339.74 357.854 338.24C355.474 336.745 353.182 335.115 350.984 333.359C348.786 331.604 346.693 329.734 344.703 327.745C342.714 325.755 340.839 323.661 339.083 321.464C337.328 319.26 335.703 316.969 334.203 314.589C332.708 312.208 331.344 309.75 330.125 307.214C328.901 304.682 327.823 302.089 326.891 299.432C325.943 296.729 324.844 294.089 323.599 291.51C322.354 288.932 320.974 286.427 319.448 284.005C317.927 281.578 316.276 279.245 314.495 277.005C312.708 274.766 310.807 272.63 308.786 270.599C306.766 268.568 304.641 266.656 302.406 264.865C300.172 263.073 297.849 261.411 295.427 259.875C293.01 258.344 290.516 256.948 287.943 255.693C285.365 254.438 282.729 253.328 280.031 252.37L279.714 252.255C277.036 251.302 274.422 250.203 271.865 248.958C269.307 247.708 266.828 246.328 264.427 244.807C262.021 243.286 259.714 241.641 257.49 239.865C255.271 238.089 253.156 236.193 251.146 234.182C249.135 232.172 247.24 230.057 245.464 227.839C243.688 225.62 242.042 223.307 240.521 220.906C239 218.5 237.62 216.021 236.375 213.469C235.13 210.911 234.026 208.292 233.073 205.615C232.104 202.891 230.984 200.229 229.719 197.63C228.453 195.031 227.047 192.51 225.505 190.068C223.964 187.62 222.292 185.266 220.49 183.005C218.688 180.745 216.766 178.594 214.729 176.542C212.688 174.495 210.542 172.563 208.292 170.75C206.036 168.938 203.693 167.255 201.255 165.698C198.818 164.146 196.302 162.729 193.708 161.453C191.115 160.177 188.458 159.042 185.74 158.057L183.917 157.396C181.328 156.453 178.797 155.375 176.323 154.156C173.854 152.938 171.453 151.583 169.13 150.099C166.813 148.615 164.578 147.005 162.432 145.276C160.286 143.542 158.245 141.698 156.307 139.74C154.365 137.781 152.542 135.724 150.828 133.563C149.115 131.401 147.531 129.151 146.068 126.818C144.604 124.479 143.271 122.073 142.078 119.589C140.88 117.104 139.823 114.563 138.911 111.964L137 106.573C136.172 104.245 135.214 101.974 134.125 99.7552C133.036 97.5365 131.828 95.3854 130.5 93.3073C129.167 91.224 127.724 89.224 126.167 87.3073C124.609 85.3906 122.948 83.5677 121.188 81.8385C119.422 80.1094 117.568 78.4844 115.62 76.9635C113.672 75.4427 111.646 74.0417 109.536 72.75C107.432 71.4583 105.26 70.2917 103.021 69.25C100.781 68.2031 98.4896 67.2917 96.1458 66.5052C93.3281 65.5781 90.5677 64.4948 87.8698 63.2604C85.1719 62.026 82.5521 60.6406 80.0104 59.1146C77.4688 57.5833 75.0208 55.9167 72.6667 54.1094C70.3073 52.3021 68.0625 50.375 65.9219 48.3177C63.7865 46.2604 61.7708 44.0885 59.875 41.8021C57.9792 39.5208 56.2188 37.1354 54.5885 34.6563C52.9635 32.1771 51.4792 29.6094 50.1406 26.9635C48.8021 24.3125 47.6146 21.599 46.5781 18.8177L46.3542 18.224C43.9167 11.7292 40.6979 5.65625 36.6875 0H34.5469C38.8073 5.80729 42.2031 12.0833 44.7396 18.8281L44.9635 19.4323C46.0208 22.2708 47.2344 25.0469 48.6042 27.75C49.974 30.4531 51.4896 33.0729 53.151 35.6094C54.8125 38.1458 56.6146 40.5781 58.5469 42.9115C60.4844 45.2448 62.5417 47.4635 64.7292 49.5625C66.9115 51.6667 69.2083 53.6354 71.6146 55.4792C74.0208 57.3281 76.5208 59.0313 79.1198 60.5938C81.7188 62.1563 84.3958 63.5677 87.151 64.8333C89.9063 66.0938 92.724 67.1979 95.6042 68.1458C97.8802 68.9063 100.109 69.7969 102.292 70.8125C104.469 71.8281 106.583 72.9635 108.63 74.2135C110.682 75.4688 112.656 76.8333 114.552 78.3125C116.443 79.7917 118.25 81.3698 119.969 83.0521C121.688 84.7344 123.302 86.5052 124.818 88.3698C126.333 90.2344 127.74 92.1771 129.036 94.2031C130.333 96.224 131.51 98.3125 132.573 100.469C133.63 102.625 134.568 104.839 135.38 107.099L137.276 112.479C138.214 115.141 139.292 117.74 140.516 120.281C141.74 122.823 143.099 125.292 144.599 127.677C146.094 130.068 147.719 132.37 149.469 134.583C151.219 136.792 153.089 138.896 155.073 140.901C157.057 142.906 159.146 144.792 161.339 146.568C163.531 148.339 165.818 149.984 168.193 151.505C170.573 153.021 173.021 154.406 175.552 155.651C178.083 156.901 180.672 158.005 183.323 158.964L185.156 159.63C187.813 160.594 190.417 161.703 192.953 162.948C195.49 164.198 197.953 165.583 200.339 167.104C202.724 168.63 205.021 170.276 207.224 172.052C209.427 173.823 211.531 175.714 213.526 177.719C215.521 179.724 217.401 181.833 219.161 184.047C220.927 186.26 222.563 188.563 224.073 190.953C225.583 193.349 226.958 195.818 228.193 198.365C229.432 200.906 230.526 203.51 231.474 206.177C232.453 208.917 233.573 211.594 234.849 214.208C236.12 216.823 237.531 219.359 239.089 221.813C240.641 224.271 242.323 226.635 244.141 228.906C245.958 231.177 247.891 233.344 249.948 235.396C252.005 237.453 254.167 239.391 256.438 241.208C258.708 243.026 261.068 244.708 263.526 246.266C265.984 247.818 268.521 249.229 271.135 250.505C273.745 251.776 276.422 252.901 279.161 253.88L279.479 253.995C282.115 254.932 284.693 256.016 287.208 257.245C289.724 258.474 292.161 259.839 294.526 261.339C296.891 262.839 299.161 264.464 301.344 266.214C303.526 267.969 305.604 269.839 307.578 271.823C309.552 273.807 311.411 275.896 313.151 278.083C314.891 280.276 316.505 282.557 317.995 284.927C319.479 287.302 320.833 289.745 322.047 292.266C323.26 294.792 324.333 297.37 325.26 300.01C326.214 302.729 327.313 305.38 328.563 307.974C329.818 310.568 331.208 313.083 332.74 315.521C334.271 317.958 335.938 320.302 337.729 322.552C339.526 324.802 341.438 326.943 343.474 328.979C345.51 331.016 347.651 332.932 349.901 334.729C352.151 336.526 354.495 338.193 356.932 339.724C359.365 341.26 361.88 342.651 364.474 343.901C367.063 345.156 369.719 346.26 372.432 347.214C375.073 348.141 377.656 349.214 380.172 350.427C382.693 351.641 385.135 352.995 387.505 354.484C389.875 355.974 392.151 357.589 394.339 359.333C396.526 361.078 398.609 362.943 400.589 364.917C402.568 366.896 404.427 368.979 406.172 371.167C407.917 373.354 409.536 375.63 411.026 378C412.516 380.365 413.87 382.813 415.083 385.328C416.302 387.849 417.37 390.427 418.297 393.068L418.401 393.38C421.484 402.078 425.969 409.979 431.859 417.089V414.333C426.734 407.781 422.797 400.583 420.036 392.74L419.932 392.474Z" fill="url(#paint8_linear_1011_81460)" fill-opacity="0.8"/>
</g>
<mask id="mask9_1011_81460" style="mask-type:luminance" maskUnits="userSpaceOnUse" x="0" y="2" width="411" height="430">
<path d="M0 2.37988H410.047V431.859H0V2.37988Z" fill="white"/>
</mask>
<g mask="url(#mask9_1011_81460)">
<path d="M399.589 412.802C398.641 410.104 397.547 407.463 396.302 404.89C395.057 402.312 393.672 399.812 392.151 397.39C390.625 394.963 388.969 392.635 387.188 390.401C385.401 388.161 383.495 386.031 381.474 384.01C379.448 381.984 377.318 380.083 375.078 378.296C372.844 376.51 370.51 374.859 368.089 373.333C365.667 371.812 363.167 370.427 360.589 369.182C358.01 367.937 355.375 366.843 352.672 365.895C350.021 364.963 347.422 363.885 344.891 362.661C342.354 361.437 339.901 360.078 337.516 358.578C335.135 357.078 332.844 355.453 330.646 353.697C328.448 351.942 326.354 350.072 324.365 348.083C322.375 346.093 320.5 344 318.745 341.796C316.995 339.598 315.365 337.307 313.865 334.927C312.37 332.546 311.005 330.088 309.786 327.557C308.563 325.02 307.484 322.427 306.552 319.77C305.599 317.072 304.505 314.432 303.26 311.848C302.016 309.27 300.635 306.77 299.109 304.343C297.589 301.916 295.938 299.583 294.156 297.343C292.37 295.098 290.469 292.963 288.448 290.937C286.427 288.906 284.302 286.994 282.068 285.203C279.833 283.411 277.51 281.75 275.089 280.213C272.672 278.682 270.177 277.286 267.599 276.031C265.026 274.776 262.391 273.671 259.693 272.708L259.375 272.588C256.698 271.635 254.078 270.531 251.521 269.286C248.969 268.041 246.49 266.661 244.083 265.14C241.682 263.619 239.37 261.973 237.151 260.197C234.927 258.421 232.813 256.526 230.802 254.515C228.792 252.505 226.901 250.39 225.125 248.171C223.349 245.953 221.698 243.64 220.182 241.234C218.661 238.833 217.276 236.354 216.031 233.796C214.786 231.244 213.688 228.625 212.734 225.947C211.76 223.223 210.646 220.562 209.38 217.963C208.12 215.364 206.714 212.838 205.172 210.395C203.63 207.947 201.958 205.593 200.156 203.333C198.359 201.072 196.438 198.916 194.401 196.864C192.359 194.817 190.214 192.885 187.964 191.072C185.714 189.26 183.37 187.572 180.932 186.02C178.495 184.463 175.979 183.046 173.385 181.77C170.792 180.489 168.135 179.359 165.417 178.375L163.589 177.708C160.995 176.77 158.464 175.692 155.99 174.473C153.521 173.255 151.12 171.901 148.797 170.416C146.474 168.932 144.245 167.322 142.099 165.593C139.953 163.859 137.911 162.015 135.974 160.057C134.031 158.098 132.208 156.036 130.495 153.88C128.781 151.718 127.193 149.468 125.734 147.13C124.271 144.796 122.938 142.385 121.745 139.901C120.547 137.421 119.495 134.875 118.578 132.276L116.677 126.895C115.849 124.572 114.885 122.296 113.797 120.083C112.708 117.864 111.5 115.718 110.167 113.635C108.839 111.557 107.391 109.557 105.833 107.64C104.276 105.723 102.615 103.906 100.854 102.177C99.0885 100.447 97.2344 98.8224 95.2865 97.3068C93.3385 95.786 91.3125 94.3797 89.2031 93.0933C87.099 91.8016 84.9271 90.6401 82.6875 89.5933C80.4479 88.5516 78.1563 87.6349 75.8177 86.8537C72.9948 85.9266 70.2396 84.8433 67.5417 83.6089C64.8385 82.3745 62.2188 80.9891 59.6771 79.4578C57.1354 77.9266 54.6875 76.2599 52.3281 74.4526C49.974 72.6506 47.724 70.7183 45.5885 68.661C43.4479 66.6037 41.4323 64.4318 39.5365 62.1453C37.6406 59.8641 35.8802 57.4787 34.25 54.9995C32.625 52.5151 31.1406 49.9526 29.8021 47.3016C28.4583 44.6558 27.2708 41.9422 26.2396 39.161L26.0156 38.5516C23.4063 31.5776 19.8958 25.0985 15.474 19.1037C11.0521 13.1141 5.89583 7.84326 0 3.29639V5.48909C5.51042 9.90055 10.3385 14.9631 14.4792 20.6818C18.625 26.3953 21.9271 32.562 24.401 39.1766L24.625 39.7703C25.6823 42.6141 26.8958 45.3849 28.2604 48.0933C29.6302 50.7964 31.1458 53.4162 32.8073 55.9526C34.474 58.4891 36.2708 60.9214 38.2083 63.2547C40.1406 65.5881 42.2031 67.8068 44.3854 69.9058C46.5729 72.0099 48.8698 73.9839 51.276 75.8276C53.6823 77.6714 56.1823 79.3745 58.7813 80.937C61.375 82.5047 64.0521 83.9162 66.8073 85.1818C69.5625 86.4422 72.3854 87.5464 75.2656 88.4943C77.5417 89.2547 79.7708 90.1453 81.9531 91.161C84.1302 92.1766 86.2448 93.312 88.2969 94.562C90.349 95.8172 92.3177 97.1818 94.2135 98.661C96.1146 100.14 97.9167 101.718 99.6354 103.401C101.354 105.083 102.969 106.859 104.484 108.723C106 110.588 107.406 112.536 108.703 114.557C110 116.583 111.177 118.677 112.234 120.833C113.297 122.989 114.229 125.203 115.036 127.463L116.938 132.854C117.875 135.515 118.953 138.114 120.177 140.656C121.401 143.197 122.766 145.661 124.26 148.052C125.755 150.442 127.38 152.739 129.135 154.953C130.885 157.161 132.755 159.27 134.74 161.27C136.724 163.276 138.813 165.161 141.005 166.932C143.203 168.708 145.484 170.354 147.865 171.869C150.24 173.39 152.693 174.77 155.219 176.02C157.75 177.265 160.339 178.369 162.99 179.333L164.813 180C167.474 180.963 170.068 182.067 172.604 183.317C175.141 184.567 177.604 185.953 179.984 187.473C182.37 188.994 184.661 190.645 186.865 192.416C189.068 194.192 191.167 196.078 193.161 198.083C195.156 200.088 197.031 202.197 198.797 204.411C200.557 206.619 202.193 208.921 203.703 211.312C205.208 213.708 206.583 216.171 207.818 218.718C209.057 221.26 210.151 223.864 211.099 226.526C212.078 229.265 213.203 231.942 214.474 234.557C215.745 237.166 217.161 239.703 218.714 242.161C220.266 244.619 221.953 246.984 223.766 249.255C225.583 251.526 227.521 253.687 229.573 255.744C231.63 257.802 233.792 259.739 236.063 261.552C238.333 263.369 240.698 265.057 243.151 266.609C245.609 268.166 248.146 269.578 250.76 270.854C253.37 272.125 256.047 273.25 258.786 274.229L259.115 274.343C261.75 275.281 264.323 276.369 266.839 277.593C269.354 278.822 271.792 280.187 274.156 281.687C276.521 283.187 278.792 284.812 280.974 286.562C283.156 288.317 285.234 290.182 287.208 292.166C289.182 294.151 291.042 296.239 292.781 298.432C294.521 300.619 296.135 302.901 297.625 305.27C299.109 307.64 300.464 310.088 301.677 312.609C302.891 315.13 303.964 317.713 304.891 320.354C305.844 323.067 306.948 325.723 308.198 328.312C309.448 330.906 310.839 333.421 312.37 335.859C313.901 338.291 315.568 340.635 317.359 342.885C319.156 345.135 321.073 347.276 323.104 349.312C325.141 351.348 327.286 353.265 329.536 355.057C331.781 356.854 334.125 358.515 336.563 360.052C339 361.583 341.516 362.973 344.104 364.223C346.698 365.473 349.354 366.578 352.068 367.526C354.708 368.453 357.286 369.526 359.807 370.744C362.328 371.958 364.771 373.312 367.135 374.802C369.505 376.291 371.781 377.911 373.969 379.656C376.156 381.401 378.24 383.26 380.214 385.239C382.193 387.218 384.057 389.302 385.802 391.489C387.542 393.677 389.161 395.953 390.651 398.322C392.141 400.687 393.495 403.135 394.708 405.651C395.927 408.171 396.995 410.75 397.922 413.39L398.036 413.692C400.323 420.145 403.406 426.192 407.286 431.833H409.401C405.286 426.036 402.047 419.791 399.677 413.088L399.589 412.802Z" fill="url(#paint9_linear_1011_81460)" fill-opacity="0.8"/>
</g>
<mask id="mask10_1011_81460" style="mask-type:luminance" maskUnits="userSpaceOnUse" x="0" y="53" width="376" height="379">
<path d="M0 53.0469H375.38V431.859H0V53.0469Z" fill="white"/>
</mask>
<g mask="url(#mask10_1011_81460)">
<path d="M329.766 388.813C327.109 387.88 324.516 386.802 321.984 385.578C319.448 384.354 316.99 382.995 314.609 381.495C312.224 379.995 309.938 378.37 307.734 376.615C305.536 374.859 303.443 372.984 301.453 370.995C299.464 369.005 297.589 366.911 295.833 364.708C294.078 362.51 292.453 360.219 290.953 357.839C289.453 355.458 288.094 353 286.87 350.464C285.646 347.927 284.568 345.333 283.635 342.677C282.688 339.979 281.589 337.339 280.344 334.755C279.104 332.177 277.719 329.677 276.198 327.25C274.672 324.823 273.021 322.49 271.24 320.25C269.458 318.01 267.552 315.875 265.536 313.844C263.516 311.813 261.385 309.901 259.151 308.109C256.922 306.318 254.594 304.656 252.177 303.125C249.755 301.589 247.26 300.193 244.688 298.938C242.115 297.682 239.474 296.578 236.781 295.615L236.458 295.505C233.781 294.547 231.167 293.448 228.609 292.203C226.052 290.958 223.573 289.573 221.172 288.057C218.766 286.536 216.453 284.885 214.234 283.109C212.016 281.333 209.901 279.443 207.891 277.432C205.88 275.422 203.984 273.307 202.208 271.089C200.432 268.865 198.786 266.552 197.266 264.151C195.745 261.75 194.365 259.271 193.12 256.714C191.875 254.156 190.771 251.542 189.818 248.859C188.849 246.135 187.734 243.474 186.469 240.875C185.208 238.271 183.802 235.745 182.266 233.297C180.724 230.854 179.052 228.495 177.25 226.234C175.448 223.969 173.531 221.813 171.49 219.76C169.453 217.708 167.307 215.776 165.057 213.958C162.807 212.146 160.464 210.458 158.026 208.901C155.589 207.344 153.073 205.927 150.479 204.646C147.885 203.365 145.229 202.234 142.51 201.245L140.682 200.578C138.089 199.641 135.557 198.563 133.083 197.344C130.615 196.125 128.219 194.771 125.896 193.286C123.573 191.802 121.339 190.193 119.193 188.458C117.052 186.729 115.01 184.885 113.068 182.927C111.13 180.969 109.302 178.906 107.589 176.75C105.88 174.589 104.292 172.339 102.828 170.005C101.365 167.667 100.036 165.255 98.8385 162.776C97.6406 160.292 96.5885 157.75 95.6719 155.146L93.7708 149.766C92.9427 147.443 91.9844 145.172 90.8958 142.953C89.8073 140.734 88.599 138.583 87.2656 136.505C85.9375 134.427 84.4896 132.427 82.9323 130.51C81.375 128.594 79.7135 126.771 77.9531 125.042C76.1875 123.313 74.3333 121.688 72.3854 120.172C70.4375 118.651 68.4063 117.25 66.3021 115.958C64.1927 114.672 62.0208 113.505 59.7813 112.464C57.5417 111.422 55.25 110.51 52.9115 109.724C50.0938 108.802 47.3333 107.719 44.6354 106.484C41.9375 105.25 39.3177 103.87 36.776 102.339C34.2344 100.813 31.7865 99.1458 29.4271 97.3438C27.0729 95.5365 24.8281 93.6094 22.6875 91.5521C20.5469 89.4948 18.5313 87.3281 16.6354 85.0469C14.7396 82.7656 12.9792 80.3802 11.349 77.901C9.72396 75.4219 8.23958 72.8594 6.89583 70.2135C5.55729 67.5677 4.36979 64.8542 3.33333 62.0729L3.10938 61.4688C2.18229 59.0156 1.14062 56.6146 0 54.2812V58.401C0.526041 59.6146 1.01562 60.8385 1.48438 62.0729L1.70833 62.6771C2.76562 65.5208 3.97917 68.2969 5.34375 71C6.71354 73.7083 8.22917 76.3281 9.89063 78.8646C11.5573 81.401 13.3542 83.8385 15.2917 86.1719C17.2292 88.5052 19.2865 90.724 21.474 92.8281C23.6563 94.9271 25.9531 96.901 28.3594 98.75C30.7656 100.594 33.2708 102.297 35.8698 103.859C38.4635 105.427 41.1458 106.839 43.901 108.104C46.6563 109.365 49.474 110.469 52.3594 111.417C54.6354 112.182 56.8646 113.073 59.0417 114.089C61.2188 115.104 63.3281 116.24 65.3802 117.495C67.4271 118.75 69.3958 120.12 71.2917 121.599C73.1875 123.078 74.9896 124.656 76.7031 126.339C78.4219 128.021 80.0365 129.797 81.5469 131.661C83.0625 133.526 84.4688 135.474 85.7604 137.495C87.0573 139.521 88.2344 141.609 89.2917 143.766C90.349 145.927 91.2813 148.135 92.0885 150.396L93.9948 155.786C94.9323 158.448 96.0104 161.047 97.2344 163.589C98.4583 166.13 99.8229 168.594 101.318 170.984C102.813 173.375 104.438 175.672 106.188 177.885C107.943 180.094 109.807 182.198 111.792 184.203C113.776 186.208 115.865 188.094 118.063 189.865C120.255 191.641 122.536 193.281 124.917 194.802C127.292 196.323 129.745 197.703 132.271 198.953C134.802 200.198 137.391 201.302 140.042 202.266L141.865 202.927C144.521 203.891 147.12 205 149.656 206.25C152.193 207.5 154.656 208.885 157.042 210.406C159.422 211.927 161.719 213.573 163.922 215.344C166.12 217.12 168.219 219.01 170.214 221.016C172.208 223.016 174.089 225.125 175.849 227.339C177.615 229.552 179.245 231.854 180.755 234.245C182.266 236.635 183.635 239.104 184.875 241.646C186.109 244.193 187.203 246.792 188.151 249.458C189.13 252.198 190.255 254.87 191.531 257.484C192.807 260.094 194.224 262.63 195.781 265.083C197.339 267.542 199.026 269.906 200.844 272.172C202.661 274.443 204.599 276.604 206.656 278.656C208.714 280.714 210.875 282.646 213.146 284.458C215.417 286.276 217.781 287.958 220.24 289.51C222.698 291.063 225.234 292.474 227.849 293.75C230.464 295.021 233.141 296.141 235.88 297.12L236.198 297.229C238.833 298.172 241.411 299.255 243.927 300.484C246.443 301.714 248.88 303.073 251.245 304.573C253.604 306.073 255.875 307.698 258.057 309.453C260.24 311.203 262.318 313.073 264.292 315.057C266.266 317.042 268.125 319.13 269.865 321.318C271.609 323.51 273.224 325.792 274.708 328.161C276.198 330.531 277.547 332.979 278.76 335.5C279.979 338.021 281.052 340.599 281.979 343.24C282.932 345.958 284.036 348.609 285.286 351.203C286.542 353.797 287.932 356.307 289.464 358.745C291 361.182 292.667 363.521 294.464 365.771C296.26 368.021 298.177 370.161 300.214 372.198C302.25 374.229 304.391 376.146 306.641 377.938C308.896 379.734 311.24 381.396 313.677 382.927C316.115 384.458 318.63 385.849 321.224 387.099C323.818 388.349 326.474 389.448 329.188 390.401C334.104 392.13 338.792 394.344 343.25 397.052C347.703 399.76 351.828 402.901 355.63 406.469C359.427 410.036 362.818 413.964 365.797 418.24C368.776 422.516 371.286 427.057 373.318 431.859H375.188C374.167 429.375 373.01 426.948 371.729 424.583C370.448 422.219 369.047 419.927 367.526 417.714C366.005 415.495 364.37 413.365 362.625 411.323C360.88 409.276 359.031 407.328 357.078 405.479C355.125 403.63 353.083 401.891 350.948 400.255C348.813 398.62 346.599 397.104 344.302 395.703C342.01 394.302 339.646 393.026 337.219 391.875C334.786 390.724 332.302 389.703 329.766 388.813Z" fill="url(#paint10_linear_1011_81460)" fill-opacity="0.8"/>
</g>
<mask id="mask11_1011_81460" style="mask-type:luminance" maskUnits="userSpaceOnUse" x="0" y="114" width="339" height="318">
<path d="M0 114.38H338.047V431.859H0V114.38Z" fill="white"/>
</mask>
<g mask="url(#mask11_1011_81460)">
<path d="M306.854 411.719C304.198 410.786 301.604 409.708 299.068 408.484C296.531 407.26 294.078 405.901 291.693 404.406C289.313 402.906 287.021 401.281 284.823 399.526C282.62 397.771 280.526 395.896 278.536 393.906C276.547 391.917 274.677 389.823 272.922 387.625C271.167 385.427 269.542 383.135 268.042 380.75C266.542 378.37 265.182 375.911 263.958 373.38C262.74 370.844 261.661 368.25 260.729 365.594C259.781 362.89 258.682 360.25 257.438 357.672C256.193 355.094 254.813 352.588 253.292 350.167C251.766 347.739 250.115 345.406 248.333 343.167C246.547 340.922 244.646 338.786 242.625 336.76C240.604 334.729 238.479 332.818 236.245 331.026C234.01 329.234 231.688 327.573 229.271 326.036C226.849 324.505 224.354 323.109 221.781 321.854C219.208 320.599 216.568 319.489 213.875 318.531L213.547 318.417C210.865 317.463 208.25 316.359 205.693 315.114C203.141 313.87 200.656 312.489 198.255 310.969C195.854 309.448 193.542 307.802 191.323 306.026C189.104 304.25 186.984 302.354 184.974 300.344C182.964 298.333 181.073 296.219 179.297 294C177.521 291.781 175.87 289.469 174.354 287.062C172.833 284.661 171.448 282.182 170.203 279.625C168.958 277.073 167.859 274.453 166.906 271.776C165.932 269.052 164.813 266.39 163.547 263.792C162.286 261.193 160.88 258.672 159.339 256.224C157.797 253.781 156.125 251.427 154.323 249.167C152.521 246.906 150.599 244.75 148.563 242.703C146.521 240.651 144.375 238.724 142.125 236.906C139.875 235.094 137.531 233.411 135.094 231.854C132.656 230.302 130.141 228.885 127.547 227.604C124.953 226.328 122.297 225.198 119.578 224.213L117.76 223.547C115.167 222.609 112.635 221.526 110.161 220.307C107.688 219.088 105.292 217.739 102.969 216.255C100.646 214.765 98.4115 213.161 96.2708 211.427C94.125 209.698 92.0833 207.849 90.1406 205.89C88.2031 203.932 86.375 201.875 84.6615 199.713C82.9479 197.552 81.3594 195.307 79.901 192.969C78.4375 190.635 77.1042 188.224 75.9063 185.739C74.7135 183.255 73.6563 180.713 72.7396 178.114L70.8229 172.745C69.9948 170.417 69.0313 168.146 67.9427 165.927C66.8594 163.713 65.6458 161.562 64.3177 159.484C62.9844 157.406 61.5417 155.406 59.9844 153.489C58.4271 151.573 56.7656 149.75 55.0052 148.021C53.2396 146.292 51.3854 144.672 49.4375 143.151C47.4896 141.63 45.4635 140.229 43.3542 138.937C41.25 137.651 39.0781 136.484 36.8385 135.443C34.599 134.396 32.3125 133.484 29.9688 132.698C24.3698 130.849 19.0365 128.406 13.9844 125.37C8.92708 122.333 4.26562 118.776 0 114.698V117.068C4.23958 120.953 8.84375 124.354 13.8073 127.265C18.7656 130.177 23.9792 132.536 29.4427 134.344C31.7188 135.104 33.9479 135.995 36.125 137.01C38.3021 138.031 40.4167 139.167 42.4635 140.422C44.5104 141.677 46.4844 143.042 48.375 144.521C50.2708 146 52.0729 147.578 53.7917 149.26C55.5052 150.943 57.1198 152.719 58.6354 154.583C60.151 156.448 61.5521 158.396 62.849 160.417C64.1406 162.443 65.3177 164.531 66.375 166.693C67.4323 168.849 68.3646 171.057 69.1719 173.323L71.0833 178.703C72.0156 181.364 73.099 183.963 74.3229 186.505C75.5469 189.047 76.9063 191.51 78.401 193.901C79.8958 196.292 81.5208 198.594 83.2708 200.802C85.026 203.01 86.8906 205.12 88.875 207.125C90.8594 209.125 92.9531 211.015 95.1458 212.786C97.3385 214.557 99.625 216.203 102 217.724C104.375 219.245 106.828 220.625 109.354 221.875C111.885 223.125 114.474 224.229 117.125 225.187L118.958 225.854C121.615 226.818 124.214 227.922 126.75 229.172C129.286 230.422 131.75 231.807 134.13 233.328C136.516 234.849 138.807 236.5 141.01 238.271C143.214 240.047 145.313 241.932 147.307 243.937C149.302 245.943 151.177 248.052 152.943 250.265C154.703 252.474 156.339 254.776 157.849 257.172C159.354 259.562 160.729 262.026 161.964 264.573C163.203 267.114 164.297 269.719 165.245 272.38C166.224 275.12 167.344 277.797 168.62 280.411C169.891 283.021 171.302 285.557 172.859 288.015C174.411 290.474 176.099 292.838 177.911 295.109C179.729 297.375 181.661 299.542 183.719 301.599C185.776 303.651 187.938 305.588 190.208 307.406C192.479 309.219 194.844 310.906 197.297 312.458C199.755 314.015 202.292 315.427 204.906 316.703C207.516 317.974 210.193 319.099 212.932 320.078L213.25 320.198C215.891 321.135 218.469 322.219 220.99 323.443C223.51 324.667 225.953 326.031 228.318 327.531C230.688 329.026 232.964 330.651 235.151 332.406C237.333 334.156 239.417 336.026 241.396 338.01C243.375 339.995 245.234 342.083 246.979 344.276C248.724 346.469 250.344 348.75 251.833 351.12C253.323 353.495 254.677 355.943 255.896 358.463C257.109 360.989 258.188 363.573 259.115 366.213C260.068 368.932 261.172 371.583 262.422 374.177C263.672 376.765 265.068 379.281 266.599 381.719C268.13 384.151 269.797 386.495 271.589 388.745C273.385 390.995 275.302 393.135 277.339 395.172C279.37 397.203 281.516 399.12 283.76 400.917C286.01 402.708 288.354 404.375 290.792 405.906C293.224 407.443 295.74 408.833 298.333 410.083C300.922 411.333 303.578 412.437 306.292 413.39C311.755 415.312 316.932 417.833 321.813 420.953C326.698 424.068 331.161 427.703 335.198 431.859H337.583C333.354 427.307 328.635 423.328 323.438 419.922C318.245 416.515 312.714 413.781 306.854 411.719Z" fill="url(#paint11_linear_1011_81460)" fill-opacity="0.8"/>
</g>
<mask id="mask12_1011_81460" style="mask-type:luminance" maskUnits="userSpaceOnUse" x="0" y="151" width="279" height="281">
<path d="M0 151.713H278.047V431.859H0V151.713Z" fill="white"/>
</mask>
<g mask="url(#mask12_1011_81460)">
<path d="M237.818 388.51C236.865 385.807 235.771 383.167 234.527 380.589C233.282 378.005 231.896 375.505 230.376 373.078C228.855 370.656 227.199 368.323 225.417 366.078C223.636 363.839 221.735 361.703 219.714 359.672C217.693 357.646 215.563 355.734 213.334 353.943C211.1 352.151 208.771 350.484 206.355 348.953C203.938 347.417 201.438 346.026 198.865 344.771C196.292 343.516 193.657 342.406 190.959 341.443L190.641 341.333C187.959 340.375 185.344 339.276 182.787 338.031C180.235 336.786 177.751 335.406 175.35 333.885C172.949 332.365 170.636 330.714 168.417 328.938C166.193 327.161 164.079 325.271 162.068 323.26C160.058 321.25 158.167 319.135 156.391 316.917C154.615 314.693 152.964 312.38 151.449 309.979C149.928 307.578 148.542 305.099 147.298 302.542C146.053 299.984 144.954 297.37 144.001 294.693C143.027 291.969 141.912 289.307 140.646 286.708C139.381 284.104 137.98 281.583 136.438 279.135C134.896 276.693 133.225 274.339 131.423 272.078C129.62 269.818 127.699 267.661 125.662 265.609C123.62 263.563 121.475 261.63 119.225 259.818C116.975 258.005 114.626 256.323 112.188 254.766C109.751 253.214 107.235 251.797 104.641 250.521C102.048 249.24 99.3913 248.109 96.6777 247.125L94.8548 246.458C92.2611 245.521 89.7298 244.443 87.2559 243.224C84.7871 242.005 82.3861 240.651 80.0684 239.167C77.7454 237.682 75.5111 236.073 73.3652 234.344C71.2194 232.609 69.1777 230.766 67.2402 228.807C65.2975 226.849 63.4746 224.786 61.7611 222.63C60.0527 220.469 58.4642 218.219 57.0007 215.885C55.5371 213.547 54.209 211.135 53.0111 208.656C51.8132 206.172 50.7611 203.63 49.8444 201.031L47.9382 195.641C47.1048 193.313 46.1465 191.042 45.0579 188.828C43.9694 186.609 42.7611 184.458 41.4277 182.38C40.0996 180.302 38.6569 178.302 37.0996 176.385C35.5423 174.469 33.8809 172.646 32.1152 170.917C30.3548 169.188 28.4954 167.568 26.5475 166.047C24.5996 164.526 22.5736 163.125 20.4694 161.833C18.36 160.547 16.1882 159.38 13.9538 158.339C11.7142 157.297 9.42253 156.38 7.08398 155.599C4.66211 154.802 2.30273 153.87 0.00585938 152.875V154.766C2.13086 155.677 4.32878 156.495 6.53711 157.24C8.81836 158 11.0475 158.891 13.2246 159.906C15.4069 160.922 17.5215 162.057 19.5684 163.313C21.6204 164.568 23.5944 165.932 25.4902 167.411C27.3861 168.891 29.1934 170.469 30.9121 172.151C32.6257 173.833 34.2454 175.609 35.7611 177.474C37.2767 179.339 38.6829 181.286 39.9798 183.313C41.2715 185.333 42.4486 187.427 43.5111 189.583C44.5684 191.745 45.5007 193.953 46.3132 196.219L48.2142 201.599C49.1465 204.26 50.2246 206.859 51.4486 209.401C52.6725 211.943 54.0319 214.406 55.5319 216.797C57.0267 219.188 58.6517 221.49 60.4017 223.698C62.1517 225.906 64.0215 228.016 66.0059 230.021C67.9902 232.021 70.0788 233.911 72.2715 235.682C74.4642 237.453 76.7507 239.099 79.1257 240.615C81.5059 242.135 83.9538 243.521 86.485 244.766C89.0163 246.01 91.6048 247.115 94.2559 248.078L96.0892 248.74C98.7454 249.703 101.344 250.813 103.881 252.063C106.417 253.313 108.876 254.698 111.261 256.219C113.641 257.74 115.938 259.391 118.141 261.161C120.339 262.938 122.438 264.823 124.433 266.828C126.428 268.833 128.308 270.943 130.068 273.156C131.829 275.365 133.464 277.667 134.975 280.057C136.485 282.453 137.855 284.917 139.094 287.458C140.329 290.005 141.423 292.604 142.376 295.271C143.35 298.005 144.475 300.682 145.745 303.292C147.016 305.906 148.428 308.443 149.98 310.896C151.532 313.354 153.214 315.714 155.027 317.984C156.844 320.255 158.777 322.417 160.829 324.474C162.886 326.531 165.048 328.464 167.313 330.281C169.579 332.099 171.943 333.781 174.396 335.339C176.85 336.891 179.386 338.307 181.995 339.578C184.61 340.854 187.282 341.979 190.016 342.953L190.339 343.068C192.975 344.01 195.548 345.094 198.063 346.323C200.579 347.547 203.016 348.911 205.381 350.411C207.745 351.911 210.016 353.536 212.199 355.292C214.381 357.042 216.459 358.911 218.433 360.896C220.407 362.88 222.266 364.969 224.006 367.161C225.745 369.349 227.36 371.63 228.85 374.005C230.334 376.375 231.688 378.823 232.902 381.344C234.115 383.865 235.188 386.448 236.115 389.089C237.725 393.661 239.745 398.042 242.183 402.234C244.62 406.422 247.428 410.349 250.605 414.01C253.782 417.672 257.277 421 261.084 424.005C264.891 427.005 268.943 429.625 273.245 431.859H277.157C272.6 429.74 268.292 427.193 264.245 424.214C260.193 421.234 256.48 417.885 253.1 414.161C249.725 410.443 246.745 406.422 244.173 402.099C241.6 397.781 239.48 393.25 237.818 388.51Z" fill="url(#paint12_linear_1011_81460)" fill-opacity="0.8"/>
</g>
<mask id="mask13_1011_81460" style="mask-type:luminance" maskUnits="userSpaceOnUse" x="0" y="185" width="227" height="247">
<path d="M0 185.047H226.047V431.859H0V185.047Z" fill="white"/>
</mask>
<g mask="url(#mask13_1011_81460)">
<path d="M168.042 364.36L167.724 364.245C165.047 363.292 162.427 362.193 159.875 360.948C157.318 359.703 154.839 358.318 152.438 356.797C150.031 355.276 147.719 353.63 145.5 351.854C143.281 350.078 141.167 348.188 139.156 346.177C137.146 344.167 135.25 342.047 133.474 339.828C131.698 337.61 130.052 335.297 128.531 332.896C127.01 330.49 125.63 328.011 124.385 325.459C123.141 322.901 122.036 320.281 121.083 317.604C120.115 314.88 118.995 312.219 117.734 309.62C116.469 307.016 115.063 304.495 113.521 302.047C111.979 299.599 110.307 297.245 108.51 294.985C106.708 292.724 104.786 290.563 102.745 288.516C100.708 286.464 98.5625 284.531 96.3125 282.719C94.0573 280.901 91.7135 279.219 89.276 277.662C86.8385 276.104 84.3229 274.688 81.7292 273.412C79.1354 272.13 76.4792 271 73.7604 270.016L71.9271 269.349C69.3385 268.412 66.8073 267.333 64.3333 266.115C61.8594 264.896 59.4635 263.542 57.1406 262.057C54.8177 260.573 52.5833 258.964 50.4427 257.235C48.2969 255.5 46.2552 253.656 44.3125 251.698C42.375 249.74 40.5469 247.677 38.8385 245.521C37.125 243.36 35.5365 241.11 34.0729 238.771C32.6094 236.438 31.2813 234.026 30.0885 231.542C28.8906 229.063 27.8333 226.516 26.9219 223.917L25.0469 218.521C23.8802 215.255 22.4635 212.104 20.7917 209.068C19.125 206.031 17.2292 203.141 15.099 200.406C12.974 197.672 10.6406 195.12 8.10938 192.755C5.57813 190.391 2.875 188.24 0 186.302V188.401C5.39583 192.188 10.0885 196.698 14.0781 201.943C18.0729 207.182 21.1719 212.906 23.3906 219.115L25.2865 224.495C26.224 227.156 27.3021 229.755 28.526 232.297C29.75 234.839 31.1146 237.302 32.6094 239.693C34.1042 242.083 35.7292 244.386 37.4844 246.594C39.2344 248.802 41.1042 250.912 43.0885 252.917C45.0729 254.917 47.1615 256.807 49.3542 258.578C51.5521 260.349 53.8333 261.995 56.2135 263.516C58.5885 265.031 61.0417 266.417 63.5677 267.662C66.099 268.912 68.6927 270.011 71.3438 270.974L73.1667 271.641C75.8229 272.604 78.4219 273.708 80.9583 274.958C83.4948 276.208 85.9531 277.594 88.3385 279.115C90.7188 280.636 93.0156 282.287 95.2188 284.057C97.4167 285.834 99.5156 287.719 101.51 289.724C103.505 291.729 105.385 293.839 107.146 296.052C108.906 298.261 110.542 300.563 112.052 302.953C113.563 305.349 114.932 307.813 116.172 310.36C117.406 312.901 118.5 315.505 119.453 318.167C120.427 320.906 121.552 323.584 122.823 326.198C124.094 328.813 125.51 331.349 127.063 333.807C128.615 336.266 130.302 338.63 132.12 340.901C133.932 343.172 135.87 345.334 137.927 347.391C139.979 349.448 142.146 351.38 144.417 353.198C146.688 355.016 149.052 356.703 151.51 358.255C153.964 359.807 156.5 361.224 159.115 362.495C161.729 363.771 164.406 364.896 167.146 365.87L167.464 365.985C170.099 366.922 172.677 368.011 175.193 369.235C177.703 370.464 180.146 371.828 182.505 373.328C184.87 374.828 187.141 376.453 189.323 378.203C191.505 379.959 193.583 381.828 195.557 383.807C197.531 385.792 199.391 387.88 201.13 390.073C202.875 392.261 204.484 394.542 205.974 396.912C207.464 399.287 208.813 401.729 210.026 404.25C211.245 406.771 212.313 409.354 213.245 411.995C215.766 419.125 219.25 425.745 223.703 431.86H225.854C221.146 425.61 217.49 418.797 214.885 411.422C213.932 408.719 212.839 406.084 211.594 403.5C210.354 400.922 208.969 398.422 207.448 395.995C205.927 393.568 204.276 391.24 202.49 388.995C200.708 386.755 198.807 384.62 196.792 382.589C194.771 380.563 192.646 378.651 190.411 376.86C188.177 375.063 185.854 373.401 183.438 371.87C181.016 370.334 178.521 368.943 175.948 367.682C173.375 366.427 170.74 365.323 168.042 364.36Z" fill="url(#paint13_linear_1011_81460)" fill-opacity="0.8"/>
</g>
<mask id="mask14_1011_81460" style="mask-type:luminance" maskUnits="userSpaceOnUse" x="0" y="235" width="192" height="197">
<path d="M0 235.713H191.38V431.859H0V235.713Z" fill="white"/>
</mask>
<g mask="url(#mask14_1011_81460)">
<path d="M145.105 387.271L144.787 387.151C142.105 386.198 139.49 385.099 136.933 383.854C134.376 382.609 131.896 381.229 129.495 379.708C127.089 378.187 124.777 376.541 122.558 374.765C120.339 372.989 118.219 371.093 116.209 369.083C114.199 367.073 112.308 364.958 110.532 362.739C108.756 360.515 107.11 358.208 105.589 355.802C104.068 353.401 102.688 350.922 101.443 348.364C100.199 345.807 99.0996 343.187 98.1413 340.51C97.1725 337.786 96.0527 335.125 94.7871 332.526C93.5267 329.927 92.1204 327.406 90.5788 324.958C89.0371 322.515 87.3652 320.161 85.5632 317.901C83.7611 315.64 81.8392 313.484 79.8027 311.437C77.7611 309.385 75.6152 307.458 73.3652 305.64C71.1152 303.828 68.7715 302.146 66.334 300.588C63.8965 299.036 61.3809 297.619 58.7871 296.343C56.1934 295.062 53.5371 293.932 50.8184 292.948L48.9902 292.281C46.3965 291.343 43.8652 290.26 41.3965 289.041C38.9225 287.823 36.5267 286.474 34.2038 284.989C31.8809 283.5 29.6465 281.896 27.5007 280.161C25.36 278.427 23.3184 276.583 21.3757 274.625C19.4382 272.666 17.61 270.609 15.8965 268.448C14.1882 266.286 12.5996 264.041 11.1361 261.703C9.67253 259.369 8.3444 256.958 7.14648 254.474C5.94857 251.989 4.89648 249.448 3.97982 246.849L2.07878 241.468C1.44857 239.698 0.750652 237.953 -0.0253906 236.286V240.776C0.136068 241.208 0.292318 241.64 0.448568 242.062L2.35482 247.453C3.29232 250.114 4.37044 252.713 5.5944 255.255C6.81836 257.797 8.17773 260.26 9.67773 262.651C11.1725 265.041 12.7975 267.338 14.5475 269.552C16.2975 271.76 18.1673 273.869 20.1517 275.869C22.1361 277.875 24.2246 279.76 26.4173 281.536C28.6152 283.307 30.8965 284.953 33.2715 286.468C35.6517 287.989 38.1048 289.369 40.6309 290.619C43.1621 291.864 45.7507 292.968 48.4017 293.932L50.2246 294.593C52.8809 295.557 55.4798 296.666 58.0163 297.916C60.5527 299.166 63.0163 300.552 65.4017 302.073C67.7819 303.593 70.0788 305.239 72.2819 307.01C74.4798 308.786 76.5788 310.677 78.5736 312.682C80.5684 314.682 82.4486 316.791 84.209 319.005C85.9694 321.218 87.6048 323.521 89.1152 325.911C90.6257 328.302 91.9954 330.771 93.235 333.312C94.4694 335.859 95.5632 338.458 96.5111 341.125C97.4902 343.864 98.6152 346.536 99.8913 349.151C101.167 351.765 102.584 354.297 104.136 356.755C105.693 359.208 107.381 361.573 109.199 363.838C111.016 366.109 112.954 368.271 115.011 370.328C117.068 372.38 119.235 374.312 121.506 376.13C123.777 377.942 126.141 379.625 128.6 381.182C131.058 382.734 133.594 384.146 136.209 385.416C138.824 386.687 141.501 387.807 144.24 388.786L144.558 388.896C147.068 389.791 149.521 390.817 151.923 391.968C154.324 393.125 156.652 394.401 158.917 395.807C161.183 397.208 163.365 398.724 165.469 400.359C167.574 401.989 169.584 403.729 171.501 405.578C173.423 407.422 175.235 409.364 176.949 411.406C178.662 413.442 180.261 415.567 181.751 417.776C183.24 419.984 184.605 422.265 185.85 424.619C187.1 426.974 188.214 429.385 189.204 431.859H191.063C190.063 429.291 188.928 426.786 187.657 424.343C186.386 421.901 184.99 419.531 183.464 417.239C181.943 414.942 180.298 412.739 178.537 410.619C176.777 408.5 174.912 406.484 172.933 404.567C170.954 402.651 168.881 400.843 166.714 399.146C164.542 397.453 162.287 395.88 159.949 394.422C157.61 392.968 155.199 391.646 152.719 390.453C150.235 389.255 147.699 388.198 145.105 387.271Z" fill="url(#paint14_linear_1011_81460)" fill-opacity="0.8"/>
</g>
<mask id="mask15_1011_81460" style="mask-type:luminance" maskUnits="userSpaceOnUse" x="0" y="298" width="156" height="134">
<path d="M0 298.38H155.38V431.859H0V298.38Z" fill="white"/>
</mask>
<g mask="url(#mask15_1011_81460)">
<path d="M122.214 410.177L121.896 410.067C119.219 409.109 116.599 408.01 114.047 406.765C111.49 405.52 109.01 404.14 106.604 402.619C104.203 401.098 101.891 399.453 99.6719 397.677C97.4531 395.901 95.3333 394.005 93.3229 391.994C91.3125 389.984 89.4219 387.869 87.6458 385.651C85.8698 383.427 84.224 381.119 82.7031 378.713C81.1823 376.312 79.8021 373.833 78.5521 371.276C77.3073 368.718 76.2083 366.104 75.2552 363.427C74.2813 360.703 73.1667 358.041 71.901 355.442C70.6354 352.843 69.2292 350.322 67.6875 347.875C66.1458 345.432 64.474 343.078 62.6719 340.817C60.8698 338.557 58.9531 336.401 56.9115 334.348C54.875 332.302 52.7292 330.369 50.474 328.557C48.224 326.744 45.8802 325.062 43.4427 323.505C41.0052 321.947 38.4896 320.536 35.8958 319.255C33.3021 317.979 30.651 316.843 27.9323 315.859L26.1094 315.197C16.2708 311.625 7.56771 306.223 0 299V301.359C7.48437 308.192 15.9896 313.338 25.5104 316.802L27.3438 317.468C30 318.432 32.599 319.536 35.1354 320.786C37.6719 322.036 40.1302 323.421 42.5156 324.942C44.901 326.463 47.1927 328.114 49.3958 329.885C51.599 331.661 53.6927 333.546 55.6875 335.552C57.6823 337.557 59.5625 339.666 61.3229 341.88C63.0833 344.088 64.7188 346.39 66.2292 348.781C67.7344 351.177 69.1094 353.64 70.3438 356.187C71.5781 358.729 72.6719 361.333 73.6198 363.994C74.599 366.734 75.724 369.411 76.9948 372.026C78.2708 374.64 79.6823 377.171 81.2396 379.63C82.7917 382.088 84.4792 384.453 86.2917 386.723C88.1094 388.994 90.0469 391.156 92.099 393.213C94.1563 395.265 96.3177 397.203 98.5885 399.02C100.859 400.833 103.224 402.52 105.682 404.072C108.141 405.63 110.672 407.041 113.286 408.317C115.901 409.588 118.578 410.713 121.318 411.692L121.635 411.812C127.417 413.875 132.859 416.598 137.974 419.989C143.089 423.38 147.719 427.338 151.865 431.859H154.198C149.87 426.947 145 422.661 139.583 418.989C134.167 415.317 128.375 412.38 122.214 410.177Z" fill="url(#paint15_linear_1011_81460)" fill-opacity="0.8"/>
</g>
<mask id="mask16_1011_81460" style="mask-type:luminance" maskUnits="userSpaceOnUse" x="0" y="335" width="97" height="97">
<path d="M0 335.713H96.7135V431.859H0V335.713Z" fill="white"/>
</mask>
<g mask="url(#mask16_1011_81460)">
<path d="M52.3385 386.323C51.3698 383.599 50.25 380.937 48.9844 378.338C47.724 375.739 46.3177 373.213 44.776 370.771C43.2344 368.323 41.5625 365.974 39.7604 363.713C37.9583 361.448 36.0417 359.297 34 357.244C31.9635 355.198 29.8177 353.265 27.5625 351.453C25.3125 349.64 22.9688 347.953 20.5313 346.401C18.0938 344.843 15.5781 343.427 12.9844 342.151C10.3906 340.875 7.73438 339.744 5.01563 338.76L3.19271 338.093C2.11458 337.713 1.05208 337.271 0 336.849V338.713C0.864583 339.062 1.72396 339.406 2.58854 339.724L4.42188 340.39C7.07813 341.354 9.67708 342.463 12.2188 343.713C14.7552 344.963 17.2135 346.349 19.599 347.869C21.9844 349.39 24.276 351.041 26.4792 352.817C28.6823 354.588 30.7813 356.479 32.776 358.484C34.7708 360.494 36.651 362.604 38.4115 364.817C40.1771 367.026 41.8125 369.333 43.3177 371.724C44.8281 374.119 46.2031 376.588 47.4375 379.13C48.6719 381.677 49.7656 384.281 50.7135 386.942C52.4688 391.864 54.6927 396.557 57.3854 401.031C60.0729 405.51 63.1823 409.672 66.7031 413.531C70.2188 417.385 74.0885 420.854 78.3021 423.942C82.5104 427.026 86.9896 429.666 91.724 431.859H96.0417C93.5313 430.843 91.0729 429.698 88.6771 428.427C86.2865 427.151 83.9635 425.755 81.7188 424.234C79.474 422.713 77.3125 421.083 75.2396 419.333C73.1615 417.588 71.1875 415.734 69.3073 413.776C67.4323 411.817 65.6615 409.771 64 407.625C62.3385 405.484 60.7969 403.255 59.3698 400.948C57.9427 398.64 56.6406 396.265 55.4688 393.823C54.2917 391.375 53.25 388.88 52.3385 386.323Z" fill="url(#paint16_linear_1011_81460)" fill-opacity="0.8"/>
</g>
<mask id="mask17_1011_81460" style="mask-type:luminance" maskUnits="userSpaceOnUse" x="0" y="370" width="44" height="62">
<path d="M0 370.38H43.3802V431.859H0V370.38Z" fill="white"/>
</mask>
<g mask="url(#mask17_1011_81460)">
<path d="M0 370.906V373.015C3.18229 375.286 6.17708 377.786 8.97917 380.51C11.7812 383.239 14.3646 386.161 16.7188 389.286C19.0781 392.406 21.1875 395.687 23.0417 399.13C24.901 402.567 26.4844 406.13 27.8021 409.817C30.6615 417.817 34.7031 425.166 39.9375 431.859H42.1406C36.6198 425.036 32.3802 417.5 29.4271 409.239C28.0469 405.375 26.3802 401.64 24.4167 398.041C22.4531 394.437 20.224 391.01 17.7292 387.755C15.2292 384.505 12.4948 381.463 9.52083 378.635C6.54687 375.812 3.375 373.234 0 370.906Z" fill="url(#paint17_linear_1011_81460)" fill-opacity="0.8"/>
</g>
<mask id="mask18_1011_81460" style="mask-type:luminance" maskUnits="userSpaceOnUse" x="0" y="417" width="8" height="15">
<path d="M0 417.047H7.38021V431.859H0V417.047Z" fill="white"/>
</mask>
<g mask="url(#mask18_1011_81460)">
<path d="M0 421.823C1.76042 425.057 3.28125 428.401 4.55729 431.86H6.40625C4.69792 427.141 2.5625 422.625 0 418.318V421.823Z" fill="url(#paint18_linear_1011_81460)" fill-opacity="0.8"/>
</g>
</g>
<defs>
<linearGradient id="paint0_linear_1011_81460" x1="400.939" y1="-0.234853" x2="441.041" y2="8.14111" gradientUnits="userSpaceOnUse">
<stop stop-color="#FF8765"/>
<stop offset="1" stop-color="#FF406C"/>
</linearGradient>
<linearGradient id="paint1_linear_1011_81460" x1="345.022" y1="-0.418134" x2="451.048" y2="34.5122" gradientUnits="userSpaceOnUse">
<stop stop-color="#FF8765"/>
<stop offset="1" stop-color="#FF406C"/>
</linearGradient>
<linearGradient id="paint2_linear_1011_81460" x1="285.221" y1="-0.57336" x2="455.642" y2="68.5693" gradientUnits="userSpaceOnUse">
<stop stop-color="#FF8765"/>
<stop offset="1" stop-color="#FF406C"/>
</linearGradient>
<linearGradient id="paint3_linear_1011_81460" x1="247.417" y1="-0.784043" x2="466.54" y2="80.9883" gradientUnits="userSpaceOnUse">
<stop stop-color="#FF8765"/>
<stop offset="1" stop-color="#FF406C"/>
</linearGradient>
<linearGradient id="paint4_linear_1011_81460" x1="212.845" y1="-1.08294" x2="481.612" y2="85.1434" gradientUnits="userSpaceOnUse">
<stop stop-color="#FF8765"/>
<stop offset="1" stop-color="#FF406C"/>
</linearGradient>
<linearGradient id="paint5_linear_1011_81460" x1="158.349" y1="-1.27112" x2="489.909" y2="111.903" gradientUnits="userSpaceOnUse">
<stop stop-color="#FF8765"/>
<stop offset="1" stop-color="#FF406C"/>
</linearGradient>
<linearGradient id="paint6_linear_1011_81460" x1="97.5107" y1="-1.42528" x2="494.998" y2="146.491" gradientUnits="userSpaceOnUse">
<stop stop-color="#FF8765"/>
<stop offset="1" stop-color="#FF406C"/>
</linearGradient>
<linearGradient id="paint7_linear_1011_81460" x1="58.7826" y1="-1.63005" x2="504.923" y2="160.35" gradientUnits="userSpaceOnUse">
<stop stop-color="#FF8765"/>
<stop offset="1" stop-color="#FF406C"/>
</linearGradient>
<linearGradient id="paint8_linear_1011_81460" x1="23.0469" y1="-1.93173" x2="520.318" y2="165.01" gradientUnits="userSpaceOnUse">
<stop stop-color="#FF8765"/>
<stop offset="1" stop-color="#FF406C"/>
</linearGradient>
<linearGradient id="paint9_linear_1011_81460" x1="-11.8499" y1="1.31164" x2="500.25" y2="173.73" gradientUnits="userSpaceOnUse">
<stop stop-color="#FF8765"/>
<stop offset="1" stop-color="#FF406C"/>
</linearGradient>
<linearGradient id="paint10_linear_1011_81460" x1="-10.8596" y1="52.5325" x2="454.566" y2="215.522" gradientUnits="userSpaceOnUse">
<stop stop-color="#FF8765"/>
<stop offset="1" stop-color="#FF406C"/>
</linearGradient>
<linearGradient id="paint11_linear_1011_81460" x1="-9.77116" y1="113.229" x2="402.369" y2="267.83" gradientUnits="userSpaceOnUse">
<stop stop-color="#FF8765"/>
<stop offset="1" stop-color="#FF406C"/>
</linearGradient>
<linearGradient id="paint12_linear_1011_81460" x1="-8.01612" y1="151.583" x2="335.812" y2="271.961" gradientUnits="userSpaceOnUse">
<stop stop-color="#FF8765"/>
<stop offset="1" stop-color="#FF406C"/>
</linearGradient>
<linearGradient id="paint13_linear_1011_81460" x1="-6.53722" y1="185.165" x2="278.091" y2="277.427" gradientUnits="userSpaceOnUse">
<stop stop-color="#FF8765"/>
<stop offset="1" stop-color="#FF406C"/>
</linearGradient>
<linearGradient id="paint14_linear_1011_81460" x1="-5.55634" y1="235.38" x2="232.353" y2="317.303" gradientUnits="userSpaceOnUse">
<stop stop-color="#FF8765"/>
<stop offset="1" stop-color="#FF406C"/>
</linearGradient>
<linearGradient id="paint15_linear_1011_81460" x1="-4.46317" y1="298.384" x2="179.502" y2="373.631" gradientUnits="userSpaceOnUse">
<stop stop-color="#FF8765"/>
<stop offset="1" stop-color="#FF406C"/>
</linearGradient>
<linearGradient id="paint16_linear_1011_81460" x1="-2.77987" y1="336.409" x2="115.909" y2="378.692" gradientUnits="userSpaceOnUse">
<stop stop-color="#FF8765"/>
<stop offset="1" stop-color="#FF406C"/>
</linearGradient>
<linearGradient id="paint17_linear_1011_81460" x1="-1.21974" y1="370.623" x2="54.1784" y2="384.121" gradientUnits="userSpaceOnUse">
<stop stop-color="#FF8765"/>
<stop offset="1" stop-color="#FF406C"/>
</linearGradient>
<linearGradient id="paint18_linear_1011_81460" x1="-0.185425" y1="418.255" x2="8.49493" y2="419.702" gradientUnits="userSpaceOnUse">
<stop stop-color="#FF8765"/>
<stop offset="1" stop-color="#FF406C"/>
</linearGradient>
</defs>
</svg>
