<svg width="125" height="125" viewBox="0 0 125 125" fill="none" xmlns="http://www.w3.org/2000/svg">
<path d="M82.8477 83.1094H124.639V124.849H82.8477V83.1094Z" fill="white"/>
<path d="M29.3477 29.6836H115.353V115.574H29.3477V29.6836Z" fill="#0EAAFF"/>
<path d="M30.3698 60.6615C13.651 60.6615 0 47.026 0 30.3333C0 13.6354 13.651 0 30.3698 0C36.4063 0 42.349 1.76042 47.3646 5.19271L46.3438 6.77083C41.6094 3.61979 36.1302 1.94792 30.4635 1.94792C14.7656 1.94792 1.94792 14.75 1.94792 30.4271C1.94792 46.099 14.7656 58.901 30.4635 58.901C46.1615 58.901 58.9792 46.099 58.9792 30.4271C58.9792 23.099 56.1927 16.1406 51.0833 10.7604L52.3802 9.46354C57.7708 15.1198 60.7396 22.5417 60.7396 30.4271C60.7396 47.026 47.0885 60.6615 30.3698 60.6615Z" fill="black"/>
</svg>
