<svg xmlns="http://www.w3.org/2000/svg" version="1.1" xmlns:xlink="http://www.w3.org/1999/xlink" width="512" height="512" x="0" y="0" viewBox="0 0 24 24" style="enable-background:new 0 0 512 512" xml:space="preserve" class=""><g><linearGradient id="a" x1="0" x2="0" y1="2.562" y2="20.999" gradientUnits="userSpaceOnUse"><stop offset="0" stop-color="#e100ff"></stop><stop offset="1" stop-color="#7f00ff"></stop></linearGradient><g fill="url(#a)" fill-rule="evenodd" clip-rule="evenodd"><path d="M3.504 7.273C2.327 8.753 2 10.548 2 11.715V19h7.418v-7.254H5.602v-1c0-2.169 1.279-3.351 2.466-3.935a6.283 6.283 0 0 1 1.35-.473V4.594c-3.1.207-4.88 1.378-5.914 2.68zM1.94 6.03c1.576-1.983 4.238-3.467 8.478-3.467h1V8.14l-.944.049H10.455a4.407 4.407 0 0 0-.44.064c-.301.06-.689.168-1.064.352-.482.237-.923.582-1.162 1.14h3.629v11.254H0v-9.284C0 10.25.398 7.966 1.939 6.03zM15.92 7.273c-1.178 1.48-1.505 3.275-1.505 4.442V19h7.418v-7.254h-3.816v-1c0-2.169 1.28-3.351 2.467-3.935a6.283 6.283 0 0 1 1.349-.473V4.594c-3.1.207-4.879 1.378-5.914 2.68zM14.353 6.03c1.576-1.983 4.238-3.467 8.479-3.467h1V8.14l-.945.049H22.87a4.407 4.407 0 0 0-.44.064c-.3.06-.689.168-1.064.352-.482.237-.923.582-1.162 1.14h3.629v11.254H12.415v-9.284c0-1.466.398-3.749 1.939-5.686z" fill="" opacity="1"></path></g></g></svg>