<svg width="279" height="217" viewBox="0 0 279 217" fill="none" xmlns="http://www.w3.org/2000/svg">
<path fill-rule="evenodd" clip-rule="evenodd" d="M40.9551 55.6721C27.1982 72.9705 23.3762 93.9506 23.3762 107.591V192.739H110.079V107.953H65.4768V96.2649C65.4768 70.9134 80.4259 57.098 94.2996 50.2722C99.3317 47.8347 104.626 45.9798 110.079 44.7437V24.3596C73.8455 26.7791 53.0406 40.4659 40.9551 55.6838V55.6721ZM22.6749 41.1438C41.0954 17.9662 72.2091 0.621094 121.767 0.621094H133.455V65.8057L122.421 66.3784H122.199C120.473 66.541 118.757 66.7907 117.056 67.1264C113.538 67.8277 109.003 69.09 104.62 71.2406C98.9866 74.0107 93.8321 78.0431 91.0387 84.5651H133.455V216.103H0V107.591C0 90.4676 4.65187 63.7719 22.6632 41.1438H22.6749ZM186.075 55.6721C172.306 72.9705 168.484 93.9506 168.484 107.591V192.739H255.186V107.953H210.585V96.2649C210.585 70.9134 225.545 57.098 239.419 50.2722C244.447 47.8355 249.737 45.9807 255.186 44.7437V24.3596C218.953 26.7791 198.16 40.4659 186.063 55.6838L186.075 55.6721ZM167.759 41.1438C186.18 17.9662 217.294 0.621094 266.863 0.621094H278.551V65.8057L267.506 66.3784H267.307C265.581 66.541 263.865 66.7907 262.164 67.1264C258.658 67.8277 254.111 69.09 249.728 71.2406C244.094 74.0107 238.94 78.0431 236.147 84.5651H278.563V216.103H145.108V107.591C145.108 90.4559 149.76 63.7719 167.771 41.1321L167.759 41.1438Z" fill="url(#paint0_linear_1074_81648)"/>
<defs>
<linearGradient id="paint0_linear_1074_81648" x1="32.5" y1="5.5" x2="255" y2="217" gradientUnits="userSpaceOnUse">
<stop stop-color="#759FFF"/>
<stop offset="1" stop-color="#2F509A"/>
</linearGradient>
</defs>
</svg>
