<svg width="123" height="58" viewBox="0 0 123 58" fill="none" xmlns="http://www.w3.org/2000/svg">
<mask id="mask0_1009_80767" style="mask-type:luminance" maskUnits="userSpaceOnUse" x="20" y="0" width="103" height="38">
<path d="M20.2109 0H122.352V37.2656H20.2109V0Z" fill="white"/>
</mask>
<g mask="url(#mask0_1009_80767)">
<path d="M20.7578 0.212891H122.352V37.2285H20.7578V0.212891Z" fill="#ED4F5B"/>
</g>
<mask id="mask1_1009_80767" style="mask-type:luminance" maskUnits="userSpaceOnUse" x="0" y="15" width="42" height="43">
<path d="M0 15.9316H41.5469V57.6921H0V15.9316Z" fill="white"/>
</mask>
<g mask="url(#mask1_1009_80767)">
<path d="M20.7604 57.4792C9.27604 57.4792 0 48.1354 0 36.7708C0 25.3177 9.36979 16.0625 20.7604 16.0625C29.9427 16.0625 38.1198 22.2031 40.6927 30.9063L38.9479 31.4583C36.5573 23.4844 29.1198 17.8958 20.7604 17.8958C10.2865 17.8958 1.83854 26.4167 1.83854 36.7708C1.83854 47.2188 10.3802 55.6458 20.7604 55.6458C31.2292 55.6458 39.6823 47.125 39.6823 36.7708H41.5156C41.6094 48.1354 32.2396 57.4792 20.7604 57.4792Z" fill="black"/>
</g>
</svg>
