<svg width="213" height="177" viewBox="0 0 213 177" fill="none" xmlns="http://www.w3.org/2000/svg">
<path d="M148.603 91.916L149.905 38.2077L132.816 36.166L119.629 50.0827L121.02 53.515L107.645 70.4889L148.603 91.916Z" fill="#0EAAFF"/>
<path d="M83.9648 66.5918L73.7461 63.7168L62.694 67.6126L25.4492 128.738L36.1315 136.16L67.8971 101.654L73.0951 72.9928L83.9648 66.5918Z" fill="black"/>
<path d="M84.7539 116.592L96.2227 86.5137L97.9622 87.1751L86.4883 117.253L84.7539 116.592Z" fill="black"/>
<path d="M71.3294 156.843L57.2148 150.166L71.1471 73.0827L88.6992 62.6973L116.751 77.3535L115.913 79.0202L88.793 64.8275L72.819 74.1973L59.2565 149.145L70.3086 154.338L83.1263 120.854L84.8919 121.505L71.3294 156.843Z" fill="black"/>
<path d="M148.605 25.4993V23.6452C150.189 23.6452 151.579 22.3483 151.579 20.6764C151.579 19.0983 150.277 17.7077 148.605 17.7077C147.027 17.7077 145.637 19.0098 145.637 20.6764H143.777C143.777 17.9889 145.913 15.8535 148.605 15.8535C151.303 15.8535 153.439 17.9889 153.439 20.6764C153.439 23.3691 151.21 25.4993 148.605 25.4993Z" fill="black"/>
<path d="M65.6667 149.795L64.7344 149.514L79.3177 103.045L81.8281 101.837L79.4115 97.3835L89.1615 75.3105L119.813 89.4095L119.443 90.2428L89.6302 76.5137L80.526 97.3835L83.125 102.206L80.0625 103.691L65.6667 149.795Z" fill="black"/>
<path d="M132.816 36.166L117.582 42.1973L122.691 52.6764L132.816 36.166Z" fill="#0EAAFF"/>
<path d="M149.905 38.207L161.702 49.8008L146.191 56.8529L149.905 38.207Z" fill="#0EAAFF"/>
<path d="M139.691 35.6074L137.926 35.1439L139.04 30.6022L135.322 27.8158L136.066 20.9564L134.395 18.821L137.926 13.7168L139.504 14.7376L136.717 18.7272L138.02 20.3991L137.275 26.9824L141.176 29.8574L139.691 35.6074Z" fill="black"/>
<path d="M140.251 25.6862C139.876 25.6862 139.413 25.5924 139.137 25.4987L139.413 24.6654C139.6 24.7591 141.272 25.2227 142.012 23.6445L142.85 24.0143C142.293 25.2227 141.178 25.6862 140.251 25.6862Z" fill="black"/>
<path d="M125.387 55.6452C123.533 55.6452 121.949 55.1816 120.835 54.1608C119.074 52.5879 119.074 50.1712 119.074 50.0827V49.8952L127.059 42.1035L127.71 42.7546L120.001 50.265C120.001 50.8223 120.277 52.3066 121.486 53.4212C122.6 54.4421 124.366 54.8119 126.689 54.6243L126.783 55.5514C126.319 55.5514 125.85 55.6452 125.387 55.6452Z" fill="black"/>
<path d="M153.531 53.9785L153.156 53.14L160.865 49.6191L153.901 42.7546L154.552 42.1035L162.536 49.8952L153.531 53.9785Z" fill="black"/>
<path d="M60.0938 150.535L58.2344 160.368L40.8646 168.717L35.0156 168.16V172.613L45.974 176.134L66.7813 171.592L65.849 165.191L69.0104 154.712L60.0938 150.535Z" fill="black"/>
<path d="M28.3281 129.389L22.9375 137.732L8.35938 134.394L3.99479 131.519L0 132.446L3.71354 138.014L26.0052 149.607L28.5104 141.816L35.7552 133.93L28.3281 129.389Z" fill="black"/>
<path d="M194.026 96.7383H187.708L183.156 90.707L184.646 89.5924L188.635 94.8841H191.052L186.781 86.2539L177.026 90.2435L170.25 74.4779L167.37 72.7122L156.688 52.1185L158.359 51.1914L168.76 71.4154L171.734 73.2695L177.958 87.832L187.615 83.8424L194.026 96.7383Z" fill="black"/>
<path d="M197.927 95.4362H191.891V93.582H194.677L190.958 87.4622L188.823 88.4831L188.078 86.8112L191.609 85.0508L197.927 95.4362Z" fill="black"/>
<path d="M170.99 92.5612H169.135V89.7799L161.333 77.9987L159.193 72.6185L151.672 59.5404L153.25 58.6133L160.865 71.8789L163.005 77.2591L170.99 89.2227V92.5612Z" fill="black"/>
<path d="M90.9271 64.457L89.8125 62.9727L94.6458 59.2643H96.8698L118.047 45.4414L118.979 47.0195L97.4271 61.1185H95.2917L90.9271 64.457Z" fill="black"/>
<path d="M199.134 93.2116L197.462 92.2845L198.389 90.8001L193.004 90.2428L193.186 88.3887L201.363 89.222L199.134 93.2116Z" fill="black"/>
<path d="M98.1875 67.3171L110.167 59.5098L111.182 61.0618L99.2031 68.8743L98.1875 67.3171Z" fill="black"/>
<path d="M206.005 20.8626C195.141 10.8418 184.74 13.4408 174.615 16.0397C172.104 16.6855 169.505 17.3366 166.906 17.8001C149.813 20.6751 146.75 5.55534 146.656 5.46159L148.516 5.0918C148.604 5.64909 151.391 18.5449 166.625 15.946C169.042 15.5762 171.547 14.9251 174.151 14.2741C184.182 11.7689 195.604 8.80534 207.214 19.5605L206.005 20.8626Z" fill="black"/>
<path d="M163.188 9.91577C161.797 9.91577 160.495 9.63973 159.286 9.08244C155.849 7.50431 154.828 4.25952 154.734 4.07202L156.5 3.51473C156.5 3.51473 157.339 6.20744 160.031 7.41056C162.354 8.4314 165.417 8.15536 169.042 6.57723L169.318 6.48348C180.281 1.66056 196.906 -5.57381 212.693 7.04077L211.484 8.52515C196.625 -3.34464 181.302 3.33244 170.063 8.2491L169.781 8.34286C167.37 9.35848 165.141 9.91577 163.188 9.91577Z" fill="black"/>
<path d="M195.509 31.7128C191.978 25.593 185.941 20.494 166.717 25.3169C160.4 26.8899 155.108 26.5201 150.926 24.2024L151.858 22.6242C155.572 24.7596 160.493 25.0357 166.254 23.5513C186.78 18.4524 193.374 24.2961 197.087 30.7857L195.509 31.7128Z" fill="black"/>
<path d="M145.078 18.4525C141.917 13.2546 141.641 7.41081 141.641 7.22852L143.5 7.13477C143.5 7.22852 143.776 12.7025 146.656 17.5254L145.078 18.4525Z" fill="black"/>
<path d="M183.066 39.5039C179.535 32.6445 170.525 31.8997 163.004 34.3112C153.993 37.1862 151.02 31.9935 150.832 31.806L152.415 30.8789C152.504 31.0664 154.921 34.9622 162.353 32.5508C170.525 29.9518 180.556 30.7852 184.551 38.6706L183.066 39.5039Z" fill="black"/>
<path d="M139.969 60.7487C139.781 60.7487 139.693 60.7487 139.505 60.7487C135.792 60.4674 133.281 56.4831 133.188 56.2956L134.026 55.832C134.026 55.832 136.438 59.6341 139.599 59.9102C141.359 60.0977 143.031 59.1706 144.703 57.3164L145.448 57.9622C143.682 59.7279 141.828 60.7487 139.969 60.7487Z" fill="black"/>
</svg>
