<svg xmlns="http://www.w3.org/2000/svg" xmlns:xlink="http://www.w3.org/1999/xlink" width="1366" zoomAndPan="magnify" viewBox="0 0 1024.5 44.999999" height="60" preserveAspectRatio="xMidYMid meet" version="1.0"><defs><g/></defs><g fill="#272c3f" fill-opacity="1"><g transform="translate(87.363159, 29.908862)"><g/></g></g><g fill="#272c3f" fill-opacity="1"><g transform="translate(93.783148, 29.908862)"><g><path d="M 10.734375 -3.265625 C 10.554688 -3.710938 10.128906 -4.046875 9.59375 -4.160156 C 9.28125 -4.226562 8.921875 -4.25 8.496094 -4.203125 C 8.160156 -4.179688 7.804688 -4.136719 7.46875 -4.09375 C 7.15625 -4.046875 6.84375 -4.003906 6.507812 -3.957031 C 6.058594 -3.914062 5.679688 -3.890625 5.433594 -4.113281 C 5.234375 -4.316406 5.164062 -4.628906 5.164062 -5.121094 C 5.144531 -6.351562 5.144531 -7.625 5.144531 -8.964844 C 5.144531 -9.546875 5.164062 -10.175781 5.164062 -10.824219 C 5.144531 -11.269531 5.121094 -11.761719 5.097656 -12.277344 C 5.054688 -13.59375 5.007812 -15.09375 4.917969 -16.546875 C 4.851562 -17.417969 4.359375 -18 3.621094 -18.066406 C 3.578125 -18.066406 3.53125 -18.066406 3.511719 -18.066406 C 2.839844 -18.066406 2.347656 -17.597656 2.125 -16.75 C 1.832031 -15.585938 1.585938 -14.625 1.5 -13.617188 L 1.410156 -12.859375 C 1.164062 -10.128906 0.894531 -7.289062 0.828125 -4.515625 C 0.78125 -3.199219 1.09375 -0.894531 3.554688 -0.0429688 C 5.722656 0.691406 7.914062 0.203125 10.261719 -1.519531 C 10.332031 -1.566406 10.398438 -1.65625 10.464844 -1.746094 C 10.824219 -2.28125 10.910156 -2.816406 10.734375 -3.265625 Z M 10.734375 -3.265625 "/></g></g></g><g fill="#272c3f" fill-opacity="1"><g transform="translate(105.433103, 29.908862)"><g><path d="M 9.636719 -10.824219 C 8.765625 -11.71875 7.691406 -12.296875 6.460938 -12.523438 C 4.671875 -12.859375 3.042969 -12.140625 2.035156 -10.644531 C 1.273438 -9.480469 0.960938 -8.183594 0.851562 -6.820312 C 0.558594 -3.554688 2.816406 -0.828125 6.933594 -1.253906 C 7.511719 -1.296875 8.207031 -1.699219 8.632812 -2.125 C 9.414062 -2.953125 9.144531 -3.933594 8.070312 -4.269531 C 7.335938 -4.515625 6.53125 -4.539062 5.769531 -4.671875 C 5.367188 -4.761719 4.988281 -4.898438 4.582031 -5.03125 C 5.96875 -5.277344 7.3125 -5.367188 8.519531 -5.792969 C 10.824219 -6.597656 11.335938 -9.054688 9.636719 -10.824219 Z M 7.648438 -8.675781 C 6.640625 -8.5625 5.613281 -8.453125 4.496094 -8.339844 C 4.671875 -9.011719 4.964844 -9.527344 5.636719 -9.726562 C 6.394531 -9.949219 7.335938 -9.570312 7.914062 -8.789062 C 7.78125 -8.722656 7.714844 -8.675781 7.648438 -8.675781 Z M 7.648438 -8.675781 "/></g></g></g><g fill="#272c3f" fill-opacity="1"><g transform="translate(116.926534, 29.908862)"><g><path d="M 9.324219 -3.867188 C 9.054688 -4.5625 8.476562 -4.785156 7.78125 -4.71875 C 7.421875 -4.695312 7.066406 -4.605469 6.730469 -4.5625 C 6.171875 -4.496094 5.722656 -4.71875 5.636719 -5.277344 C 5.476562 -6.171875 5.410156 -7.066406 5.300781 -7.984375 C 6.105469 -7.984375 6.730469 -7.9375 7.335938 -7.984375 C 8.160156 -8.050781 8.789062 -8.675781 8.855469 -9.4375 C 8.921875 -10.195312 8.40625 -10.910156 7.582031 -11.113281 C 7.066406 -11.246094 6.53125 -11.292969 6.015625 -11.292969 C 5.546875 -11.316406 5.390625 -11.492188 5.390625 -11.964844 C 5.390625 -12.589844 5.367188 -13.238281 5.277344 -13.863281 C 5.164062 -14.78125 4.742188 -15.226562 4.136719 -15.25 C 3.511719 -15.25 3.109375 -14.804688 2.929688 -13.886719 C 2.839844 -13.371094 2.726562 -12.835938 2.707031 -12.320312 C 2.660156 -11.71875 2.394531 -11.472656 1.855469 -11.246094 C 1.429688 -11.070312 1.007812 -10.578125 0.871094 -10.152344 C 0.671875 -9.546875 1.117188 -9.078125 1.675781 -8.855469 C 2.125 -8.675781 2.214844 -8.40625 2.214844 -7.984375 C 2.214844 -7.066406 2.257812 -6.148438 2.347656 -5.234375 C 2.480469 -3.933594 3.085938 -2.882812 4.136719 -2.078125 C 5.433594 -1.09375 7.714844 -1.117188 8.832031 -2.167969 C 9.324219 -2.636719 9.59375 -3.199219 9.324219 -3.867188 Z M 9.324219 -3.867188 "/></g></g></g><g fill="#272c3f" fill-opacity="1"><g transform="translate(127.21248, 29.908862)"><g><path d="M 3.21875 -13.460938 C 3.199219 -13.863281 3.175781 -14.265625 3.152344 -14.667969 C 3.128906 -14.757812 3.085938 -14.871094 3.0625 -14.960938 C 2.773438 -15.628906 2.101562 -15.808594 1.585938 -15.363281 C 0.851562 -14.691406 0.535156 -12.1875 1.117188 -11.335938 C 1.585938 -10.621094 2.234375 -10.554688 2.683594 -11.292969 C 3.042969 -11.917969 3.152344 -12.699219 3.375 -13.394531 C 3.332031 -13.417969 3.285156 -13.4375 3.21875 -13.460938 Z M 3.21875 -13.460938 "/></g></g></g><g fill="#272c3f" fill-opacity="1"><g transform="translate(131.438666, 29.908862)"><g><path d="M 8.519531 -6.460938 C 7.667969 -7.246094 6.53125 -7.738281 5.5 -8.363281 C 5.210938 -8.542969 4.898438 -8.652344 4.515625 -8.855469 C 5.320312 -9.792969 6.105469 -9.929688 7.179688 -9.347656 C 7.667969 -9.101562 8.207031 -8.878906 8.585938 -9.324219 C 8.878906 -9.660156 9.054688 -10.242188 9.011719 -10.667969 C 8.878906 -11.785156 8.140625 -12.476562 7.089844 -12.8125 C 4.964844 -13.484375 2.28125 -12.367188 1.253906 -10.398438 C 0.558594 -9.054688 0.671875 -7.625 1.8125 -6.640625 C 2.550781 -6.015625 3.488281 -5.65625 4.359375 -5.234375 C 4.875 -4.964844 5.433594 -4.828125 5.96875 -4.628906 C 5.949219 -4.539062 5.925781 -4.449219 5.902344 -4.339844 C 5.1875 -4.40625 4.496094 -4.472656 3.800781 -4.5625 C 2.773438 -4.671875 1.96875 -4.339844 1.65625 -3.621094 C 1.320312 -2.863281 1.519531 -1.855469 2.347656 -1.339844 C 3.0625 -0.894531 3.914062 -0.535156 4.71875 -0.46875 C 5.613281 -0.425781 6.550781 -0.648438 7.402344 -0.960938 C 10.019531 -1.945312 10.578125 -4.5625 8.519531 -6.460938 Z M 8.519531 -6.460938 "/></g></g></g><g fill="#272c3f" fill-opacity="1"><g transform="translate(142.060028, 29.908862)"><g/></g></g><g fill="#272c3f" fill-opacity="1"><g transform="translate(148.477569, 29.908862)"><g><path d="M 9.929688 -4.046875 C 9.613281 -4.023438 9.300781 -3.957031 8.988281 -3.867188 C 8.742188 -3.777344 8.476562 -3.710938 8.230469 -3.667969 C 7.199219 -3.511719 6.285156 -3.398438 5.433594 -3.355469 C 5.234375 -3.332031 5.03125 -3.488281 4.941406 -3.578125 C 4.851562 -3.667969 4.671875 -3.824219 4.671875 -4.023438 C 4.628906 -4.652344 4.628906 -5.300781 4.628906 -5.925781 C 4.628906 -6.148438 4.628906 -6.371094 4.628906 -6.574219 L 4.628906 -6.820312 L 4.875 -6.820312 C 5.300781 -6.84375 5.722656 -6.863281 6.148438 -6.886719 C 7.179688 -6.933594 8.160156 -6.976562 9.144531 -7.066406 C 9.613281 -7.109375 10.152344 -7.265625 10.667969 -7.511719 C 11.089844 -7.714844 11.558594 -8.140625 11.515625 -8.878906 C 11.449219 -9.503906 11.070312 -9.949219 10.464844 -10.085938 C 9.773438 -10.242188 8.964844 -10.285156 8.140625 -10.21875 C 7.492188 -10.152344 6.820312 -10.019531 6.125 -9.882812 C 5.8125 -9.816406 5.5 -9.75 5.164062 -9.703125 L 4.875 -9.660156 L 4.875 -10.753906 C 4.875 -11.335938 4.875 -11.894531 4.898438 -12.453125 C 4.898438 -13.035156 4.898438 -13.328125 5.097656 -13.527344 C 5.300781 -13.707031 5.589844 -13.707031 6.148438 -13.683594 L 6.730469 -13.640625 C 7.648438 -13.59375 8.585938 -13.550781 9.503906 -13.59375 C 10.957031 -13.683594 11.917969 -14.511719 11.875 -15.628906 C 11.875 -16.121094 11.648438 -16.589844 11.269531 -16.925781 C 10.84375 -17.308594 10.261719 -17.53125 9.59375 -17.53125 C 9.527344 -17.53125 9.457031 -17.53125 9.414062 -17.53125 C 8.003906 -17.441406 6.574219 -17.238281 5.210938 -17.039062 L 4.226562 -16.90625 C 3.890625 -16.859375 3.511719 -16.679688 3.21875 -16.523438 C 2.304688 -16.011719 1.96875 -15.40625 2.148438 -14.558594 C 2.167969 -14.378906 2.148438 -14.175781 2.101562 -13.996094 L 2.101562 -13.886719 C 1.988281 -13.261719 1.855469 -12.613281 1.746094 -11.964844 C 1.519531 -10.621094 1.253906 -9.234375 1.074219 -7.847656 C 0.828125 -6.214844 0.625 -4.316406 1.140625 -2.460938 C 1.542969 -1.007812 2.414062 -0.132812 3.734375 0.132812 C 5.992188 0.605469 8.09375 0.359375 9.996094 -0.582031 C 10.421875 -0.78125 10.824219 -1.09375 11.15625 -1.453125 C 11.671875 -2.011719 11.804688 -2.617188 11.515625 -3.21875 C 11.15625 -3.980469 10.441406 -4.09375 9.929688 -4.046875 Z M 9.929688 -4.046875 "/></g></g></g><g fill="#272c3f" fill-opacity="1"><g transform="translate(161.200841, 29.908862)"><g><path d="M 8.273438 -7.3125 C 8.832031 -7.78125 9.390625 -8.273438 9.792969 -8.878906 C 9.996094 -9.167969 9.996094 -9.839844 9.773438 -10.105469 C 9.570312 -10.375 8.921875 -10.507812 8.585938 -10.398438 C 7.828125 -10.175781 7.109375 -9.792969 6.460938 -9.371094 C 5.859375 -8.964844 5.457031 -8.855469 4.988281 -9.527344 C 4.761719 -9.859375 4.40625 -10.085938 4.070312 -10.332031 C 3.554688 -10.734375 2.996094 -10.957031 2.394531 -10.554688 C 1.765625 -10.152344 1.65625 -9.503906 1.855469 -8.855469 C 2.035156 -8.273438 2.324219 -7.691406 2.636719 -7.15625 C 2.90625 -6.6875 2.839844 -6.394531 2.527344 -6.015625 C 1.921875 -5.277344 1.339844 -4.539062 0.917969 -3.710938 C 0.738281 -3.332031 0.804688 -2.59375 1.074219 -2.347656 C 1.363281 -2.058594 2.035156 -1.988281 2.503906 -2.078125 C 2.90625 -2.148438 3.285156 -2.527344 3.621094 -2.816406 C 3.980469 -3.109375 4.292969 -3.445312 4.652344 -3.777344 C 5.320312 -2.996094 5.859375 -2.234375 6.53125 -1.585938 C 7.265625 -0.871094 8.316406 -0.804688 8.964844 -1.296875 C 9.636719 -1.8125 9.792969 -2.773438 9.28125 -3.734375 C 8.921875 -4.40625 8.476562 -5.03125 8.027344 -5.636719 C 7.355469 -6.574219 7.355469 -6.550781 8.273438 -7.3125 Z M 8.273438 -7.3125 "/></g></g></g><g fill="#272c3f" fill-opacity="1"><g transform="translate(172.001084, 29.908862)"><g><path d="M 10.421875 -8.585938 C 9.480469 -10.488281 7.894531 -11.226562 5.835938 -10.6875 C 5.121094 -10.488281 4.425781 -10.152344 3.710938 -9.882812 C 3.644531 -9.949219 3.554688 -10.019531 3.488281 -10.105469 C 2.839844 -10.710938 2.167969 -10.578125 1.96875 -9.683594 C 1.699219 -8.5625 1.632812 -7.378906 1.320312 -6.261719 C 0.425781 -2.929688 1.074219 0.46875 0.828125 3.824219 C 0.804688 3.867188 0.828125 3.933594 0.851562 3.980469 C 1.027344 4.808594 1.65625 5.410156 2.460938 5.476562 C 3.265625 5.546875 4.023438 5.074219 4.292969 4.25 C 4.425781 3.824219 4.472656 3.332031 4.472656 2.863281 C 4.515625 1.699219 4.496094 0.535156 4.496094 -0.714844 C 4.851562 -0.648438 5.074219 -0.605469 5.320312 -0.582031 C 7.984375 -0.132812 10.753906 -1.945312 11.089844 -4.40625 C 11.292969 -5.859375 11.070312 -7.265625 10.421875 -8.585938 Z M 5.679688 -4.425781 C 4.09375 -4.539062 3.933594 -4.828125 4.71875 -6.261719 C 5.164062 -7.089844 5.722656 -7.714844 6.664062 -7.984375 C 7.355469 -8.160156 7.78125 -7.914062 7.914062 -7.265625 C 8.339844 -5.164062 7.738281 -4.25 5.679688 -4.425781 Z M 5.679688 -4.425781 "/></g></g></g><g fill="#272c3f" fill-opacity="1"><g transform="translate(184.031169, 29.908862)"><g><path d="M 4.023438 -14.265625 C 3.980469 -14.847656 3.933594 -15.472656 3.667969 -15.964844 C 3.488281 -16.324219 2.972656 -16.726562 2.59375 -16.726562 C 2.214844 -16.726562 1.765625 -16.324219 1.476562 -15.988281 C 1.273438 -15.71875 1.207031 -15.292969 1.164062 -14.914062 C 0.960938 -12.699219 0.78125 -5.636719 0.828125 -4.339844 C 0.828125 -3.777344 0.917969 -3.21875 1.050781 -2.683594 C 1.296875 -1.832031 1.902344 -1.339844 2.59375 -1.320312 C 3.285156 -1.296875 3.980469 -1.746094 4.203125 -2.59375 C 4.425781 -3.554688 4.605469 -4.539062 4.5625 -5.523438 C 4.449219 -8.429688 4.226562 -11.359375 4.023438 -14.265625 Z M 4.023438 -14.265625 "/></g></g></g><g fill="#272c3f" fill-opacity="1"><g transform="translate(189.442473, 29.908862)"><g><path d="M 7.871094 -10.488281 C 7.355469 -10.554688 6.84375 -10.644531 6.328125 -10.777344 C 5.410156 -11.046875 4.539062 -10.933594 3.734375 -10.441406 C 1.878906 -9.324219 0.691406 -7.714844 0.378906 -5.546875 C 0.113281 -3.691406 0.9375 -2.234375 2.707031 -1.632812 C 3.601562 -1.320312 4.539062 -1.207031 5.457031 -1.007812 C 6.84375 -0.984375 7.984375 -1.429688 8.945312 -2.371094 C 10.105469 -3.488281 10.710938 -4.898438 10.933594 -6.484375 C 11.203125 -8.496094 9.90625 -10.195312 7.871094 -10.488281 Z M 7.222656 -6.195312 C 6.796875 -4.964844 6.371094 -4.5625 5.5 -4.605469 C 3.757812 -4.695312 3.488281 -5.1875 4.359375 -6.730469 C 4.425781 -6.84375 4.496094 -6.953125 4.5625 -7.066406 C 5.410156 -8.316406 5.589844 -8.316406 6.820312 -7.46875 C 7.3125 -7.109375 7.421875 -6.753906 7.222656 -6.195312 Z M 7.222656 -6.195312 "/></g></g></g><g fill="#272c3f" fill-opacity="1"><g transform="translate(200.958261, 29.908862)"><g><path d="M 10.019531 -8.878906 C 9.75 -9.839844 9.054688 -10.507812 8.160156 -10.980469 C 6.730469 -11.695312 5.320312 -11.648438 3.914062 -10.890625 C 3.710938 -11.359375 3.644531 -11.851562 3.355469 -12.164062 C 3.042969 -12.5 2.527344 -12.859375 2.125 -12.8125 C 1.746094 -12.789062 1.339844 -12.296875 1.050781 -11.941406 C 0.894531 -11.761719 0.894531 -11.402344 0.894531 -11.136719 C 0.851562 -8.476562 0.828125 -5.792969 0.828125 -3.128906 C 0.804688 -2.863281 0.871094 -2.570312 0.9375 -2.304688 C 1.183594 -1.230469 2.035156 -0.558594 3.085938 -0.625 C 4.09375 -0.691406 4.898438 -1.476562 5.007812 -2.550781 C 5.054688 -3.0625 4.898438 -3.601562 5.007812 -4.070312 C 5.253906 -5.144531 5.566406 -6.214844 5.925781 -7.246094 C 6.125 -7.828125 6.597656 -7.9375 7.179688 -7.667969 C 7.601562 -7.445312 8.050781 -7.179688 8.519531 -7.15625 C 8.945312 -7.109375 9.570312 -7.199219 9.816406 -7.492188 C 10.0625 -7.804688 10.152344 -8.453125 10.019531 -8.878906 Z M 10.019531 -8.878906 "/></g></g></g><g fill="#272c3f" fill-opacity="1"><g transform="translate(211.892672, 29.908862)"><g><path d="M 9.636719 -10.824219 C 8.765625 -11.71875 7.691406 -12.296875 6.460938 -12.523438 C 4.671875 -12.859375 3.042969 -12.140625 2.035156 -10.644531 C 1.273438 -9.480469 0.960938 -8.183594 0.851562 -6.820312 C 0.558594 -3.554688 2.816406 -0.828125 6.933594 -1.253906 C 7.511719 -1.296875 8.207031 -1.699219 8.632812 -2.125 C 9.414062 -2.953125 9.144531 -3.933594 8.070312 -4.269531 C 7.335938 -4.515625 6.53125 -4.539062 5.769531 -4.671875 C 5.367188 -4.761719 4.988281 -4.898438 4.582031 -5.03125 C 5.96875 -5.277344 7.3125 -5.367188 8.519531 -5.792969 C 10.824219 -6.597656 11.335938 -9.054688 9.636719 -10.824219 Z M 7.648438 -8.675781 C 6.640625 -8.5625 5.613281 -8.453125 4.496094 -8.339844 C 4.671875 -9.011719 4.964844 -9.527344 5.636719 -9.726562 C 6.394531 -9.949219 7.335938 -9.570312 7.914062 -8.789062 C 7.78125 -8.722656 7.714844 -8.675781 7.648438 -8.675781 Z M 7.648438 -8.675781 "/></g></g></g><g fill="#272c3f" fill-opacity="1"><g transform="translate(223.386103, 29.908862)"><g/></g></g><g fill="#272c3f" fill-opacity="1"><g transform="translate(229.803644, 29.908862)"><g><path d="M 9.324219 -3.867188 C 9.054688 -4.5625 8.476562 -4.785156 7.78125 -4.71875 C 7.421875 -4.695312 7.066406 -4.605469 6.730469 -4.5625 C 6.171875 -4.496094 5.722656 -4.71875 5.636719 -5.277344 C 5.476562 -6.171875 5.410156 -7.066406 5.300781 -7.984375 C 6.105469 -7.984375 6.730469 -7.9375 7.335938 -7.984375 C 8.160156 -8.050781 8.789062 -8.675781 8.855469 -9.4375 C 8.921875 -10.195312 8.40625 -10.910156 7.582031 -11.113281 C 7.066406 -11.246094 6.53125 -11.292969 6.015625 -11.292969 C 5.546875 -11.316406 5.390625 -11.492188 5.390625 -11.964844 C 5.390625 -12.589844 5.367188 -13.238281 5.277344 -13.863281 C 5.164062 -14.78125 4.742188 -15.226562 4.136719 -15.25 C 3.511719 -15.25 3.109375 -14.804688 2.929688 -13.886719 C 2.839844 -13.371094 2.726562 -12.835938 2.707031 -12.320312 C 2.660156 -11.71875 2.394531 -11.472656 1.855469 -11.246094 C 1.429688 -11.070312 1.007812 -10.578125 0.871094 -10.152344 C 0.671875 -9.546875 1.117188 -9.078125 1.675781 -8.855469 C 2.125 -8.675781 2.214844 -8.40625 2.214844 -7.984375 C 2.214844 -7.066406 2.257812 -6.148438 2.347656 -5.234375 C 2.480469 -3.933594 3.085938 -2.882812 4.136719 -2.078125 C 5.433594 -1.09375 7.714844 -1.117188 8.832031 -2.167969 C 9.324219 -2.636719 9.59375 -3.199219 9.324219 -3.867188 Z M 9.324219 -3.867188 "/></g></g></g><g fill="#272c3f" fill-opacity="1"><g transform="translate(240.089591, 29.908862)"><g><path d="M 11.558594 -5.769531 C 11.359375 -6.863281 11.113281 -8.003906 10.644531 -9.035156 C 9.59375 -11.449219 7.757812 -11.984375 5.457031 -10.734375 C 5.410156 -10.710938 5.367188 -10.710938 5.1875 -10.667969 C 5.097656 -11.113281 5.007812 -11.492188 4.917969 -11.894531 C 4.582031 -13.550781 4.269531 -15.226562 3.890625 -16.882812 C 3.691406 -17.753906 3.109375 -18.222656 2.4375 -18.222656 C 1.746094 -18.203125 1.164062 -17.664062 1.007812 -16.769531 C 0.894531 -16.234375 0.78125 -15.652344 0.828125 -15.117188 C 0.984375 -12.210938 1.140625 -9.28125 1.386719 -6.371094 C 1.476562 -5.210938 1.746094 -4.023438 2.035156 -2.882812 C 2.234375 -2.148438 2.816406 -1.699219 3.621094 -1.675781 C 4.472656 -1.65625 5.054688 -2.125 5.277344 -2.882812 C 5.546875 -3.734375 5.722656 -4.605469 5.835938 -5.476562 C 6.015625 -6.664062 6.574219 -7.601562 7.558594 -8.476562 C 7.738281 -8.003906 7.9375 -7.667969 7.984375 -7.335938 C 8.117188 -6.53125 8.160156 -5.703125 8.296875 -4.917969 C 8.386719 -4.316406 8.453125 -3.691406 8.675781 -3.128906 C 9.035156 -2.191406 10.039062 -2.078125 10.667969 -2.863281 C 11.335938 -3.710938 11.738281 -4.695312 11.558594 -5.769531 Z M 11.558594 -5.769531 "/></g></g><g transform="translate(252.544545, 29.908862)"><g><path d="M 9.636719 -10.824219 C 8.765625 -11.71875 7.691406 -12.296875 6.460938 -12.523438 C 4.671875 -12.859375 3.042969 -12.140625 2.035156 -10.644531 C 1.273438 -9.480469 0.960938 -8.183594 0.851562 -6.820312 C 0.558594 -3.554688 2.816406 -0.828125 6.933594 -1.253906 C 7.511719 -1.296875 8.207031 -1.699219 8.632812 -2.125 C 9.414062 -2.953125 9.144531 -3.933594 8.070312 -4.269531 C 7.335938 -4.515625 6.53125 -4.539062 5.769531 -4.671875 C 5.367188 -4.761719 4.988281 -4.898438 4.582031 -5.03125 C 5.96875 -5.277344 7.3125 -5.367188 8.519531 -5.792969 C 10.824219 -6.597656 11.335938 -9.054688 9.636719 -10.824219 Z M 7.648438 -8.675781 C 6.640625 -8.5625 5.613281 -8.453125 4.496094 -8.339844 C 4.671875 -9.011719 4.964844 -9.527344 5.636719 -9.726562 C 6.394531 -9.949219 7.335938 -9.570312 7.914062 -8.789062 C 7.78125 -8.722656 7.714844 -8.675781 7.648438 -8.675781 Z M 7.648438 -8.675781 "/></g></g><g transform="translate(264.037986, 29.908862)"><g/></g></g><g fill="#272c3f" fill-opacity="1"><g transform="translate(270.455516, 29.908862)"><g><path d="M 12.679688 -16.457031 C 12.5 -16.503906 12.320312 -16.546875 12.121094 -16.570312 C 11.359375 -16.660156 10.597656 -16.703125 9.839844 -16.703125 C 8.296875 -16.703125 6.753906 -16.546875 5.253906 -16.367188 C 4.316406 -16.277344 3.355469 -16.167969 2.394531 -16.101562 C 2.371094 -16.101562 2.347656 -16.078125 2.304688 -16.078125 L 2.234375 -16.054688 C 1.296875 -15.785156 0.78125 -15.226562 0.828125 -14.445312 C 0.851562 -13.707031 1.363281 -13.191406 2.304688 -12.96875 C 2.527344 -12.925781 2.75 -12.902344 2.996094 -12.878906 C 3.511719 -12.8125 4.023438 -12.769531 4.539062 -12.722656 L 5.277344 -12.632812 L 5.300781 -12.253906 C 5.300781 -12.140625 5.300781 -12.050781 5.300781 -11.941406 C 5.300781 -11.15625 5.277344 -10.375 5.253906 -9.59375 C 5.210938 -7.667969 5.1875 -5.703125 5.1875 -3.757812 C 5.1875 -3.0625 5.320312 -2.304688 5.589844 -1.609375 C 5.859375 -0.917969 6.460938 -0.515625 7.265625 -0.515625 C 8.050781 -0.515625 8.652344 -0.917969 8.921875 -1.65625 C 9.144531 -2.214844 9.257812 -2.816406 9.234375 -3.355469 C 9.191406 -4.828125 9.035156 -6.285156 8.898438 -7.511719 C 8.765625 -8.652344 8.609375 -9.792969 8.453125 -10.980469 C 8.363281 -11.515625 8.296875 -12.074219 8.230469 -12.632812 L 8.183594 -12.902344 L 10.242188 -12.902344 C 10.464844 -12.902344 10.6875 -12.902344 10.910156 -12.878906 C 11.382812 -12.878906 11.894531 -12.878906 12.367188 -12.902344 C 13.328125 -12.992188 14.042969 -13.640625 14.132812 -14.535156 C 14.199219 -15.40625 13.640625 -16.167969 12.679688 -16.457031 Z M 12.679688 -16.457031 "/></g></g></g><g fill="#272c3f" fill-opacity="1"><g transform="translate(285.437231, 29.908862)"><g><path d="M 10.019531 -8.878906 C 9.75 -9.839844 9.054688 -10.507812 8.160156 -10.980469 C 6.730469 -11.695312 5.320312 -11.648438 3.914062 -10.890625 C 3.710938 -11.359375 3.644531 -11.851562 3.355469 -12.164062 C 3.042969 -12.5 2.527344 -12.859375 2.125 -12.8125 C 1.746094 -12.789062 1.339844 -12.296875 1.050781 -11.941406 C 0.894531 -11.761719 0.894531 -11.402344 0.894531 -11.136719 C 0.851562 -8.476562 0.828125 -5.792969 0.828125 -3.128906 C 0.804688 -2.863281 0.871094 -2.570312 0.9375 -2.304688 C 1.183594 -1.230469 2.035156 -0.558594 3.085938 -0.625 C 4.09375 -0.691406 4.898438 -1.476562 5.007812 -2.550781 C 5.054688 -3.0625 4.898438 -3.601562 5.007812 -4.070312 C 5.253906 -5.144531 5.566406 -6.214844 5.925781 -7.246094 C 6.125 -7.828125 6.597656 -7.9375 7.179688 -7.667969 C 7.601562 -7.445312 8.050781 -7.179688 8.519531 -7.15625 C 8.945312 -7.109375 9.570312 -7.199219 9.816406 -7.492188 C 10.0625 -7.804688 10.152344 -8.453125 10.019531 -8.878906 Z M 10.019531 -8.878906 "/></g></g></g><g fill="#272c3f" fill-opacity="1"><g transform="translate(296.371651, 29.908862)"><g><path d="M 11.492188 -4.472656 C 11.15625 -6.015625 10.910156 -7.601562 10.578125 -9.167969 C 10.464844 -9.660156 10.332031 -10.308594 9.972656 -10.597656 C 8.898438 -11.425781 7.714844 -12.140625 6.214844 -11.894531 C 3.601562 -11.425781 1.050781 -8.5625 0.828125 -5.769531 C 0.625 -3.199219 2.683594 -1.410156 5.234375 -2.011719 C 5.902344 -2.191406 6.53125 -2.570312 7.15625 -2.882812 C 7.378906 -2.996094 7.558594 -3.175781 7.78125 -3.332031 C 7.894531 -3.175781 7.984375 -3.085938 8.050781 -2.972656 C 8.789062 -1.855469 9.75 -1.429688 10.644531 -1.8125 C 11.515625 -2.191406 11.785156 -3.128906 11.492188 -4.472656 Z M 5.007812 -5.253906 C 4.761719 -5.164062 4.40625 -5.144531 4.179688 -5.253906 C 4.046875 -5.320312 4.046875 -5.792969 4.136719 -6.015625 C 4.628906 -7.402344 5.410156 -8.519531 6.910156 -9.144531 C 7.179688 -7.421875 6.371094 -5.792969 5.007812 -5.253906 Z M 5.007812 -5.253906 "/></g></g></g><g fill="#272c3f" fill-opacity="1"><g transform="translate(308.826587, 29.908862)"><g><path d="M 10.308594 -9.660156 C 9.054688 -11.335938 7.109375 -11.605469 5.410156 -10.398438 C 4.917969 -10.039062 4.472656 -9.613281 3.957031 -9.167969 C 3.867188 -9.347656 3.824219 -9.457031 3.777344 -9.59375 C 3.578125 -10.285156 3.265625 -10.933594 2.414062 -10.910156 C 1.519531 -10.867188 1.253906 -10.128906 1.183594 -9.414062 C 1.027344 -7.355469 0.871094 -5.300781 0.828125 -3.242188 C 0.78125 -2.101562 1.542969 -1.320312 2.527344 -1.207031 C 3.511719 -1.09375 4.359375 -1.722656 4.628906 -2.863281 C 4.988281 -4.449219 5.859375 -5.769531 6.84375 -7.019531 C 7 -7.222656 7.222656 -7.355469 7.535156 -7.648438 C 7.648438 -7.066406 7.714844 -6.6875 7.757812 -6.285156 C 7.914062 -5.234375 7.984375 -4.136719 8.25 -3.085938 C 8.476562 -2.191406 9.234375 -1.746094 10.019531 -1.765625 C 10.734375 -1.8125 11.425781 -2.347656 11.558594 -3.242188 C 11.917969 -5.523438 11.71875 -7.738281 10.308594 -9.660156 Z M 10.308594 -9.660156 "/></g></g></g><g fill="#272c3f" fill-opacity="1"><g transform="translate(321.393334, 29.908862)"><g><path d="M 8.519531 -6.460938 C 7.667969 -7.246094 6.53125 -7.738281 5.5 -8.363281 C 5.210938 -8.542969 4.898438 -8.652344 4.515625 -8.855469 C 5.320312 -9.792969 6.105469 -9.929688 7.179688 -9.347656 C 7.667969 -9.101562 8.207031 -8.878906 8.585938 -9.324219 C 8.878906 -9.660156 9.054688 -10.242188 9.011719 -10.667969 C 8.878906 -11.785156 8.140625 -12.476562 7.089844 -12.8125 C 4.964844 -13.484375 2.28125 -12.367188 1.253906 -10.398438 C 0.558594 -9.054688 0.671875 -7.625 1.8125 -6.640625 C 2.550781 -6.015625 3.488281 -5.65625 4.359375 -5.234375 C 4.875 -4.964844 5.433594 -4.828125 5.96875 -4.628906 C 5.949219 -4.539062 5.925781 -4.449219 5.902344 -4.339844 C 5.1875 -4.40625 4.496094 -4.472656 3.800781 -4.5625 C 2.773438 -4.671875 1.96875 -4.339844 1.65625 -3.621094 C 1.320312 -2.863281 1.519531 -1.855469 2.347656 -1.339844 C 3.0625 -0.894531 3.914062 -0.535156 4.71875 -0.46875 C 5.613281 -0.425781 6.550781 -0.648438 7.402344 -0.960938 C 10.019531 -1.945312 10.578125 -4.5625 8.519531 -6.460938 Z M 8.519531 -6.460938 "/></g></g><g transform="translate(332.014704, 29.908862)"><g><path d="M 5.703125 -16.347656 C 3.980469 -15.652344 2.796875 -14.398438 2.324219 -12.5 C 2.078125 -11.558594 2.011719 -10.597656 1.921875 -9.636719 C 1.878906 -9.167969 1.8125 -8.855469 1.410156 -8.585938 C 0.605469 -8.070312 0.605469 -6.910156 1.453125 -6.484375 C 2.167969 -6.125 2.324219 -5.589844 2.394531 -4.875 C 2.414062 -4.382812 2.4375 -3.847656 2.617188 -3.375 C 2.972656 -2.371094 3.398438 -1.386719 3.890625 -0.445312 C 4.023438 -0.179688 4.5625 0.0664062 4.828125 0 C 5.144531 -0.0898438 5.433594 -0.515625 5.613281 -0.851562 C 5.746094 -1.117188 5.722656 -1.5 5.722656 -1.832031 C 5.703125 -2.972656 5.703125 -4.113281 5.636719 -5.253906 C 5.613281 -5.769531 5.746094 -5.925781 6.214844 -5.949219 C 6.820312 -5.992188 7.421875 -6.039062 7.984375 -6.195312 C 8.878906 -6.417969 9.390625 -7.179688 9.28125 -8.027344 C 9.191406 -8.832031 8.542969 -9.390625 7.648438 -9.4375 C 7.445312 -9.457031 7.222656 -9.4375 7.019531 -9.414062 C 5.433594 -9.28125 5.476562 -8.921875 5.589844 -11.023438 C 5.613281 -11.136719 5.636719 -11.226562 5.65625 -11.316406 C 5.925781 -12.523438 6.574219 -13.082031 7.738281 -13.082031 C 8.117188 -13.101562 8.496094 -13.101562 8.878906 -13.125 C 9.414062 -13.148438 9.90625 -13.28125 10.085938 -13.863281 C 10.308594 -14.488281 10.0625 -15.027344 9.613281 -15.429688 C 8.832031 -16.1875 7.847656 -16.480469 6.707031 -16.613281 C 6.417969 -16.546875 6.039062 -16.480469 5.703125 -16.347656 Z M 5.703125 -16.347656 "/></g></g></g><g fill="#272c3f" fill-opacity="1"><g transform="translate(343.060917, 29.908862)"><g><path d="M 7.871094 -10.488281 C 7.355469 -10.554688 6.84375 -10.644531 6.328125 -10.777344 C 5.410156 -11.046875 4.539062 -10.933594 3.734375 -10.441406 C 1.878906 -9.324219 0.691406 -7.714844 0.378906 -5.546875 C 0.113281 -3.691406 0.9375 -2.234375 2.707031 -1.632812 C 3.601562 -1.320312 4.539062 -1.207031 5.457031 -1.007812 C 6.84375 -0.984375 7.984375 -1.429688 8.945312 -2.371094 C 10.105469 -3.488281 10.710938 -4.898438 10.933594 -6.484375 C 11.203125 -8.496094 9.90625 -10.195312 7.871094 -10.488281 Z M 7.222656 -6.195312 C 6.796875 -4.964844 6.371094 -4.5625 5.5 -4.605469 C 3.757812 -4.695312 3.488281 -5.1875 4.359375 -6.730469 C 4.425781 -6.84375 4.496094 -6.953125 4.5625 -7.066406 C 5.410156 -8.316406 5.589844 -8.316406 6.820312 -7.46875 C 7.3125 -7.109375 7.421875 -6.753906 7.222656 -6.195312 Z M 7.222656 -6.195312 "/></g></g></g><g fill="#272c3f" fill-opacity="1"><g transform="translate(354.576705, 29.908862)"><g><path d="M 10.019531 -8.878906 C 9.75 -9.839844 9.054688 -10.507812 8.160156 -10.980469 C 6.730469 -11.695312 5.320312 -11.648438 3.914062 -10.890625 C 3.710938 -11.359375 3.644531 -11.851562 3.355469 -12.164062 C 3.042969 -12.5 2.527344 -12.859375 2.125 -12.8125 C 1.746094 -12.789062 1.339844 -12.296875 1.050781 -11.941406 C 0.894531 -11.761719 0.894531 -11.402344 0.894531 -11.136719 C 0.851562 -8.476562 0.828125 -5.792969 0.828125 -3.128906 C 0.804688 -2.863281 0.871094 -2.570312 0.9375 -2.304688 C 1.183594 -1.230469 2.035156 -0.558594 3.085938 -0.625 C 4.09375 -0.691406 4.898438 -1.476562 5.007812 -2.550781 C 5.054688 -3.0625 4.898438 -3.601562 5.007812 -4.070312 C 5.253906 -5.144531 5.566406 -6.214844 5.925781 -7.246094 C 6.125 -7.828125 6.597656 -7.9375 7.179688 -7.667969 C 7.601562 -7.445312 8.050781 -7.179688 8.519531 -7.15625 C 8.945312 -7.109375 9.570312 -7.199219 9.816406 -7.492188 C 10.0625 -7.804688 10.152344 -8.453125 10.019531 -8.878906 Z M 10.019531 -8.878906 "/></g></g></g><g fill="#272c3f" fill-opacity="1"><g transform="translate(365.511108, 29.908862)"><g><path d="M 17.398438 -4.964844 C 17.21875 -6.550781 17.0625 -8.160156 16.121094 -9.546875 C 14.824219 -11.492188 12.679688 -11.738281 11 -10.105469 C 10.777344 -9.90625 10.621094 -9.613281 10.421875 -9.347656 C 8.339844 -11.738281 7.757812 -11.738281 4.605469 -9.503906 C 4.515625 -9.882812 4.515625 -10.308594 4.339844 -10.597656 C 4.09375 -10.980469 3.710938 -11.425781 3.332031 -11.472656 C 2.953125 -11.539062 2.4375 -11.226562 2.101562 -10.933594 C 1.855469 -10.734375 1.699219 -10.332031 1.65625 -9.996094 C 1.363281 -7.894531 1.074219 -5.769531 0.828125 -3.667969 C 0.78125 -3.332031 0.894531 -2.953125 1.007812 -2.617188 C 1.296875 -1.765625 1.988281 -1.230469 2.796875 -1.183594 C 3.644531 -1.140625 4.359375 -1.609375 4.742188 -2.503906 C 4.875 -2.839844 4.941406 -3.199219 5.074219 -3.53125 C 5.476562 -4.671875 5.882812 -5.835938 6.371094 -6.933594 C 6.597656 -7.445312 7.066406 -7.847656 7.421875 -8.316406 C 7.535156 -8.273438 7.648438 -8.230469 7.757812 -8.207031 C 7.804688 -7.335938 7.894531 -6.460938 7.894531 -5.589844 C 7.894531 -4.742188 7.78125 -3.914062 7.804688 -3.085938 C 7.828125 -1.921875 8.585938 -1.117188 9.59375 -1.09375 C 10.578125 -1.050781 11.359375 -1.765625 11.492188 -2.882812 C 11.558594 -3.308594 11.539062 -3.757812 11.582031 -4.179688 C 11.648438 -5.300781 12.1875 -6.214844 12.835938 -7.089844 C 12.925781 -7.066406 12.992188 -7.042969 13.058594 -7.042969 C 13.101562 -6.550781 13.101562 -6.039062 13.191406 -5.546875 C 13.417969 -4.496094 13.574219 -3.398438 13.976562 -2.414062 C 14.289062 -1.609375 15.070312 -1.207031 15.988281 -1.363281 C 16.75 -1.5 17.328125 -2.167969 17.417969 -3.128906 C 17.484375 -3.734375 17.464844 -4.359375 17.398438 -4.964844 Z M 17.398438 -4.964844 "/></g></g></g><g fill="#272c3f" fill-opacity="1"><g transform="translate(383.824557, 29.908862)"><g><path d="M 11.492188 -4.472656 C 11.15625 -6.015625 10.910156 -7.601562 10.578125 -9.167969 C 10.464844 -9.660156 10.332031 -10.308594 9.972656 -10.597656 C 8.898438 -11.425781 7.714844 -12.140625 6.214844 -11.894531 C 3.601562 -11.425781 1.050781 -8.5625 0.828125 -5.769531 C 0.625 -3.199219 2.683594 -1.410156 5.234375 -2.011719 C 5.902344 -2.191406 6.53125 -2.570312 7.15625 -2.882812 C 7.378906 -2.996094 7.558594 -3.175781 7.78125 -3.332031 C 7.894531 -3.175781 7.984375 -3.085938 8.050781 -2.972656 C 8.789062 -1.855469 9.75 -1.429688 10.644531 -1.8125 C 11.515625 -2.191406 11.785156 -3.128906 11.492188 -4.472656 Z M 5.007812 -5.253906 C 4.761719 -5.164062 4.40625 -5.144531 4.179688 -5.253906 C 4.046875 -5.320312 4.046875 -5.792969 4.136719 -6.015625 C 4.628906 -7.402344 5.410156 -8.519531 6.910156 -9.144531 C 7.179688 -7.421875 6.371094 -5.792969 5.007812 -5.253906 Z M 5.007812 -5.253906 "/></g></g></g><g fill="#272c3f" fill-opacity="1"><g transform="translate(396.279493, 29.908862)"><g><path d="M 9.324219 -3.867188 C 9.054688 -4.5625 8.476562 -4.785156 7.78125 -4.71875 C 7.421875 -4.695312 7.066406 -4.605469 6.730469 -4.5625 C 6.171875 -4.496094 5.722656 -4.71875 5.636719 -5.277344 C 5.476562 -6.171875 5.410156 -7.066406 5.300781 -7.984375 C 6.105469 -7.984375 6.730469 -7.9375 7.335938 -7.984375 C 8.160156 -8.050781 8.789062 -8.675781 8.855469 -9.4375 C 8.921875 -10.195312 8.40625 -10.910156 7.582031 -11.113281 C 7.066406 -11.246094 6.53125 -11.292969 6.015625 -11.292969 C 5.546875 -11.316406 5.390625 -11.492188 5.390625 -11.964844 C 5.390625 -12.589844 5.367188 -13.238281 5.277344 -13.863281 C 5.164062 -14.78125 4.742188 -15.226562 4.136719 -15.25 C 3.511719 -15.25 3.109375 -14.804688 2.929688 -13.886719 C 2.839844 -13.371094 2.726562 -12.835938 2.707031 -12.320312 C 2.660156 -11.71875 2.394531 -11.472656 1.855469 -11.246094 C 1.429688 -11.070312 1.007812 -10.578125 0.871094 -10.152344 C 0.671875 -9.546875 1.117188 -9.078125 1.675781 -8.855469 C 2.125 -8.675781 2.214844 -8.40625 2.214844 -7.984375 C 2.214844 -7.066406 2.257812 -6.148438 2.347656 -5.234375 C 2.480469 -3.933594 3.085938 -2.882812 4.136719 -2.078125 C 5.433594 -1.09375 7.714844 -1.117188 8.832031 -2.167969 C 9.324219 -2.636719 9.59375 -3.199219 9.324219 -3.867188 Z M 9.324219 -3.867188 "/></g></g></g><g fill="#272c3f" fill-opacity="1"><g transform="translate(406.565431, 29.908862)"><g><path d="M 4.136719 -9.546875 C 4.113281 -10.175781 3.777344 -10.667969 3.109375 -10.753906 C 2.414062 -10.84375 1.902344 -10.441406 1.789062 -9.816406 C 1.410156 -7.648438 1.027344 -5.433594 0.828125 -3.242188 C 0.714844 -2.078125 1.429688 -1.339844 2.234375 -1.273438 C 3.0625 -1.207031 3.734375 -1.902344 3.957031 -3.085938 C 4.023438 -3.53125 4.070312 -4.003906 4.09375 -4.449219 C 4.113281 -5.121094 4.179688 -8.519531 4.136719 -9.546875 Z M 2.480469 -12.679688 C 3.21875 -12.65625 3.890625 -13.328125 3.914062 -14.15625 C 3.914062 -14.914062 3.332031 -15.519531 2.570312 -15.496094 C 1.8125 -15.496094 1.183594 -14.890625 1.183594 -14.109375 C 1.183594 -13.328125 1.746094 -12.699219 2.480469 -12.679688 Z M 2.480469 -12.679688 "/></g></g></g><g fill="#272c3f" fill-opacity="1"><g transform="translate(411.574258, 29.908862)"><g><path d="M 7.871094 -10.488281 C 7.355469 -10.554688 6.84375 -10.644531 6.328125 -10.777344 C 5.410156 -11.046875 4.539062 -10.933594 3.734375 -10.441406 C 1.878906 -9.324219 0.691406 -7.714844 0.378906 -5.546875 C 0.113281 -3.691406 0.9375 -2.234375 2.707031 -1.632812 C 3.601562 -1.320312 4.539062 -1.207031 5.457031 -1.007812 C 6.84375 -0.984375 7.984375 -1.429688 8.945312 -2.371094 C 10.105469 -3.488281 10.710938 -4.898438 10.933594 -6.484375 C 11.203125 -8.496094 9.90625 -10.195312 7.871094 -10.488281 Z M 7.222656 -6.195312 C 6.796875 -4.964844 6.371094 -4.5625 5.5 -4.605469 C 3.757812 -4.695312 3.488281 -5.1875 4.359375 -6.730469 C 4.425781 -6.84375 4.496094 -6.953125 4.5625 -7.066406 C 5.410156 -8.316406 5.589844 -8.316406 6.820312 -7.46875 C 7.3125 -7.109375 7.421875 -6.753906 7.222656 -6.195312 Z M 7.222656 -6.195312 "/></g></g></g><g fill="#272c3f" fill-opacity="1"><g transform="translate(423.090046, 29.908862)"><g><path d="M 10.308594 -9.660156 C 9.054688 -11.335938 7.109375 -11.605469 5.410156 -10.398438 C 4.917969 -10.039062 4.472656 -9.613281 3.957031 -9.167969 C 3.867188 -9.347656 3.824219 -9.457031 3.777344 -9.59375 C 3.578125 -10.285156 3.265625 -10.933594 2.414062 -10.910156 C 1.519531 -10.867188 1.253906 -10.128906 1.183594 -9.414062 C 1.027344 -7.355469 0.871094 -5.300781 0.828125 -3.242188 C 0.78125 -2.101562 1.542969 -1.320312 2.527344 -1.207031 C 3.511719 -1.09375 4.359375 -1.722656 4.628906 -2.863281 C 4.988281 -4.449219 5.859375 -5.769531 6.84375 -7.019531 C 7 -7.222656 7.222656 -7.355469 7.535156 -7.648438 C 7.648438 -7.066406 7.714844 -6.6875 7.757812 -6.285156 C 7.914062 -5.234375 7.984375 -4.136719 8.25 -3.085938 C 8.476562 -2.191406 9.234375 -1.746094 10.019531 -1.765625 C 10.734375 -1.8125 11.425781 -2.347656 11.558594 -3.242188 C 11.917969 -5.523438 11.71875 -7.738281 10.308594 -9.660156 Z M 10.308594 -9.660156 "/></g></g></g></svg>